<svg width="988" height="236" viewBox="0 0 988 236" fill="none" xmlns="http://www.w3.org/2000/svg">
<path d="M2.25 1.95C0.75 1.95 0 2.7 0 4.2V104.7C0 106.2 0.75 106.95 2.25 106.95C3.75 106.95 4.5 106.2 4.5 104.7V8.7C4.5 7.20001 5.25 6.45001 6.75 6.45001H36.6C42.75 6.45001 48.6 8.85 52.95 13.2C57.45 17.7 59.85 23.55 59.85 29.7C59.85 35.85 57.45 41.7 52.95 46.2C50.7 48.45 48.6 51.3 42.6 51.3H40.05C38.55 51.3 37.8 52.05 37.8 53.55V53.85C37.8 55.35 38.55 56.1 40.05 56.1H45C50.1 56.1 55.35 59.1 58.95 62.7C63.45 67.2 65.85 73.05 65.85 79.2C65.85 85.35 63.45 91.2 58.95 95.7C54.6 100.05 48.75 102.45 42.6 102.45H23.7C22.2 102.45 21.45 101.7 21.45 100.2V92.25C21.45 90.75 22.2 90 23.7 90H42.6C48.6 90 53.4 85.2 53.4 79.2C53.4 73.2 48.6 68.25 42.6 68.25H23.7C22.2 68.25 21.45 67.5 21.45 66V42.75C21.45 41.25 22.2 40.5 23.7 40.5H36.6C42.6 40.5 47.4 35.7 47.4 29.7C47.4 23.7 42.6 18.75 36.6 18.75H19.2C17.7 18.75 16.95 19.5 16.95 21C16.95 22.5 17.7 23.25 19.2 23.25H36.6C40.05 23.25 42.9 26.25 42.9 29.7C42.9 33.15 40.05 36 36.6 36H19.2C17.7 36 16.95 36.75 16.95 38.25V70.5C16.95 72 17.7 72.75 19.2 72.75H42.6C46.05 72.75 48.9 75.75 48.9 79.2C48.9 82.65 46.05 85.5 42.6 85.5H19.2C17.7 85.5 16.95 86.25 16.95 87.75V104.7C16.95 106.2 17.7 106.95 19.2 106.95H42.6C57.9 106.95 70.35 94.5 70.35 79.2C70.35 67.95 63.75 58.35 54.15 54C52.65 53.25 52.65 52.35 54 51.3C60.3 46.2 64.35 38.4 64.35 29.7C64.35 14.55 52.05 1.95 36.9 1.95H2.25Z" fill="#09FBD3"/>
<path d="M143.887 88.2C143.887 86.7 143.137 85.95 141.637 85.95H107.888C106.388 85.95 105.638 86.7 105.638 88.2C105.638 89.7 106.388 90.45 107.888 90.45H137.137C138.637 90.45 139.387 91.2 139.387 92.7V100.2C139.387 101.7 138.637 102.45 137.137 102.45H103.388C101.888 102.45 101.138 101.7 101.138 100.2V4.2C101.138 2.7 100.388 1.95 98.8875 1.95H80.8875C79.3875 1.95 78.6375 2.7 78.6375 4.2V104.7C78.6375 106.2 79.3875 106.95 80.8875 106.95C82.3875 106.95 83.1375 106.2 83.1375 104.7V8.7C83.1375 7.20001 83.8875 6.45001 85.3875 6.45001H94.3875C95.8875 6.45001 96.6375 7.20001 96.6375 8.7V104.7C96.6375 106.2 97.3875 106.95 98.8875 106.95H141.637C143.137 106.95 143.887 106.2 143.887 104.7V88.2Z" fill="#09FBD3"/>
<path d="M203.382 1.95C202.032 1.95 201.282 2.55 200.832 3.75001L169.032 100.65C168.582 101.85 167.832 102.45 166.482 102.45H158.382C156.732 102.45 155.982 101.4 156.582 99.9L187.782 4.5C188.382 3.00001 187.632 1.95 186.132 1.95C184.782 1.95 184.032 2.55 183.582 3.75001L150.582 104.4C149.982 105.9 150.732 106.95 152.382 106.95H169.482C170.832 106.95 171.582 106.35 172.032 105.15L202.932 10.8C203.682 8.85 205.182 8.85 205.932 10.8L235.182 99.9C235.782 101.4 235.032 102.45 233.382 102.45H224.532C223.182 102.45 222.432 101.85 221.982 100.65L214.182 76.8C213.732 75.6 212.982 75 211.632 75H193.932C192.282 75 191.532 73.95 192.132 72.45L194.382 65.55C194.832 64.35 195.582 63.75 196.932 63.75H207.132C208.782 63.75 209.532 62.7 208.932 61.2L201.582 38.55C200.832 36.6 199.332 36.6 198.582 38.55L198.282 39.6C197.982 40.65 197.982 41.55 198.282 42.6L202.932 56.7C203.532 58.2 202.782 59.25 201.132 59.25H193.782C192.432 59.25 191.682 59.85 191.232 61.05L186.132 76.95C185.532 78.45 186.282 79.5 187.932 79.5H208.632C209.982 79.5 210.732 80.1 211.182 81.3L218.832 105.15C219.282 106.35 220.032 106.95 221.382 106.95H239.232C240.882 106.95 241.632 105.9 241.032 104.4L208.032 3.75001C207.582 2.55 206.832 1.95 205.482 1.95H203.382Z" fill="#09FBD3"/>
<path d="M308.138 99.75C309.038 101.4 308.438 102.45 306.638 102.45H297.938C296.737 102.45 295.837 102 295.237 100.8L280.237 72.9C279.637 71.85 279.637 70.95 280.237 69.9L315.488 4.65C316.388 3.00001 315.637 1.95 313.987 1.95H295.538C294.337 1.95 293.438 2.4 292.837 3.60001L266.138 52.8C265.538 53.85 265.388 54.6 265.388 55.65V100.2C265.388 101.7 264.638 102.45 263.138 102.45H254.137C252.637 102.45 251.887 101.7 251.887 100.2V8.7C251.887 7.20001 252.637 6.45001 254.137 6.45001H263.138C264.638 6.45001 265.388 7.20001 265.388 8.7V39C265.388 41.25 267.038 41.7 268.087 39.75L269.138 37.8C269.738 36.75 269.888 36 269.888 34.95V4.2C269.888 2.7 269.138 1.95 267.638 1.95H249.637C248.137 1.95 247.387 2.7 247.387 4.2V104.7C247.387 106.2 248.137 106.95 249.637 106.95H267.638C269.138 106.95 269.888 106.2 269.888 104.7V55.95C270.038 54.9 270.188 54.15 270.788 53.1L295.237 8.1C295.837 6.9 296.737 6.45001 297.938 6.45001H306.638C308.288 6.45001 309.038 7.5 308.138 9.15001L275.288 69.9C274.688 70.95 274.688 71.85 275.288 72.9L292.837 105.3C293.438 106.5 294.337 106.95 295.538 106.95H313.987C315.637 106.95 316.388 105.9 315.488 104.25L292.538 61.95C291.638 60.3 290.438 60.3 289.538 61.95L289.388 62.1C288.938 63.15 288.938 64.05 289.538 65.1L308.138 99.75Z" fill="#09FBD3"/>
<path d="M381.456 4.2C381.456 2.7 380.706 1.95 379.206 1.95H325.956C324.456 1.95 323.706 2.7 323.706 4.2V61.5C323.706 63 324.456 63.75 325.956 63.75H338.706C340.206 63.75 340.956 64.5 340.956 66V87C340.956 88.5 341.706 89.25 343.206 89.25H374.706C376.206 89.25 376.956 90 376.956 91.5V100.2C376.956 101.7 376.206 102.45 374.706 102.45H330.456C328.956 102.45 328.206 101.7 328.206 100.2V70.5C328.206 69 327.456 68.25 325.956 68.25C324.456 68.25 323.706 69 323.706 70.5V104.7C323.706 106.2 324.456 106.95 325.956 106.95H379.206C380.706 106.95 381.456 106.2 381.456 104.7V87C381.456 85.5 380.706 84.75 379.206 84.75H347.706C346.206 84.75 345.456 84 345.456 82.5V61.5C345.456 60 344.706 59.25 343.206 59.25H330.456C328.956 59.25 328.206 58.5 328.206 57V8.7C328.206 7.20001 328.956 6.45001 330.456 6.45001H374.706C376.206 6.45001 376.956 7.20001 376.956 8.7V17.25C376.956 18.75 376.206 19.5 374.706 19.5H343.206C341.706 19.5 340.956 20.25 340.956 21.75V45C340.956 46.5 341.706 47.25 343.206 47.25H365.706C367.206 47.25 367.956 48 367.956 49.5V57C367.956 58.5 367.206 59.25 365.706 59.25H352.206C350.706 59.25 349.956 60 349.956 61.5C349.956 63 350.706 63.75 352.206 63.75H370.206C371.706 63.75 372.456 63 372.456 61.5V45C372.456 43.5 371.706 42.75 370.206 42.75H347.706C346.206 42.75 345.456 42 345.456 40.5V26.25C345.456 24.75 346.206 24 347.706 24H379.206C380.706 24 381.456 23.25 381.456 21.75V4.2Z" fill="#09FBD3"/>
<path d="M465.353 61.35C464.603 63 463.103 63 462.353 61.35L447.953 32.25C446.903 30.15 445.253 30.6 445.253 32.85V100.2C445.253 101.7 444.503 102.45 443.003 102.45H434.753C433.253 102.45 432.503 101.7 432.503 100.2V8.7C432.503 7.20001 433.253 6.45001 434.753 6.45001H447.203C448.403 6.45001 449.303 6.9 449.753 8.1L467.003 42.3C467.753 43.95 469.253 43.95 470.003 42.3L470.153 42C470.603 40.95 470.603 40.05 470.153 39L452.453 3.60001C452.003 2.4 451.103 1.95 449.903 1.95H430.253C428.753 1.95 428.003 2.7 428.003 4.2V104.7C428.003 106.2 428.753 106.95 430.253 106.95H447.503C449.003 106.95 449.753 106.2 449.753 104.7V51.45C449.753 49.2 451.403 48.75 452.453 50.85L462.353 70.8C463.103 72.45 464.603 72.45 465.353 70.8L496.853 8.1C497.303 6.9 498.203 6.45001 499.403 6.45001H511.853C513.353 6.45001 514.103 7.20001 514.103 8.7V100.2C514.103 101.7 513.353 102.45 511.853 102.45H503.603C502.103 102.45 501.353 101.7 501.353 100.2V33C501.353 30.75 499.703 30.3 498.653 32.4L496.853 36L474.053 81.9C473.603 82.95 473.603 83.85 474.053 84.9L474.503 85.65C475.103 86.85 476.303 86.55 477.053 84.9L494.153 50.7C495.203 48.75 496.853 49.2 496.853 51.45V104.7C496.853 106.2 497.603 106.95 499.103 106.95H516.353C517.853 106.95 518.603 106.2 518.603 104.7V4.2C518.603 2.7 517.853 1.95 516.353 1.95H497.153C495.953 1.95 495.053 2.4 494.603 3.60001L465.353 61.35Z" fill="#09FBD3"/>
<path d="M578.089 1.95C576.74 1.95 575.989 2.55 575.539 3.75001L543.739 100.65C543.289 101.85 542.539 102.45 541.189 102.45H533.089C531.439 102.45 530.689 101.4 531.289 99.9L562.489 4.5C563.089 3.00001 562.339 1.95 560.839 1.95C559.49 1.95 558.739 2.55 558.289 3.75001L525.289 104.4C524.689 105.9 525.439 106.95 527.089 106.95H544.189C545.539 106.95 546.289 106.35 546.739 105.15L577.639 10.8C578.389 8.85 579.889 8.85 580.639 10.8L609.889 99.9C610.489 101.4 609.74 102.45 608.089 102.45H599.239C597.889 102.45 597.139 101.85 596.689 100.65L588.889 76.8C588.439 75.6 587.689 75 586.339 75H568.639C566.989 75 566.24 73.95 566.839 72.45L569.089 65.55C569.539 64.35 570.289 63.75 571.639 63.75H581.839C583.49 63.75 584.239 62.7 583.639 61.2L576.289 38.55C575.539 36.6 574.039 36.6 573.289 38.55L572.989 39.6C572.689 40.65 572.689 41.55 572.989 42.6L577.639 56.7C578.239 58.2 577.49 59.25 575.839 59.25H568.489C567.139 59.25 566.389 59.85 565.939 61.05L560.839 76.95C560.24 78.45 560.989 79.5 562.639 79.5H583.339C584.689 79.5 585.439 80.1 585.889 81.3L593.539 105.15C593.989 106.35 594.74 106.95 596.089 106.95H613.939C615.589 106.95 616.339 105.9 615.739 104.4L582.739 3.75001C582.289 2.55 581.539 1.95 580.189 1.95H578.089Z" fill="#09FBD3"/>
<path d="M634.643 54.9C635.693 53.85 635.693 52.8 634.493 51.75C627.743 45.9 622.493 39 622.493 29.7C622.493 15.9 633.743 4.5 647.693 4.5C659.843 4.5 670.193 13.5 672.293 25.05C672.593 26.55 671.693 27.45 670.193 27.45H661.493C660.143 27.45 659.543 26.85 659.093 25.5C657.293 20.85 652.793 17.55 647.693 17.55C640.943 17.55 635.393 22.95 635.393 29.7C635.393 36 640.343 40.95 646.493 45.9C647.693 46.95 647.843 48 646.793 49.05L639.743 56.1L638.243 57.75C637.193 58.8 637.343 59.85 638.543 60.9L640.193 62.1L641.093 62.85C648.743 68.55 655.343 73.5 655.343 79.2C655.343 83.4 651.893 86.85 647.693 86.85C643.343 86.85 639.893 83.4 639.893 79.2V78C639.893 77.4 639.143 76.95 637.643 76.95H620.243C618.743 76.95 617.993 77.7 617.993 79.2C617.993 95.55 631.343 108.9 647.693 108.9C663.893 108.9 677.243 95.55 677.243 79.2C677.243 72.15 674.693 65.7 669.443 59.55C666.893 56.55 663.743 53.7 660.593 51C659.543 50.1 658.493 50.1 657.443 51.15L657.293 51.3C656.243 52.35 656.393 53.4 657.593 54.45C665.543 60.9 672.743 68.55 672.743 79.2C672.743 93 661.493 104.25 647.693 104.25C635.393 104.25 625.043 95.4 622.943 83.85C622.643 82.35 623.543 81.45 625.043 81.45H633.743C635.093 81.45 635.693 82.05 636.143 83.4C637.943 88.05 642.443 91.35 647.693 91.35C654.293 91.35 659.843 85.95 659.843 79.2C659.843 71.25 652.043 65.4 643.793 59.25L643.643 59.1C643.493 58.95 643.943 58.35 645.143 57.15L652.043 50.1L653.693 48.45C654.743 47.55 654.893 46.65 654.143 46.05L651.743 44.25C645.143 39.3 639.893 34.8 639.893 29.7C639.893 25.5 643.343 22.05 647.693 22.05C651.893 22.05 655.343 25.5 655.343 29.7V30.75C655.343 31.5 656.093 31.95 657.593 31.95H674.993C676.493 31.95 677.243 31.2 677.243 29.7C677.243 13.35 663.893 0 647.693 0C631.343 0 617.993 13.35 617.993 29.7C617.993 36.75 620.543 43.2 625.793 49.35C627.443 51.3 629.393 53.25 631.343 55.05C632.393 56.1 633.593 55.95 634.493 55.05L634.643 54.9Z" fill="#09FBD3"/>
<path d="M685.282 1.95C683.782 1.95 683.032 2.7 683.032 4.2V21.45C683.032 22.95 683.782 23.7 685.282 23.7H703.282C704.782 23.7 705.532 22.95 705.532 21.45C705.532 19.95 704.782 19.2 703.282 19.2H689.782C688.282 19.2 687.532 18.45 687.532 16.95V8.7C687.532 7.20001 688.282 6.45001 689.782 6.45001H752.782C754.282 6.45001 755.032 7.20001 755.032 8.7V16.95C755.032 18.45 754.282 19.2 752.782 19.2H712.282C710.782 19.2 710.032 19.95 710.032 21.45V104.7C710.032 106.2 710.782 106.95 712.282 106.95H730.282C731.782 106.95 732.532 106.2 732.532 104.7V30.45C732.532 28.95 731.782 28.2 730.282 28.2C728.782 28.2 728.032 28.95 728.032 30.45V100.2C728.032 101.7 727.282 102.45 725.782 102.45H716.782C715.282 102.45 714.532 101.7 714.532 100.2V25.95C714.532 24.45 715.282 23.7 716.782 23.7H757.282C758.782 23.7 759.532 22.95 759.532 21.45V4.2C759.532 2.7 758.782 1.95 757.282 1.95H685.282Z" fill="#09FBD3"/>
<path d="M833.7 106.95C835.35 106.95 836.1 105.9 835.35 104.25L818.55 65.4C817.95 64.05 815.7 64.35 815.7 64.35C814.5 65.1 814.05 66.15 814.65 67.35L829.35 99.75C830.1 101.4 829.35 102.45 827.7 102.45H819.15C817.95 102.45 817.05 101.85 816.6 100.8L801.3 66.6C800.7 65.1 801.3 64.2 802.95 63.9C805.95 63.6 808.8 62.7 811.5 61.5C812.7 60.9 814.05 60.3 815.25 59.55C824.1 54 829.95 44.25 829.95 33C829.95 15.9 816 1.95 798.9 1.95H769.95C768.45 1.95 767.7 2.7 767.7 4.2V104.7C767.7 106.2 768.45 106.95 769.95 106.95H787.95C789.45 106.95 790.2 106.2 790.2 104.7V48.75C790.2 47.25 790.95 46.5 792.45 46.5H798.9C806.4 46.5 812.4 40.5 812.4 33C812.4 25.65 806.4 19.5 798.9 19.5H788.1C786.6 19.5 785.85 20.25 785.85 21.75C785.85 23.25 786.6 24 788.1 24H798.9C803.85 24 807.9 28.05 807.9 33C807.9 38.1 803.85 42 798.9 42H787.95C786.45 42 785.7 42.75 785.7 44.25V100.2C785.7 101.7 784.95 102.45 783.45 102.45H774.45C772.95 102.45 772.2 101.7 772.2 100.2V8.7C772.2 7.20001 772.95 6.45001 774.45 6.45001H798.9C805.95 6.45001 812.55 9.15001 817.65 14.25C822.75 19.35 825.45 25.95 825.45 33C825.45 40.2 822.75 46.8 817.65 51.9C816.45 53.1 815.1 54.15 813.75 55.05C812.55 55.95 811.35 56.7 810 57.3C806.55 58.8 802.8 59.7 798.9 59.7H796.5C795 59.7 794.4 60.75 795 62.25L795.75 64.2L813.6 105.3C814.05 106.35 814.95 106.95 816.15 106.95H833.7Z" fill="#09FBD3"/>
<path d="M890.739 1.95C889.239 1.95 888.489 2.7 888.489 4.2V73.8C888.489 77.55 886.839 80.85 884.289 83.1C883.389 83.85 882.939 84.6 882.939 85.8V86.7C882.939 88.2 884.139 88.8 885.639 87.75C889.989 84.75 892.989 79.65 892.989 73.8V8.7C892.989 7.20001 893.739 6.45001 895.239 6.45001H904.389C905.889 6.45001 906.639 7.20001 906.639 8.7V73.8C906.789 77.85 905.889 81.9 904.389 85.65C902.739 89.25 900.639 92.55 897.789 95.4C894.939 98.25 891.639 100.35 888.039 102C885.789 102.9 883.389 103.5 880.839 103.95C879.339 104.25 878.439 103.35 878.439 101.85V88.35C878.439 86.85 876.189 86.1 876.189 86.1C869.289 86.1 863.739 80.55 863.739 73.8V4.2C863.739 2.7 862.989 1.95 861.489 1.95H843.339C841.839 1.95 841.089 2.7 841.089 4.2V73.8C841.089 89.85 852.039 103.5 866.889 107.55C868.539 108 869.439 107.25 869.439 105.6C869.439 104.25 868.839 103.5 867.489 103.05C866.439 102.75 865.389 102.45 864.189 102C860.589 100.35 857.289 98.25 854.589 95.4C851.739 92.55 849.489 89.25 847.989 85.65C846.339 81.9 845.589 77.85 845.589 73.8V8.7C845.589 7.20001 846.339 6.45001 847.839 6.45001H856.989C858.489 6.45001 859.239 7.20001 859.239 8.7V73.8C859.239 81.6 864.639 88.2 871.989 90C873.189 90.45 873.939 91.2 873.939 92.55V106.5C873.939 108 875.889 108.9 876.039 108.9C876.189 108.9 876.189 108.9 876.189 108.9C895.539 108.9 911.289 93.15 911.289 73.65C911.289 72.6 911.289 72.15 911.289 72.15V4.2C911.289 2.7 910.539 1.95 909.039 1.95H890.739Z" fill="#09FBD3"/>
<path d="M940.276 1.95C938.776 1.95 938.026 2.7 938.026 4.2V87.15C938.026 88.65 938.776 89.4 940.276 89.4H952.276C962.176 89.4 970.276 81.3 970.276 71.4V37.65C970.276 27.6 962.176 19.65 952.276 19.65H948.976C947.476 19.65 946.726 20.4 946.726 21.9C946.726 23.4 947.476 24.15 948.976 24.15H952.276C959.776 24.15 965.776 30.15 965.776 37.65V71.4C965.776 78.9 959.776 84.9 952.276 84.9H944.776C943.276 84.9 942.526 84.15 942.526 82.65V8.7C942.526 7.20001 943.276 6.45001 944.776 6.45001H953.776C961.576 6.45001 968.926 9.45 974.476 15C980.026 20.55 983.026 27.9 983.026 35.7V73.2C983.026 81 980.026 88.35 974.476 93.9C968.926 99.45 961.576 102.45 953.776 102.45H927.526C926.026 102.45 925.276 101.7 925.276 100.2V4.2C925.276 2.7 924.526 1.95 923.026 1.95C921.526 1.95 920.776 2.7 920.776 4.2V104.7C920.776 106.2 921.526 106.95 923.026 106.95H953.776C972.376 106.95 987.526 91.8 987.526 73.2V35.7C987.526 17.1 972.376 1.95 953.776 1.95H940.276Z" fill="#09FBD3"/>
<path d="M182.08 150C181 150 180.28 150.48 180.04 151.56L173.32 186.48C172.96 188.28 171.52 188.28 171.16 186.48L164.56 151.56C164.32 150.48 163.6 150 162.52 150H161.08C160 150 159.28 150.48 159.04 151.56L144.28 228.84C144.04 229.92 143.32 230.4 142.24 230.4H132.76C131.68 230.4 130.96 229.92 130.72 228.84L116.68 155.52C116.44 154.32 117.04 153.6 118.36 153.6H124.84C125.92 153.6 126.64 154.08 126.88 155.16L136.36 205.2C136.72 207 138.16 207 138.52 205.2L148.84 151.92C149.08 150.72 148.48 150 147.28 150C146.2 150 145.48 150.48 145.24 151.56L138.52 186.48C138.16 188.28 136.72 188.28 136.36 186.48L129.76 151.56C129.52 150.48 128.8 150 127.72 150H114.04C112.72 150 112.12 150.72 112.36 151.92L127.84 232.44C128.08 233.52 128.8 234 129.88 234H145.12C146.2 234 146.92 233.52 147.16 232.44L160.72 161.76C161.08 159.96 162.52 159.96 162.88 161.76L171.16 205.2C171.52 207 172.96 207 173.32 205.2L182.92 155.16C183.16 154.08 183.88 153.6 184.96 153.6H191.44C192.76 153.6 193.36 154.32 193.12 155.52L179.08 228.84C178.84 229.92 178.12 230.4 177.04 230.4H167.56C166.48 230.4 165.76 229.92 165.52 228.84L159.64 197.64C159.28 195.96 157.84 195.96 157.48 197.64L157 200.4C156.76 201.12 156.76 201.84 157 202.56L162.64 232.44C162.88 233.52 163.6 234 164.68 234H179.92C181 234 181.72 233.52 181.96 232.44L197.44 151.92C197.68 150.72 197.08 150 195.76 150H182.08Z" fill="#09FBD3"/>
<path d="M249.958 151.8C249.958 150.6 249.358 150 248.158 150H205.558C204.358 150 203.758 150.6 203.758 151.8V197.64C203.758 198.84 204.358 199.44 205.558 199.44H215.758C216.958 199.44 217.558 200.04 217.558 201.24V218.04C217.558 219.24 218.158 219.84 219.358 219.84H244.558C245.758 219.84 246.358 220.44 246.358 221.64V228.6C246.358 229.8 245.758 230.4 244.558 230.4H209.158C207.958 230.4 207.358 229.8 207.358 228.6V204.84C207.358 203.64 206.758 203.04 205.558 203.04C204.358 203.04 203.758 203.64 203.758 204.84V232.2C203.758 233.4 204.358 234 205.558 234H248.158C249.358 234 249.958 233.4 249.958 232.2V218.04C249.958 216.84 249.358 216.24 248.158 216.24H222.958C221.758 216.24 221.158 215.64 221.158 214.44V197.64C221.158 196.44 220.558 195.84 219.358 195.84H209.158C207.958 195.84 207.358 195.24 207.358 194.04V155.4C207.358 154.2 207.958 153.6 209.158 153.6H244.558C245.758 153.6 246.358 154.2 246.358 155.4V162.24C246.358 163.44 245.758 164.04 244.558 164.04H219.358C218.158 164.04 217.558 164.64 217.558 165.84V184.44C217.558 185.64 218.158 186.24 219.358 186.24H237.358C238.558 186.24 239.158 186.84 239.158 188.04V194.04C239.158 195.24 238.558 195.84 237.358 195.84H226.558C225.358 195.84 224.758 196.44 224.758 197.64C224.758 198.84 225.358 199.44 226.558 199.44H240.958C242.158 199.44 242.758 198.84 242.758 197.64V184.44C242.758 183.24 242.158 182.64 240.958 182.64H222.958C221.758 182.64 221.158 182.04 221.158 180.84V169.44C221.158 168.24 221.758 167.64 222.958 167.64H248.158C249.358 167.64 249.958 167.04 249.958 165.84V151.8Z" fill="#09FBD3"/>
<path d="M260.187 150C258.987 150 258.387 150.6 258.387 151.8V232.2C258.387 233.4 258.987 234 260.187 234C261.387 234 261.987 233.4 261.987 232.2V155.4C261.987 154.2 262.587 153.6 263.787 153.6H287.667C292.587 153.6 297.267 155.52 300.747 159C304.347 162.6 306.267 167.28 306.267 172.2C306.267 177.12 304.347 181.8 300.747 185.4C298.947 187.2 297.267 189.48 292.467 189.48H290.427C289.227 189.48 288.627 190.08 288.627 191.28V191.52C288.627 192.72 289.227 193.32 290.427 193.32H294.387C298.467 193.32 302.667 195.72 305.547 198.6C309.147 202.2 311.067 206.88 311.067 211.8C311.067 216.72 309.147 221.4 305.547 225C302.067 228.48 297.387 230.4 292.467 230.4H277.347C276.147 230.4 275.547 229.8 275.547 228.6V222.24C275.547 221.04 276.147 220.44 277.347 220.44H292.467C297.267 220.44 301.107 216.6 301.107 211.8C301.107 207 297.267 203.04 292.467 203.04H277.347C276.147 203.04 275.547 202.44 275.547 201.24V182.64C275.547 181.44 276.147 180.84 277.347 180.84H287.667C292.467 180.84 296.307 177 296.307 172.2C296.307 167.4 292.467 163.44 287.667 163.44H273.747C272.547 163.44 271.947 164.04 271.947 165.24C271.947 166.44 272.547 167.04 273.747 167.04H287.667C290.427 167.04 292.707 169.44 292.707 172.2C292.707 174.96 290.427 177.24 287.667 177.24H273.747C272.547 177.24 271.947 177.84 271.947 179.04V204.84C271.947 206.04 272.547 206.64 273.747 206.64H292.467C295.227 206.64 297.507 209.04 297.507 211.8C297.507 214.56 295.227 216.84 292.467 216.84H273.747C272.547 216.84 271.947 217.44 271.947 218.64V232.2C271.947 233.4 272.547 234 273.747 234H292.467C304.707 234 314.667 224.04 314.667 211.8C314.667 202.8 309.387 195.12 301.707 191.64C300.507 191.04 300.507 190.32 301.587 189.48C306.627 185.4 309.867 179.16 309.867 172.2C309.867 160.08 300.027 150 287.907 150H260.187Z" fill="#09FBD3"/>
<path d="M369.358 150C368.158 150 367.558 150.6 367.558 151.8V218.16C367.558 219.36 368.158 219.96 369.358 219.96H378.958C386.878 219.96 393.358 213.48 393.358 205.56V178.56C393.358 170.52 386.878 164.16 378.958 164.16H376.318C375.118 164.16 374.518 164.76 374.518 165.96C374.518 167.16 375.118 167.76 376.318 167.76H378.958C384.958 167.76 389.758 172.56 389.758 178.56V205.56C389.758 211.56 384.958 216.36 378.958 216.36H372.958C371.758 216.36 371.158 215.76 371.158 214.56V155.4C371.158 154.2 371.758 153.6 372.958 153.6H380.158C386.398 153.6 392.278 156 396.718 160.44C401.158 164.88 403.558 170.76 403.558 177V207C403.558 213.24 401.158 219.12 396.718 223.56C392.278 228 386.398 230.4 380.158 230.4H359.158C357.958 230.4 357.358 229.8 357.358 228.6V151.8C357.358 150.6 356.758 150 355.558 150C354.358 150 353.758 150.6 353.758 151.8V232.2C353.758 233.4 354.358 234 355.558 234H380.158C395.038 234 407.158 221.88 407.158 207V177C407.158 162.12 395.038 150 380.158 150H369.358Z" fill="#09FBD3"/>
<path d="M461.364 151.8C461.364 150.6 460.764 150 459.564 150H416.964C415.764 150 415.164 150.6 415.164 151.8V197.64C415.164 198.84 415.764 199.44 416.964 199.44H427.164C428.364 199.44 428.964 200.04 428.964 201.24V218.04C428.964 219.24 429.564 219.84 430.764 219.84H455.964C457.164 219.84 457.764 220.44 457.764 221.64V228.6C457.764 229.8 457.164 230.4 455.964 230.4H420.564C419.364 230.4 418.764 229.8 418.764 228.6V204.84C418.764 203.64 418.164 203.04 416.964 203.04C415.764 203.04 415.164 203.64 415.164 204.84V232.2C415.164 233.4 415.764 234 416.964 234H459.564C460.764 234 461.364 233.4 461.364 232.2V218.04C461.364 216.84 460.764 216.24 459.564 216.24H434.364C433.164 216.24 432.564 215.64 432.564 214.44V197.64C432.564 196.44 431.964 195.84 430.764 195.84H420.564C419.364 195.84 418.764 195.24 418.764 194.04V155.4C418.764 154.2 419.364 153.6 420.564 153.6H455.964C457.164 153.6 457.764 154.2 457.764 155.4V162.24C457.764 163.44 457.164 164.04 455.964 164.04H430.764C429.564 164.04 428.964 164.64 428.964 165.84V184.44C428.964 185.64 429.564 186.24 430.764 186.24H448.764C449.964 186.24 450.564 186.84 450.564 188.04V194.04C450.564 195.24 449.964 195.84 448.764 195.84H437.964C436.764 195.84 436.164 196.44 436.164 197.64C436.164 198.84 436.764 199.44 437.964 199.44H452.364C453.564 199.44 454.164 198.84 454.164 197.64V184.44C454.164 183.24 453.564 182.64 452.364 182.64H434.364C433.164 182.64 432.564 182.04 432.564 180.84V169.44C432.564 168.24 433.164 167.64 434.364 167.64H459.564C460.764 167.64 461.364 167.04 461.364 165.84V151.8Z" fill="#09FBD3"/>
<path d="M493.263 226.68C492.783 228.48 491.583 228.48 491.103 226.68L471.183 155.64C470.823 154.32 471.423 153.6 472.623 153.6H479.823C480.903 153.6 481.503 154.08 481.863 155.16L494.463 200.64C495.063 202.32 496.263 202.32 496.743 200.64L497.103 199.44C497.343 198.6 497.343 197.88 497.103 197.04L484.503 151.56C484.143 150.48 483.543 150 482.463 150H468.063C466.863 150 466.263 150.72 466.623 152.04L488.943 232.44C489.303 233.52 489.903 234 490.983 234H493.263C494.343 234 494.943 233.52 495.303 232.44L516.783 155.16C517.143 154.08 517.743 153.6 518.823 153.6H526.023C527.223 153.6 527.823 154.32 527.463 155.64L506.223 231.96C505.863 233.28 506.463 234 507.663 234C508.743 234 509.343 233.52 509.703 232.44L532.023 152.04C532.383 150.72 531.783 150 530.583 150H516.183C515.103 150 514.503 150.48 514.143 151.56L493.263 226.68Z" fill="#09FBD3"/>
<path d="M584.411 151.8C584.411 150.6 583.811 150 582.611 150H540.011C538.811 150 538.211 150.6 538.211 151.8V197.64C538.211 198.84 538.811 199.44 540.011 199.44H550.211C551.411 199.44 552.011 200.04 552.011 201.24V218.04C552.011 219.24 552.611 219.84 553.811 219.84H579.011C580.211 219.84 580.811 220.44 580.811 221.64V228.6C580.811 229.8 580.211 230.4 579.011 230.4H543.611C542.411 230.4 541.811 229.8 541.811 228.6V204.84C541.811 203.64 541.211 203.04 540.011 203.04C538.811 203.04 538.211 203.64 538.211 204.84V232.2C538.211 233.4 538.811 234 540.011 234H582.611C583.811 234 584.411 233.4 584.411 232.2V218.04C584.411 216.84 583.811 216.24 582.611 216.24H557.411C556.211 216.24 555.611 215.64 555.611 214.44V197.64C555.611 196.44 555.011 195.84 553.811 195.84H543.611C542.411 195.84 541.811 195.24 541.811 194.04V155.4C541.811 154.2 542.411 153.6 543.611 153.6H579.011C580.211 153.6 580.811 154.2 580.811 155.4V162.24C580.811 163.44 580.211 164.04 579.011 164.04H553.811C552.611 164.04 552.011 164.64 552.011 165.84V184.44C552.011 185.64 552.611 186.24 553.811 186.24H571.811C573.011 186.24 573.611 186.84 573.611 188.04V194.04C573.611 195.24 573.011 195.84 571.811 195.84H561.011C559.811 195.84 559.211 196.44 559.211 197.64C559.211 198.84 559.811 199.44 561.011 199.44H575.411C576.611 199.44 577.211 198.84 577.211 197.64V184.44C577.211 183.24 576.611 182.64 575.411 182.64H557.411C556.211 182.64 555.611 182.04 555.611 180.84V169.44C555.611 168.24 556.211 167.64 557.411 167.64H582.611C583.811 167.64 584.411 167.04 584.411 165.84V151.8Z" fill="#09FBD3"/>
<path d="M643.614 219C643.614 217.8 643.014 217.2 641.814 217.2H614.814C613.614 217.2 613.014 217.8 613.014 219C613.014 220.2 613.614 220.8 614.814 220.8H638.214C639.414 220.8 640.014 221.4 640.014 222.6V228.6C640.014 229.8 639.414 230.4 638.214 230.4H611.214C610.014 230.4 609.414 229.8 609.414 228.6V151.8C609.414 150.6 608.814 150 607.614 150H593.214C592.014 150 591.414 150.6 591.414 151.8V232.2C591.414 233.4 592.014 234 593.214 234C594.414 234 595.014 233.4 595.014 232.2V155.4C595.014 154.2 595.614 153.6 596.814 153.6H604.014C605.214 153.6 605.814 154.2 605.814 155.4V232.2C605.814 233.4 606.414 234 607.614 234H641.814C643.014 234 643.614 233.4 643.614 232.2V219Z" fill="#09FBD3"/>
<path d="M703.216 176.04C703.216 160.8 690.856 148.44 675.616 148.44C660.376 148.44 648.016 160.8 648.016 176.04V190.56C648.016 191.52 648.496 192.24 649.336 192.6L660.496 197.52C661.336 197.88 661.816 198.6 661.816 199.56V207.84C661.816 215.52 667.936 221.64 675.616 221.64C683.176 221.64 689.416 215.52 689.416 207.96V176.04C689.416 168.48 683.296 162.24 675.616 162.24C667.936 162.24 661.816 168.48 661.816 176.04V188.88C661.816 189.84 662.176 190.56 663.136 190.92L663.616 191.16C664.696 191.64 665.416 191.04 665.416 189.72V176.04C665.416 170.52 669.976 165.84 675.616 165.84C681.256 165.84 685.816 170.52 685.816 176.04V207.84C685.816 213.48 681.256 218.04 675.616 218.04C669.976 218.04 665.416 213.48 665.416 207.84V197.4C665.416 196.44 664.936 195.72 664.096 195.36L652.936 190.32C652.096 189.96 651.616 189.24 651.616 188.28V176.04C651.616 169.68 654.136 163.68 658.696 159.12C663.136 154.56 669.256 152.04 675.616 152.04C681.976 152.04 688.096 154.56 692.536 159.12C697.096 163.68 699.616 169.68 699.616 176.04V207.84C699.616 214.32 697.096 220.32 692.536 224.88C688.096 229.44 681.976 231.84 675.616 231.84C669.256 231.84 663.136 229.44 658.696 224.88C654.136 220.32 651.616 214.32 651.616 207.84V198.96C651.616 198 651.256 197.28 650.296 196.92L649.816 196.68C648.736 196.32 648.016 196.92 648.016 198.24V207.84C648.016 223.2 660.376 235.56 675.616 235.56C690.856 235.56 703.216 223.2 703.216 207.96V176.04Z" fill="#09FBD3"/>
<path d="M712.394 150C711.194 150 710.594 150.6 710.594 151.8V232.2C710.594 233.4 711.194 234 712.394 234H726.434C727.634 234 728.234 233.4 728.234 232.2V187.44C728.234 186.24 728.834 185.64 730.034 185.64H735.554C741.554 185.64 746.354 180.84 746.354 174.84C746.354 168.96 741.554 164.16 735.554 164.16H726.554C725.354 164.04 724.754 164.64 724.754 165.84C724.754 167.04 725.354 167.64 726.554 167.64H735.554C739.514 167.64 742.754 170.88 742.754 174.84C742.754 178.92 739.514 182.04 735.554 182.04H726.554C725.354 182.04 724.754 182.64 724.754 183.84V228.6C724.754 229.8 724.154 230.4 722.954 230.4H715.994C714.794 230.4 714.194 229.8 714.194 228.6V155.4C714.194 154.2 714.794 153.6 715.994 153.6H735.554C741.194 153.6 746.474 155.76 750.554 159.84C754.634 163.92 756.794 169.2 756.794 174.84C756.794 180.6 754.634 185.88 750.554 189.96C746.474 194.04 741.194 196.2 735.554 196.2H733.634C732.434 196.2 731.834 196.8 731.834 198C731.834 199.2 732.434 199.8 733.634 199.8H735.554C749.234 199.8 760.394 188.64 760.394 174.84C760.394 161.16 749.234 150 735.554 150H712.394Z" fill="#09FBD3"/>
<path d="M812.223 151.8C812.223 150.6 811.623 150 810.423 150H767.823C766.623 150 766.023 150.6 766.023 151.8V197.64C766.023 198.84 766.623 199.44 767.823 199.44H778.023C779.223 199.44 779.823 200.04 779.823 201.24V218.04C779.823 219.24 780.423 219.84 781.623 219.84H806.823C808.023 219.84 808.623 220.44 808.623 221.64V228.6C808.623 229.8 808.023 230.4 806.823 230.4H771.423C770.223 230.4 769.623 229.8 769.623 228.6V204.84C769.623 203.64 769.023 203.04 767.823 203.04C766.623 203.04 766.023 203.64 766.023 204.84V232.2C766.023 233.4 766.623 234 767.823 234H810.423C811.623 234 812.223 233.4 812.223 232.2V218.04C812.223 216.84 811.623 216.24 810.423 216.24H785.223C784.023 216.24 783.423 215.64 783.423 214.44V197.64C783.423 196.44 782.823 195.84 781.623 195.84H771.423C770.223 195.84 769.623 195.24 769.623 194.04V155.4C769.623 154.2 770.223 153.6 771.423 153.6H806.823C808.023 153.6 808.623 154.2 808.623 155.4V162.24C808.623 163.44 808.023 164.04 806.823 164.04H781.623C780.423 164.04 779.823 164.64 779.823 165.84V184.44C779.823 185.64 780.423 186.24 781.623 186.24H799.623C800.823 186.24 801.423 186.84 801.423 188.04V194.04C801.423 195.24 800.823 195.84 799.623 195.84H788.823C787.623 195.84 787.023 196.44 787.023 197.64C787.023 198.84 787.623 199.44 788.823 199.44H803.223C804.423 199.44 805.023 198.84 805.023 197.64V184.44C805.023 183.24 804.423 182.64 803.223 182.64H785.223C784.023 182.64 783.423 182.04 783.423 180.84V169.44C783.423 168.24 784.023 167.64 785.223 167.64H810.423C811.623 167.64 812.223 167.04 812.223 165.84V151.8Z" fill="#09FBD3"/>
<path d="M872.261 234C873.581 234 874.181 233.16 873.581 231.84L860.141 200.76C859.661 199.68 857.861 199.92 857.861 199.92C856.901 200.52 856.541 201.36 857.021 202.32L868.781 228.24C869.381 229.56 868.781 230.4 867.461 230.4H860.621C859.661 230.4 858.941 229.92 858.581 229.08L846.341 201.72C845.861 200.52 846.341 199.8 847.661 199.56C850.061 199.32 852.341 198.6 854.501 197.64C855.461 197.16 856.541 196.68 857.501 196.08C864.581 191.64 869.261 183.84 869.261 174.84C869.261 161.16 858.101 150 844.421 150H821.261C820.061 150 819.461 150.6 819.461 151.8V232.2C819.461 233.4 820.061 234 821.261 234H835.661C836.861 234 837.461 233.4 837.461 232.2V187.44C837.461 186.24 838.061 185.64 839.261 185.64H844.421C850.421 185.64 855.221 180.84 855.221 174.84C855.221 168.96 850.421 164.04 844.421 164.04H835.781C834.581 164.04 833.981 164.64 833.981 165.84C833.981 167.04 834.581 167.64 835.781 167.64H844.421C848.381 167.64 851.621 170.88 851.621 174.84C851.621 178.92 848.381 182.04 844.421 182.04H835.661C834.461 182.04 833.861 182.64 833.861 183.84V228.6C833.861 229.8 833.261 230.4 832.061 230.4H824.861C823.661 230.4 823.061 229.8 823.061 228.6V155.4C823.061 154.2 823.661 153.6 824.861 153.6H844.421C850.061 153.6 855.341 155.76 859.421 159.84C863.501 163.92 865.661 169.2 865.661 174.84C865.661 180.6 863.501 185.88 859.421 189.96C858.461 190.92 857.381 191.76 856.301 192.48C855.341 193.2 854.381 193.8 853.301 194.28C850.541 195.48 847.541 196.2 844.421 196.2H842.501C841.301 196.2 840.821 197.04 841.301 198.24L841.901 199.8L856.181 232.68C856.541 233.52 857.261 234 858.221 234H872.261Z" fill="#09FBD3"/>
</svg>
