<svg width="1048" height="296" viewBox="0 0 1048 296" fill="none" xmlns="http://www.w3.org/2000/svg">
<g filter="url(#filter0_d)">
<path d="M32.25 27.95C30.75 27.95 30 28.7 30 30.2V130.7C30 132.2 30.75 132.95 32.25 132.95C33.75 132.95 34.5 132.2 34.5 130.7V34.7C34.5 33.2 35.25 32.45 36.75 32.45H66.6C72.75 32.45 78.6 34.85 82.95 39.2C87.45 43.7 89.85 49.55 89.85 55.7C89.85 61.85 87.45 67.7 82.95 72.2C80.7 74.45 78.6 77.3 72.6 77.3H70.05C68.55 77.3 67.8 78.05 67.8 79.55V79.85C67.8 81.35 68.55 82.1 70.05 82.1H75C80.1 82.1 85.35 85.1 88.95 88.7C93.45 93.2 95.85 99.05 95.85 105.2C95.85 111.35 93.45 117.2 88.95 121.7C84.6 126.05 78.75 128.45 72.6 128.45H53.7C52.2 128.45 51.45 127.7 51.45 126.2V118.25C51.45 116.75 52.2 116 53.7 116H72.6C78.6 116 83.4 111.2 83.4 105.2C83.4 99.2 78.6 94.25 72.6 94.25H53.7C52.2 94.25 51.45 93.5 51.45 92V68.75C51.45 67.25 52.2 66.5 53.7 66.5H66.6C72.6 66.5 77.4 61.7 77.4 55.7C77.4 49.7 72.6 44.75 66.6 44.75H49.2C47.7 44.75 46.95 45.5 46.95 47C46.95 48.5 47.7 49.25 49.2 49.25H66.6C70.05 49.25 72.9 52.25 72.9 55.7C72.9 59.15 70.05 62 66.6 62H49.2C47.7 62 46.95 62.75 46.95 64.25V96.5C46.95 98 47.7 98.75 49.2 98.75H72.6C76.05 98.75 78.9 101.75 78.9 105.2C78.9 108.65 76.05 111.5 72.6 111.5H49.2C47.7 111.5 46.95 112.25 46.95 113.75V130.7C46.95 132.2 47.7 132.95 49.2 132.95H72.6C87.9 132.95 100.35 120.5 100.35 105.2C100.35 93.95 93.75 84.35 84.15 80C82.65 79.25 82.65 78.35 84 77.3C90.3 72.2 94.35 64.4 94.35 55.7C94.35 40.55 82.05 27.95 66.9 27.95H32.25Z" fill="#09FBD3"/>
<path d="M173.887 114.2C173.887 112.7 173.137 111.95 171.637 111.95H137.888C136.388 111.95 135.638 112.7 135.638 114.2C135.638 115.7 136.388 116.45 137.888 116.45H167.137C168.637 116.45 169.387 117.2 169.387 118.7V126.2C169.387 127.7 168.637 128.45 167.137 128.45H133.388C131.888 128.45 131.138 127.7 131.138 126.2V30.2C131.138 28.7 130.388 27.95 128.888 27.95H110.887C109.387 27.95 108.637 28.7 108.637 30.2V130.7C108.637 132.2 109.387 132.95 110.887 132.95C112.387 132.95 113.137 132.2 113.137 130.7V34.7C113.137 33.2 113.887 32.45 115.387 32.45H124.388C125.888 32.45 126.638 33.2 126.638 34.7V130.7C126.638 132.2 127.388 132.95 128.888 132.95H171.637C173.137 132.95 173.887 132.2 173.887 130.7V114.2Z" fill="#09FBD3"/>
<path d="M233.382 27.95C232.032 27.95 231.282 28.55 230.832 29.75L199.032 126.65C198.582 127.85 197.832 128.45 196.482 128.45H188.382C186.732 128.45 185.982 127.4 186.582 125.9L217.782 30.5C218.382 29 217.632 27.95 216.132 27.95C214.782 27.95 214.032 28.55 213.582 29.75L180.582 130.4C179.982 131.9 180.732 132.95 182.382 132.95H199.482C200.832 132.95 201.582 132.35 202.032 131.15L232.932 36.8C233.682 34.85 235.182 34.85 235.932 36.8L265.182 125.9C265.782 127.4 265.032 128.45 263.382 128.45H254.532C253.182 128.45 252.432 127.85 251.982 126.65L244.182 102.8C243.732 101.6 242.982 101 241.632 101H223.932C222.282 101 221.532 99.95 222.132 98.45L224.382 91.55C224.832 90.35 225.582 89.75 226.932 89.75H237.132C238.782 89.75 239.532 88.7 238.932 87.2L231.582 64.55C230.832 62.6 229.332 62.6 228.582 64.55L228.282 65.6C227.982 66.65 227.982 67.55 228.282 68.6L232.932 82.7C233.532 84.2 232.782 85.25 231.132 85.25H223.782C222.432 85.25 221.682 85.85 221.232 87.05L216.132 102.95C215.532 104.45 216.282 105.5 217.932 105.5H238.632C239.982 105.5 240.732 106.1 241.182 107.3L248.832 131.15C249.282 132.35 250.032 132.95 251.382 132.95H269.232C270.882 132.95 271.632 131.9 271.032 130.4L238.032 29.75C237.582 28.55 236.832 27.95 235.482 27.95H233.382Z" fill="#09FBD3"/>
<path d="M338.138 125.75C339.038 127.4 338.438 128.45 336.638 128.45H327.938C326.737 128.45 325.837 128 325.237 126.8L310.237 98.9C309.637 97.85 309.637 96.95 310.237 95.9L345.488 30.65C346.388 29 345.637 27.95 343.987 27.95H325.538C324.337 27.95 323.438 28.4 322.837 29.6L296.138 78.8C295.538 79.85 295.388 80.6 295.388 81.65V126.2C295.388 127.7 294.638 128.45 293.138 128.45H284.137C282.637 128.45 281.887 127.7 281.887 126.2V34.7C281.887 33.2 282.637 32.45 284.137 32.45H293.138C294.638 32.45 295.388 33.2 295.388 34.7V65C295.388 67.25 297.038 67.7 298.087 65.75L299.138 63.8C299.738 62.75 299.888 62 299.888 60.95V30.2C299.888 28.7 299.138 27.95 297.638 27.95H279.637C278.137 27.95 277.387 28.7 277.387 30.2V130.7C277.387 132.2 278.137 132.95 279.637 132.95H297.638C299.138 132.95 299.888 132.2 299.888 130.7V81.95C300.038 80.9 300.188 80.15 300.788 79.1L325.237 34.1C325.837 32.9 326.737 32.45 327.938 32.45H336.638C338.288 32.45 339.038 33.5 338.138 35.15L305.288 95.9C304.688 96.95 304.688 97.85 305.288 98.9L322.837 131.3C323.438 132.5 324.337 132.95 325.538 132.95H343.987C345.637 132.95 346.388 131.9 345.488 130.25L322.538 87.95C321.638 86.3 320.438 86.3 319.538 87.95L319.388 88.1C318.938 89.15 318.938 90.05 319.538 91.1L338.138 125.75Z" fill="#09FBD3"/>
<path d="M411.456 30.2C411.456 28.7 410.706 27.95 409.206 27.95H355.956C354.456 27.95 353.706 28.7 353.706 30.2V87.5C353.706 89 354.456 89.75 355.956 89.75H368.706C370.206 89.75 370.956 90.5 370.956 92V113C370.956 114.5 371.706 115.25 373.206 115.25H404.706C406.206 115.25 406.956 116 406.956 117.5V126.2C406.956 127.7 406.206 128.45 404.706 128.45H360.456C358.956 128.45 358.206 127.7 358.206 126.2V96.5C358.206 95 357.456 94.25 355.956 94.25C354.456 94.25 353.706 95 353.706 96.5V130.7C353.706 132.2 354.456 132.95 355.956 132.95H409.206C410.706 132.95 411.456 132.2 411.456 130.7V113C411.456 111.5 410.706 110.75 409.206 110.75H377.706C376.206 110.75 375.456 110 375.456 108.5V87.5C375.456 86 374.706 85.25 373.206 85.25H360.456C358.956 85.25 358.206 84.5 358.206 83V34.7C358.206 33.2 358.956 32.45 360.456 32.45H404.706C406.206 32.45 406.956 33.2 406.956 34.7V43.25C406.956 44.75 406.206 45.5 404.706 45.5H373.206C371.706 45.5 370.956 46.25 370.956 47.75V71C370.956 72.5 371.706 73.25 373.206 73.25H395.706C397.206 73.25 397.956 74 397.956 75.5V83C397.956 84.5 397.206 85.25 395.706 85.25H382.206C380.706 85.25 379.956 86 379.956 87.5C379.956 89 380.706 89.75 382.206 89.75H400.206C401.706 89.75 402.456 89 402.456 87.5V71C402.456 69.5 401.706 68.75 400.206 68.75H377.706C376.206 68.75 375.456 68 375.456 66.5V52.25C375.456 50.75 376.206 50 377.706 50H409.206C410.706 50 411.456 49.25 411.456 47.75V30.2Z" fill="#09FBD3"/>
<path d="M495.353 87.35C494.603 89 493.103 89 492.353 87.35L477.953 58.25C476.903 56.15 475.253 56.6 475.253 58.85V126.2C475.253 127.7 474.503 128.45 473.003 128.45H464.753C463.253 128.45 462.503 127.7 462.503 126.2V34.7C462.503 33.2 463.253 32.45 464.753 32.45H477.203C478.403 32.45 479.303 32.9 479.753 34.1L497.003 68.3C497.753 69.95 499.253 69.95 500.003 68.3L500.153 68C500.603 66.95 500.603 66.05 500.153 65L482.453 29.6C482.003 28.4 481.103 27.95 479.903 27.95H460.253C458.753 27.95 458.003 28.7 458.003 30.2V130.7C458.003 132.2 458.753 132.95 460.253 132.95H477.503C479.003 132.95 479.753 132.2 479.753 130.7V77.45C479.753 75.2 481.403 74.75 482.453 76.85L492.353 96.8C493.103 98.45 494.603 98.45 495.353 96.8L526.853 34.1C527.303 32.9 528.203 32.45 529.403 32.45H541.853C543.353 32.45 544.103 33.2 544.103 34.7V126.2C544.103 127.7 543.353 128.45 541.853 128.45H533.603C532.103 128.45 531.353 127.7 531.353 126.2V59C531.353 56.75 529.703 56.3 528.653 58.4L526.853 62L504.053 107.9C503.603 108.95 503.603 109.85 504.053 110.9L504.503 111.65C505.103 112.85 506.303 112.55 507.053 110.9L524.153 76.7C525.203 74.75 526.853 75.2 526.853 77.45V130.7C526.853 132.2 527.603 132.95 529.103 132.95H546.353C547.853 132.95 548.603 132.2 548.603 130.7V30.2C548.603 28.7 547.853 27.95 546.353 27.95H527.153C525.953 27.95 525.053 28.4 524.603 29.6L495.353 87.35Z" fill="#09FBD3"/>
<path d="M608.089 27.95C606.74 27.95 605.989 28.55 605.539 29.75L573.739 126.65C573.289 127.85 572.539 128.45 571.189 128.45H563.089C561.439 128.45 560.689 127.4 561.289 125.9L592.489 30.5C593.089 29 592.339 27.95 590.839 27.95C589.49 27.95 588.739 28.55 588.289 29.75L555.289 130.4C554.689 131.9 555.439 132.95 557.089 132.95H574.189C575.539 132.95 576.289 132.35 576.739 131.15L607.639 36.8C608.389 34.85 609.889 34.85 610.639 36.8L639.889 125.9C640.489 127.4 639.74 128.45 638.089 128.45H629.239C627.889 128.45 627.139 127.85 626.689 126.65L618.889 102.8C618.439 101.6 617.689 101 616.339 101H598.639C596.989 101 596.24 99.95 596.839 98.45L599.089 91.55C599.539 90.35 600.289 89.75 601.639 89.75H611.839C613.49 89.75 614.239 88.7 613.639 87.2L606.289 64.55C605.539 62.6 604.039 62.6 603.289 64.55L602.989 65.6C602.689 66.65 602.689 67.55 602.989 68.6L607.639 82.7C608.239 84.2 607.49 85.25 605.839 85.25H598.489C597.139 85.25 596.389 85.85 595.939 87.05L590.839 102.95C590.24 104.45 590.989 105.5 592.639 105.5H613.339C614.689 105.5 615.439 106.1 615.889 107.3L623.539 131.15C623.989 132.35 624.74 132.95 626.089 132.95H643.939C645.589 132.95 646.339 131.9 645.739 130.4L612.739 29.75C612.289 28.55 611.539 27.95 610.189 27.95H608.089Z" fill="#09FBD3"/>
<path d="M664.643 80.9C665.693 79.85 665.693 78.8 664.493 77.75C657.743 71.9 652.493 65 652.493 55.7C652.493 41.9 663.743 30.5 677.693 30.5C689.843 30.5 700.193 39.5 702.293 51.05C702.593 52.55 701.693 53.45 700.193 53.45H691.493C690.143 53.45 689.543 52.85 689.093 51.5C687.293 46.85 682.793 43.55 677.693 43.55C670.943 43.55 665.393 48.95 665.393 55.7C665.393 62 670.343 66.95 676.493 71.9C677.693 72.95 677.843 74 676.793 75.05L669.743 82.1L668.243 83.75C667.193 84.8 667.343 85.85 668.543 86.9L670.193 88.1L671.093 88.85C678.743 94.55 685.343 99.5 685.343 105.2C685.343 109.4 681.893 112.85 677.693 112.85C673.343 112.85 669.893 109.4 669.893 105.2V104C669.893 103.4 669.143 102.95 667.643 102.95H650.243C648.743 102.95 647.993 103.7 647.993 105.2C647.993 121.55 661.343 134.9 677.693 134.9C693.893 134.9 707.243 121.55 707.243 105.2C707.243 98.15 704.693 91.7 699.443 85.55C696.893 82.55 693.743 79.7 690.593 77C689.543 76.1 688.493 76.1 687.443 77.15L687.293 77.3C686.243 78.35 686.393 79.4 687.593 80.45C695.543 86.9 702.743 94.55 702.743 105.2C702.743 119 691.493 130.25 677.693 130.25C665.393 130.25 655.043 121.4 652.943 109.85C652.643 108.35 653.543 107.45 655.043 107.45H663.743C665.093 107.45 665.693 108.05 666.143 109.4C667.943 114.05 672.443 117.35 677.693 117.35C684.293 117.35 689.843 111.95 689.843 105.2C689.843 97.25 682.043 91.4 673.793 85.25L673.643 85.1C673.493 84.95 673.943 84.35 675.143 83.15L682.043 76.1L683.693 74.45C684.743 73.55 684.893 72.65 684.143 72.05L681.743 70.25C675.143 65.3 669.893 60.8 669.893 55.7C669.893 51.5 673.343 48.05 677.693 48.05C681.893 48.05 685.343 51.5 685.343 55.7V56.75C685.343 57.5 686.093 57.95 687.593 57.95H704.993C706.493 57.95 707.243 57.2 707.243 55.7C707.243 39.35 693.893 26 677.693 26C661.343 26 647.993 39.35 647.993 55.7C647.993 62.75 650.543 69.2 655.793 75.35C657.443 77.3 659.393 79.25 661.343 81.05C662.393 82.1 663.593 81.95 664.493 81.05L664.643 80.9Z" fill="#09FBD3"/>
<path d="M715.282 27.95C713.782 27.95 713.032 28.7 713.032 30.2V47.45C713.032 48.95 713.782 49.7 715.282 49.7H733.282C734.782 49.7 735.532 48.95 735.532 47.45C735.532 45.95 734.782 45.2 733.282 45.2H719.782C718.282 45.2 717.532 44.45 717.532 42.95V34.7C717.532 33.2 718.282 32.45 719.782 32.45H782.782C784.282 32.45 785.032 33.2 785.032 34.7V42.95C785.032 44.45 784.282 45.2 782.782 45.2H742.282C740.782 45.2 740.032 45.95 740.032 47.45V130.7C740.032 132.2 740.782 132.95 742.282 132.95H760.282C761.782 132.95 762.532 132.2 762.532 130.7V56.45C762.532 54.95 761.782 54.2 760.282 54.2C758.782 54.2 758.032 54.95 758.032 56.45V126.2C758.032 127.7 757.282 128.45 755.782 128.45H746.782C745.282 128.45 744.532 127.7 744.532 126.2V51.95C744.532 50.45 745.282 49.7 746.782 49.7H787.282C788.782 49.7 789.532 48.95 789.532 47.45V30.2C789.532 28.7 788.782 27.95 787.282 27.95H715.282Z" fill="#09FBD3"/>
<path d="M863.7 132.95C865.35 132.95 866.1 131.9 865.35 130.25L848.55 91.4C847.95 90.05 845.7 90.35 845.7 90.35C844.5 91.1 844.05 92.15 844.65 93.35L859.35 125.75C860.1 127.4 859.35 128.45 857.7 128.45H849.15C847.95 128.45 847.05 127.85 846.6 126.8L831.3 92.6C830.7 91.1 831.3 90.2 832.95 89.9C835.95 89.6 838.8 88.7 841.5 87.5C842.7 86.9 844.05 86.3 845.25 85.55C854.1 80 859.95 70.25 859.95 59C859.95 41.9 846 27.95 828.9 27.95H799.95C798.45 27.95 797.7 28.7 797.7 30.2V130.7C797.7 132.2 798.45 132.95 799.95 132.95H817.95C819.45 132.95 820.2 132.2 820.2 130.7V74.75C820.2 73.25 820.95 72.5 822.45 72.5H828.9C836.4 72.5 842.4 66.5 842.4 59C842.4 51.65 836.4 45.5 828.9 45.5H818.1C816.6 45.5 815.85 46.25 815.85 47.75C815.85 49.25 816.6 50 818.1 50H828.9C833.85 50 837.9 54.05 837.9 59C837.9 64.1 833.85 68 828.9 68H817.95C816.45 68 815.7 68.75 815.7 70.25V126.2C815.7 127.7 814.95 128.45 813.45 128.45H804.45C802.95 128.45 802.2 127.7 802.2 126.2V34.7C802.2 33.2 802.95 32.45 804.45 32.45H828.9C835.95 32.45 842.55 35.15 847.65 40.25C852.75 45.35 855.45 51.95 855.45 59C855.45 66.2 852.75 72.8 847.65 77.9C846.45 79.1 845.1 80.15 843.75 81.05C842.55 81.95 841.35 82.7 840 83.3C836.55 84.8 832.8 85.7 828.9 85.7H826.5C825 85.7 824.4 86.75 825 88.25L825.75 90.2L843.6 131.3C844.05 132.35 844.95 132.95 846.15 132.95H863.7Z" fill="#09FBD3"/>
<path d="M920.739 27.95C919.239 27.95 918.489 28.7 918.489 30.2V99.8C918.489 103.55 916.839 106.85 914.289 109.1C913.389 109.85 912.939 110.6 912.939 111.8V112.7C912.939 114.2 914.139 114.8 915.639 113.75C919.989 110.75 922.989 105.65 922.989 99.8V34.7C922.989 33.2 923.739 32.45 925.239 32.45H934.389C935.889 32.45 936.639 33.2 936.639 34.7V99.8C936.789 103.85 935.889 107.9 934.389 111.65C932.739 115.25 930.639 118.55 927.789 121.4C924.939 124.25 921.639 126.35 918.039 128C915.789 128.9 913.389 129.5 910.839 129.95C909.339 130.25 908.439 129.35 908.439 127.85V114.35C908.439 112.85 906.189 112.1 906.189 112.1C899.289 112.1 893.739 106.55 893.739 99.8V30.2C893.739 28.7 892.989 27.95 891.489 27.95H873.339C871.839 27.95 871.089 28.7 871.089 30.2V99.8C871.089 115.85 882.039 129.5 896.889 133.55C898.539 134 899.439 133.25 899.439 131.6C899.439 130.25 898.839 129.5 897.489 129.05C896.439 128.75 895.389 128.45 894.189 128C890.589 126.35 887.289 124.25 884.589 121.4C881.739 118.55 879.489 115.25 877.989 111.65C876.339 107.9 875.589 103.85 875.589 99.8V34.7C875.589 33.2 876.339 32.45 877.839 32.45H886.989C888.489 32.45 889.239 33.2 889.239 34.7V99.8C889.239 107.6 894.639 114.2 901.989 116C903.189 116.45 903.939 117.2 903.939 118.55V132.5C903.939 134 905.889 134.9 906.039 134.9C906.189 134.9 906.189 134.9 906.189 134.9C925.539 134.9 941.289 119.15 941.289 99.65C941.289 98.6 941.289 98.15 941.289 98.15V30.2C941.289 28.7 940.539 27.95 939.039 27.95H920.739Z" fill="#09FBD3"/>
<path d="M970.276 27.95C968.776 27.95 968.026 28.7 968.026 30.2V113.15C968.026 114.65 968.776 115.4 970.276 115.4H982.276C992.176 115.4 1000.28 107.3 1000.28 97.4V63.65C1000.28 53.6 992.176 45.65 982.276 45.65H978.976C977.476 45.65 976.726 46.4 976.726 47.9C976.726 49.4 977.476 50.15 978.976 50.15H982.276C989.776 50.15 995.776 56.15 995.776 63.65V97.4C995.776 104.9 989.776 110.9 982.276 110.9H974.776C973.276 110.9 972.526 110.15 972.526 108.65V34.7C972.526 33.2 973.276 32.45 974.776 32.45H983.776C991.576 32.45 998.926 35.45 1004.48 41C1010.03 46.55 1013.03 53.9 1013.03 61.7V99.2C1013.03 107 1010.03 114.35 1004.48 119.9C998.926 125.45 991.576 128.45 983.776 128.45H957.526C956.026 128.45 955.276 127.7 955.276 126.2V30.2C955.276 28.7 954.526 27.95 953.026 27.95C951.526 27.95 950.776 28.7 950.776 30.2V130.7C950.776 132.2 951.526 132.95 953.026 132.95H983.776C1002.38 132.95 1017.53 117.8 1017.53 99.2V61.7C1017.53 43.1 1002.38 27.95 983.776 27.95H970.276Z" fill="#09FBD3"/>
</g>
<g filter="url(#filter1_d)">
<path d="M212.08 176C211 176 210.28 176.48 210.04 177.56L203.32 212.48C202.96 214.28 201.52 214.28 201.16 212.48L194.56 177.56C194.32 176.48 193.6 176 192.52 176H191.08C190 176 189.28 176.48 189.04 177.56L174.28 254.84C174.04 255.92 173.32 256.4 172.24 256.4H162.76C161.68 256.4 160.96 255.92 160.72 254.84L146.68 181.52C146.44 180.32 147.04 179.6 148.36 179.6H154.84C155.92 179.6 156.64 180.08 156.88 181.16L166.36 231.2C166.72 233 168.16 233 168.52 231.2L178.84 177.92C179.08 176.72 178.48 176 177.28 176C176.2 176 175.48 176.48 175.24 177.56L168.52 212.48C168.16 214.28 166.72 214.28 166.36 212.48L159.76 177.56C159.52 176.48 158.8 176 157.72 176H144.04C142.72 176 142.12 176.72 142.36 177.92L157.84 258.44C158.08 259.52 158.8 260 159.88 260H175.12C176.2 260 176.92 259.52 177.16 258.44L190.72 187.76C191.08 185.96 192.52 185.96 192.88 187.76L201.16 231.2C201.52 233 202.96 233 203.32 231.2L212.92 181.16C213.16 180.08 213.88 179.6 214.96 179.6H221.44C222.76 179.6 223.36 180.32 223.12 181.52L209.08 254.84C208.84 255.92 208.12 256.4 207.04 256.4H197.56C196.48 256.4 195.76 255.92 195.52 254.84L189.64 223.64C189.28 221.96 187.84 221.96 187.48 223.64L187 226.4C186.76 227.12 186.76 227.84 187 228.56L192.64 258.44C192.88 259.52 193.6 260 194.68 260H209.92C211 260 211.72 259.52 211.96 258.44L227.44 177.92C227.68 176.72 227.08 176 225.76 176H212.08ZM279.958 177.8C279.958 176.6 279.358 176 278.158 176H235.558C234.358 176 233.758 176.6 233.758 177.8V223.64C233.758 224.84 234.358 225.44 235.558 225.44H245.758C246.958 225.44 247.558 226.04 247.558 227.24V244.04C247.558 245.24 248.158 245.84 249.358 245.84H274.558C275.758 245.84 276.358 246.44 276.358 247.64V254.6C276.358 255.8 275.758 256.4 274.558 256.4H239.158C237.958 256.4 237.358 255.8 237.358 254.6V230.84C237.358 229.64 236.758 229.04 235.558 229.04C234.358 229.04 233.758 229.64 233.758 230.84V258.2C233.758 259.4 234.358 260 235.558 260H278.158C279.358 260 279.958 259.4 279.958 258.2V244.04C279.958 242.84 279.358 242.24 278.158 242.24H252.958C251.758 242.24 251.158 241.64 251.158 240.44V223.64C251.158 222.44 250.558 221.84 249.358 221.84H239.158C237.958 221.84 237.358 221.24 237.358 220.04V181.4C237.358 180.2 237.958 179.6 239.158 179.6H274.558C275.758 179.6 276.358 180.2 276.358 181.4V188.24C276.358 189.44 275.758 190.04 274.558 190.04H249.358C248.158 190.04 247.558 190.64 247.558 191.84V210.44C247.558 211.64 248.158 212.24 249.358 212.24H267.358C268.558 212.24 269.158 212.84 269.158 214.04V220.04C269.158 221.24 268.558 221.84 267.358 221.84H256.558C255.358 221.84 254.758 222.44 254.758 223.64C254.758 224.84 255.358 225.44 256.558 225.44H270.958C272.158 225.44 272.758 224.84 272.758 223.64V210.44C272.758 209.24 272.158 208.64 270.958 208.64H252.958C251.758 208.64 251.158 208.04 251.158 206.84V195.44C251.158 194.24 251.758 193.64 252.958 193.64H278.158C279.358 193.64 279.958 193.04 279.958 191.84V177.8ZM290.187 176C288.987 176 288.387 176.6 288.387 177.8V258.2C288.387 259.4 288.987 260 290.187 260C291.387 260 291.987 259.4 291.987 258.2V181.4C291.987 180.2 292.587 179.6 293.787 179.6H317.667C322.587 179.6 327.267 181.52 330.747 185C334.347 188.6 336.267 193.28 336.267 198.2C336.267 203.12 334.347 207.8 330.747 211.4C328.947 213.2 327.267 215.48 322.467 215.48H320.427C319.227 215.48 318.627 216.08 318.627 217.28V217.52C318.627 218.72 319.227 219.32 320.427 219.32H324.387C328.467 219.32 332.667 221.72 335.547 224.6C339.147 228.2 341.067 232.88 341.067 237.8C341.067 242.72 339.147 247.4 335.547 251C332.067 254.48 327.387 256.4 322.467 256.4H307.347C306.147 256.4 305.547 255.8 305.547 254.6V248.24C305.547 247.04 306.147 246.44 307.347 246.44H322.467C327.267 246.44 331.107 242.6 331.107 237.8C331.107 233 327.267 229.04 322.467 229.04H307.347C306.147 229.04 305.547 228.44 305.547 227.24V208.64C305.547 207.44 306.147 206.84 307.347 206.84H317.667C322.467 206.84 326.307 203 326.307 198.2C326.307 193.4 322.467 189.44 317.667 189.44H303.747C302.547 189.44 301.947 190.04 301.947 191.24C301.947 192.44 302.547 193.04 303.747 193.04H317.667C320.427 193.04 322.707 195.44 322.707 198.2C322.707 200.96 320.427 203.24 317.667 203.24H303.747C302.547 203.24 301.947 203.84 301.947 205.04V230.84C301.947 232.04 302.547 232.64 303.747 232.64H322.467C325.227 232.64 327.507 235.04 327.507 237.8C327.507 240.56 325.227 242.84 322.467 242.84H303.747C302.547 242.84 301.947 243.44 301.947 244.64V258.2C301.947 259.4 302.547 260 303.747 260H322.467C334.707 260 344.667 250.04 344.667 237.8C344.667 228.8 339.387 221.12 331.707 217.64C330.507 217.04 330.507 216.32 331.587 215.48C336.627 211.4 339.867 205.16 339.867 198.2C339.867 186.08 330.027 176 317.907 176H290.187ZM399.358 176C398.158 176 397.558 176.6 397.558 177.8V244.16C397.558 245.36 398.158 245.96 399.358 245.96H408.958C416.878 245.96 423.358 239.48 423.358 231.56V204.56C423.358 196.52 416.878 190.16 408.958 190.16H406.318C405.118 190.16 404.518 190.76 404.518 191.96C404.518 193.16 405.118 193.76 406.318 193.76H408.958C414.958 193.76 419.758 198.56 419.758 204.56V231.56C419.758 237.56 414.958 242.36 408.958 242.36H402.958C401.758 242.36 401.158 241.76 401.158 240.56V181.4C401.158 180.2 401.758 179.6 402.958 179.6H410.158C416.398 179.6 422.278 182 426.718 186.44C431.158 190.88 433.558 196.76 433.558 203V233C433.558 239.24 431.158 245.12 426.718 249.56C422.278 254 416.398 256.4 410.158 256.4H389.158C387.958 256.4 387.358 255.8 387.358 254.6V177.8C387.358 176.6 386.758 176 385.558 176C384.358 176 383.758 176.6 383.758 177.8V258.2C383.758 259.4 384.358 260 385.558 260H410.158C425.038 260 437.158 247.88 437.158 233V203C437.158 188.12 425.038 176 410.158 176H399.358ZM491.364 177.8C491.364 176.6 490.764 176 489.564 176H446.964C445.764 176 445.164 176.6 445.164 177.8V223.64C445.164 224.84 445.764 225.44 446.964 225.44H457.164C458.364 225.44 458.964 226.04 458.964 227.24V244.04C458.964 245.24 459.564 245.84 460.764 245.84H485.964C487.164 245.84 487.764 246.44 487.764 247.64V254.6C487.764 255.8 487.164 256.4 485.964 256.4H450.564C449.364 256.4 448.764 255.8 448.764 254.6V230.84C448.764 229.64 448.164 229.04 446.964 229.04C445.764 229.04 445.164 229.64 445.164 230.84V258.2C445.164 259.4 445.764 260 446.964 260H489.564C490.764 260 491.364 259.4 491.364 258.2V244.04C491.364 242.84 490.764 242.24 489.564 242.24H464.364C463.164 242.24 462.564 241.64 462.564 240.44V223.64C462.564 222.44 461.964 221.84 460.764 221.84H450.564C449.364 221.84 448.764 221.24 448.764 220.04V181.4C448.764 180.2 449.364 179.6 450.564 179.6H485.964C487.164 179.6 487.764 180.2 487.764 181.4V188.24C487.764 189.44 487.164 190.04 485.964 190.04H460.764C459.564 190.04 458.964 190.64 458.964 191.84V210.44C458.964 211.64 459.564 212.24 460.764 212.24H478.764C479.964 212.24 480.564 212.84 480.564 214.04V220.04C480.564 221.24 479.964 221.84 478.764 221.84H467.964C466.764 221.84 466.164 222.44 466.164 223.64C466.164 224.84 466.764 225.44 467.964 225.44H482.364C483.564 225.44 484.164 224.84 484.164 223.64V210.44C484.164 209.24 483.564 208.64 482.364 208.64H464.364C463.164 208.64 462.564 208.04 462.564 206.84V195.44C462.564 194.24 463.164 193.64 464.364 193.64H489.564C490.764 193.64 491.364 193.04 491.364 191.84V177.8ZM523.263 252.68C522.783 254.48 521.583 254.48 521.103 252.68L501.183 181.64C500.823 180.32 501.423 179.6 502.623 179.6H509.823C510.903 179.6 511.503 180.08 511.863 181.16L524.463 226.64C525.063 228.32 526.263 228.32 526.743 226.64L527.103 225.44C527.343 224.6 527.343 223.88 527.103 223.04L514.503 177.56C514.143 176.48 513.543 176 512.463 176H498.063C496.863 176 496.263 176.72 496.623 178.04L518.943 258.44C519.303 259.52 519.903 260 520.983 260H523.263C524.343 260 524.943 259.52 525.303 258.44L546.783 181.16C547.143 180.08 547.743 179.6 548.823 179.6H556.023C557.223 179.6 557.823 180.32 557.463 181.64L536.223 257.96C535.863 259.28 536.463 260 537.663 260C538.743 260 539.343 259.52 539.703 258.44L562.023 178.04C562.383 176.72 561.783 176 560.583 176H546.183C545.103 176 544.503 176.48 544.143 177.56L523.263 252.68ZM614.411 177.8C614.411 176.6 613.811 176 612.611 176H570.011C568.811 176 568.211 176.6 568.211 177.8V223.64C568.211 224.84 568.811 225.44 570.011 225.44H580.211C581.411 225.44 582.011 226.04 582.011 227.24V244.04C582.011 245.24 582.611 245.84 583.811 245.84H609.011C610.211 245.84 610.811 246.44 610.811 247.64V254.6C610.811 255.8 610.211 256.4 609.011 256.4H573.611C572.411 256.4 571.811 255.8 571.811 254.6V230.84C571.811 229.64 571.211 229.04 570.011 229.04C568.811 229.04 568.211 229.64 568.211 230.84V258.2C568.211 259.4 568.811 260 570.011 260H612.611C613.811 260 614.411 259.4 614.411 258.2V244.04C614.411 242.84 613.811 242.24 612.611 242.24H587.411C586.211 242.24 585.611 241.64 585.611 240.44V223.64C585.611 222.44 585.011 221.84 583.811 221.84H573.611C572.411 221.84 571.811 221.24 571.811 220.04V181.4C571.811 180.2 572.411 179.6 573.611 179.6H609.011C610.211 179.6 610.811 180.2 610.811 181.4V188.24C610.811 189.44 610.211 190.04 609.011 190.04H583.811C582.611 190.04 582.011 190.64 582.011 191.84V210.44C582.011 211.64 582.611 212.24 583.811 212.24H601.811C603.011 212.24 603.611 212.84 603.611 214.04V220.04C603.611 221.24 603.011 221.84 601.811 221.84H591.011C589.811 221.84 589.211 222.44 589.211 223.64C589.211 224.84 589.811 225.44 591.011 225.44H605.411C606.611 225.44 607.211 224.84 607.211 223.64V210.44C607.211 209.24 606.611 208.64 605.411 208.64H587.411C586.211 208.64 585.611 208.04 585.611 206.84V195.44C585.611 194.24 586.211 193.64 587.411 193.64H612.611C613.811 193.64 614.411 193.04 614.411 191.84V177.8ZM673.614 245C673.614 243.8 673.014 243.2 671.814 243.2H644.814C643.614 243.2 643.014 243.8 643.014 245C643.014 246.2 643.614 246.8 644.814 246.8H668.214C669.414 246.8 670.014 247.4 670.014 248.6V254.6C670.014 255.8 669.414 256.4 668.214 256.4H641.214C640.014 256.4 639.414 255.8 639.414 254.6V177.8C639.414 176.6 638.814 176 637.614 176H623.214C622.014 176 621.414 176.6 621.414 177.8V258.2C621.414 259.4 622.014 260 623.214 260C624.414 260 625.014 259.4 625.014 258.2V181.4C625.014 180.2 625.614 179.6 626.814 179.6H634.014C635.214 179.6 635.814 180.2 635.814 181.4V258.2C635.814 259.4 636.414 260 637.614 260H671.814C673.014 260 673.614 259.4 673.614 258.2V245ZM733.216 202.04C733.216 186.8 720.856 174.44 705.616 174.44C690.376 174.44 678.016 186.8 678.016 202.04V216.56C678.016 217.52 678.496 218.24 679.336 218.6L690.496 223.52C691.336 223.88 691.816 224.6 691.816 225.56V233.84C691.816 241.52 697.936 247.64 705.616 247.64C713.176 247.64 719.416 241.52 719.416 233.96V202.04C719.416 194.48 713.296 188.24 705.616 188.24C697.936 188.24 691.816 194.48 691.816 202.04V214.88C691.816 215.84 692.176 216.56 693.136 216.92L693.616 217.16C694.696 217.64 695.416 217.04 695.416 215.72V202.04C695.416 196.52 699.976 191.84 705.616 191.84C711.256 191.84 715.816 196.52 715.816 202.04V233.84C715.816 239.48 711.256 244.04 705.616 244.04C699.976 244.04 695.416 239.48 695.416 233.84V223.4C695.416 222.44 694.936 221.72 694.096 221.36L682.936 216.32C682.096 215.96 681.616 215.24 681.616 214.28V202.04C681.616 195.68 684.136 189.68 688.696 185.12C693.136 180.56 699.256 178.04 705.616 178.04C711.976 178.04 718.096 180.56 722.536 185.12C727.096 189.68 729.616 195.68 729.616 202.04V233.84C729.616 240.32 727.096 246.32 722.536 250.88C718.096 255.44 711.976 257.84 705.616 257.84C699.256 257.84 693.136 255.44 688.696 250.88C684.136 246.32 681.616 240.32 681.616 233.84V224.96C681.616 224 681.256 223.28 680.296 222.92L679.816 222.68C678.736 222.32 678.016 222.92 678.016 224.24V233.84C678.016 249.2 690.376 261.56 705.616 261.56C720.856 261.56 733.216 249.2 733.216 233.96V202.04ZM742.394 176C741.194 176 740.594 176.6 740.594 177.8V258.2C740.594 259.4 741.194 260 742.394 260H756.434C757.634 260 758.234 259.4 758.234 258.2V213.44C758.234 212.24 758.834 211.64 760.034 211.64H765.554C771.554 211.64 776.354 206.84 776.354 200.84C776.354 194.96 771.554 190.16 765.554 190.16H756.554C755.354 190.04 754.754 190.64 754.754 191.84C754.754 193.04 755.354 193.64 756.554 193.64H765.554C769.514 193.64 772.754 196.88 772.754 200.84C772.754 204.92 769.514 208.04 765.554 208.04H756.554C755.354 208.04 754.754 208.64 754.754 209.84V254.6C754.754 255.8 754.154 256.4 752.954 256.4H745.994C744.794 256.4 744.194 255.8 744.194 254.6V181.4C744.194 180.2 744.794 179.6 745.994 179.6H765.554C771.194 179.6 776.474 181.76 780.554 185.84C784.634 189.92 786.794 195.2 786.794 200.84C786.794 206.6 784.634 211.88 780.554 215.96C776.474 220.04 771.194 222.2 765.554 222.2H763.634C762.434 222.2 761.834 222.8 761.834 224C761.834 225.2 762.434 225.8 763.634 225.8H765.554C779.234 225.8 790.394 214.64 790.394 200.84C790.394 187.16 779.234 176 765.554 176H742.394ZM842.223 177.8C842.223 176.6 841.623 176 840.423 176H797.823C796.623 176 796.023 176.6 796.023 177.8V223.64C796.023 224.84 796.623 225.44 797.823 225.44H808.023C809.223 225.44 809.823 226.04 809.823 227.24V244.04C809.823 245.24 810.423 245.84 811.623 245.84H836.823C838.023 245.84 838.623 246.44 838.623 247.64V254.6C838.623 255.8 838.023 256.4 836.823 256.4H801.423C800.223 256.4 799.623 255.8 799.623 254.6V230.84C799.623 229.64 799.023 229.04 797.823 229.04C796.623 229.04 796.023 229.64 796.023 230.84V258.2C796.023 259.4 796.623 260 797.823 260H840.423C841.623 260 842.223 259.4 842.223 258.2V244.04C842.223 242.84 841.623 242.24 840.423 242.24H815.223C814.023 242.24 813.423 241.64 813.423 240.44V223.64C813.423 222.44 812.823 221.84 811.623 221.84H801.423C800.223 221.84 799.623 221.24 799.623 220.04V181.4C799.623 180.2 800.223 179.6 801.423 179.6H836.823C838.023 179.6 838.623 180.2 838.623 181.4V188.24C838.623 189.44 838.023 190.04 836.823 190.04H811.623C810.423 190.04 809.823 190.64 809.823 191.84V210.44C809.823 211.64 810.423 212.24 811.623 212.24H829.623C830.823 212.24 831.423 212.84 831.423 214.04V220.04C831.423 221.24 830.823 221.84 829.623 221.84H818.823C817.623 221.84 817.023 222.44 817.023 223.64C817.023 224.84 817.623 225.44 818.823 225.44H833.223C834.423 225.44 835.023 224.84 835.023 223.64V210.44C835.023 209.24 834.423 208.64 833.223 208.64H815.223C814.023 208.64 813.423 208.04 813.423 206.84V195.44C813.423 194.24 814.023 193.64 815.223 193.64H840.423C841.623 193.64 842.223 193.04 842.223 191.84V177.8ZM902.261 260C903.581 260 904.181 259.16 903.581 257.84L890.141 226.76C889.661 225.68 887.861 225.92 887.861 225.92C886.901 226.52 886.541 227.36 887.021 228.32L898.781 254.24C899.381 255.56 898.781 256.4 897.461 256.4H890.621C889.661 256.4 888.941 255.92 888.581 255.08L876.341 227.72C875.861 226.52 876.341 225.8 877.661 225.56C880.061 225.32 882.341 224.6 884.501 223.64C885.461 223.16 886.541 222.68 887.501 222.08C894.581 217.64 899.261 209.84 899.261 200.84C899.261 187.16 888.101 176 874.421 176H851.261C850.061 176 849.461 176.6 849.461 177.8V258.2C849.461 259.4 850.061 260 851.261 260H865.661C866.861 260 867.461 259.4 867.461 258.2V213.44C867.461 212.24 868.061 211.64 869.261 211.64H874.421C880.421 211.64 885.221 206.84 885.221 200.84C885.221 194.96 880.421 190.04 874.421 190.04H865.781C864.581 190.04 863.981 190.64 863.981 191.84C863.981 193.04 864.581 193.64 865.781 193.64H874.421C878.381 193.64 881.621 196.88 881.621 200.84C881.621 204.92 878.381 208.04 874.421 208.04H865.661C864.461 208.04 863.861 208.64 863.861 209.84V254.6C863.861 255.8 863.261 256.4 862.061 256.4H854.861C853.661 256.4 853.061 255.8 853.061 254.6V181.4C853.061 180.2 853.661 179.6 854.861 179.6H874.421C880.061 179.6 885.341 181.76 889.421 185.84C893.501 189.92 895.661 195.2 895.661 200.84C895.661 206.6 893.501 211.88 889.421 215.96C888.461 216.92 887.381 217.76 886.301 218.48C885.341 219.2 884.381 219.8 883.301 220.28C880.541 221.48 877.541 222.2 874.421 222.2H872.501C871.301 222.2 870.821 223.04 871.301 224.24L871.901 225.8L886.181 258.68C886.541 259.52 887.261 260 888.221 260H902.261Z" fill="#09FBD3"/>
</g>
<defs>
<filter id="filter0_d" x="0" y="0" width="1047.53" height="168.9" filterUnits="userSpaceOnUse" color-interpolation-filters="sRGB">
<feFlood flood-opacity="0" result="BackgroundImageFix"/>
<feColorMatrix in="SourceAlpha" type="matrix" values="0 0 0 0 0 0 0 0 0 0 0 0 0 0 0 0 0 0 127 0"/>
<feOffset dy="4"/>
<feGaussianBlur stdDeviation="15"/>
<feColorMatrix type="matrix" values="0 0 0 0 0.0352941 0 0 0 0 0.984314 0 0 0 0 0.827451 0 0 0 1 0"/>
<feBlend mode="normal" in2="BackgroundImageFix" result="effect1_dropShadow"/>
<feBlend mode="normal" in="SourceGraphic" in2="effect1_dropShadow" result="shape"/>
</filter>
<filter id="filter1_d" x="112.308" y="148.44" width="821.506" height="147.12" filterUnits="userSpaceOnUse" color-interpolation-filters="sRGB">
<feFlood flood-opacity="0" result="BackgroundImageFix"/>
<feColorMatrix in="SourceAlpha" type="matrix" values="0 0 0 0 0 0 0 0 0 0 0 0 0 0 0 0 0 0 127 0"/>
<feOffset dy="4"/>
<feGaussianBlur stdDeviation="15"/>
<feColorMatrix type="matrix" values="0 0 0 0 0.0352941 0 0 0 0 0.984314 0 0 0 0 0.827451 0 0 0 1 0"/>
<feBlend mode="normal" in2="BackgroundImageFix" result="effect1_dropShadow"/>
<feBlend mode="normal" in="SourceGraphic" in2="effect1_dropShadow" result="shape"/>
</filter>
</defs>
</svg>
