<svg width="988" height="236" viewBox="0 0 988 236" fill="none" xmlns="http://www.w3.org/2000/svg"><mask id="a" fill="#fff"><path d="M2.25 1.95C.75 1.95 0 2.7 0 4.2v100.5c0 1.5.75 2.25 2.25 2.25s2.25-.75 2.25-2.25v-96c0-1.5.75-2.25 2.25-2.25H36.6c6.15 0 12 2.4 16.35 6.75a23.16 23.16 0 010 33c-2.25 2.25-4.35 5.1-10.35 5.1h-2.55c-1.5 0-2.25.75-2.25 2.25v.3c0 1.5.75 2.25 2.25 2.25H45c5.1 0 10.35 3 13.95 6.6a23.16 23.16 0 010 33 23.04 23.04 0 01-16.35 6.75H23.7c-1.5 0-2.25-.75-2.25-2.25v-7.95c0-1.5.75-2.25 2.25-2.25h18.9c6 0 10.8-4.8 10.8-10.8 0-6-4.8-10.95-10.8-10.95H23.7c-1.5 0-2.25-.75-2.25-2.25V42.75c0-1.5.75-2.25 2.25-2.25h12.9c6 0 10.8-4.8 10.8-10.8 0-6-4.8-10.95-10.8-10.95H19.2c-1.5 0-2.25.75-2.25 2.25s.75 2.25 2.25 2.25h17.4c3.45 0 6.3 3 6.3 6.45S40.05 36 36.6 36H19.2c-1.5 0-2.25.75-2.25 2.25V70.5c0 1.5.75 2.25 2.25 2.25h23.4c3.45 0 6.3 3 6.3 6.45s-2.85 6.3-6.3 6.3H19.2c-1.5 0-2.25.75-2.25 2.25v16.95c0 1.5.75 2.25 2.25 2.25h23.4A27.78 27.78 0 0070.35 79.2c0-11.25-6.6-20.85-16.2-25.2-1.5-.75-1.5-1.65-.15-2.7a27.77 27.77 0 0010.35-21.6c0-15.15-12.3-27.75-27.45-27.75H2.25zM143.89 88.2c0-1.5-.75-2.25-2.25-2.25h-33.75c-1.5 0-2.25.75-2.25 2.25s.75 2.25 2.25 2.25h29.25c1.5 0 2.25.75 2.25 2.25v7.5c0 1.5-.75 2.25-2.25 2.25h-33.75c-1.5 0-2.25-.75-2.25-2.25v-96c0-1.5-.75-2.25-2.25-2.25h-18c-1.5 0-2.25.75-2.25 2.25v100.5c0 1.5.75 2.25 2.25 2.25s2.25-.75 2.25-2.25v-96c0-1.5.75-2.25 2.25-2.25h9c1.5 0 2.25.75 2.25 2.25v96c0 1.5.75 2.25 2.25 2.25h42.75c1.5 0 2.25-.75 2.25-2.25V88.2zM203.38 1.95c-1.35 0-2.1.6-2.55 1.8l-31.8 96.9c-.45 1.2-1.2 1.8-2.55 1.8h-8.1c-1.65 0-2.4-1.05-1.8-2.55l31.2-95.4c.6-1.5-.15-2.55-1.65-2.55-1.35 0-2.1.6-2.55 1.8l-33 100.65c-.6 1.5.15 2.55 1.8 2.55h17.1c1.35 0 2.1-.6 2.55-1.8l30.9-94.35c.75-1.95 2.25-1.95 3 0l29.25 89.1c.6 1.5-.15 2.55-1.8 2.55h-8.85c-1.35 0-2.1-.6-2.55-1.8l-7.8-23.85c-.45-1.2-1.2-1.8-2.55-1.8h-17.7c-1.65 0-2.4-1.05-1.8-2.55l2.25-6.9c.45-1.2 1.2-1.8 2.55-1.8h10.2c1.65 0 2.4-1.05 1.8-2.55l-7.35-22.65c-.75-1.95-2.25-1.95-3 0l-.3 1.05a5.11 5.11 0 000 3l4.65 14.1c.6 1.5-.15 2.55-1.8 2.55h-7.35c-1.35 0-2.1.6-2.55 1.8l-5.1 15.9c-.6 1.5.15 2.55 1.8 2.55h20.7c1.35 0 2.1.6 2.55 1.8l7.65 23.85c.45 1.2 1.2 1.8 2.55 1.8h17.85c1.65 0 2.4-1.05 1.8-2.55l-33-100.65c-.45-1.2-1.2-1.8-2.55-1.8h-2.1zM308.14 99.75c.9 1.65.3 2.7-1.5 2.7h-8.7c-1.2 0-2.1-.45-2.7-1.65l-15-27.9a2.72 2.72 0 010-3l35.25-65.25c.9-1.65.15-2.7-1.5-2.7h-18.45c-1.2 0-2.1.45-2.7 1.65l-26.7 49.2a5.1 5.1 0 00-.75 2.85v44.55c0 1.5-.75 2.25-2.25 2.25h-9c-1.5 0-2.25-.75-2.25-2.25V8.7c0-1.5.75-2.25 2.25-2.25h9c1.5 0 2.25.75 2.25 2.25V39c0 2.25 1.65 2.7 2.7.75l1.05-1.95c.6-1.05.75-1.8.75-2.85V4.2c0-1.5-.75-2.25-2.25-2.25h-18c-1.5 0-2.25.75-2.25 2.25v100.5c0 1.5.75 2.25 2.25 2.25h18c1.5 0 2.25-.75 2.25-2.25V55.95c.15-1.05.3-1.8.9-2.85l24.45-45c.6-1.2 1.5-1.65 2.7-1.65h8.7c1.65 0 2.4 1.05 1.5 2.7L275.29 69.9a2.72 2.72 0 000 3l17.55 32.4c.6 1.2 1.5 1.65 2.7 1.65h18.45c1.65 0 2.4-1.05 1.5-2.7l-22.95-42.3c-.9-1.65-2.1-1.65-3 0l-.15.15a3.06 3.06 0 00.15 3l18.6 34.65zM381.46 4.2c0-1.5-.75-2.25-2.25-2.25h-53.25c-1.5 0-2.25.75-2.25 2.25v57.3c0 1.5.75 2.25 2.25 2.25h12.75c1.5 0 2.25.75 2.25 2.25v21c0 1.5.75 2.25 2.25 2.25h31.5c1.5 0 2.25.75 2.25 2.25v8.7c0 1.5-.75 2.25-2.25 2.25h-44.25c-1.5 0-2.25-.75-2.25-2.25V70.5c0-1.5-.75-2.25-2.25-2.25s-2.25.75-2.25 2.25v34.2c0 1.5.75 2.25 2.25 2.25h53.25c1.5 0 2.25-.75 2.25-2.25V87c0-1.5-.75-2.25-2.25-2.25h-31.5c-1.5 0-2.25-.75-2.25-2.25v-21c0-1.5-.75-2.25-2.25-2.25h-12.75c-1.5 0-2.25-.75-2.25-2.25V8.7c0-1.5.75-2.25 2.25-2.25h44.25c1.5 0 2.25.75 2.25 2.25v8.55c0 1.5-.75 2.25-2.25 2.25h-31.5c-1.5 0-2.25.75-2.25 2.25V45c0 1.5.75 2.25 2.25 2.25h22.5c1.5 0 2.25.75 2.25 2.25V57c0 1.5-.75 2.25-2.25 2.25h-13.5c-1.5 0-2.25.75-2.25 2.25s.75 2.25 2.25 2.25h18c1.5 0 2.25-.75 2.25-2.25V45c0-1.5-.75-2.25-2.25-2.25h-22.5c-1.5 0-2.25-.75-2.25-2.25V26.25c0-1.5.75-2.25 2.25-2.25h31.5c1.5 0 2.25-.75 2.25-2.25V4.2zM465.35 61.35c-.75 1.65-2.25 1.65-3 0l-14.4-29.1c-1.05-2.1-2.7-1.65-2.7.6v67.35c0 1.5-.75 2.25-2.25 2.25h-8.25c-1.5 0-2.25-.75-2.25-2.25V8.7c0-1.5.75-2.25 2.25-2.25h12.45c1.2 0 2.1.45 2.55 1.65L467 42.3c.75 1.65 2.25 1.65 3 0l.15-.3a3.5 3.5 0 000-3l-17.7-35.4c-.45-1.2-1.35-1.65-2.55-1.65h-19.65c-1.5 0-2.25.75-2.25 2.25v100.5c0 1.5.75 2.25 2.25 2.25h17.25c1.5 0 2.25-.75 2.25-2.25V51.45c0-2.25 1.65-2.7 2.7-.6l9.9 19.95c.75 1.65 2.25 1.65 3 0l31.5-62.7c.45-1.2 1.35-1.65 2.55-1.65h12.45c1.5 0 2.25.75 2.25 2.25v91.5c0 1.5-.75 2.25-2.25 2.25h-8.25c-1.5 0-2.25-.75-2.25-2.25V33c0-2.25-1.65-2.7-2.7-.6l-1.8 3.6-22.8 45.9a3.5 3.5 0 000 3l.45.75c.6 1.2 1.8.9 2.55-.75l17.1-34.2c1.05-1.95 2.7-1.5 2.7.75v53.25c0 1.5.75 2.25 2.25 2.25h17.25c1.5 0 2.25-.75 2.25-2.25V4.2c0-1.5-.75-2.25-2.25-2.25h-19.2c-1.2 0-2.1.45-2.55 1.65l-29.25 57.75zM578.09 1.95c-1.35 0-2.1.6-2.55 1.8l-31.8 96.9c-.45 1.2-1.2 1.8-2.55 1.8h-8.1c-1.65 0-2.4-1.05-1.8-2.55l31.2-95.4c.6-1.5-.15-2.55-1.65-2.55-1.35 0-2.1.6-2.55 1.8l-33 100.65c-.6 1.5.15 2.55 1.8 2.55h17.1c1.35 0 2.1-.6 2.55-1.8l30.9-94.35c.75-1.95 2.25-1.95 3 0l29.25 89.1c.6 1.5-.15 2.55-1.8 2.55h-8.85c-1.35 0-2.1-.6-2.55-1.8l-7.8-23.85c-.45-1.2-1.2-1.8-2.55-1.8h-17.7c-1.65 0-2.4-1.05-1.8-2.55l2.25-6.9c.45-1.2 1.2-1.8 2.55-1.8h10.2c1.65 0 2.4-1.05 1.8-2.55l-7.35-22.65c-.75-1.95-2.25-1.95-3 0l-.3 1.05a5.11 5.11 0 000 3l4.65 14.1c.6 1.5-.15 2.55-1.8 2.55h-7.35c-1.35 0-2.1.6-2.55 1.8l-5.1 15.9c-.6 1.5.15 2.55 1.8 2.55h20.7c1.35 0 2.1.6 2.55 1.8l7.65 23.85c.45 1.2 1.2 1.8 2.55 1.8h17.85c1.65 0 2.4-1.05 1.8-2.55l-33-100.65c-.45-1.2-1.2-1.8-2.55-1.8h-2.1zM634.64 54.9c1.05-1.05 1.05-2.1-.15-3.15-6.75-5.85-12-12.75-12-22.05 0-13.8 11.25-25.2 25.2-25.2 12.15 0 22.5 9 24.6 20.55.3 1.5-.6 2.4-2.1 2.4h-8.7c-1.35 0-1.95-.6-2.4-1.95a12.23 12.23 0 00-23.7 4.2c0 6.3 4.95 11.25 11.1 16.2 1.2 1.05 1.35 2.1.3 3.15l-7.05 7.05-1.5 1.65c-1.05 1.05-.9 2.1.3 3.15l1.65 1.2.9.75c7.65 5.7 14.25 10.65 14.25 16.35 0 4.2-3.45 7.65-7.65 7.65a7.72 7.72 0 01-7.8-7.65V78c0-.6-.75-1.05-2.25-1.05h-17.4c-1.5 0-2.25.75-2.25 2.25a29.77 29.77 0 0029.7 29.7c16.2 0 29.55-13.35 29.55-29.7 0-7.05-2.55-13.5-7.8-19.65-2.55-3-5.7-5.85-8.85-8.55-1.05-.9-2.1-.9-3.15.15l-.15.15c-1.05 1.05-.9 2.1.3 3.15 7.95 6.45 15.15 14.1 15.15 24.75a25.1 25.1 0 01-25.05 25.05c-12.3 0-22.65-8.85-24.75-20.4-.3-1.5.6-2.4 2.1-2.4h8.7c1.35 0 1.95.6 2.4 1.95a12.4 12.4 0 0011.55 7.95c6.6 0 12.15-5.4 12.15-12.15 0-7.95-7.8-13.8-16.05-19.95l-.15-.15c-.15-.15.3-.75 1.5-1.95l6.9-7.05 1.65-1.65c1.05-.9 1.2-1.8.45-2.4l-2.4-1.8c-6.6-4.95-11.85-9.45-11.85-14.55 0-4.2 3.45-7.65 7.8-7.65 4.2 0 7.65 3.45 7.65 7.65v1.05c0 .75.75 1.2 2.25 1.2H675c1.5 0 2.25-.75 2.25-2.25C677.24 13.35 663.9 0 647.7 0A29.77 29.77 0 00618 29.7c0 7.05 2.55 13.5 7.8 19.65 1.65 1.95 3.6 3.9 5.55 5.7 1.05 1.05 2.25.9 3.15 0l.15-.15zM685.28 1.95c-1.5 0-2.25.75-2.25 2.25v17.25c0 1.5.75 2.25 2.25 2.25h18c1.5 0 2.25-.75 2.25-2.25s-.75-2.25-2.25-2.25h-13.5c-1.5 0-2.25-.75-2.25-2.25V8.7c0-1.5.75-2.25 2.25-2.25h63c1.5 0 2.25.75 2.25 2.25v8.25c0 1.5-.75 2.25-2.25 2.25h-40.5c-1.5 0-2.25.75-2.25 2.25v83.25c0 1.5.75 2.25 2.25 2.25h18c1.5 0 2.25-.75 2.25-2.25V30.45c0-1.5-.75-2.25-2.25-2.25s-2.25.75-2.25 2.25v69.75c0 1.5-.75 2.25-2.25 2.25h-9c-1.5 0-2.25-.75-2.25-2.25V25.95c0-1.5.75-2.25 2.25-2.25h40.5c1.5 0 2.25-.75 2.25-2.25V4.2c0-1.5-.75-2.25-2.25-2.25h-72zM833.7 106.95c1.65 0 2.4-1.05 1.65-2.7l-16.8-38.85c-.6-1.35-2.85-1.05-2.85-1.05-1.2.75-1.65 1.8-1.05 3l14.7 32.4c.75 1.65 0 2.7-1.65 2.7h-8.55c-1.2 0-2.1-.6-2.55-1.65l-15.3-34.2c-.6-1.5 0-2.4 1.65-2.7 3-.3 5.85-1.2 8.55-2.4 1.2-.6 2.55-1.2 3.75-1.95A31.19 31.19 0 00829.95 33 31.11 31.11 0 00798.9 1.95h-28.95c-1.5 0-2.25.75-2.25 2.25v100.5c0 1.5.75 2.25 2.25 2.25h18c1.5 0 2.25-.75 2.25-2.25V48.75c0-1.5.75-2.25 2.25-2.25h6.45c7.5 0 13.5-6 13.5-13.5 0-7.35-6-13.5-13.5-13.5h-10.8c-1.5 0-2.25.75-2.25 2.25S786.6 24 788.1 24h10.8c4.95 0 9 4.05 9 9 0 5.1-4.05 9-9 9h-10.95c-1.5 0-2.25.75-2.25 2.25v55.95c0 1.5-.75 2.25-2.25 2.25h-9c-1.5 0-2.25-.75-2.25-2.25V8.7c0-1.5.75-2.25 2.25-2.25h24.45c7.05 0 13.65 2.7 18.75 7.8s7.8 11.7 7.8 18.75c0 7.2-2.7 13.8-7.8 18.9a25.63 25.63 0 01-3.9 3.15c-1.2.9-2.4 1.65-3.75 2.25-3.45 1.5-7.2 2.4-11.1 2.4h-2.4c-1.5 0-2.1 1.05-1.5 2.55l.75 1.95 17.85 41.1a2.63 2.63 0 002.55 1.65h17.55zM890.74 1.95c-1.5 0-2.25.75-2.25 2.25v69.6c0 3.75-1.65 7.05-4.2 9.3-.9.75-1.35 1.5-1.35 2.7v.9c0 1.5 1.2 2.1 2.7 1.05 4.35-3 7.35-8.1 7.35-13.95V8.7c0-1.5.75-2.25 2.25-2.25h9.15c1.5 0 2.25.75 2.25 2.25v65.1c.15 4.05-.75 8.1-2.25 11.85a32.94 32.94 0 01-6.6 9.75 32.94 32.94 0 01-9.75 6.6c-2.25.9-4.65 1.5-7.2 1.95-1.5.3-2.4-.6-2.4-2.1v-13.5c0-1.5-2.25-2.25-2.25-2.25-6.9 0-12.45-5.55-12.45-12.3V4.2c0-1.5-.75-2.25-2.25-2.25h-18.15c-1.5 0-2.25.75-2.25 2.25v69.6a35.1 35.1 0 0025.8 33.75c1.65.45 2.55-.3 2.55-1.95 0-1.35-.6-2.1-1.95-2.55-1.05-.3-2.1-.6-3.3-1.05a30.47 30.47 0 01-9.6-6.6 30.32 30.32 0 01-6.6-9.75 29.38 29.38 0 01-2.4-11.85V8.7c0-1.5.75-2.25 2.25-2.25h9.15c1.5 0 2.25.75 2.25 2.25v65.1c0 7.8 5.4 14.4 12.75 16.2 1.2.45 1.95 1.2 1.95 2.55v13.95c0 1.5 1.95 2.4 2.1 2.4h.15a35.18 35.18 0 0035.1-35.25V4.2c0-1.5-.75-2.25-2.25-2.25h-18.3zM940.28 1.95c-1.5 0-2.25.75-2.25 2.25v82.95c0 1.5.75 2.25 2.25 2.25h12c9.9 0 18-8.1 18-18V37.65c0-10.05-8.1-18-18-18h-3.3c-1.5 0-2.25.75-2.25 2.25s.75 2.25 2.25 2.25h3.3c7.5 0 13.5 6 13.5 13.5V71.4c0 7.5-6 13.5-13.5 13.5h-7.5c-1.5 0-2.25-.75-2.25-2.25V8.7c0-1.5.75-2.25 2.25-2.25h9c7.8 0 15.15 3 20.7 8.55a29.04 29.04 0 018.55 20.7v37.5c0 7.8-3 15.15-8.55 20.7a29.04 29.04 0 01-20.7 8.55h-26.25c-1.5 0-2.25-.75-2.25-2.25v-96c0-1.5-.75-2.25-2.25-2.25s-2.25.75-2.25 2.25v100.5c0 1.5.75 2.25 2.25 2.25h30.75a33.8 33.8 0 0033.75-33.75V35.7a33.8 33.8 0 00-33.75-33.75h-13.5z"/></mask><path d="M2.25 1.95C.75 1.95 0 2.7 0 4.2v100.5c0 1.5.75 2.25 2.25 2.25s2.25-.75 2.25-2.25v-96c0-1.5.75-2.25 2.25-2.25H36.6c6.15 0 12 2.4 16.35 6.75a23.16 23.16 0 010 33c-2.25 2.25-4.35 5.1-10.35 5.1h-2.55c-1.5 0-2.25.75-2.25 2.25v.3c0 1.5.75 2.25 2.25 2.25H45c5.1 0 10.35 3 13.95 6.6a23.16 23.16 0 010 33 23.04 23.04 0 01-16.35 6.75H23.7c-1.5 0-2.25-.75-2.25-2.25v-7.95c0-1.5.75-2.25 2.25-2.25h18.9c6 0 10.8-4.8 10.8-10.8 0-6-4.8-10.95-10.8-10.95H23.7c-1.5 0-2.25-.75-2.25-2.25V42.75c0-1.5.75-2.25 2.25-2.25h12.9c6 0 10.8-4.8 10.8-10.8 0-6-4.8-10.95-10.8-10.95H19.2c-1.5 0-2.25.75-2.25 2.25s.75 2.25 2.25 2.25h17.4c3.45 0 6.3 3 6.3 6.45S40.05 36 36.6 36H19.2c-1.5 0-2.25.75-2.25 2.25V70.5c0 1.5.75 2.25 2.25 2.25h23.4c3.45 0 6.3 3 6.3 6.45s-2.85 6.3-6.3 6.3H19.2c-1.5 0-2.25.75-2.25 2.25v16.95c0 1.5.75 2.25 2.25 2.25h23.4A27.78 27.78 0 0070.35 79.2c0-11.25-6.6-20.85-16.2-25.2-1.5-.75-1.5-1.65-.15-2.7a27.77 27.77 0 0010.35-21.6c0-15.15-12.3-27.75-27.45-27.75H2.25zM143.89 88.2c0-1.5-.75-2.25-2.25-2.25h-33.75c-1.5 0-2.25.75-2.25 2.25s.75 2.25 2.25 2.25h29.25c1.5 0 2.25.75 2.25 2.25v7.5c0 1.5-.75 2.25-2.25 2.25h-33.75c-1.5 0-2.25-.75-2.25-2.25v-96c0-1.5-.75-2.25-2.25-2.25h-18c-1.5 0-2.25.75-2.25 2.25v100.5c0 1.5.75 2.25 2.25 2.25s2.25-.75 2.25-2.25v-96c0-1.5.75-2.25 2.25-2.25h9c1.5 0 2.25.75 2.25 2.25v96c0 1.5.75 2.25 2.25 2.25h42.75c1.5 0 2.25-.75 2.25-2.25V88.2zM203.38 1.95c-1.35 0-2.1.6-2.55 1.8l-31.8 96.9c-.45 1.2-1.2 1.8-2.55 1.8h-8.1c-1.65 0-2.4-1.05-1.8-2.55l31.2-95.4c.6-1.5-.15-2.55-1.65-2.55-1.35 0-2.1.6-2.55 1.8l-33 100.65c-.6 1.5.15 2.55 1.8 2.55h17.1c1.35 0 2.1-.6 2.55-1.8l30.9-94.35c.75-1.95 2.25-1.95 3 0l29.25 89.1c.6 1.5-.15 2.55-1.8 2.55h-8.85c-1.35 0-2.1-.6-2.55-1.8l-7.8-23.85c-.45-1.2-1.2-1.8-2.55-1.8h-17.7c-1.65 0-2.4-1.05-1.8-2.55l2.25-6.9c.45-1.2 1.2-1.8 2.55-1.8h10.2c1.65 0 2.4-1.05 1.8-2.55l-7.35-22.65c-.75-1.95-2.25-1.95-3 0l-.3 1.05a5.11 5.11 0 000 3l4.65 14.1c.6 1.5-.15 2.55-1.8 2.55h-7.35c-1.35 0-2.1.6-2.55 1.8l-5.1 15.9c-.6 1.5.15 2.55 1.8 2.55h20.7c1.35 0 2.1.6 2.55 1.8l7.65 23.85c.45 1.2 1.2 1.8 2.55 1.8h17.85c1.65 0 2.4-1.05 1.8-2.55l-33-100.65c-.45-1.2-1.2-1.8-2.55-1.8h-2.1zM308.14 99.75c.9 1.65.3 2.7-1.5 2.7h-8.7c-1.2 0-2.1-.45-2.7-1.65l-15-27.9a2.72 2.72 0 010-3l35.25-65.25c.9-1.65.15-2.7-1.5-2.7h-18.45c-1.2 0-2.1.45-2.7 1.65l-26.7 49.2a5.1 5.1 0 00-.75 2.85v44.55c0 1.5-.75 2.25-2.25 2.25h-9c-1.5 0-2.25-.75-2.25-2.25V8.7c0-1.5.75-2.25 2.25-2.25h9c1.5 0 2.25.75 2.25 2.25V39c0 2.25 1.65 2.7 2.7.75l1.05-1.95c.6-1.05.75-1.8.75-2.85V4.2c0-1.5-.75-2.25-2.25-2.25h-18c-1.5 0-2.25.75-2.25 2.25v100.5c0 1.5.75 2.25 2.25 2.25h18c1.5 0 2.25-.75 2.25-2.25V55.95c.15-1.05.3-1.8.9-2.85l24.45-45c.6-1.2 1.5-1.65 2.7-1.65h8.7c1.65 0 2.4 1.05 1.5 2.7L275.29 69.9a2.72 2.72 0 000 3l17.55 32.4c.6 1.2 1.5 1.65 2.7 1.65h18.45c1.65 0 2.4-1.05 1.5-2.7l-22.95-42.3c-.9-1.65-2.1-1.65-3 0l-.15.15a3.06 3.06 0 00.15 3l18.6 34.65zM381.46 4.2c0-1.5-.75-2.25-2.25-2.25h-53.25c-1.5 0-2.25.75-2.25 2.25v57.3c0 1.5.75 2.25 2.25 2.25h12.75c1.5 0 2.25.75 2.25 2.25v21c0 1.5.75 2.25 2.25 2.25h31.5c1.5 0 2.25.75 2.25 2.25v8.7c0 1.5-.75 2.25-2.25 2.25h-44.25c-1.5 0-2.25-.75-2.25-2.25V70.5c0-1.5-.75-2.25-2.25-2.25s-2.25.75-2.25 2.25v34.2c0 1.5.75 2.25 2.25 2.25h53.25c1.5 0 2.25-.75 2.25-2.25V87c0-1.5-.75-2.25-2.25-2.25h-31.5c-1.5 0-2.25-.75-2.25-2.25v-21c0-1.5-.75-2.25-2.25-2.25h-12.75c-1.5 0-2.25-.75-2.25-2.25V8.7c0-1.5.75-2.25 2.25-2.25h44.25c1.5 0 2.25.75 2.25 2.25v8.55c0 1.5-.75 2.25-2.25 2.25h-31.5c-1.5 0-2.25.75-2.25 2.25V45c0 1.5.75 2.25 2.25 2.25h22.5c1.5 0 2.25.75 2.25 2.25V57c0 1.5-.75 2.25-2.25 2.25h-13.5c-1.5 0-2.25.75-2.25 2.25s.75 2.25 2.25 2.25h18c1.5 0 2.25-.75 2.25-2.25V45c0-1.5-.75-2.25-2.25-2.25h-22.5c-1.5 0-2.25-.75-2.25-2.25V26.25c0-1.5.75-2.25 2.25-2.25h31.5c1.5 0 2.25-.75 2.25-2.25V4.2zM465.35 61.35c-.75 1.65-2.25 1.65-3 0l-14.4-29.1c-1.05-2.1-2.7-1.65-2.7.6v67.35c0 1.5-.75 2.25-2.25 2.25h-8.25c-1.5 0-2.25-.75-2.25-2.25V8.7c0-1.5.75-2.25 2.25-2.25h12.45c1.2 0 2.1.45 2.55 1.65L467 42.3c.75 1.65 2.25 1.65 3 0l.15-.3a3.5 3.5 0 000-3l-17.7-35.4c-.45-1.2-1.35-1.65-2.55-1.65h-19.65c-1.5 0-2.25.75-2.25 2.25v100.5c0 1.5.75 2.25 2.25 2.25h17.25c1.5 0 2.25-.75 2.25-2.25V51.45c0-2.25 1.65-2.7 2.7-.6l9.9 19.95c.75 1.65 2.25 1.65 3 0l31.5-62.7c.45-1.2 1.35-1.65 2.55-1.65h12.45c1.5 0 2.25.75 2.25 2.25v91.5c0 1.5-.75 2.25-2.25 2.25h-8.25c-1.5 0-2.25-.75-2.25-2.25V33c0-2.25-1.65-2.7-2.7-.6l-1.8 3.6-22.8 45.9a3.5 3.5 0 000 3l.45.75c.6 1.2 1.8.9 2.55-.75l17.1-34.2c1.05-1.95 2.7-1.5 2.7.75v53.25c0 1.5.75 2.25 2.25 2.25h17.25c1.5 0 2.25-.75 2.25-2.25V4.2c0-1.5-.75-2.25-2.25-2.25h-19.2c-1.2 0-2.1.45-2.55 1.65l-29.25 57.75zM578.09 1.95c-1.35 0-2.1.6-2.55 1.8l-31.8 96.9c-.45 1.2-1.2 1.8-2.55 1.8h-8.1c-1.65 0-2.4-1.05-1.8-2.55l31.2-95.4c.6-1.5-.15-2.55-1.65-2.55-1.35 0-2.1.6-2.55 1.8l-33 100.65c-.6 1.5.15 2.55 1.8 2.55h17.1c1.35 0 2.1-.6 2.55-1.8l30.9-94.35c.75-1.95 2.25-1.95 3 0l29.25 89.1c.6 1.5-.15 2.55-1.8 2.55h-8.85c-1.35 0-2.1-.6-2.55-1.8l-7.8-23.85c-.45-1.2-1.2-1.8-2.55-1.8h-17.7c-1.65 0-2.4-1.05-1.8-2.55l2.25-6.9c.45-1.2 1.2-1.8 2.55-1.8h10.2c1.65 0 2.4-1.05 1.8-2.55l-7.35-22.65c-.75-1.95-2.25-1.95-3 0l-.3 1.05a5.11 5.11 0 000 3l4.65 14.1c.6 1.5-.15 2.55-1.8 2.55h-7.35c-1.35 0-2.1.6-2.55 1.8l-5.1 15.9c-.6 1.5.15 2.55 1.8 2.55h20.7c1.35 0 2.1.6 2.55 1.8l7.65 23.85c.45 1.2 1.2 1.8 2.55 1.8h17.85c1.65 0 2.4-1.05 1.8-2.55l-33-100.65c-.45-1.2-1.2-1.8-2.55-1.8h-2.1zM634.64 54.9c1.05-1.05 1.05-2.1-.15-3.15-6.75-5.85-12-12.75-12-22.05 0-13.8 11.25-25.2 25.2-25.2 12.15 0 22.5 9 24.6 20.55.3 1.5-.6 2.4-2.1 2.4h-8.7c-1.35 0-1.95-.6-2.4-1.95a12.23 12.23 0 00-23.7 4.2c0 6.3 4.95 11.25 11.1 16.2 1.2 1.05 1.35 2.1.3 3.15l-7.05 7.05-1.5 1.65c-1.05 1.05-.9 2.1.3 3.15l1.65 1.2.9.75c7.65 5.7 14.25 10.65 14.25 16.35 0 4.2-3.45 7.65-7.65 7.65a7.72 7.72 0 01-7.8-7.65V78c0-.6-.75-1.05-2.25-1.05h-17.4c-1.5 0-2.25.75-2.25 2.25a29.77 29.77 0 0029.7 29.7c16.2 0 29.55-13.35 29.55-29.7 0-7.05-2.55-13.5-7.8-19.65-2.55-3-5.7-5.85-8.85-8.55-1.05-.9-2.1-.9-3.15.15l-.15.15c-1.05 1.05-.9 2.1.3 3.15 7.95 6.45 15.15 14.1 15.15 24.75a25.1 25.1 0 01-25.05 25.05c-12.3 0-22.65-8.85-24.75-20.4-.3-1.5.6-2.4 2.1-2.4h8.7c1.35 0 1.95.6 2.4 1.95a12.4 12.4 0 0011.55 7.95c6.6 0 12.15-5.4 12.15-12.15 0-7.95-7.8-13.8-16.05-19.95l-.15-.15c-.15-.15.3-.75 1.5-1.95l6.9-7.05 1.65-1.65c1.05-.9 1.2-1.8.45-2.4l-2.4-1.8c-6.6-4.95-11.85-9.45-11.85-14.55 0-4.2 3.45-7.65 7.8-7.65 4.2 0 7.65 3.45 7.65 7.65v1.05c0 .75.75 1.2 2.25 1.2H675c1.5 0 2.25-.75 2.25-2.25C677.24 13.35 663.9 0 647.7 0A29.77 29.77 0 00618 29.7c0 7.05 2.55 13.5 7.8 19.65 1.65 1.95 3.6 3.9 5.55 5.7 1.05 1.05 2.25.9 3.15 0l.15-.15zM685.28 1.95c-1.5 0-2.25.75-2.25 2.25v17.25c0 1.5.75 2.25 2.25 2.25h18c1.5 0 2.25-.75 2.25-2.25s-.75-2.25-2.25-2.25h-13.5c-1.5 0-2.25-.75-2.25-2.25V8.7c0-1.5.75-2.25 2.25-2.25h63c1.5 0 2.25.75 2.25 2.25v8.25c0 1.5-.75 2.25-2.25 2.25h-40.5c-1.5 0-2.25.75-2.25 2.25v83.25c0 1.5.75 2.25 2.25 2.25h18c1.5 0 2.25-.75 2.25-2.25V30.45c0-1.5-.75-2.25-2.25-2.25s-2.25.75-2.25 2.25v69.75c0 1.5-.75 2.25-2.25 2.25h-9c-1.5 0-2.25-.75-2.25-2.25V25.95c0-1.5.75-2.25 2.25-2.25h40.5c1.5 0 2.25-.75 2.25-2.25V4.2c0-1.5-.75-2.25-2.25-2.25h-72zM833.7 106.95c1.65 0 2.4-1.05 1.65-2.7l-16.8-38.85c-.6-1.35-2.85-1.05-2.85-1.05-1.2.75-1.65 1.8-1.05 3l14.7 32.4c.75 1.65 0 2.7-1.65 2.7h-8.55c-1.2 0-2.1-.6-2.55-1.65l-15.3-34.2c-.6-1.5 0-2.4 1.65-2.7 3-.3 5.85-1.2 8.55-2.4 1.2-.6 2.55-1.2 3.75-1.95A31.19 31.19 0 00829.95 33 31.11 31.11 0 00798.9 1.95h-28.95c-1.5 0-2.25.75-2.25 2.25v100.5c0 1.5.75 2.25 2.25 2.25h18c1.5 0 2.25-.75 2.25-2.25V48.75c0-1.5.75-2.25 2.25-2.25h6.45c7.5 0 13.5-6 13.5-13.5 0-7.35-6-13.5-13.5-13.5h-10.8c-1.5 0-2.25.75-2.25 2.25S786.6 24 788.1 24h10.8c4.95 0 9 4.05 9 9 0 5.1-4.05 9-9 9h-10.95c-1.5 0-2.25.75-2.25 2.25v55.95c0 1.5-.75 2.25-2.25 2.25h-9c-1.5 0-2.25-.75-2.25-2.25V8.7c0-1.5.75-2.25 2.25-2.25h24.45c7.05 0 13.65 2.7 18.75 7.8s7.8 11.7 7.8 18.75c0 7.2-2.7 13.8-7.8 18.9a25.63 25.63 0 01-3.9 3.15c-1.2.9-2.4 1.65-3.75 2.25-3.45 1.5-7.2 2.4-11.1 2.4h-2.4c-1.5 0-2.1 1.05-1.5 2.55l.75 1.95 17.85 41.1a2.63 2.63 0 002.55 1.65h17.55zM890.74 1.95c-1.5 0-2.25.75-2.25 2.25v69.6c0 3.75-1.65 7.05-4.2 9.3-.9.75-1.35 1.5-1.35 2.7v.9c0 1.5 1.2 2.1 2.7 1.05 4.35-3 7.35-8.1 7.35-13.95V8.7c0-1.5.75-2.25 2.25-2.25h9.15c1.5 0 2.25.75 2.25 2.25v65.1c.15 4.05-.75 8.1-2.25 11.85a32.94 32.94 0 01-6.6 9.75 32.94 32.94 0 01-9.75 6.6c-2.25.9-4.65 1.5-7.2 1.95-1.5.3-2.4-.6-2.4-2.1v-13.5c0-1.5-2.25-2.25-2.25-2.25-6.9 0-12.45-5.55-12.45-12.3V4.2c0-1.5-.75-2.25-2.25-2.25h-18.15c-1.5 0-2.25.75-2.25 2.25v69.6a35.1 35.1 0 0025.8 33.75c1.65.45 2.55-.3 2.55-1.95 0-1.35-.6-2.1-1.95-2.55-1.05-.3-2.1-.6-3.3-1.05a30.47 30.47 0 01-9.6-6.6 30.32 30.32 0 01-6.6-9.75 29.38 29.38 0 01-2.4-11.85V8.7c0-1.5.75-2.25 2.25-2.25h9.15c1.5 0 2.25.75 2.25 2.25v65.1c0 7.8 5.4 14.4 12.75 16.2 1.2.45 1.95 1.2 1.95 2.55v13.95c0 1.5 1.95 2.4 2.1 2.4h.15a35.18 35.18 0 0035.1-35.25V4.2c0-1.5-.75-2.25-2.25-2.25h-18.3zM940.28 1.95c-1.5 0-2.25.75-2.25 2.25v82.95c0 1.5.75 2.25 2.25 2.25h12c9.9 0 18-8.1 18-18V37.65c0-10.05-8.1-18-18-18h-3.3c-1.5 0-2.25.75-2.25 2.25s.75 2.25 2.25 2.25h3.3c7.5 0 13.5 6 13.5 13.5V71.4c0 7.5-6 13.5-13.5 13.5h-7.5c-1.5 0-2.25-.75-2.25-2.25V8.7c0-1.5.75-2.25 2.25-2.25h9c7.8 0 15.15 3 20.7 8.55a29.04 29.04 0 018.55 20.7v37.5c0 7.8-3 15.15-8.55 20.7a29.04 29.04 0 01-20.7 8.55h-26.25c-1.5 0-2.25-.75-2.25-2.25v-96c0-1.5-.75-2.25-2.25-2.25s-2.25.75-2.25 2.25v100.5c0 1.5.75 2.25 2.25 2.25h30.75a33.8 33.8 0 0033.75-33.75V35.7a33.8 33.8 0 00-33.75-33.75h-13.5z" stroke="#09FBD3" stroke-width="10" mask="url(#a)"/><mask id="b" fill="#fff"><path d="M182.08 150c-1.08 0-1.8.48-2.04 1.56l-6.72 34.92c-.36 1.8-1.8 1.8-2.16 0l-6.6-34.92c-.24-1.08-.96-1.56-2.04-1.56h-1.44c-1.08 0-1.8.48-2.04 1.56l-14.76 77.28c-.24 1.08-.96 1.56-2.04 1.56h-9.48c-1.08 0-1.8-.48-2.04-1.56l-14.04-73.32c-.24-1.2.36-1.92 1.68-1.92h6.48c1.08 0 1.8.48 2.04 1.56l9.48 50.04c.36 1.8 1.8 1.8 2.16 0l10.32-53.28c.24-1.2-.36-1.92-1.56-1.92-1.08 0-1.8.48-2.04 1.56l-6.72 34.92c-.36 1.8-1.8 1.8-2.16 0l-6.6-34.92c-.24-1.08-.96-1.56-2.04-1.56h-13.68c-1.32 0-1.92.72-1.68 1.92l15.48 80.52c.24 1.08.96 1.56 2.04 1.56h15.24c1.08 0 1.8-.48 2.04-1.56l13.56-70.68c.36-1.8 1.8-1.8 2.16 0l8.28 43.44c.36 1.8 1.8 1.8 2.16 0l9.6-50.04c.24-1.08.96-1.56 2.04-1.56h6.48c1.32 0 1.92.72 1.68 1.92l-14.04 73.32c-.24 1.08-.96 1.56-2.04 1.56h-9.48c-1.08 0-1.8-.48-2.04-1.56l-5.88-31.2c-.36-1.68-1.8-1.68-2.16 0l-.48 2.76a3.33 3.33 0 000 2.16l5.64 29.88c.24 1.08.96 1.56 2.04 1.56h15.24c1.08 0 1.8-.48 2.04-1.56l15.48-80.52c.24-1.2-.36-1.92-1.68-1.92h-13.68zM249.96 151.8c0-1.2-.6-1.8-1.8-1.8h-42.6c-1.2 0-1.8.6-1.8 1.8v45.84c0 1.2.6 1.8 1.8 1.8h10.2c1.2 0 1.8.6 1.8 1.8v16.8c0 1.2.6 1.8 1.8 1.8h25.2c1.2 0 1.8.6 1.8 1.8v6.96c0 1.2-.6 1.8-1.8 1.8h-35.4c-1.2 0-1.8-.6-1.8-1.8v-23.76c0-1.2-.6-1.8-1.8-1.8-1.2 0-1.8.6-1.8 1.8v27.36c0 1.2.6 1.8 1.8 1.8h42.6c1.2 0 1.8-.6 1.8-1.8v-14.16c0-1.2-.6-1.8-1.8-1.8h-25.2c-1.2 0-1.8-.6-1.8-1.8v-16.8c0-1.2-.6-1.8-1.8-1.8h-10.2c-1.2 0-1.8-.6-1.8-1.8V155.4c0-1.2.6-1.8 1.8-1.8h35.4c1.2 0 1.8.6 1.8 1.8v6.84c0 1.2-.6 1.8-1.8 1.8h-25.2c-1.2 0-1.8.6-1.8 1.8v18.6c0 1.2.6 1.8 1.8 1.8h18c1.2 0 1.8.6 1.8 1.8v6c0 1.2-.6 1.8-1.8 1.8h-10.8c-1.2 0-1.8.6-1.8 1.8 0 1.2.6 1.8 1.8 1.8h14.4c1.2 0 1.8-.6 1.8-1.8v-13.2c0-1.2-.6-1.8-1.8-1.8h-18c-1.2 0-1.8-.6-1.8-1.8v-11.4c0-1.2.6-1.8 1.8-1.8h25.2c1.2 0 1.8-.6 1.8-1.8V151.8zM260.19 150c-1.2 0-1.8.6-1.8 1.8v80.4c0 1.2.6 1.8 1.8 1.8 1.2 0 1.8-.6 1.8-1.8v-76.8c0-1.2.6-1.8 1.8-1.8h23.88c4.92 0 9.6 1.92 13.08 5.4a18.53 18.53 0 010 26.4c-1.8 1.8-3.48 4.08-8.28 4.08h-2.04c-1.2 0-1.8.6-1.8 1.8v.24c0 1.2.6 1.8 1.8 1.8h3.96c4.08 0 8.28 2.4 11.16 5.28a18.53 18.53 0 010 26.4 18.43 18.43 0 01-13.08 5.4h-15.12c-1.2 0-1.8-.6-1.8-1.8v-6.36c0-1.2.6-1.8 1.8-1.8h15.12a8.6 8.6 0 008.64-8.64 8.7 8.7 0 00-8.64-8.76h-15.12c-1.2 0-1.8-.6-1.8-1.8v-18.6c0-1.2.6-1.8 1.8-1.8h10.32a8.6 8.6 0 008.64-8.64 8.7 8.7 0 00-8.64-8.76h-13.92c-1.2 0-1.8.6-1.8 1.8 0 1.2.6 1.8 1.8 1.8h13.92c2.76 0 5.04 2.4 5.04 5.16a5.07 5.07 0 01-5.04 5.04h-13.92c-1.2 0-1.8.6-1.8 1.8v25.8c0 1.2.6 1.8 1.8 1.8h18.72c2.76 0 5.04 2.4 5.04 5.16a5.07 5.07 0 01-5.04 5.04h-18.72c-1.2 0-1.8.6-1.8 1.8v13.56c0 1.2.6 1.8 1.8 1.8h18.72c12.24 0 22.2-9.96 22.2-22.2 0-9-5.28-16.68-12.96-20.16-1.2-.6-1.2-1.32-.12-2.16a22.22 22.22 0 008.28-17.28c0-12.12-9.84-22.2-21.96-22.2h-27.72zM369.36 150c-1.2 0-1.8.6-1.8 1.8v66.36c0 1.2.6 1.8 1.8 1.8h9.6c7.92 0 14.4-6.48 14.4-14.4v-27c0-8.04-6.48-14.4-14.4-14.4h-2.64c-1.2 0-1.8.6-1.8 1.8 0 1.2.6 1.8 1.8 1.8h2.64c6 0 10.8 4.8 10.8 10.8v27c0 6-4.8 10.8-10.8 10.8h-6c-1.2 0-1.8-.6-1.8-1.8V155.4c0-1.2.6-1.8 1.8-1.8h7.2c6.24 0 12.12 2.4 16.56 6.84a23.23 23.23 0 016.84 16.56v30c0 6.24-2.4 12.12-6.84 16.56a23.23 23.23 0 01-16.56 6.84h-21c-1.2 0-1.8-.6-1.8-1.8v-76.8c0-1.2-.6-1.8-1.8-1.8-1.2 0-1.8.6-1.8 1.8v80.4c0 1.2.6 1.8 1.8 1.8h24.6c14.88 0 27-12.12 27-27v-30c0-14.88-12.12-27-27-27h-10.8zM461.36 151.8c0-1.2-.6-1.8-1.8-1.8h-42.6c-1.2 0-1.8.6-1.8 1.8v45.84c0 1.2.6 1.8 1.8 1.8h10.2c1.2 0 1.8.6 1.8 1.8v16.8c0 1.2.6 1.8 1.8 1.8h25.2c1.2 0 1.8.6 1.8 1.8v6.96c0 1.2-.6 1.8-1.8 1.8h-35.4c-1.2 0-1.8-.6-1.8-1.8v-23.76c0-1.2-.6-1.8-1.8-1.8-1.2 0-1.8.6-1.8 1.8v27.36c0 1.2.6 1.8 1.8 1.8h42.6c1.2 0 1.8-.6 1.8-1.8v-14.16c0-1.2-.6-1.8-1.8-1.8h-25.2c-1.2 0-1.8-.6-1.8-1.8v-16.8c0-1.2-.6-1.8-1.8-1.8h-10.2c-1.2 0-1.8-.6-1.8-1.8V155.4c0-1.2.6-1.8 1.8-1.8h35.4c1.2 0 1.8.6 1.8 1.8v6.84c0 1.2-.6 1.8-1.8 1.8h-25.2c-1.2 0-1.8.6-1.8 1.8v18.6c0 1.2.6 1.8 1.8 1.8h18c1.2 0 1.8.6 1.8 1.8v6c0 1.2-.6 1.8-1.8 1.8h-10.8c-1.2 0-1.8.6-1.8 1.8 0 1.2.6 1.8 1.8 1.8h14.4c1.2 0 1.8-.6 1.8-1.8v-13.2c0-1.2-.6-1.8-1.8-1.8h-18c-1.2 0-1.8-.6-1.8-1.8v-11.4c0-1.2.6-1.8 1.8-1.8h25.2c1.2 0 1.8-.6 1.8-1.8V151.8zM493.26 226.68c-.48 1.8-1.68 1.8-2.16 0l-19.92-71.04c-.36-1.32.24-2.04 1.44-2.04h7.2c1.08 0 1.68.48 2.04 1.56l12.6 45.48c.6 1.68 1.8 1.68 2.28 0l.36-1.2c.24-.84.24-1.56 0-2.4l-12.6-45.48c-.36-1.08-.96-1.56-2.04-1.56h-14.4c-1.2 0-1.8.72-1.44 2.04l22.32 80.4c.36 1.08.96 1.56 2.04 1.56h2.28c1.08 0 1.68-.48 2.04-1.56l21.48-77.28c.36-1.08.96-1.56 2.04-1.56h7.2c1.2 0 1.8.72 1.44 2.04l-21.24 76.32c-.36 1.32.24 2.04 1.44 2.04 1.08 0 1.68-.48 2.04-1.56l22.32-80.4c.36-1.32-.24-2.04-1.44-2.04h-14.4c-1.08 0-1.68.48-2.04 1.56l-20.88 75.12zM584.41 151.8c0-1.2-.6-1.8-1.8-1.8h-42.6c-1.2 0-1.8.6-1.8 1.8v45.84c0 1.2.6 1.8 1.8 1.8h10.2c1.2 0 1.8.6 1.8 1.8v16.8c0 1.2.6 1.8 1.8 1.8h25.2c1.2 0 1.8.6 1.8 1.8v6.96c0 1.2-.6 1.8-1.8 1.8h-35.4c-1.2 0-1.8-.6-1.8-1.8v-23.76c0-1.2-.6-1.8-1.8-1.8-1.2 0-1.8.6-1.8 1.8v27.36c0 1.2.6 1.8 1.8 1.8h42.6c1.2 0 1.8-.6 1.8-1.8v-14.16c0-1.2-.6-1.8-1.8-1.8h-25.2c-1.2 0-1.8-.6-1.8-1.8v-16.8c0-1.2-.6-1.8-1.8-1.8h-10.2c-1.2 0-1.8-.6-1.8-1.8V155.4c0-1.2.6-1.8 1.8-1.8h35.4c1.2 0 1.8.6 1.8 1.8v6.84c0 1.2-.6 1.8-1.8 1.8h-25.2c-1.2 0-1.8.6-1.8 1.8v18.6c0 1.2.6 1.8 1.8 1.8h18c1.2 0 1.8.6 1.8 1.8v6c0 1.2-.6 1.8-1.8 1.8h-10.8c-1.2 0-1.8.6-1.8 1.8 0 1.2.6 1.8 1.8 1.8h14.4c1.2 0 1.8-.6 1.8-1.8v-13.2c0-1.2-.6-1.8-1.8-1.8h-18c-1.2 0-1.8-.6-1.8-1.8v-11.4c0-1.2.6-1.8 1.8-1.8h25.2c1.2 0 1.8-.6 1.8-1.8V151.8zM643.61 219c0-1.2-.6-1.8-1.8-1.8h-27c-1.2 0-1.8.6-1.8 1.8 0 1.2.6 1.8 1.8 1.8h23.4c1.2 0 1.8.6 1.8 1.8v6c0 1.2-.6 1.8-1.8 1.8h-27c-1.2 0-1.8-.6-1.8-1.8v-76.8c0-1.2-.6-1.8-1.8-1.8h-14.4c-1.2 0-1.8.6-1.8 1.8v80.4c0 1.2.6 1.8 1.8 1.8 1.2 0 1.8-.6 1.8-1.8v-76.8c0-1.2.6-1.8 1.8-1.8h7.2c1.2 0 1.8.6 1.8 1.8v76.8c0 1.2.6 1.8 1.8 1.8h34.2c1.2 0 1.8-.6 1.8-1.8V219zM703.22 176.04a27.6 27.6 0 00-55.2 0v14.52c0 .96.48 1.68 1.32 2.04l11.16 4.92a2.1 2.1 0 011.32 2.04v8.28c0 7.68 6.12 13.8 13.8 13.8 7.56 0 13.8-6.12 13.8-13.68v-31.92a13.8 13.8 0 00-27.6 0v12.84c0 .96.36 1.68 1.32 2.04l.48.24c1.08.48 1.8-.12 1.8-1.44v-13.68c0-5.52 4.56-10.2 10.2-10.2s10.2 4.68 10.2 10.2v31.8a10.2 10.2 0 11-20.4 0V197.4a2.1 2.1 0 00-1.32-2.04l-11.16-5.04a2.1 2.1 0 01-1.32-2.04v-12.24a23.8 23.8 0 017.08-16.92 23.6 23.6 0 0116.92-7.08 23.6 23.6 0 0116.92 7.08 23.8 23.8 0 017.08 16.92v31.8c0 6.48-2.52 12.48-7.08 17.04a23.48 23.48 0 01-16.92 6.96c-6.36 0-12.48-2.4-16.92-6.96a23.87 23.87 0 01-7.08-17.04v-8.88c0-.96-.36-1.68-1.32-2.04l-.48-.24c-1.08-.36-1.8.24-1.8 1.56v9.6a27.6 27.6 0 1055.2.12v-31.92zM712.4 150c-1.2 0-1.8.6-1.8 1.8v80.4c0 1.2.6 1.8 1.8 1.8h14.03c1.2 0 1.8-.6 1.8-1.8v-44.76c0-1.2.6-1.8 1.8-1.8h5.52a10.73 10.73 0 100-21.48h-9c-1.2-.12-1.8.48-1.8 1.68s.6 1.8 1.8 1.8h9c3.96 0 7.2 3.24 7.2 7.2 0 4.08-3.24 7.2-7.2 7.2h-9c-1.2 0-1.8.6-1.8 1.8v44.76c0 1.2-.6 1.8-1.8 1.8H716c-1.2 0-1.8-.6-1.8-1.8v-73.2c0-1.2.6-1.8 1.8-1.8h19.56c5.64 0 10.92 2.16 15 6.24a20.97 20.97 0 016.24 15c0 5.76-2.16 11.04-6.24 15.12a20.97 20.97 0 01-15 6.24h-1.92c-1.2 0-1.8.6-1.8 1.8 0 1.2.6 1.8 1.8 1.8h1.92a24.92 24.92 0 0024.84-24.96A24.89 24.89 0 00735.55 150H712.4zM812.22 151.8c0-1.2-.6-1.8-1.8-1.8h-42.6c-1.2 0-1.8.6-1.8 1.8v45.84c0 1.2.6 1.8 1.8 1.8h10.2c1.2 0 1.8.6 1.8 1.8v16.8c0 1.2.6 1.8 1.8 1.8h25.2c1.2 0 1.8.6 1.8 1.8v6.96c0 1.2-.6 1.8-1.8 1.8h-35.4c-1.2 0-1.8-.6-1.8-1.8v-23.76c0-1.2-.6-1.8-1.8-1.8-1.2 0-1.8.6-1.8 1.8v27.36c0 1.2.6 1.8 1.8 1.8h42.6c1.2 0 1.8-.6 1.8-1.8v-14.16c0-1.2-.6-1.8-1.8-1.8h-25.2c-1.2 0-1.8-.6-1.8-1.8v-16.8c0-1.2-.6-1.8-1.8-1.8h-10.2c-1.2 0-1.8-.6-1.8-1.8V155.4c0-1.2.6-1.8 1.8-1.8h35.4c1.2 0 1.8.6 1.8 1.8v6.84c0 1.2-.6 1.8-1.8 1.8h-25.2c-1.2 0-1.8.6-1.8 1.8v18.6c0 1.2.6 1.8 1.8 1.8h18c1.2 0 1.8.6 1.8 1.8v6c0 1.2-.6 1.8-1.8 1.8h-10.8c-1.2 0-1.8.6-1.8 1.8 0 1.2.6 1.8 1.8 1.8h14.4c1.2 0 1.8-.6 1.8-1.8v-13.2c0-1.2-.6-1.8-1.8-1.8h-18c-1.2 0-1.8-.6-1.8-1.8v-11.4c0-1.2.6-1.8 1.8-1.8h25.2c1.2 0 1.8-.6 1.8-1.8V151.8zM872.26 234c1.32 0 1.92-.84 1.32-2.16l-13.44-31.08c-.48-1.08-2.28-.84-2.28-.84-.96.6-1.32 1.44-.84 2.4l11.76 25.92c.6 1.32 0 2.16-1.32 2.16h-6.84a2.1 2.1 0 01-2.04-1.32l-12.24-27.36c-.48-1.2 0-1.92 1.32-2.16 2.4-.24 4.68-.96 6.84-1.92.96-.48 2.04-.96 3-1.56a24.95 24.95 0 0011.76-21.24A24.89 24.89 0 00844.42 150h-23.16c-1.2 0-1.8.6-1.8 1.8v80.4c0 1.2.6 1.8 1.8 1.8h14.4c1.2 0 1.8-.6 1.8-1.8v-44.76c0-1.2.6-1.8 1.8-1.8h5.16c6 0 10.8-4.8 10.8-10.8 0-5.88-4.8-10.8-10.8-10.8h-8.64c-1.2 0-1.8.6-1.8 1.8 0 1.2.6 1.8 1.8 1.8h8.64c3.96 0 7.2 3.24 7.2 7.2 0 4.08-3.24 7.2-7.2 7.2h-8.76c-1.2 0-1.8.6-1.8 1.8v44.76c0 1.2-.6 1.8-1.8 1.8h-7.2c-1.2 0-1.8-.6-1.8-1.8v-73.2c0-1.2.6-1.8 1.8-1.8h19.56c5.64 0 10.92 2.16 15 6.24a20.97 20.97 0 016.24 15 21.04 21.04 0 01-9.36 17.64 15.3 15.3 0 01-3 1.8 22.26 22.26 0 01-8.88 1.92h-1.92c-1.2 0-1.68.84-1.2 2.04l.6 1.56 14.28 32.88a2.1 2.1 0 002.04 1.32h14.04z"/></mask><path d="M182.08 150c-1.08 0-1.8.48-2.04 1.56l-6.72 34.92c-.36 1.8-1.8 1.8-2.16 0l-6.6-34.92c-.24-1.08-.96-1.56-2.04-1.56h-1.44c-1.08 0-1.8.48-2.04 1.56l-14.76 77.28c-.24 1.08-.96 1.56-2.04 1.56h-9.48c-1.08 0-1.8-.48-2.04-1.56l-14.04-73.32c-.24-1.2.36-1.92 1.68-1.92h6.48c1.08 0 1.8.48 2.04 1.56l9.48 50.04c.36 1.8 1.8 1.8 2.16 0l10.32-53.28c.24-1.2-.36-1.92-1.56-1.92-1.08 0-1.8.48-2.04 1.56l-6.72 34.92c-.36 1.8-1.8 1.8-2.16 0l-6.6-34.92c-.24-1.08-.96-1.56-2.04-1.56h-13.68c-1.32 0-1.92.72-1.68 1.92l15.48 80.52c.24 1.08.96 1.56 2.04 1.56h15.24c1.08 0 1.8-.48 2.04-1.56l13.56-70.68c.36-1.8 1.8-1.8 2.16 0l8.28 43.44c.36 1.8 1.8 1.8 2.16 0l9.6-50.04c.24-1.08.96-1.56 2.04-1.56h6.48c1.32 0 1.92.72 1.68 1.92l-14.04 73.32c-.24 1.08-.96 1.56-2.04 1.56h-9.48c-1.08 0-1.8-.48-2.04-1.56l-5.88-31.2c-.36-1.68-1.8-1.68-2.16 0l-.48 2.76a3.33 3.33 0 000 2.16l5.64 29.88c.24 1.08.96 1.56 2.04 1.56h15.24c1.08 0 1.8-.48 2.04-1.56l15.48-80.52c.24-1.2-.36-1.92-1.68-1.92h-13.68zM249.96 151.8c0-1.2-.6-1.8-1.8-1.8h-42.6c-1.2 0-1.8.6-1.8 1.8v45.84c0 1.2.6 1.8 1.8 1.8h10.2c1.2 0 1.8.6 1.8 1.8v16.8c0 1.2.6 1.8 1.8 1.8h25.2c1.2 0 1.8.6 1.8 1.8v6.96c0 1.2-.6 1.8-1.8 1.8h-35.4c-1.2 0-1.8-.6-1.8-1.8v-23.76c0-1.2-.6-1.8-1.8-1.8-1.2 0-1.8.6-1.8 1.8v27.36c0 1.2.6 1.8 1.8 1.8h42.6c1.2 0 1.8-.6 1.8-1.8v-14.16c0-1.2-.6-1.8-1.8-1.8h-25.2c-1.2 0-1.8-.6-1.8-1.8v-16.8c0-1.2-.6-1.8-1.8-1.8h-10.2c-1.2 0-1.8-.6-1.8-1.8V155.4c0-1.2.6-1.8 1.8-1.8h35.4c1.2 0 1.8.6 1.8 1.8v6.84c0 1.2-.6 1.8-1.8 1.8h-25.2c-1.2 0-1.8.6-1.8 1.8v18.6c0 1.2.6 1.8 1.8 1.8h18c1.2 0 1.8.6 1.8 1.8v6c0 1.2-.6 1.8-1.8 1.8h-10.8c-1.2 0-1.8.6-1.8 1.8 0 1.2.6 1.8 1.8 1.8h14.4c1.2 0 1.8-.6 1.8-1.8v-13.2c0-1.2-.6-1.8-1.8-1.8h-18c-1.2 0-1.8-.6-1.8-1.8v-11.4c0-1.2.6-1.8 1.8-1.8h25.2c1.2 0 1.8-.6 1.8-1.8V151.8zM260.19 150c-1.2 0-1.8.6-1.8 1.8v80.4c0 1.2.6 1.8 1.8 1.8 1.2 0 1.8-.6 1.8-1.8v-76.8c0-1.2.6-1.8 1.8-1.8h23.88c4.92 0 9.6 1.92 13.08 5.4a18.53 18.53 0 010 26.4c-1.8 1.8-3.48 4.08-8.28 4.08h-2.04c-1.2 0-1.8.6-1.8 1.8v.24c0 1.2.6 1.8 1.8 1.8h3.96c4.08 0 8.28 2.4 11.16 5.28a18.53 18.53 0 010 26.4 18.43 18.43 0 01-13.08 5.4h-15.12c-1.2 0-1.8-.6-1.8-1.8v-6.36c0-1.2.6-1.8 1.8-1.8h15.12a8.6 8.6 0 008.64-8.64 8.7 8.7 0 00-8.64-8.76h-15.12c-1.2 0-1.8-.6-1.8-1.8v-18.6c0-1.2.6-1.8 1.8-1.8h10.32a8.6 8.6 0 008.64-8.64 8.7 8.7 0 00-8.64-8.76h-13.92c-1.2 0-1.8.6-1.8 1.8 0 1.2.6 1.8 1.8 1.8h13.92c2.76 0 5.04 2.4 5.04 5.16a5.07 5.07 0 01-5.04 5.04h-13.92c-1.2 0-1.8.6-1.8 1.8v25.8c0 1.2.6 1.8 1.8 1.8h18.72c2.76 0 5.04 2.4 5.04 5.16a5.07 5.07 0 01-5.04 5.04h-18.72c-1.2 0-1.8.6-1.8 1.8v13.56c0 1.2.6 1.8 1.8 1.8h18.72c12.24 0 22.2-9.96 22.2-22.2 0-9-5.28-16.68-12.96-20.16-1.2-.6-1.2-1.32-.12-2.16a22.22 22.22 0 008.28-17.28c0-12.12-9.84-22.2-21.96-22.2h-27.72zM369.36 150c-1.2 0-1.8.6-1.8 1.8v66.36c0 1.2.6 1.8 1.8 1.8h9.6c7.92 0 14.4-6.48 14.4-14.4v-27c0-8.04-6.48-14.4-14.4-14.4h-2.64c-1.2 0-1.8.6-1.8 1.8 0 1.2.6 1.8 1.8 1.8h2.64c6 0 10.8 4.8 10.8 10.8v27c0 6-4.8 10.8-10.8 10.8h-6c-1.2 0-1.8-.6-1.8-1.8V155.4c0-1.2.6-1.8 1.8-1.8h7.2c6.24 0 12.12 2.4 16.56 6.84a23.23 23.23 0 016.84 16.56v30c0 6.24-2.4 12.12-6.84 16.56a23.23 23.23 0 01-16.56 6.84h-21c-1.2 0-1.8-.6-1.8-1.8v-76.8c0-1.2-.6-1.8-1.8-1.8-1.2 0-1.8.6-1.8 1.8v80.4c0 1.2.6 1.8 1.8 1.8h24.6c14.88 0 27-12.12 27-27v-30c0-14.88-12.12-27-27-27h-10.8zM461.36 151.8c0-1.2-.6-1.8-1.8-1.8h-42.6c-1.2 0-1.8.6-1.8 1.8v45.84c0 1.2.6 1.8 1.8 1.8h10.2c1.2 0 1.8.6 1.8 1.8v16.8c0 1.2.6 1.8 1.8 1.8h25.2c1.2 0 1.8.6 1.8 1.8v6.96c0 1.2-.6 1.8-1.8 1.8h-35.4c-1.2 0-1.8-.6-1.8-1.8v-23.76c0-1.2-.6-1.8-1.8-1.8-1.2 0-1.8.6-1.8 1.8v27.36c0 1.2.6 1.8 1.8 1.8h42.6c1.2 0 1.8-.6 1.8-1.8v-14.16c0-1.2-.6-1.8-1.8-1.8h-25.2c-1.2 0-1.8-.6-1.8-1.8v-16.8c0-1.2-.6-1.8-1.8-1.8h-10.2c-1.2 0-1.8-.6-1.8-1.8V155.4c0-1.2.6-1.8 1.8-1.8h35.4c1.2 0 1.8.6 1.8 1.8v6.84c0 1.2-.6 1.8-1.8 1.8h-25.2c-1.2 0-1.8.6-1.8 1.8v18.6c0 1.2.6 1.8 1.8 1.8h18c1.2 0 1.8.6 1.8 1.8v6c0 1.2-.6 1.8-1.8 1.8h-10.8c-1.2 0-1.8.6-1.8 1.8 0 1.2.6 1.8 1.8 1.8h14.4c1.2 0 1.8-.6 1.8-1.8v-13.2c0-1.2-.6-1.8-1.8-1.8h-18c-1.2 0-1.8-.6-1.8-1.8v-11.4c0-1.2.6-1.8 1.8-1.8h25.2c1.2 0 1.8-.6 1.8-1.8V151.8zM493.26 226.68c-.48 1.8-1.68 1.8-2.16 0l-19.92-71.04c-.36-1.32.24-2.04 1.44-2.04h7.2c1.08 0 1.68.48 2.04 1.56l12.6 45.48c.6 1.68 1.8 1.68 2.28 0l.36-1.2c.24-.84.24-1.56 0-2.4l-12.6-45.48c-.36-1.08-.96-1.56-2.04-1.56h-14.4c-1.2 0-1.8.72-1.44 2.04l22.32 80.4c.36 1.08.96 1.56 2.04 1.56h2.28c1.08 0 1.68-.48 2.04-1.56l21.48-77.28c.36-1.08.96-1.56 2.04-1.56h7.2c1.2 0 1.8.72 1.44 2.04l-21.24 76.32c-.36 1.32.24 2.04 1.44 2.04 1.08 0 1.68-.48 2.04-1.56l22.32-80.4c.36-1.32-.24-2.04-1.44-2.04h-14.4c-1.08 0-1.68.48-2.04 1.56l-20.88 75.12zM584.41 151.8c0-1.2-.6-1.8-1.8-1.8h-42.6c-1.2 0-1.8.6-1.8 1.8v45.84c0 1.2.6 1.8 1.8 1.8h10.2c1.2 0 1.8.6 1.8 1.8v16.8c0 1.2.6 1.8 1.8 1.8h25.2c1.2 0 1.8.6 1.8 1.8v6.96c0 1.2-.6 1.8-1.8 1.8h-35.4c-1.2 0-1.8-.6-1.8-1.8v-23.76c0-1.2-.6-1.8-1.8-1.8-1.2 0-1.8.6-1.8 1.8v27.36c0 1.2.6 1.8 1.8 1.8h42.6c1.2 0 1.8-.6 1.8-1.8v-14.16c0-1.2-.6-1.8-1.8-1.8h-25.2c-1.2 0-1.8-.6-1.8-1.8v-16.8c0-1.2-.6-1.8-1.8-1.8h-10.2c-1.2 0-1.8-.6-1.8-1.8V155.4c0-1.2.6-1.8 1.8-1.8h35.4c1.2 0 1.8.6 1.8 1.8v6.84c0 1.2-.6 1.8-1.8 1.8h-25.2c-1.2 0-1.8.6-1.8 1.8v18.6c0 1.2.6 1.8 1.8 1.8h18c1.2 0 1.8.6 1.8 1.8v6c0 1.2-.6 1.8-1.8 1.8h-10.8c-1.2 0-1.8.6-1.8 1.8 0 1.2.6 1.8 1.8 1.8h14.4c1.2 0 1.8-.6 1.8-1.8v-13.2c0-1.2-.6-1.8-1.8-1.8h-18c-1.2 0-1.8-.6-1.8-1.8v-11.4c0-1.2.6-1.8 1.8-1.8h25.2c1.2 0 1.8-.6 1.8-1.8V151.8zM643.61 219c0-1.2-.6-1.8-1.8-1.8h-27c-1.2 0-1.8.6-1.8 1.8 0 1.2.6 1.8 1.8 1.8h23.4c1.2 0 1.8.6 1.8 1.8v6c0 1.2-.6 1.8-1.8 1.8h-27c-1.2 0-1.8-.6-1.8-1.8v-76.8c0-1.2-.6-1.8-1.8-1.8h-14.4c-1.2 0-1.8.6-1.8 1.8v80.4c0 1.2.6 1.8 1.8 1.8 1.2 0 1.8-.6 1.8-1.8v-76.8c0-1.2.6-1.8 1.8-1.8h7.2c1.2 0 1.8.6 1.8 1.8v76.8c0 1.2.6 1.8 1.8 1.8h34.2c1.2 0 1.8-.6 1.8-1.8V219zM703.22 176.04a27.6 27.6 0 00-55.2 0v14.52c0 .96.48 1.68 1.32 2.04l11.16 4.92a2.1 2.1 0 011.32 2.04v8.28c0 7.68 6.12 13.8 13.8 13.8 7.56 0 13.8-6.12 13.8-13.68v-31.92a13.8 13.8 0 00-27.6 0v12.84c0 .96.36 1.68 1.32 2.04l.48.24c1.08.48 1.8-.12 1.8-1.44v-13.68c0-5.52 4.56-10.2 10.2-10.2s10.2 4.68 10.2 10.2v31.8a10.2 10.2 0 11-20.4 0V197.4a2.1 2.1 0 00-1.32-2.04l-11.16-5.04a2.1 2.1 0 01-1.32-2.04v-12.24a23.8 23.8 0 017.08-16.92 23.6 23.6 0 0116.92-7.08 23.6 23.6 0 0116.92 7.08 23.8 23.8 0 017.08 16.92v31.8c0 6.48-2.52 12.48-7.08 17.04a23.48 23.48 0 01-16.92 6.96c-6.36 0-12.48-2.4-16.92-6.96a23.87 23.87 0 01-7.08-17.04v-8.88c0-.96-.36-1.68-1.32-2.04l-.48-.24c-1.08-.36-1.8.24-1.8 1.56v9.6a27.6 27.6 0 1055.2.12v-31.92zM712.4 150c-1.2 0-1.8.6-1.8 1.8v80.4c0 1.2.6 1.8 1.8 1.8h14.03c1.2 0 1.8-.6 1.8-1.8v-44.76c0-1.2.6-1.8 1.8-1.8h5.52a10.73 10.73 0 100-21.48h-9c-1.2-.12-1.8.48-1.8 1.68s.6 1.8 1.8 1.8h9c3.96 0 7.2 3.24 7.2 7.2 0 4.08-3.24 7.2-7.2 7.2h-9c-1.2 0-1.8.6-1.8 1.8v44.76c0 1.2-.6 1.8-1.8 1.8H716c-1.2 0-1.8-.6-1.8-1.8v-73.2c0-1.2.6-1.8 1.8-1.8h19.56c5.64 0 10.92 2.16 15 6.24a20.97 20.97 0 016.24 15c0 5.76-2.16 11.04-6.24 15.12a20.97 20.97 0 01-15 6.24h-1.92c-1.2 0-1.8.6-1.8 1.8 0 1.2.6 1.8 1.8 1.8h1.92a24.92 24.92 0 0024.84-24.96A24.89 24.89 0 00735.55 150H712.4zM812.22 151.8c0-1.2-.6-1.8-1.8-1.8h-42.6c-1.2 0-1.8.6-1.8 1.8v45.84c0 1.2.6 1.8 1.8 1.8h10.2c1.2 0 1.8.6 1.8 1.8v16.8c0 1.2.6 1.8 1.8 1.8h25.2c1.2 0 1.8.6 1.8 1.8v6.96c0 1.2-.6 1.8-1.8 1.8h-35.4c-1.2 0-1.8-.6-1.8-1.8v-23.76c0-1.2-.6-1.8-1.8-1.8-1.2 0-1.8.6-1.8 1.8v27.36c0 1.2.6 1.8 1.8 1.8h42.6c1.2 0 1.8-.6 1.8-1.8v-14.16c0-1.2-.6-1.8-1.8-1.8h-25.2c-1.2 0-1.8-.6-1.8-1.8v-16.8c0-1.2-.6-1.8-1.8-1.8h-10.2c-1.2 0-1.8-.6-1.8-1.8V155.4c0-1.2.6-1.8 1.8-1.8h35.4c1.2 0 1.8.6 1.8 1.8v6.84c0 1.2-.6 1.8-1.8 1.8h-25.2c-1.2 0-1.8.6-1.8 1.8v18.6c0 1.2.6 1.8 1.8 1.8h18c1.2 0 1.8.6 1.8 1.8v6c0 1.2-.6 1.8-1.8 1.8h-10.8c-1.2 0-1.8.6-1.8 1.8 0 1.2.6 1.8 1.8 1.8h14.4c1.2 0 1.8-.6 1.8-1.8v-13.2c0-1.2-.6-1.8-1.8-1.8h-18c-1.2 0-1.8-.6-1.8-1.8v-11.4c0-1.2.6-1.8 1.8-1.8h25.2c1.2 0 1.8-.6 1.8-1.8V151.8zM872.26 234c1.32 0 1.92-.84 1.32-2.16l-13.44-31.08c-.48-1.08-2.28-.84-2.28-.84-.96.6-1.32 1.44-.84 2.4l11.76 25.92c.6 1.32 0 2.16-1.32 2.16h-6.84a2.1 2.1 0 01-2.04-1.32l-12.24-27.36c-.48-1.2 0-1.92 1.32-2.16 2.4-.24 4.68-.96 6.84-1.92.96-.48 2.04-.96 3-1.56a24.95 24.95 0 0011.76-21.24A24.89 24.89 0 00844.42 150h-23.16c-1.2 0-1.8.6-1.8 1.8v80.4c0 1.2.6 1.8 1.8 1.8h14.4c1.2 0 1.8-.6 1.8-1.8v-44.76c0-1.2.6-1.8 1.8-1.8h5.16c6 0 10.8-4.8 10.8-10.8 0-5.88-4.8-10.8-10.8-10.8h-8.64c-1.2 0-1.8.6-1.8 1.8 0 1.2.6 1.8 1.8 1.8h8.64c3.96 0 7.2 3.24 7.2 7.2 0 4.08-3.24 7.2-7.2 7.2h-8.76c-1.2 0-1.8.6-1.8 1.8v44.76c0 1.2-.6 1.8-1.8 1.8h-7.2c-1.2 0-1.8-.6-1.8-1.8v-73.2c0-1.2.6-1.8 1.8-1.8h19.56c5.64 0 10.92 2.16 15 6.24a20.97 20.97 0 016.24 15 21.04 21.04 0 01-9.36 17.64 15.3 15.3 0 01-3 1.8 22.26 22.26 0 01-8.88 1.92h-1.92c-1.2 0-1.68.84-1.2 2.04l.6 1.56 14.28 32.88a2.1 2.1 0 002.04 1.32h14.04z" stroke="#09FBD3" stroke-width="10" mask="url(#b)"/></svg>