<svg xmlns="http://www.w3.org/2000/svg" xmlns:xlink="http://www.w3.org/1999/xlink" width="988" height="236" fill="none"><style><![CDATA[.B{mask:url(#A)}.C{mask:url(#B)}]]></style><mask id="A" fill="#fff"><use xlink:href="#D"/><use xlink:href="#E"/><use xlink:href="#F"/><use xlink:href="#G"/><use xlink:href="#H"/><use xlink:href="#I"/><use xlink:href="#F" x="374.708"/><use xlink:href="#J"/><use xlink:href="#K"/><use xlink:href="#L"/><use xlink:href="#M"/><use xlink:href="#N"/></mask><g stroke="#09fbd3" stroke-width="10" class="B"><use xlink:href="#D"/><use xlink:href="#E"/><use xlink:href="#F"/><use xlink:href="#G"/><use xlink:href="#H"/><use xlink:href="#I"/><use xlink:href="#F" x="374.708"/><use xlink:href="#J"/><use xlink:href="#K"/><use xlink:href="#L"/><use xlink:href="#M"/><use xlink:href="#N"/></g><mask id="B" fill="#fff"><use xlink:href="#O"/><use xlink:href="#P"/><use xlink:href="#Q"/><use xlink:href="#R"/><use xlink:href="#P" x="211.406"/><use xlink:href="#S"/><use xlink:href="#P" x="334.452"/><use xlink:href="#T"/><use xlink:href="#U"/><use xlink:href="#V"/><use xlink:href="#P" x="562.265"/><use xlink:href="#W"/></mask><g stroke="#09fbd3" stroke-width="10" class="C"><use xlink:href="#O"/><use xlink:href="#P"/><use xlink:href="#Q"/><use xlink:href="#R"/><use xlink:href="#P" x="211.406"/><use xlink:href="#S"/><use xlink:href="#P" x="334.452"/><use xlink:href="#T"/><use xlink:href="#U"/><use xlink:href="#V"/><use xlink:href="#P" x="562.265"/><use xlink:href="#W"/></g><defs ><path id="D" d="M2.25 1.95C.75 1.95 0 2.7 0 4.2v100.5c0 1.5.75 2.25 2.25 2.25s2.25-.75 2.25-2.25v-96c0-1.5.75-2.25 2.25-2.25H36.6c6.15 0 12 2.4 16.35 6.75 4.5 4.5 6.9 10.35 6.9 16.5s-2.4 12-6.9 16.5c-2.25 2.25-4.35 5.1-10.35 5.1h-2.55c-1.5 0-2.25.75-2.25 2.25v.3c0 1.5.75 2.25 2.25 2.25H45c5.1 0 10.35 3 13.95 6.6 4.5 4.5 6.9 10.35 6.9 16.5s-2.4 12-6.9 16.5c-4.35 4.35-10.2 6.75-16.35 6.75H23.7c-1.5 0-2.25-.75-2.25-2.25v-7.95c0-1.5.75-2.25 2.25-2.25h18.9c6 0 10.8-4.8 10.8-10.8s-4.8-10.95-10.8-10.95H23.7c-1.5 0-2.25-.75-2.25-2.25V42.75c0-1.5.75-2.25 2.25-2.25h12.9c6 0 10.8-4.8 10.8-10.8s-4.8-10.95-10.8-10.95H19.2c-1.5 0-2.25.75-2.25 2.25s.75 2.25 2.25 2.25h17.4c3.45 0 6.3 3 6.3 6.45S40.05 36 36.6 36H19.2c-1.5 0-2.25.75-2.25 2.25V70.5c0 1.5.75 2.25 2.25 2.25h23.4c3.45 0 6.3 3 6.3 6.45s-2.85 6.3-6.3 6.3H19.2c-1.5 0-2.25.75-2.25 2.25v16.95c0 1.5.75 2.25 2.25 2.25h23.4c15.3 0 27.75-12.45 27.75-27.75 0-11.25-6.6-20.85-16.2-25.2-1.5-.75-1.5-1.65-.15-2.7 6.3-5.1 10.35-12.9 10.35-21.6 0-15.15-12.3-27.75-27.45-27.75H2.25z"/><path id="E" d="M143.887 88.2c0-1.5-.75-2.25-2.25-2.25h-33.75c-1.5 0-2.25.75-2.25 2.25s.75 2.25 2.25 2.25h29.25c1.5 0 2.25.75 2.25 2.25v7.5c0 1.5-.75 2.25-2.25 2.25h-33.75c-1.5 0-2.25-.75-2.25-2.25v-96c0-1.5-.75-2.25-2.25-2.25h-18c-1.5 0-2.25.75-2.25 2.25v100.5c0 1.5.75 2.25 2.25 2.25s2.25-.75 2.25-2.25v-96c0-1.5.75-2.25 2.25-2.25h9c1.5 0 2.25.75 2.25 2.25v96c0 1.5.75 2.25 2.25 2.25h42.75c1.5 0 2.25-.75 2.25-2.25V88.2z"/><path id="F" d="M203.382 1.95c-1.35 0-2.1.6-2.55 1.8l-31.8 96.9c-.45 1.2-1.2 1.8-2.55 1.8h-8.1c-1.65 0-2.4-1.05-1.8-2.55l31.2-95.4c.6-1.5-.15-2.55-1.65-2.55-1.35 0-2.1.6-2.55 1.8l-33 100.65c-.6 1.5.15 2.55 1.8 2.55h17.1c1.35 0 2.1-.6 2.55-1.8l30.9-94.35c.75-1.95 2.25-1.95 3 0l29.25 89.1c.6 1.5-.15 2.55-1.8 2.55h-8.85c-1.35 0-2.1-.6-2.55-1.8l-7.8-23.85c-.45-1.2-1.2-1.8-2.55-1.8h-17.7c-1.65 0-2.4-1.05-1.8-2.55l2.25-6.9c.45-1.2 1.2-1.8 2.55-1.8h10.2c1.65 0 2.4-1.05 1.8-2.55l-7.35-22.65c-.75-1.95-2.25-1.95-3 0l-.3 1.05a5.11 5.11 0 0 0 0 3l4.65 14.1c.6 1.5-.15 2.55-1.8 2.55h-7.35c-1.35 0-2.1.6-2.55 1.8l-5.1 15.9c-.6 1.5.15 2.55 1.8 2.55h20.7c1.35 0 2.1.6 2.55 1.8l7.65 23.85c.45 1.2 1.2 1.8 2.55 1.8h17.85c1.65 0 2.4-1.05 1.8-2.55l-33-100.65c-.45-1.2-1.2-1.8-2.55-1.8h-2.1z"/><path id="G" d="M308.138 99.75c.9 1.65.3 2.7-1.5 2.7h-8.7c-1.2 0-2.1-.45-2.7-1.65l-15-27.9c-.6-1.05-.6-1.95 0-3l35.25-65.25c.9-1.65.15-2.7-1.5-2.7h-18.45c-1.2 0-2.1.45-2.7 1.65l-26.7 49.2c-.6 1.05-.75 1.8-.75 2.85v44.55c0 1.5-.75 2.25-2.25 2.25h-9c-1.5 0-2.25-.75-2.25-2.25V8.7c0-1.5.75-2.25 2.25-2.25h9c1.5 0 2.25.75 2.25 2.25V39c0 2.25 1.65 2.7 2.7.75l1.05-1.95c.6-1.05.75-1.8.75-2.85V4.2c0-1.5-.75-2.25-2.25-2.25h-18c-1.5 0-2.25.75-2.25 2.25v100.5c0 1.5.75 2.25 2.25 2.25h18c1.5 0 2.25-.75 2.25-2.25V55.95c.15-1.05.3-1.8.9-2.85l24.45-45c.6-1.2 1.5-1.65 2.7-1.65h8.7c1.65 0 2.4 1.05 1.5 2.7l-32.85 60.75c-.6 1.05-.6 1.95 0 3l17.55 32.4c.6 1.2 1.5 1.65 2.7 1.65h18.45c1.65 0 2.4-1.05 1.5-2.7l-22.95-42.3c-.9-1.65-2.1-1.65-3 0l-.15.15c-.45 1.05-.45 1.95.15 3l18.6 34.65z"/><path id="H" d="M381.456 4.2c0-1.5-.75-2.25-2.25-2.25h-53.25c-1.5 0-2.25.75-2.25 2.25v57.3c0 1.5.75 2.25 2.25 2.25h12.75c1.5 0 2.25.75 2.25 2.25v21c0 1.5.75 2.25 2.25 2.25h31.5c1.5 0 2.25.75 2.25 2.25v8.7c0 1.5-.75 2.25-2.25 2.25h-44.25c-1.5 0-2.25-.75-2.25-2.25V70.5c0-1.5-.75-2.25-2.25-2.25s-2.25.75-2.25 2.25v34.2c0 1.5.75 2.25 2.25 2.25h53.25c1.5 0 2.25-.75 2.25-2.25V87c0-1.5-.75-2.25-2.25-2.25h-31.5c-1.5 0-2.25-.75-2.25-2.25v-21c0-1.5-.75-2.25-2.25-2.25h-12.75c-1.5 0-2.25-.75-2.25-2.25V8.7c0-1.5.75-2.25 2.25-2.25h44.25c1.5 0 2.25.75 2.25 2.25v8.55c0 1.5-.75 2.25-2.25 2.25h-31.5c-1.5 0-2.25.75-2.25 2.25V45c0 1.5.75 2.25 2.25 2.25h22.5c1.5 0 2.25.75 2.25 2.25V57c0 1.5-.75 2.25-2.25 2.25h-13.5c-1.5 0-2.25.75-2.25 2.25s.75 2.25 2.25 2.25h18c1.5 0 2.25-.75 2.25-2.25V45c0-1.5-.75-2.25-2.25-2.25h-22.5c-1.5 0-2.25-.75-2.25-2.25V26.25c0-1.5.75-2.25 2.25-2.25h31.5c1.5 0 2.25-.75 2.25-2.25V4.2z"/><path id="I" d="M465.353 61.35c-.75 1.65-2.25 1.65-3 0l-14.4-29.1c-1.05-2.1-2.7-1.65-2.7.6v67.35c0 1.5-.75 2.25-2.25 2.25h-8.25c-1.5 0-2.25-.75-2.25-2.25V8.7c0-1.5.75-2.25 2.25-2.25h12.45c1.2 0 2.1.45 2.55 1.65l17.25 34.2c.75 1.65 2.25 1.65 3 0l.15-.3c.45-1.05.45-1.95 0-3l-17.7-35.4c-.45-1.2-1.35-1.65-2.55-1.65h-19.65c-1.5 0-2.25.75-2.25 2.25v100.5c0 1.5.75 2.25 2.25 2.25h17.25c1.5 0 2.25-.75 2.25-2.25V51.45c0-2.25 1.65-2.7 2.7-.6l9.9 19.95c.75 1.65 2.25 1.65 3 0l31.5-62.7c.45-1.2 1.35-1.65 2.55-1.65h12.45c1.5 0 2.25.75 2.25 2.25v91.5c0 1.5-.75 2.25-2.25 2.25h-8.25c-1.5 0-2.25-.75-2.25-2.25V33c0-2.25-1.65-2.7-2.7-.6l-1.8 3.6-22.8 45.9c-.45 1.05-.45 1.95 0 3l.45.75c.6 1.2 1.8.9 2.55-.75l17.1-34.2c1.05-1.95 2.7-1.5 2.7.75v53.25c0 1.5.75 2.25 2.25 2.25h17.25c1.5 0 2.25-.75 2.25-2.25V4.2c0-1.5-.75-2.25-2.25-2.25h-19.2c-1.2 0-2.1.45-2.55 1.65l-29.25 57.75z"/><path id="J" d="M634.643 54.9c1.05-1.05 1.05-2.1-.15-3.15-6.75-5.85-12-12.75-12-22.05 0-13.8 11.25-25.2 25.2-25.2 12.15 0 22.5 9 24.6 20.55.3 1.5-.6 2.4-2.1 2.4h-8.7c-1.35 0-1.95-.6-2.4-1.95-1.8-4.65-6.3-7.95-11.4-7.95-6.75 0-12.3 5.4-12.3 12.15 0 6.3 4.95 11.25 11.1 16.2 1.2 1.05 1.35 2.1.3 3.15l-7.05 7.05-1.5 1.65c-1.05 1.05-.9 2.1.3 3.15l1.65 1.2.9.75c7.65 5.7 14.25 10.65 14.25 16.35 0 4.2-3.45 7.65-7.65 7.65-4.35 0-7.8-3.45-7.8-7.65V78c0-.6-.75-1.05-2.25-1.05h-17.4c-1.5 0-2.25.75-2.25 2.25 0 16.35 13.35 29.7 29.7 29.7 16.2 0 29.55-13.35 29.55-29.7 0-7.05-2.55-13.5-7.8-19.65-2.55-3-5.7-5.85-8.85-8.55-1.05-.9-2.1-.9-3.15.15l-.15.15c-1.05 1.05-.9 2.1.3 3.15 7.95 6.45 15.15 14.1 15.15 24.75 0 13.8-11.25 25.05-25.05 25.05-12.3 0-22.65-8.85-24.75-20.4-.3-1.5.6-2.4 2.1-2.4h8.7c1.35 0 1.95.6 2.4 1.95 1.8 4.65 6.3 7.95 11.55 7.95 6.6 0 12.15-5.4 12.15-12.15 0-7.95-7.8-13.8-16.05-19.95l-.15-.15c-.15-.15.3-.75 1.5-1.95l6.9-7.05 1.65-1.65c1.05-.9 1.2-1.8.45-2.4l-2.4-1.8c-6.6-4.95-11.85-9.45-11.85-14.55 0-4.2 3.45-7.65 7.8-7.65 4.2 0 7.65 3.45 7.65 7.65v1.05c0 .75.75 1.2 2.25 1.2h17.4c1.5 0 2.25-.75 2.25-2.25 0-16.35-13.35-29.7-29.55-29.7-16.35 0-29.7 13.35-29.7 29.7 0 7.05 2.55 13.5 7.8 19.65 1.65 1.95 3.6 3.9 5.55 5.7 1.05 1.05 2.25.9 3.15 0l.15-.15z"/><path id="K" d="M685.282 1.95c-1.5 0-2.25.75-2.25 2.25v17.25c0 1.5.75 2.25 2.25 2.25h18c1.5 0 2.25-.75 2.25-2.25s-.75-2.25-2.25-2.25h-13.5c-1.5 0-2.25-.75-2.25-2.25V8.7c0-1.5.75-2.25 2.25-2.25h63c1.5 0 2.25.75 2.25 2.25v8.25c0 1.5-.75 2.25-2.25 2.25h-40.5c-1.5 0-2.25.75-2.25 2.25v83.25c0 1.5.75 2.25 2.25 2.25h18c1.5 0 2.25-.75 2.25-2.25V30.45c0-1.5-.75-2.25-2.25-2.25s-2.25.75-2.25 2.25v69.75c0 1.5-.75 2.25-2.25 2.25h-9c-1.5 0-2.25-.75-2.25-2.25V25.95c0-1.5.75-2.25 2.25-2.25h40.5c1.5 0 2.25-.75 2.25-2.25V4.2c0-1.5-.75-2.25-2.25-2.25h-72z"/><path id="L" d="M833.7 106.95c1.65 0 2.4-1.05 1.65-2.7l-16.8-38.85c-.6-1.35-2.85-1.05-2.85-1.05-1.2.75-1.65 1.8-1.05 3l14.7 32.4c.75 1.65 0 2.7-1.65 2.7h-8.55c-1.2 0-2.1-.6-2.55-1.65l-15.3-34.2c-.6-1.5 0-2.4 1.65-2.7 3-.3 5.85-1.2 8.55-2.4l3.75-1.95c8.85-5.55 14.7-15.3 14.7-26.55 0-17.1-13.95-31.05-31.05-31.05h-28.95c-1.5 0-2.25.75-2.25 2.25v100.5c0 1.5.75 2.25 2.25 2.25h18c1.5 0 2.25-.75 2.25-2.25V48.75c0-1.5.75-2.25 2.25-2.25h6.45c7.5 0 13.5-6 13.5-13.5 0-7.35-6-13.5-13.5-13.5h-10.8c-1.5 0-2.25.75-2.25 2.25S786.6 24 788.1 24h10.8a9.03 9.03 0 0 1 9 9c0 5.1-4.05 9-9 9h-10.95c-1.5 0-2.25.75-2.25 2.25v55.95c0 1.5-.75 2.25-2.25 2.25h-9c-1.5 0-2.25-.75-2.25-2.25V8.7c0-1.5.75-2.25 2.25-2.25h24.45c7.05 0 13.65 2.7 18.75 7.8s7.8 11.7 7.8 18.75c0 7.2-2.7 13.8-7.8 18.9-1.2 1.2-2.55 2.25-3.9 3.15-1.2.9-2.4 1.65-3.75 2.25-3.45 1.5-7.2 2.4-11.1 2.4h-2.4c-1.5 0-2.1 1.05-1.5 2.55l.75 1.95 17.85 41.1c.45 1.05 1.35 1.65 2.55 1.65h17.55z"/><path id="M" d="M890.74 1.95c-1.5 0-2.25.75-2.25 2.25v69.6c0 3.75-1.65 7.05-4.2 9.3-.9.75-1.35 1.5-1.35 2.7v.9c0 1.5 1.2 2.1 2.7 1.05 4.35-3 7.35-8.1 7.35-13.95V8.7c0-1.5.75-2.25 2.25-2.25h9.15c1.5 0 2.25.75 2.25 2.25v65.1c.15 4.05-.75 8.1-2.25 11.85-1.65 3.6-3.75 6.9-6.6 9.75s-6.15 4.95-9.75 6.6c-2.25.9-4.65 1.5-7.2 1.95-1.5.3-2.4-.6-2.4-2.1v-13.5c0-1.5-2.25-2.25-2.25-2.25-6.9 0-12.45-5.55-12.45-12.3V4.2c0-1.5-.75-2.25-2.25-2.25h-18.15c-1.5 0-2.25.75-2.25 2.25v69.6c0 16.05 10.95 29.7 25.8 33.75 1.65.45 2.55-.3 2.55-1.95 0-1.35-.6-2.1-1.95-2.55-1.05-.3-2.1-.6-3.3-1.05-3.6-1.65-6.9-3.75-9.6-6.6-2.85-2.85-5.1-6.15-6.6-9.75-1.65-3.75-2.4-7.8-2.4-11.85V8.7c0-1.5.75-2.25 2.25-2.25h9.15c1.5 0 2.25.75 2.25 2.25v65.1c0 7.8 5.4 14.4 12.75 16.2 1.2.45 1.95 1.2 1.95 2.55v13.95c0 1.5 1.95 2.4 2.1 2.4h.15c19.35 0 35.1-15.75 35.1-35.25V4.2c0-1.5-.75-2.25-2.25-2.25h-18.3z"/><path id="N" d="M940.276 1.95c-1.5 0-2.25.75-2.25 2.25v82.95c0 1.5.75 2.25 2.25 2.25h12c9.9 0 18-8.1 18-18V37.65c0-10.05-8.1-18-18-18h-3.3c-1.5 0-2.25.75-2.25 2.25s.75 2.25 2.25 2.25h3.3c7.5 0 13.5 6 13.5 13.5V71.4c0 7.5-6 13.5-13.5 13.5h-7.5c-1.5 0-2.25-.75-2.25-2.25V8.7c0-1.5.75-2.25 2.25-2.25h9c7.8 0 15.15 3 20.7 8.55s8.55 12.9 8.55 20.7v37.5c0 7.8-3 15.15-8.55 20.7s-12.9 8.55-20.7 8.55h-26.25c-1.5 0-2.25-.75-2.25-2.25v-96c0-1.5-.75-2.25-2.25-2.25s-2.25.75-2.25 2.25v100.5c0 1.5.75 2.25 2.25 2.25h30.75c18.6 0 33.75-15.15 33.75-33.75V35.7c0-18.6-15.15-33.75-33.75-33.75h-13.5z"/><path id="O" d="M182.08 150c-1.08 0-1.8.48-2.04 1.56l-6.72 34.92c-.36 1.8-1.8 1.8-2.16 0l-6.6-34.92c-.24-1.08-.96-1.56-2.04-1.56h-1.44c-1.08 0-1.8.48-2.04 1.56l-14.76 77.28c-.24 1.08-.96 1.56-2.04 1.56h-9.48c-1.08 0-1.8-.48-2.04-1.56l-14.04-73.32c-.24-1.2.36-1.92 1.68-1.92h6.48c1.08 0 1.8.48 2.04 1.56l9.48 50.04c.36 1.8 1.8 1.8 2.16 0l10.32-53.28c.24-1.2-.36-1.92-1.56-1.92-1.08 0-1.8.48-2.04 1.56l-6.72 34.92c-.36 1.8-1.8 1.8-2.16 0l-6.6-34.92c-.24-1.08-.96-1.56-2.04-1.56h-13.68c-1.32 0-1.92.72-1.68 1.92l15.48 80.52c.24 1.08.96 1.56 2.04 1.56h15.24c1.08 0 1.8-.48 2.04-1.56l13.56-70.68c.36-1.8 1.8-1.8 2.16 0l8.28 43.44c.36 1.8 1.8 1.8 2.16 0l9.6-50.04c.24-1.08.96-1.56 2.04-1.56h6.48c1.32 0 1.92.72 1.68 1.92l-14.04 73.32c-.24 1.08-.96 1.56-2.04 1.56h-9.48c-1.08 0-1.8-.48-2.04-1.56l-5.88-31.2c-.36-1.68-1.8-1.68-2.16 0l-.48 2.76a3.33 3.33 0 0 0 0 2.16l5.64 29.88c.24 1.08.96 1.56 2.04 1.56h15.24c1.08 0 1.8-.48 2.04-1.56l15.48-80.52c.24-1.2-.36-1.92-1.68-1.92h-13.68z"/><path id="P" d="M249.958 151.8c0-1.2-.6-1.8-1.8-1.8h-42.6c-1.2 0-1.8.6-1.8 1.8v45.84c0 1.2.6 1.8 1.8 1.8h10.2c1.2 0 1.8.6 1.8 1.8v16.8c0 1.2.6 1.8 1.8 1.8h25.2c1.2 0 1.8.6 1.8 1.8v6.96c0 1.2-.6 1.8-1.8 1.8h-35.4c-1.2 0-1.8-.6-1.8-1.8v-23.76c0-1.2-.6-1.8-1.8-1.8s-1.8.6-1.8 1.8v27.36c0 1.2.6 1.8 1.8 1.8h42.6c1.2 0 1.8-.6 1.8-1.8v-14.16c0-1.2-.6-1.8-1.8-1.8h-25.2c-1.2 0-1.8-.6-1.8-1.8v-16.8c0-1.2-.6-1.8-1.8-1.8h-10.2c-1.2 0-1.8-.6-1.8-1.8V155.4c0-1.2.6-1.8 1.8-1.8h35.4c1.2 0 1.8.6 1.8 1.8v6.84c0 1.2-.6 1.8-1.8 1.8h-25.2c-1.2 0-1.8.6-1.8 1.8v18.6c0 1.2.6 1.8 1.8 1.8h18c1.2 0 1.8.6 1.8 1.8v6c0 1.2-.6 1.8-1.8 1.8h-10.8c-1.2 0-1.8.6-1.8 1.8s.6 1.8 1.8 1.8h14.4c1.2 0 1.8-.6 1.8-1.8v-13.2c0-1.2-.6-1.8-1.8-1.8h-18c-1.2 0-1.8-.6-1.8-1.8v-11.4c0-1.2.6-1.8 1.8-1.8h25.2c1.2 0 1.8-.6 1.8-1.8V151.8z"/><path id="Q" d="M260.187 150c-1.2 0-1.8.6-1.8 1.8v80.4c0 1.2.6 1.8 1.8 1.8s1.8-.6 1.8-1.8v-76.8c0-1.2.6-1.8 1.8-1.8h23.88c4.92 0 9.6 1.92 13.08 5.4 3.6 3.6 5.52 8.28 5.52 13.2s-1.92 9.6-5.52 13.2c-1.8 1.8-3.48 4.08-8.28 4.08h-2.04c-1.2 0-1.8.6-1.8 1.8v.24c0 1.2.6 1.8 1.8 1.8h3.96c4.08 0 8.28 2.4 11.16 5.28 3.6 3.6 5.52 8.28 5.52 13.2s-1.92 9.6-5.52 13.2c-3.48 3.48-8.16 5.4-13.08 5.4h-15.12c-1.2 0-1.8-.6-1.8-1.8v-6.36c0-1.2.6-1.8 1.8-1.8h15.12c4.8 0 8.64-3.84 8.64-8.64s-3.84-8.76-8.64-8.76h-15.12c-1.2 0-1.8-.6-1.8-1.8v-18.6c0-1.2.6-1.8 1.8-1.8h10.32c4.8 0 8.64-3.84 8.64-8.64s-3.84-8.76-8.64-8.76h-13.92c-1.2 0-1.8.6-1.8 1.8s.6 1.8 1.8 1.8h13.92c2.76 0 5.04 2.4 5.04 5.16s-2.28 5.04-5.04 5.04h-13.92c-1.2 0-1.8.6-1.8 1.8v25.8c0 1.2.6 1.8 1.8 1.8h18.72c2.76 0 5.04 2.4 5.04 5.16s-2.28 5.04-5.04 5.04h-18.72c-1.2 0-1.8.6-1.8 1.8v13.56c0 1.2.6 1.8 1.8 1.8h18.72c12.24 0 22.2-9.96 22.2-22.2 0-9-5.28-16.68-12.96-20.16-1.2-.6-1.2-1.32-.12-2.16 5.04-4.08 8.28-10.32 8.28-17.28 0-12.12-9.84-22.2-21.96-22.2h-27.72z"/><path id="R" d="M369.358 150c-1.2 0-1.8.6-1.8 1.8v66.36c0 1.2.6 1.8 1.8 1.8h9.6c7.92 0 14.4-6.48 14.4-14.4v-27c0-8.04-6.48-14.4-14.4-14.4h-2.64c-1.2 0-1.8.6-1.8 1.8s.6 1.8 1.8 1.8h2.64c6 0 10.8 4.8 10.8 10.8v27c0 6-4.8 10.8-10.8 10.8h-6c-1.2 0-1.8-.6-1.8-1.8V155.4c0-1.2.6-1.8 1.8-1.8h7.2c6.24 0 12.12 2.4 16.56 6.84s6.84 10.32 6.84 16.56v30c0 6.24-2.4 12.12-6.84 16.56s-10.32 6.84-16.56 6.84h-21c-1.2 0-1.8-.6-1.8-1.8v-76.8c0-1.2-.6-1.8-1.8-1.8s-1.8.6-1.8 1.8v80.4c0 1.2.6 1.8 1.8 1.8h24.6c14.88 0 27-12.12 27-27v-30c0-14.88-12.12-27-27-27h-10.8z"/><path id="S" d="M493.263 226.68c-.48 1.8-1.68 1.8-2.16 0l-19.92-71.04c-.36-1.32.24-2.04 1.44-2.04h7.2c1.08 0 1.68.48 2.04 1.56l12.6 45.48c.6 1.68 1.8 1.68 2.28 0l.36-1.2a4.09 4.09 0 0 0 0-2.4l-12.6-45.48c-.36-1.08-.96-1.56-2.04-1.56h-14.4c-1.2 0-1.8.72-1.44 2.04l22.32 80.4c.36 1.08.96 1.56 2.04 1.56h2.28c1.08 0 1.68-.48 2.04-1.56l21.48-77.28c.36-1.08.96-1.56 2.04-1.56h7.2c1.2 0 1.8.72 1.44 2.04l-21.24 76.32c-.36 1.32.24 2.04 1.44 2.04 1.08 0 1.68-.48 2.04-1.56l22.32-80.4c.36-1.32-.24-2.04-1.44-2.04h-14.4c-1.08 0-1.68.48-2.04 1.56l-20.88 75.12z"/><path id="T" d="M643.614 219c0-1.2-.6-1.8-1.8-1.8h-27c-1.2 0-1.8.6-1.8 1.8s.6 1.8 1.8 1.8h23.4c1.2 0 1.8.6 1.8 1.8v6c0 1.2-.6 1.8-1.8 1.8h-27c-1.2 0-1.8-.6-1.8-1.8v-76.8c0-1.2-.6-1.8-1.8-1.8h-14.4c-1.2 0-1.8.6-1.8 1.8v80.4c0 1.2.6 1.8 1.8 1.8s1.8-.6 1.8-1.8v-76.8c0-1.2.6-1.8 1.8-1.8h7.2c1.2 0 1.8.6 1.8 1.8v76.8c0 1.2.6 1.8 1.8 1.8h34.2c1.2 0 1.8-.6 1.8-1.8V219z"/><path id="U" d="M703.216 176.04c0-15.24-12.36-27.6-27.6-27.6s-27.6 12.36-27.6 27.6v14.52c0 .96.48 1.68 1.32 2.04l11.16 4.92c.84.36 1.32 1.08 1.32 2.04v8.28c0 7.68 6.12 13.8 13.8 13.8 7.56 0 13.8-6.12 13.8-13.68v-31.92c0-7.56-6.12-13.8-13.8-13.8s-13.8 6.24-13.8 13.8v12.84c0 .96.36 1.68 1.32 2.04l.48.24c1.08.48 1.8-.12 1.8-1.44v-13.68c0-5.52 4.56-10.2 10.2-10.2s10.2 4.68 10.2 10.2v31.8c0 5.64-4.56 10.2-10.2 10.2s-10.2-4.56-10.2-10.2V197.4c0-.96-.48-1.68-1.32-2.04l-11.16-5.04c-.84-.36-1.32-1.08-1.32-2.04v-12.24c0-6.36 2.52-12.36 7.08-16.92 4.44-4.56 10.56-7.08 16.92-7.08s12.48 2.52 16.92 7.08c4.56 4.56 7.08 10.56 7.08 16.92v31.8c0 6.48-2.52 12.48-7.08 17.04-4.44 4.56-10.56 6.96-16.92 6.96s-12.48-2.4-16.92-6.96c-4.56-4.56-7.08-10.56-7.08-17.04v-8.88c0-.96-.36-1.68-1.32-2.04l-.48-.24c-1.08-.36-1.8.24-1.8 1.56v9.6c0 15.36 12.36 27.72 27.6 27.72s27.6-12.36 27.6-27.6v-31.92z"/><path id="V" d="M712.394 150c-1.2 0-1.8.6-1.8 1.8v80.4c0 1.2.6 1.8 1.8 1.8h14.04c1.2 0 1.8-.6 1.8-1.8v-44.76c0-1.2.6-1.8 1.8-1.8h5.52c6 0 10.8-4.8 10.8-10.8 0-5.88-4.8-10.68-10.8-10.68h-9c-1.2-.12-1.8.48-1.8 1.68s.6 1.8 1.8 1.8h9c3.96 0 7.2 3.24 7.2 7.2 0 4.08-3.24 7.2-7.2 7.2h-9c-1.2 0-1.8.6-1.8 1.8v44.76c0 1.2-.6 1.8-1.8 1.8h-6.96c-1.2 0-1.8-.6-1.8-1.8v-73.2c0-1.2.6-1.8 1.8-1.8h19.56c5.64 0 10.92 2.16 15 6.24s6.24 9.36 6.24 15c0 5.76-2.16 11.04-6.24 15.12s-9.36 6.24-15 6.24h-1.92c-1.2 0-1.8.6-1.8 1.8s.6 1.8 1.8 1.8h1.92c13.68 0 24.84-11.16 24.84-24.96 0-13.68-11.16-24.84-24.84-24.84h-23.16z"/><path id="W" d="M872.26 234c1.32 0 1.92-.84 1.32-2.16l-13.44-31.08c-.48-1.08-2.28-.84-2.28-.84-.96.6-1.32 1.44-.84 2.4l11.76 25.92c.6 1.32 0 2.16-1.32 2.16h-6.84c-.96 0-1.68-.48-2.04-1.32l-12.24-27.36c-.48-1.2 0-1.92 1.32-2.16 2.4-.24 4.68-.96 6.84-1.92l3-1.56c7.08-4.44 11.76-12.24 11.76-21.24 0-13.68-11.16-24.84-24.84-24.84h-23.16c-1.2 0-1.8.6-1.8 1.8v80.4c0 1.2.6 1.8 1.8 1.8h14.4c1.2 0 1.8-.6 1.8-1.8v-44.76c0-1.2.6-1.8 1.8-1.8h5.16c6 0 10.8-4.8 10.8-10.8 0-5.88-4.8-10.8-10.8-10.8h-8.64c-1.2 0-1.8.6-1.8 1.8s.6 1.8 1.8 1.8h8.64c3.96 0 7.2 3.24 7.2 7.2 0 4.08-3.24 7.2-7.2 7.2h-8.76c-1.2 0-1.8.6-1.8 1.8v44.76c0 1.2-.6 1.8-1.8 1.8h-7.2c-1.2 0-1.8-.6-1.8-1.8v-73.2c0-1.2.6-1.8 1.8-1.8h19.56c5.64 0 10.92 2.16 15 6.24s6.24 9.36 6.24 15c0 5.76-2.16 11.04-6.24 15.12-.96.96-2.04 1.8-3.12 2.52-.96.72-1.92 1.32-3 1.8-2.76 1.2-5.76 1.92-8.88 1.92h-1.92c-1.2 0-1.68.84-1.2 2.04l.6 1.56 14.28 32.88c.36.84 1.08 1.32 2.04 1.32h14.04z"/></defs></svg>