<svg xmlns="http://www.w3.org/2000/svg" width="200" height="72" fill="none" stroke="#09fbd3"><path d="M.75 1.25v69.5h-.5V1.25h.5zm199 0v69.5h-.5V1.25h.5zm-199.5 70h199.5v.5H.25v-.5zm0-71h199.5v.5H.25v-.5z" stroke-width=".5"/><path d="M60.735 40.427l3.92 9.067c.052.115.04.163.038.173s-.042.033-.15.033H60.45c-.162 0-.262-.07-.32-.203l-4.163-9.586-.174-.453c-.044-.1-.03-.157-.028-.165.017-.01.046-.018.1-.018h.56c.957 0 1.872-.22 2.7-.585l.002-.001a4.75 4.75 0 0 0 .926-.554c.325-.217.654-.473.95-.768 1.247-1.247 1.908-2.864 1.908-4.622 0-1.725-.662-3.34-1.908-4.587s-2.863-1.908-4.587-1.908H50.72c-.22 0-.442.055-.606.22s-.22.385-.22.606v21.35c0 .22.056.442.22.606s.385.22.606.22h2.1c.22 0 .442-.056.606-.22s.22-.385.22-.606V35.37c0-.13.032-.17.043-.182s.053-.043.182-.043h2.555c1.317 0 2.4-1.04 2.4-2.4 0-1.32-1.08-2.4-2.4-2.4h-2.52c-.13 0-.17-.032-.182-.043s-.043-.053-.043-.182.032-.17.043-.182.053-.043.182-.043h2.52a2.86 2.86 0 0 1 2.85 2.85c0 1.584-1.266 2.85-2.85 2.85H54.92c-.22 0-.442.056-.606.22s-.22.385-.22.606v13.055c0 .13-.032.17-.043.182s-.053.043-.182.043h-4.2c-.13 0-.17-.032-.182-.043s-.043-.053-.043-.182v-23.45c0-.13.032-.17.043-.182s.053-.043.182-.043h6.755c3.824 0 6.945 3.12 6.945 6.945 0 2.517-1.308 4.698-3.29 5.94-.196.123-.406.224-.623.33l-.22.108c-.608.27-1.24.467-1.897.533l-.012.001-.012.002c-.226.04-.46.136-.6.346-.137.22-.108.47-.02.69l3.573 7.987c.155.358.474.567.87.567h1.995c.247 0 .508-.08.655-.31s.112-.505.003-.745l-3.435-7.57c-.04-.078-.033-.122-.022-.15s.038-.072.1-.12c.038-.001.086.001.134.008.12.018.15.055.154.066zm0 0zm5.224-1.04c.015-.002.037-.002.072.008l.132.066.015.005c.087.032.125.072.147.107s.044.103.044.207v2.6a7.26 7.26 0 0 0 2.151 5.181c1.355 1.39 3.22 2.12 5.148 2.12s3.793-.728 5.15-2.12a7.26 7.26 0 0 0 2.151-5.181v-9.275a7.24 7.24 0 0 0-2.151-5.146c-1.353-1.39-3.215-2.154-5.15-2.154s-3.796.766-5.148 2.154a7.24 7.24 0 0 0-2.152 5.146v3.57a.91.91 0 0 0 .564.87l3.258 1.47c.132.057.203.157.203.32v3.045c0 1.81 1.464 3.275 3.275 3.275s3.275-1.464 3.275-3.275v-9.275c0-1.773-1.462-3.275-3.275-3.275s-3.275 1.502-3.275 3.275v4a.44.44 0 0 1-.02.146c-.004.01-.007.017-.01.022-.01-.001-.034-.005-.068-.02l-.147-.074-.015-.005c-.087-.032-.125-.072-.147-.107s-.044-.103-.044-.207v-3.745c0-2.04 1.652-3.725 3.725-3.725s3.725 1.684 3.725 3.725v9.3c0 2.036-1.682 3.7-3.725 3.7-2.074 0-3.725-1.65-3.725-3.725v-2.415a.91.91 0 0 0-.565-.87l-3.257-1.436c-.132-.057-.203-.157-.203-.32v-4.235c0-4.28 3.47-7.75 7.75-7.75s7.75 3.47 7.75 7.75v9.3c0 4.28-3.47 7.75-7.75 7.75s-7.75-3.47-7.75-7.785v-2.8c0-.07.01-.118.02-.147.005-.014.01-.024.014-.03zm0 0zm18.835 5.76a6.88 6.88 0 0 0 1.604 2.336 6.88 6.88 0 0 0 2.337 1.605l.01.004.212.08c.194.076.4.152.58.206l.01.002.01.002c.117.026.16.062.178.084s.042.07.042.183v.07c0 .07-.01.116-.02.143s-.018.03-.018.032-.007.006-.032.01a.41.41 0 0 1-.144-.018c-3.34-.945-5.8-4.015-5.8-7.656v-2.38c0-.13.032-.17.043-.182s.053-.043.182-.043h4.235c.13 0 .17.032.182.043s.043.053.043.182v2.38a3.2 3.2 0 0 0 3.158 3.205l.023.008c.038.014.086.035.132.063.11.066.117.1.117.12v3.15c0 .233.07.46.242.624a.8.8 0 0 0 .648.2l.013-.001.013-.002c.564-.106 1.187-.25 1.746-.5.875-.365 1.674-.91 2.363-1.6.7-.663 1.208-1.467 1.603-2.33l.004-.01.003-.01c.363-.943.545-1.9.545-2.908v-15.2c0-.22-.055-.442-.22-.606s-.385-.22-.606-.22h-2.135c-.22 0-.442.055-.606.22s-.22.385-.22.606v15.2a3.66 3.66 0 0 1-1.585 3.008l-.002.001a.39.39 0 0 1-.136.067c-.017-.01-.022-.03-.022-.066v-.2c0-.1.018-.165.045-.216a.62.62 0 0 1 .162-.184l.006-.006a3.18 3.18 0 0 0 1.081-2.395V26c0-.13.032-.17.043-.182s.053-.043.182-.043h4.27c.13 0 .17.032.182.043s.043.053.043.182v16.24c0 4.35-3.542 7.925-7.9 7.925-.13 0-.17-.032-.182-.043s-.043-.053-.043-.182v-3.3a.87.87 0 0 0-.19-.566c-.124-.15-.3-.246-.46-.3l-.014-.005-.014-.004c-1.6-.422-2.752-1.848-2.752-3.525V40.9c0-.22-.056-.442-.22-.606s-.385-.22-.606-.22h-2.135c-.22 0-.442.055-.606.22s-.22.385-.22.606v1.33a7.32 7.32 0 0 0 .583 2.916zm0 0l.277-.116m-.277.116zm.277-.116c.35.84.875 1.6 1.54 2.24.63.665 1.4 1.2 2.24 1.54l.228.087c.2.074.366.142.542.193.315.07.455.245.455.56v.07c0 .385-.2.56-.595.455-3.465-.98-6.02-4.165-6.02-7.945v-2.38c0-.35.175-.525.525-.525h4.235c.35 0 .525.175.525.525v2.38a2.9 2.9 0 0 0 2.905 2.905s.525.14.525.5v3.15c0 .35.2.56.56.525.56-.105 1.155-.245 1.68-.5.84-.35 1.6-.875 2.275-1.54.665-.63 1.155-1.4 1.54-2.24.35-.9.525-1.82.525-2.8v-15.2c0-.35-.175-.525-.525-.525h-2.135c-.35 0-.525.175-.525.525v15.2a3.96 3.96 0 0 1-1.715 3.255c-.35.245-.63.105-.63-.245v-.2c0-.28.105-.455.315-.63a2.88 2.88 0 0 0 .98-2.17V26c0-.35.175-.525.525-.525h4.27c.35 0 .525.175.525.525v16.24c0 4.515-3.675 8.225-8.2 8.225-.35 0-.525-.175-.525-.525v-3.3c0-.315-.175-.5-.455-.595-1.715-.455-2.975-1.995-2.975-3.815V40.9c0-.35-.175-.525-.525-.525h-2.135c-.35 0-.525.175-.525.525v1.33a7.02 7.02 0 0 0 .56 2.8zm31.748-5.644c.015-.002.036-.002.072.008l.132.066.015.005c.087.032.125.072.147.107s.044.103.044.207v2.6a7.26 7.26 0 0 0 2.151 5.181c1.355 1.39 3.22 2.12 5.15 2.12s3.79-.727 5.146-2.118c1.132-1.096 1.825-2.52 2.044-4.047.047-.242.003-.482-.16-.663s-.394-.247-.624-.247h-1.925a.85.85 0 0 0-.573.2c-.152.132-.245.3-.307.495l-.004.012-.003.013c-.387 1.612-1.874 2.78-3.593 2.78a3.7 3.7 0 0 1-3.725-3.725v-2.415a.91.91 0 0 0-.566-.87l-3.256-1.436c-.133-.057-.203-.157-.203-.32v-4.235c0-4.28 3.47-7.75 7.75-7.75s7.75 3.47 7.75 7.75c0 .13-.032.17-.044.182s-.053.043-.18.043h-4.025c-.12 0-.19-.014-.225-.027v-.198a3.3 3.3 0 0 0-3.275-3.275c-1.813 0-3.275 1.502-3.275 3.275v4a.45.45 0 0 1-.02.146c-.004.01-.007.017-.01.022-.01-.001-.034-.005-.068-.02l-.147-.074-.015-.005c-.087-.032-.125-.072-.147-.107s-.043-.103-.043-.207v-3.745c0-2.04 1.652-3.725 3.725-3.725 1.715 0 3.205 1.2 3.593 2.815l.004.018.007.017c.063.17.158.336.31.46.157.128.35.2.567.2h1.925c.23 0 .463-.07.624-.247s.208-.422.16-.664c-.22-1.493-.913-2.916-2.044-4.012-1.352-1.387-3.214-2.152-5.146-2.152s-3.796.766-5.15 2.154a7.24 7.24 0 0 0-2.151 5.146v3.57a.91.91 0 0 0 .563.87l3.258 1.47c.133.057.204.157.204.32v3.045c0 1.81 1.464 3.275 3.275 3.275s3.275-1.462 3.275-3.24c0-.13.032-.17.043-.182s.053-.043.182-.043h4.025c.078 0 .14.004.187.01.015.002.027.004.038.006v.173c0 4.315-3.472 7.785-7.75 7.785s-7.75-3.47-7.75-7.785v-2.8c0-.07.01-.118.02-.147.005-.014.01-.024.013-.03zm0 0zM37.5 29.93h.015 2.64c1.587 0 2.85 1.268 2.85 2.815 0 1.584-1.266 2.85-2.85 2.85h-1.6c-.22 0-.442.056-.606.22s-.22.385-.22.606v13.055c0 .13-.032.17-.043.182s-.053.043-.182.043H33.4c-.13 0-.17-.032-.182-.043s-.043-.053-.043-.182v-23.45c0-.13.032-.17.043-.182s.053-.043.182-.043h6.755c3.824 0 6.945 3.12 6.945 6.945 0 3.86-3.122 6.98-6.945 6.98h-.56c-.13 0-.17-.032-.182-.043s-.043-.053-.043-.182.032-.17.043-.182.053-.043.182-.043h.56c1.725 0 3.34-.662 4.587-1.908s1.908-2.864 1.908-4.622c0-1.725-.662-3.34-1.908-4.587s-2.862-1.908-4.587-1.908H34.45c-.22 0-.442.055-.606.22s-.22.385-.22.606v21.35c0 .22.056.442.22.606s.385.22.606.22h2.03c.22 0 .442-.056.606-.22s.22-.385.22-.606V35.37c0-.13.032-.17.043-.182s.053-.043.182-.043h2.625c1.317 0 2.4-1.04 2.4-2.4 0-1.32-1.08-2.4-2.4-2.4H37.53c-.13 0-.17-.032-.182-.043s-.043-.053-.043-.182.033-.168.038-.172.033-.032.157-.02zm18.014 9.642l.175.455 4.165 9.6a.61.61 0 0 0 .595.385h4.095c.385 0 .56-.245.385-.63L61 40.305c-.14-.315-.665-.245-.665-.245-.28.175-.385.42-.245.7l3.43 7.56c.175.385 0 .63-.385.63H61.15a.61.61 0 0 1-.595-.385l-3.57-7.98c-.14-.35 0-.56.385-.63.7-.07 1.365-.28 1.995-.56l.212-.104c.22-.107.452-.22.663-.35 2.065-1.295 3.43-3.57 3.43-6.195 0-4-3.255-7.245-7.245-7.245H49.67c-.35 0-.525.175-.525.525v23.45c0 .35.175.525.525.525h4.2c.35 0 .525-.175.525-.525V36.42c0-.35.175-.525.525-.525h1.505c1.75 0 3.15-1.4 3.15-3.15a3.16 3.16 0 0 0-3.15-3.15h-2.52c-.35 0-.525.175-.525.525s.175.525.525.525h2.52c1.155 0 2.1.945 2.1 2.1 0 1.2-.945 2.1-2.1 2.1H53.87c-.35 0-.525.175-.525.525v13.055c0 .35-.175.525-.525.525h-2.1c-.35 0-.525-.175-.525-.525v-21.35c0-.35.175-.525.525-.525h5.705c1.645 0 3.185.63 4.375 1.82s1.82 2.73 1.82 4.375c0 1.68-.63 3.22-1.82 4.4a5.98 5.98 0 0 1-.91.735c-.28.2-.56.385-.875.525-.805.35-1.68.56-2.6.56h-.56c-.35 0-.5.245-.35.595zm10.77-.385l-.14-.07c-.315-.105-.525.07-.525.455v2.8c0 4.48 3.605 8.085 8.05 8.085s8.05-3.605 8.05-8.05v-9.3c0-4.445-3.605-8.05-8.05-8.05s-8.05 3.605-8.05 8.05v4.235a.61.61 0 0 0 .385.595l3.255 1.435a.61.61 0 0 1 .385.595v2.415c0 2.24 1.785 4.025 4.025 4.025 2.205 0 4.025-1.785 4.025-4v-9.3c0-2.205-1.785-4.025-4.025-4.025s-4.025 1.82-4.025 4.025v3.745c0 .28.105.5.385.595l.14.07c.315.14.525-.035.525-.42v-4c0-1.6 1.33-2.975 2.975-2.975s2.975 1.365 2.975 2.975v9.275c0 1.645-1.33 2.975-2.975 2.975s-2.975-1.33-2.975-2.975v-3.045a.61.61 0 0 0-.385-.595l-3.255-1.47a.61.61 0 0 1-.385-.595v-3.57a6.94 6.94 0 0 1 2.065-4.935c1.295-1.33 3.08-2.065 4.935-2.065s3.64.735 4.935 2.065a6.94 6.94 0 0 1 2.065 4.935v9.275a6.96 6.96 0 0 1-2.065 4.97c-1.295 1.33-3.08 2.03-4.935 2.03s-3.64-.7-4.935-2.03a6.96 6.96 0 0 1-2.065-4.97v-2.6c0-.28-.105-.5-.385-.595zM114.868 25.8c.13 0 .17.032.182.043s.043.053.043.182v4.095c0 .13-.032.17-.043.182s-.053.043-.182.043h-7.35c-.22 0-.442.056-.606.22s-.22.385-.22.606v3.325c0 .22.055.442.22.606s.385.22.606.22h5.25c.13 0 .17.032.182.043s.043.053.043.182v3.85c0 .13-.032.17-.043.182s-.053.043-.182.043h-4.2c-.13 0-.17-.032-.182-.043s-.043-.053-.043-.182.032-.17.043-.182.053-.043.182-.043h3.15c.22 0 .442-.056.606-.22s.22-.385.22-.606v-1.75c0-.22-.056-.442-.22-.606s-.385-.22-.606-.22h-5.25c-.13 0-.17-.032-.182-.043s-.043-.053-.043-.182V30.12c0-.13.032-.17.043-.182s.053-.043.182-.043h7.35c.22 0 .442-.055.606-.22s.22-.385.22-.606v-1.995c0-.22-.056-.442-.22-.606s-.385-.22-.606-.22h-10.325c-.22 0-.442.055-.606.22s-.22.385-.22.606v11.27c0 .22.055.442.22.606s.385.22.606.22h2.975c.13 0 .17.032.182.043s.043.053.043.182v4.9c0 .22.055.442.22.606s.385.22.606.22h7.35c.13 0 .17.032.182.043s.043.053.043.182v4.13c0 .13-.032.17-.043.182s-.053.043-.182.043h-12.425c-.13 0-.17-.032-.182-.043s-.043-.053-.043-.182v-7.98c0-.13.032-.17.043-.182s.053-.043.182-.043.17.032.182.043.043.053.043.182v6.93c0 .22.055.442.22.606s.385.22.606.22h10.325c.22 0 .442-.056.606-.22s.22-.385.22-.606v-2.03c0-.22-.056-.442-.22-.606s-.385-.22-.606-.22h-7.35c-.13 0-.17-.032-.182-.043s-.043-.053-.043-.182v-4.9c0-.22-.056-.442-.22-.606s-.385-.22-.606-.22h-2.975c-.13 0-.17-.032-.182-.043s-.043-.053-.043-.182v-13.37c0-.13.032-.17.043-.182s.053-.043.182-.043h12.425zm14.596 2.36c1.085 1.05 1.75 2.415 1.96 3.85.07.35-.14.56-.5.56h-1.925c-.315 0-.5-.175-.595-.455-.42-1.75-2.03-3.045-3.885-3.045-2.24 0-4.025 1.82-4.025 4.025v3.745c0 .28.105.5.385.595l.14.07c.315.14.525-.035.525-.42v-4c0-1.6 1.33-2.975 2.975-2.975s2.975 1.365 2.975 2.975v.245c0 .175.175.28.525.28h4.025c.35 0 .525-.175.525-.525 0-4.445-3.605-8.05-8.05-8.05s-8.05 3.605-8.05 8.05v4.235a.61.61 0 0 0 .385.595l3.255 1.435a.61.61 0 0 1 .385.595v2.415c0 2.24 1.785 4.025 4.025 4.025 1.855 0 3.465-1.26 3.885-3 .105-.315.28-.5.595-.5h1.925c.35 0 .56.2.5.56-.2 1.47-.875 2.835-1.96 3.885-1.295 1.33-3.08 2.03-4.935 2.03s-3.64-.7-4.935-2.03a6.96 6.96 0 0 1-2.065-4.97v-2.6c0-.28-.105-.5-.385-.595l-.14-.07c-.315-.105-.525.07-.525.455v2.8c0 4.48 3.605 8.085 8.05 8.085s8.05-3.605 8.05-8.085v-.245c0-.175-.175-.245-.525-.245h-4.025c-.35 0-.525.175-.525.525 0 1.6-1.33 2.94-2.975 2.94s-2.975-1.33-2.975-2.975v-3.045a.61.61 0 0 0-.385-.595l-3.255-1.47a.61.61 0 0 1-.385-.595v-3.57a6.94 6.94 0 0 1 2.065-4.935c1.295-1.33 3.08-2.065 4.935-2.065s3.64.735 4.935 2.065zm4.473-2.135c0-.13.032-.17.043-.182s.053-.043.182-.043h16.8c.128 0 .17.032.18.043s.044.053.044.182v4.025c0 .13-.032.17-.044.182s-.053.043-.18.043h-9.45c-.222 0-.443.056-.606.22s-.22.385-.22.606v17.325c0 .22.055.442.22.606s.384.22.606.22h2.1c.22 0 .442-.056.606-.22s.22-.385.22-.606V32.15c0-.13.032-.17.043-.182s.053-.043.182-.043.17.032.18.043.044.053.044.182v17.325c0 .13-.032.17-.044.182s-.053.043-.18.043h-4.2c-.13 0-.17-.032-.182-.043s-.043-.053-.043-.182V30.05c0-.13.032-.17.043-.182s.053-.043.182-.043h9.45c.22 0 .442-.055.606-.22s.22-.385.22-.606v-1.925c0-.22-.056-.442-.22-.606s-.385-.22-.606-.22h-14.7c-.222 0-.443.055-.606.22s-.22.385-.22.606V29c0 .22.055.442.22.606s.384.22.606.22h3.15c.128 0 .17.032.18.043s.044.053.044.182-.032.17-.044.182-.053.043-.18.043h-4.2c-.13 0-.17-.032-.182-.043s-.043-.053-.043-.182v-4.025zm26.888 10.7l.385-.385c.245-.2.28-.42.105-.56l-.56-.42c-1.54-1.155-2.765-2.205-2.765-3.395 0-.98.805-1.785 1.82-1.785.98 0 1.785.805 1.785 1.785v.245c0 .175.175.28.525.28h4.06c.35 0 .525-.175.525-.525 0-3.815-3.115-6.93-6.895-6.93a6.95 6.95 0 0 0-6.93 6.93c0 1.645.595 3.15 1.82 4.585.385.455.84.9 1.295 1.33.245.245.525.2.735 0l.035-.035c.245-.245.245-.5-.035-.735-1.575-1.365-2.8-2.975-2.8-5.145 0-3.22 2.625-5.88 5.88-5.88 2.835 0 5.25 2.1 5.74 4.795.07.35-.14.56-.5.56h-2.03c-.315 0-.455-.14-.56-.455-.42-1.085-1.47-1.855-2.66-1.855-1.575 0-2.87 1.26-2.87 2.835 0 1.47 1.155 2.625 2.6 3.78.28.245.315.5.07.735l-1.645 1.645-.35.385c-.245.245-.2.5.07.735l.385.28.2.175c1.785 1.33 3.325 2.485 3.325 3.815 0 .98-.805 1.785-1.785 1.785-1.015 0-1.82-.805-1.82-1.785v-.28c0-.14-.175-.245-.525-.245h-4.06c-.35 0-.525.175-.525.525a6.95 6.95 0 0 0 6.93 6.93c3.78 0 6.895-3.115 6.895-6.93 0-1.645-.595-3.15-1.82-4.585-.595-.7-1.33-1.365-2.065-1.995-.245-.2-.5-.2-.735.035l-.035.035c-.245.245-.2.5.07.735 1.855 1.505 3.535 3.3 3.535 5.775a5.86 5.86 0 0 1-5.845 5.845c-2.87 0-5.285-2.065-5.775-4.76-.07-.35.14-.56.5-.56h2.03c.315 0 .455.14.56.455.42 1.085 1.47 1.855 2.695 1.855 1.54 0 2.835-1.26 2.835-2.835 0-1.855-1.82-3.22-3.745-4.655l-.035-.035c-.035-.035.07-.175.35-.455l1.6-1.645zm-1.822 1.433c-.143.142-.25.258-.32.35a.78.78 0 0 0-.095.157c-.012.03-.088.22.065.373l.05.05.018.013c.968.722 1.88 1.405 2.553 2.133s1.07 1.46 1.07 2.28c0 1.407-1.158 2.535-2.535 2.535-1.094 0-2.034-.686-2.413-1.657-.058-.174-.14-.347-.29-.472-.16-.135-.35-.18-.553-.18h-2.03c-.23 0-.463.07-.625.247-.165.182-.208.426-.16.67.517 2.837 3.056 5.004 6.07 5.004a6.16 6.16 0 0 0 6.145-6.145c0-2.632-1.782-4.495-3.642-6.004-.1-.098-.125-.155-.127-.17 0-.002-.007-.04.076-.123l.035-.035c.09-.09.143-.1.166-.1s.075.007.162.08c.733.628 1.453 1.28 2.032 1.962 1.185 1.39 1.748 2.827 1.748 4.4 0 3.65-2.982 6.63-6.595 6.63a6.65 6.65 0 0 1-6.63-6.63c0-.13.032-.17.043-.182s.053-.043.182-.043h4.06c.11 0 .183.013.225.025v.2c0 1.15.943 2.085 2.12 2.085 1.146 0 2.085-.94 2.085-2.085 0-.785-.454-1.48-1.08-2.117s-1.476-1.274-2.36-1.933l-.212-.176-.38-.277c-.105-.095-.12-.15-.122-.166 0-.004-.005-.042.076-.123l.005-.005.35-.385 1.64-1.64c.162-.162.274-.37.248-.612-.025-.23-.166-.416-.332-.56l-.01-.008c-.714-.574-1.337-1.133-1.782-1.72s-.696-1.177-.696-1.827c0-1.405 1.156-2.535 2.57-2.535 1.057 0 1.998.684 2.378 1.657.058.174.14.347.29.472.158.135.35.18.553.18h2.03c.23 0 .463-.07.624-.247s.21-.425.16-.67c-.517-2.833-3.053-5.04-6.035-5.04-3.422 0-6.18 2.795-6.18 6.18 0 2.3 1.303 3.985 2.903 5.372.106.093.11.144.11.152s0 .053-.09.145l-.035.035c-.065.065-.12.082-.153.083s-.083-.008-.158-.083l-.01-.008c-.45-.415-.895-.86-1.27-1.303l-.001-.001c-1.186-1.39-1.748-2.827-1.748-4.4a6.65 6.65 0 0 1 6.63-6.63c3.613 0 6.595 2.98 6.595 6.63 0 .13-.032.17-.044.182s-.052.043-.18.043h-4.06c-.118 0-.188-.015-.225-.027v-.198c0-1.146-.94-2.085-2.085-2.085-1.177 0-2.12.936-2.12 2.085 0 .703.362 1.332.882 1.91s1.233 1.147 2.003 1.724l.538.404c-.024.036-.052.07-.098.108l-.01.008-.393.393-.003.002-1.607 1.643zM33.4 25.5c-.35 0-.525.175-.525.525v23.45c0 .35.175.525.525.525h4.095c.35 0 .525-.175.525-.525V36.42c0-.35.175-.525.525-.525h1.6c1.75 0 3.15-1.4 3.15-3.15 0-1.715-1.4-3.115-3.15-3.115H37.53c-.35-.035-.525.14-.525.5s.175.525.525.525h2.625c1.155 0 2.1.945 2.1 2.1 0 1.2-.945 2.1-2.1 2.1H37.53c-.35 0-.525.175-.525.525v13.055c0 .35-.175.525-.525.525h-2.03c-.35 0-.525-.175-.525-.525v-21.35c0-.35.175-.525.525-.525h5.705c1.645 0 3.185.63 4.375 1.82s1.82 2.73 1.82 4.375c0 1.68-.63 3.22-1.82 4.4s-2.73 1.82-4.375 1.82h-.56c-.35 0-.525.175-.525.525s.175.525.525.525h.56c4 0 7.245-3.255 7.245-7.28 0-4-3.255-7.245-7.245-7.245H33.4zm81.993.525c0-.35-.175-.525-.525-.525h-12.425c-.35 0-.525.175-.525.525v13.37c0 .35.175.525.525.525h2.975c.35 0 .525.175.525.525v4.9c0 .35.175.525.525.525h7.35c.35 0 .525.175.525.525v2.03c0 .35-.175.525-.525.525h-10.325c-.35 0-.525-.175-.525-.525v-6.93c0-.35-.175-.525-.525-.525s-.525.175-.525.525v7.98c0 .35.175.525.525.525h12.425c.35 0 .525-.175.525-.525v-4.13c0-.35-.175-.525-.525-.525h-7.35c-.35 0-.525-.175-.525-.525v-4.9c0-.35-.175-.525-.525-.525h-2.975c-.35 0-.525-.175-.525-.525v-11.27c0-.35.175-.525.525-.525h10.325c.35 0 .525.175.525.525v1.995c0 .35-.175.525-.525.525h-7.35c-.35 0-.525.175-.525.525v5.425c0 .35.175.525.525.525h5.25c.35 0 .525.175.525.525v1.75c0 .35-.175.525-.525.525h-3.15c-.35 0-.525.175-.525.525s.175.525.525.525h4.2c.35 0 .525-.175.525-.525v-3.85c0-.35-.175-.525-.525-.525h-5.25c-.35 0-.525-.175-.525-.525V31.17c0-.35.175-.525.525-.525h7.35c.35 0 .525-.175.525-.525v-4.095zm18.77-.525c-.35 0-.525.175-.525.525v4.025c0 .35.175.525.525.525h4.2c.35 0 .525-.175.525-.525s-.175-.525-.525-.525h-3.15c-.35 0-.525-.175-.525-.525v-1.925c0-.35.175-.525.525-.525h14.7c.35 0 .525.175.525.525V29c0 .35-.175.525-.525.525h-9.45c-.35 0-.525.175-.525.525v19.425c0 .35.175.525.525.525h4.2c.35 0 .525-.175.525-.525V32.15c0-.35-.175-.525-.525-.525s-.525.175-.525.525v16.275c0 .35-.175.525-.525.525h-2.1c-.35 0-.525-.175-.525-.525V31.1c0-.35.175-.525.525-.525h9.45c.35 0 .525-.175.525-.525v-4.025c0-.35-.175-.525-.525-.525h-16.8z" stroke-width=".3"/></svg>