<svg width="200" height="72" viewBox="0 0 200 72" fill="none" xmlns="http://www.w3.org/2000/svg">
<path d="M0.75 1.25V70.75H0.25V1.25H0.75Z" stroke="#09FBD3" stroke-width="0.5"/>
<path d="M199.75 1.25V70.75H199.25V1.25H199.75Z" stroke="#09FBD3" stroke-width="0.5"/>
<path d="M0.25 71.25L199.75 71.25V71.75L0.25 71.75L0.25 71.25Z" stroke="#09FBD3" stroke-width="0.5"/>
<path d="M0.25 0.25L199.75 0.25V0.75L0.25 0.75L0.25 0.25Z" stroke="#09FBD3" stroke-width="0.5"/>
<path d="M60.7354 40.4268L64.6542 49.4891L64.6564 49.4941C64.7085 49.6088 64.6975 49.6575 64.6941 49.6674C64.6872 49.6739 64.6522 49.7 64.5445 49.7H60.4495C60.2871 49.7 60.1871 49.6293 60.1303 49.4968L55.9672 39.9113L55.7946 39.4623L55.7931 39.4586C55.7493 39.349 55.762 39.3015 55.7648 39.2932C55.7659 39.2925 55.7677 39.2914 55.7707 39.29C55.7823 39.2845 55.811 39.275 55.8645 39.275H56.4245C57.3811 39.275 58.2967 39.0542 59.1342 38.6901L59.1364 38.6891C59.4742 38.539 59.7717 38.3528 60.0629 38.135C60.3878 37.9178 60.7166 37.6622 61.0117 37.3671C62.2586 36.1202 62.9195 34.5036 62.9195 32.745C62.9195 31.0204 62.2579 29.4041 61.0117 28.1579C59.7654 26.9116 58.1491 26.25 56.4245 26.25H50.7195C50.4983 26.25 50.2773 26.3055 50.1136 26.4691C49.95 26.6327 49.8945 26.8537 49.8945 27.075V48.425C49.8945 48.6462 49.95 48.8673 50.1136 49.0309C50.2773 49.1945 50.4983 49.25 50.7195 49.25H52.8195C53.0408 49.25 53.2618 49.1945 53.4254 49.0309C53.589 48.8673 53.6445 48.6462 53.6445 48.425V35.37C53.6445 35.2412 53.6765 35.1998 53.6879 35.1884C53.6993 35.177 53.7408 35.145 53.8695 35.145H56.4245C57.7419 35.145 58.8245 34.1039 58.8245 32.745C58.8245 31.4243 57.7452 30.345 56.4245 30.345H53.9045C53.7758 30.345 53.7343 30.313 53.7229 30.3016C53.7115 30.2902 53.6795 30.2487 53.6795 30.12C53.6795 29.9912 53.7115 29.9498 53.7229 29.9384C53.7343 29.927 53.7758 29.895 53.9045 29.895H56.4245C58.0067 29.895 59.2745 31.1935 59.2745 32.745C59.2745 34.3293 58.0088 35.595 56.4245 35.595H54.9195C54.6983 35.595 54.4773 35.6505 54.3137 35.8141C54.15 35.9777 54.0945 36.1987 54.0945 36.42V49.475C54.0945 49.6037 54.0625 49.6452 54.0511 49.6566C54.0398 49.668 53.9983 49.7 53.8695 49.7H49.6695C49.5408 49.7 49.4993 49.668 49.4879 49.6566C49.4765 49.6452 49.4445 49.6037 49.4445 49.475V26.025C49.4445 25.8962 49.4765 25.8548 49.4879 25.8434C49.4993 25.832 49.5408 25.8 49.6695 25.8H56.4245C60.2488 25.8 63.3695 28.9207 63.3695 32.745C63.3695 35.2622 62.0615 37.4432 60.0803 38.6858C59.8841 38.8083 59.674 38.9103 59.457 39.0155C59.3842 39.0509 59.3106 39.0866 59.2366 39.1235C58.6286 39.3932 57.9972 39.5907 57.3397 39.6565L57.3277 39.6577L57.3159 39.6598C57.0895 39.701 56.8571 39.7958 56.7258 40.006C56.5886 40.2254 56.6179 40.4768 56.7058 40.6965L60.2788 48.6832C60.2791 48.684 60.2795 48.6848 60.2798 48.6856C60.4335 49.0416 60.7529 49.25 61.1495 49.25H63.1445C63.3913 49.25 63.6529 49.1705 63.7997 48.9411C63.9467 48.7114 63.9118 48.4359 63.8026 48.1958L60.3729 40.6359L60.3679 40.6258C60.3291 40.5482 60.3352 40.5035 60.3459 40.4748C60.3567 40.4456 60.3842 40.4026 60.4471 40.3536C60.4854 40.3527 60.533 40.3541 60.5809 40.3612C60.7016 40.3789 60.7302 40.4159 60.7354 40.4268ZM60.7354 40.4268C60.7355 40.427 60.7353 40.4267 60.7354 40.4268ZM65.9594 39.3865C65.9599 39.3864 65.9605 39.3862 65.9613 39.3861C65.9622 39.3859 65.9634 39.3857 65.9649 39.3855C65.9743 39.3844 65.9959 39.3841 66.0318 39.3942L66.1641 39.4604L66.1788 39.4659C66.2655 39.4984 66.304 39.5378 66.3254 39.5728C66.3494 39.6123 66.3691 39.6756 66.3691 39.78V42.37C66.3691 44.3398 67.1359 46.1653 68.5206 47.5507C69.876 48.9419 71.7398 49.67 73.6691 49.67C75.5985 49.67 77.4624 48.9418 78.8178 47.5506C80.2025 46.1651 80.9691 44.3397 80.9691 42.37V33.095C80.9691 31.1594 80.2019 29.3342 78.8177 27.9493C77.465 26.5608 75.6025 25.795 73.6691 25.795C71.7359 25.795 69.8734 26.5607 68.5207 27.9492C67.1365 29.3341 66.3691 31.1593 66.3691 33.095V36.665C66.3691 37.0615 66.5773 37.3808 66.9331 37.5345C66.934 37.5349 66.935 37.5353 66.936 37.5357L70.1856 39.0034L70.191 39.0057C70.3234 39.0625 70.3941 39.1626 70.3941 39.325V42.37C70.3941 44.1807 71.8585 45.645 73.6691 45.645C75.4798 45.645 76.9441 44.1807 76.9441 42.37V33.095C76.9441 31.3216 75.4821 29.82 73.6691 29.82C71.8562 29.82 70.3941 31.3216 70.3941 33.095V37.085C70.3941 37.1553 70.3844 37.2026 70.3741 37.2311C70.3705 37.2412 70.3671 37.2481 70.3645 37.2527C70.3533 37.2518 70.331 37.248 70.2964 37.2332L70.1492 37.1596L70.1345 37.1541C70.0477 37.1216 70.0093 37.0822 69.9879 37.0471C69.9639 37.0077 69.9441 36.9443 69.9441 36.84V33.095C69.9441 31.054 71.5965 29.37 73.6691 29.37C75.7418 29.37 77.3941 31.054 77.3941 33.095V42.405C77.3941 44.4409 75.7119 46.095 73.6691 46.095C71.5948 46.095 69.9441 44.4443 69.9441 42.37V39.955C69.9441 39.558 69.7355 39.2384 69.379 39.0849C69.3784 39.0847 69.3779 39.0845 69.3773 39.0842L66.1252 37.6505L66.1223 37.6492C65.9898 37.5925 65.9191 37.4924 65.9191 37.33V33.095C65.9191 28.8157 69.3898 25.345 73.6691 25.345C77.9485 25.345 81.4191 28.8157 81.4191 33.095V42.405C81.4191 46.6843 77.9485 50.155 73.6691 50.155C69.3907 50.155 65.9191 46.6851 65.9191 42.37V39.57C65.9191 39.4999 65.9288 39.4522 65.9394 39.4226C65.9446 39.4082 65.9496 39.399 65.9531 39.3937C65.9558 39.3894 65.9587 39.3872 65.9594 39.3865ZM65.9594 39.3865C65.9595 39.3864 65.9597 39.3863 65.9594 39.3865ZM84.7943 45.1461C85.1591 46.0212 85.7056 46.8239 86.3987 47.4822C87.0572 48.1755 87.8601 48.7224 88.7355 49.0871L88.7456 49.0909C88.8157 49.1172 88.8863 49.1446 88.9573 49.1722C89.1516 49.2477 89.3477 49.3239 89.5385 49.3784L89.5471 49.3809L89.5559 49.3828C89.6727 49.4088 89.7156 49.445 89.7334 49.4669C89.7507 49.4883 89.7759 49.5355 89.7759 49.65V49.72C89.7759 49.7904 89.7662 49.8363 89.756 49.8634C89.7466 49.8888 89.7382 49.8948 89.7379 49.895C89.7379 49.895 89.7309 49.9013 89.7054 49.9039C89.6777 49.9068 89.6311 49.9048 89.5613 49.8859C86.2218 48.9408 83.7609 45.8708 83.7609 42.23V39.85C83.7609 39.7212 83.7929 39.6798 83.8043 39.6684C83.8157 39.657 83.8572 39.625 83.9859 39.625H88.2209C88.3497 39.625 88.3912 39.657 88.4026 39.6684C88.414 39.6798 88.4459 39.7212 88.4459 39.85V42.23C88.4459 43.99 89.8501 45.4097 91.604 45.4346C91.6108 45.437 91.6185 45.4398 91.6269 45.443C91.6651 45.4574 91.7133 45.4785 91.7591 45.506C91.8682 45.5715 91.8759 45.616 91.8759 45.625V48.775C91.8759 49.0081 91.9467 49.2358 92.1175 49.3989C92.2909 49.5644 92.5247 49.6226 92.7658 49.5985L92.7786 49.5972L92.7912 49.5948C93.3553 49.4891 93.9783 49.3443 94.5371 49.0845C95.412 48.719 96.2113 48.1731 96.9002 47.485C97.5992 46.8219 98.1083 46.0177 98.5037 45.155L98.5076 45.1464L98.5109 45.1377C98.8737 44.1944 99.0559 43.248 99.0559 42.23V27.04C99.0559 26.8187 99.0004 26.5977 98.8368 26.4341C98.6732 26.2705 98.4522 26.215 98.2309 26.215H96.0959C95.8747 26.215 95.6537 26.2705 95.4901 26.4341C95.3265 26.5977 95.2709 26.8187 95.2709 27.04V42.23C95.2709 43.49 94.6248 44.5903 93.6856 45.238L93.6839 45.2392C93.6217 45.2828 93.5756 45.2999 93.5481 45.3057C93.5429 45.3068 93.5385 45.3075 93.5349 45.3078C93.5309 45.2962 93.5259 45.2746 93.5259 45.24V45.03C93.5259 44.9298 93.5441 44.8652 93.5707 44.8144C93.5986 44.7608 93.6461 44.7028 93.733 44.6305L93.7394 44.6249C94.3954 44.0461 94.8209 43.1957 94.8209 42.23V25.99C94.8209 25.8612 94.8529 25.8198 94.8643 25.8084C94.8757 25.797 94.9172 25.765 95.0459 25.765H99.3159C99.4447 25.765 99.4862 25.797 99.4976 25.8084C99.5089 25.8198 99.5409 25.8612 99.5409 25.99V42.23C99.5409 46.581 95.9986 50.155 91.6509 50.155C91.5222 50.155 91.4807 50.123 91.4693 50.1116C91.4579 50.1002 91.4259 50.0587 91.4259 49.93V46.64C91.4259 46.4225 91.3637 46.2303 91.2356 46.0738C91.112 45.9226 90.9457 45.8276 90.7763 45.7641L90.7623 45.7588L90.7479 45.755C89.1578 45.3332 87.9959 43.9072 87.9959 42.23V40.9C87.9959 40.6787 87.9404 40.4577 87.7768 40.2941C87.6132 40.1305 87.3922 40.075 87.1709 40.075H85.0359C84.8147 40.075 84.5937 40.1305 84.4301 40.2941C84.2665 40.4577 84.2109 40.6787 84.2109 40.9V42.23C84.2109 43.248 84.3932 44.1977 84.7943 45.1461ZM84.7943 45.1461L85.0709 45.03M84.7943 45.1461C84.7944 45.1464 84.7942 45.1459 84.7943 45.1461ZM85.0709 45.03C85.4209 45.87 85.9459 46.64 86.6109 47.27C87.2409 47.935 88.0109 48.46 88.8509 48.81C88.9293 48.8394 89.0049 48.8688 89.0786 48.8974C89.2681 48.971 89.4445 49.0396 89.6209 49.09C89.9359 49.16 90.0759 49.335 90.0759 49.65V49.72C90.0759 50.105 89.8659 50.28 89.4809 50.175C86.0159 49.195 83.4609 46.01 83.4609 42.23V39.85C83.4609 39.5 83.6359 39.325 83.9859 39.325H88.2209C88.5709 39.325 88.7459 39.5 88.7459 39.85V42.23C88.7459 43.84 90.0409 45.135 91.6509 45.135C91.6509 45.135 92.1759 45.275 92.1759 45.625V48.775C92.1759 49.125 92.3859 49.335 92.7359 49.3C93.2959 49.195 93.8909 49.055 94.4159 48.81C95.2559 48.46 96.0259 47.935 96.6909 47.27C97.3559 46.64 97.8459 45.87 98.2309 45.03C98.5809 44.12 98.7559 43.21 98.7559 42.23V27.04C98.7559 26.69 98.5809 26.515 98.2309 26.515H96.0959C95.7459 26.515 95.5709 26.69 95.5709 27.04V42.23C95.5709 43.595 94.8709 44.785 93.8559 45.485C93.5059 45.73 93.2259 45.59 93.2259 45.24V45.03C93.2259 44.75 93.3309 44.575 93.5409 44.4C94.1359 43.875 94.5209 43.105 94.5209 42.23V25.99C94.5209 25.64 94.6959 25.465 95.0459 25.465H99.3159C99.6659 25.465 99.8409 25.64 99.8409 25.99V42.23C99.8409 46.745 96.1659 50.455 91.6509 50.455C91.3009 50.455 91.1259 50.28 91.1259 49.93V46.64C91.1259 46.325 90.9509 46.15 90.6709 46.045C88.9559 45.59 87.6959 44.05 87.6959 42.23V40.9C87.6959 40.55 87.5209 40.375 87.1709 40.375H85.0359C84.6859 40.375 84.5109 40.55 84.5109 40.9V42.23C84.5109 43.21 84.6859 44.12 85.0709 45.03ZM116.819 39.3865C116.82 39.3862 116.822 39.3858 116.824 39.3855C116.834 39.3844 116.855 39.3841 116.891 39.3942L117.023 39.4604L117.038 39.4659C117.125 39.4984 117.163 39.5378 117.185 39.5728C117.209 39.6123 117.229 39.6756 117.229 39.78V42.37C117.229 44.3398 117.995 46.1653 119.38 47.5507C120.735 48.9419 122.599 49.67 124.529 49.67C126.457 49.67 128.32 48.9425 129.675 47.5524C130.807 46.4559 131.5 45.0331 131.719 43.5049C131.766 43.2633 131.722 43.0227 131.558 42.8419C131.397 42.6647 131.164 42.595 130.934 42.595H129.009C128.791 42.595 128.595 42.6575 128.436 42.7948C128.284 42.9264 128.191 43.1046 128.129 43.2901L128.125 43.3024L128.122 43.315C127.735 44.9266 126.248 46.095 124.529 46.095C122.454 46.095 120.804 44.4443 120.804 42.37V39.955C120.804 39.5579 120.595 39.2383 120.238 39.0848C120.238 39.0846 120.237 39.0844 120.237 39.0842L116.985 37.6505L116.982 37.6492C116.849 37.5925 116.779 37.4924 116.779 37.33V33.095C116.779 28.8157 120.249 25.345 124.529 25.345C128.808 25.345 132.279 28.8157 132.279 33.095C132.279 33.2237 132.247 33.2652 132.235 33.2766C132.224 33.288 132.182 33.32 132.054 33.32H128.029C127.91 33.32 127.84 33.3055 127.804 33.293V33.095C127.804 31.3216 126.341 29.82 124.529 29.82C122.716 29.82 121.254 31.3216 121.254 33.095V37.085C121.254 37.1553 121.244 37.2026 121.234 37.2311C121.23 37.2412 121.227 37.2481 121.224 37.2527C121.213 37.2518 121.19 37.248 121.156 37.2332L121.009 37.1596L120.994 37.1541C120.907 37.1216 120.869 37.0822 120.847 37.0471C120.823 37.0077 120.804 36.9443 120.804 36.84V33.095C120.804 31.054 122.456 29.37 124.529 29.37C126.244 29.37 127.734 30.5694 128.122 32.185L128.126 32.203L128.133 32.2203C128.196 32.3898 128.291 32.556 128.442 32.6797C128.599 32.8078 128.791 32.87 129.009 32.87H130.934C131.164 32.87 131.397 32.8003 131.558 32.623C131.722 32.4421 131.766 32.2012 131.719 31.9593C131.499 30.4659 130.806 29.0435 129.675 27.9475C128.323 26.5601 126.461 25.795 124.529 25.795C122.595 25.795 120.733 26.5607 119.38 27.9492C117.996 29.3341 117.229 31.1593 117.229 33.095V36.665C117.229 37.0615 117.437 37.3808 117.792 37.5345C117.793 37.5349 117.794 37.5353 117.795 37.5357L121.045 39.0034L121.05 39.0057C121.183 39.0625 121.254 39.1626 121.254 39.325V42.37C121.254 44.1807 122.718 45.645 124.529 45.645C126.337 45.645 127.804 44.183 127.804 42.405C127.804 42.2762 127.836 42.2348 127.847 42.2234C127.858 42.212 127.9 42.18 128.029 42.18H132.054C132.132 42.18 132.194 42.184 132.241 42.1907C132.256 42.1927 132.268 42.195 132.279 42.1971V42.37C132.279 46.6851 128.807 50.155 124.529 50.155C120.25 50.155 116.779 46.6851 116.779 42.37V39.57C116.779 39.4999 116.788 39.4522 116.799 39.4226C116.804 39.4082 116.809 39.399 116.812 39.3937C116.815 39.3894 116.818 39.3872 116.819 39.3865ZM116.819 39.3865C116.819 39.3864 116.819 39.3863 116.819 39.3865ZM37.5001 29.9285L37.515 29.93H40.155C41.7415 29.93 43.005 31.1978 43.005 32.745C43.005 34.3293 41.7393 35.595 40.155 35.595H38.545C38.3238 35.595 38.1027 35.6505 37.9391 35.8141C37.7755 35.9777 37.72 36.1987 37.72 36.42V49.475C37.72 49.6037 37.688 49.6452 37.6766 49.6566C37.6652 49.668 37.6238 49.7 37.495 49.7H33.4C33.2712 49.7 33.2298 49.668 33.2184 49.6566C33.207 49.6452 33.175 49.6037 33.175 49.475V26.025C33.175 25.8962 33.207 25.8548 33.2184 25.8434C33.2298 25.832 33.2712 25.8 33.4 25.8H40.155C43.9793 25.8 47.1 28.9207 47.1 32.745C47.1 36.6052 43.9784 39.725 40.155 39.725H39.595C39.4662 39.725 39.4248 39.693 39.4134 39.6816C39.402 39.6702 39.37 39.6287 39.37 39.5C39.37 39.3712 39.402 39.3298 39.4134 39.3184C39.4248 39.307 39.4662 39.275 39.595 39.275H40.155C41.8796 39.275 43.4959 38.6134 44.7421 37.3671C45.989 36.1202 46.65 34.5036 46.65 32.745C46.65 31.0204 45.9884 29.4041 44.7421 28.1579C43.4959 26.9116 41.8796 26.25 40.155 26.25H34.45C34.2288 26.25 34.0077 26.3055 33.8441 26.4691C33.6805 26.6327 33.625 26.8537 33.625 27.075V48.425C33.625 48.6462 33.6805 48.8673 33.8441 49.0309C34.0077 49.1945 34.2288 49.25 34.45 49.25H36.48C36.7012 49.25 36.9223 49.1945 37.0859 49.0309C37.2495 48.8673 37.305 48.6462 37.305 48.425V35.37C37.305 35.2412 37.337 35.1998 37.3484 35.1884C37.3598 35.177 37.4012 35.145 37.53 35.145H40.155C41.4724 35.145 42.555 34.1039 42.555 32.745C42.555 31.4243 41.4757 30.345 40.155 30.345H37.53C37.4012 30.345 37.3598 30.313 37.3484 30.3016C37.337 30.2902 37.305 30.2487 37.305 30.12C37.305 29.9885 37.3382 29.9525 37.3429 29.9481C37.345 29.946 37.3764 29.9161 37.5001 29.9285ZM55.5145 39.57L55.6895 40.025L59.8545 49.615C59.9595 49.86 60.1695 50 60.4495 50H64.5445C64.9295 50 65.1045 49.755 64.9295 49.37L61.0095 40.305C60.8695 39.99 60.3445 40.06 60.3445 40.06C60.0645 40.235 59.9595 40.48 60.0995 40.76L63.5295 48.32C63.7045 48.705 63.5295 48.95 63.1445 48.95H61.1495C60.8695 48.95 60.6595 48.81 60.5545 48.565L56.9845 40.585C56.8445 40.235 56.9845 40.025 57.3695 39.955C58.0695 39.885 58.7345 39.675 59.3645 39.395C59.4335 39.3605 59.5045 39.326 59.5767 39.291C59.7975 39.1839 60.0285 39.0719 60.2395 38.94C62.3045 37.645 63.6695 35.37 63.6695 32.745C63.6695 28.755 60.4145 25.5 56.4245 25.5H49.6695C49.3195 25.5 49.1445 25.675 49.1445 26.025V49.475C49.1445 49.825 49.3195 50 49.6695 50H53.8695C54.2195 50 54.3945 49.825 54.3945 49.475V36.42C54.3945 36.07 54.5695 35.895 54.9195 35.895H56.4245C58.1745 35.895 59.5745 34.495 59.5745 32.745C59.5745 31.03 58.1745 29.595 56.4245 29.595H53.9045C53.5545 29.595 53.3795 29.77 53.3795 30.12C53.3795 30.47 53.5545 30.645 53.9045 30.645H56.4245C57.5795 30.645 58.5245 31.59 58.5245 32.745C58.5245 33.935 57.5795 34.845 56.4245 34.845H53.8695C53.5195 34.845 53.3445 35.02 53.3445 35.37V48.425C53.3445 48.775 53.1695 48.95 52.8195 48.95H50.7195C50.3695 48.95 50.1945 48.775 50.1945 48.425V27.075C50.1945 26.725 50.3695 26.55 50.7195 26.55H56.4245C58.0695 26.55 59.6095 27.18 60.7995 28.37C61.9895 29.56 62.6195 31.1 62.6195 32.745C62.6195 34.425 61.9895 35.965 60.7995 37.155C60.5195 37.435 60.2045 37.68 59.8895 37.89C59.6095 38.1 59.3295 38.275 59.0145 38.415C58.2095 38.765 57.3345 38.975 56.4245 38.975H55.8645C55.5145 38.975 55.3745 39.22 55.5145 39.57ZM66.2841 39.185L66.1441 39.115C65.8291 39.01 65.6191 39.185 65.6191 39.57V42.37C65.6191 46.85 69.2241 50.455 73.6691 50.455C78.1141 50.455 81.7191 46.85 81.7191 42.405V33.095C81.7191 28.65 78.1141 25.045 73.6691 25.045C69.2241 25.045 65.6191 28.65 65.6191 33.095V37.33C65.6191 37.61 65.7591 37.82 66.0041 37.925L69.2591 39.36C69.5041 39.465 69.6441 39.675 69.6441 39.955V42.37C69.6441 44.61 71.4291 46.395 73.6691 46.395C75.8741 46.395 77.6941 44.61 77.6941 42.405V33.095C77.6941 30.89 75.9091 29.07 73.6691 29.07C71.4291 29.07 69.6441 30.89 69.6441 33.095V36.84C69.6441 37.12 69.7491 37.33 70.0291 37.435L70.1691 37.505C70.4841 37.645 70.6941 37.47 70.6941 37.085V33.095C70.6941 31.485 72.0241 30.12 73.6691 30.12C75.3141 30.12 76.6441 31.485 76.6441 33.095V42.37C76.6441 44.015 75.3141 45.345 73.6691 45.345C72.0241 45.345 70.6941 44.015 70.6941 42.37V39.325C70.6941 39.045 70.5541 38.835 70.3091 38.73L67.0541 37.26C66.8091 37.155 66.6691 36.945 66.6691 36.665V33.095C66.6691 31.24 67.4041 29.49 68.7341 28.16C70.0291 26.83 71.8141 26.095 73.6691 26.095C75.5241 26.095 77.3091 26.83 78.6041 28.16C79.9341 29.49 80.6691 31.24 80.6691 33.095V42.37C80.6691 44.26 79.9341 46.01 78.6041 47.34C77.3091 48.67 75.5241 49.37 73.6691 49.37C71.8141 49.37 70.0291 48.67 68.7341 47.34C67.4041 46.01 66.6691 44.26 66.6691 42.37V39.78C66.6691 39.5 66.5641 39.29 66.2841 39.185ZM114.868 25.8C114.997 25.8 115.038 25.832 115.05 25.8434C115.061 25.8548 115.093 25.8962 115.093 26.025V30.12C115.093 30.2487 115.061 30.2902 115.05 30.3016C115.038 30.313 114.997 30.345 114.868 30.345H107.518C107.297 30.345 107.076 30.4005 106.912 30.5641C106.748 30.7277 106.693 30.9487 106.693 31.17V34.495C106.693 34.7162 106.748 34.9373 106.912 35.1009C107.076 35.2645 107.297 35.32 107.518 35.32H112.768C112.897 35.32 112.938 35.352 112.95 35.3634C112.961 35.3748 112.993 35.4162 112.993 35.545V39.395C112.993 39.5237 112.961 39.5652 112.95 39.5766C112.938 39.588 112.897 39.62 112.768 39.62H108.568C108.439 39.62 108.398 39.588 108.386 39.5766C108.375 39.5652 108.343 39.5237 108.343 39.395C108.343 39.2662 108.375 39.2248 108.386 39.2134C108.398 39.202 108.439 39.17 108.568 39.17H111.718C111.939 39.17 112.16 39.1145 112.324 38.9509C112.487 38.7873 112.543 38.5662 112.543 38.345V36.595C112.543 36.3737 112.487 36.1527 112.324 35.9891C112.16 35.8255 111.939 35.77 111.718 35.77H106.468C106.339 35.77 106.298 35.738 106.286 35.7266C106.275 35.7152 106.243 35.6737 106.243 35.545V30.12C106.243 29.9912 106.275 29.9498 106.286 29.9384C106.298 29.927 106.339 29.895 106.468 29.895H113.818C114.039 29.895 114.26 29.8395 114.424 29.6759C114.587 29.5123 114.643 29.2912 114.643 29.07V27.075C114.643 26.8537 114.587 26.6327 114.424 26.4691C114.26 26.3055 114.039 26.25 113.818 26.25H103.493C103.272 26.25 103.051 26.3055 102.887 26.4691C102.723 26.6327 102.668 26.8537 102.668 27.075V38.345C102.668 38.5662 102.723 38.7873 102.887 38.9509C103.051 39.1145 103.272 39.17 103.493 39.17H106.468C106.597 39.17 106.638 39.202 106.65 39.2134C106.661 39.2248 106.693 39.2662 106.693 39.395V44.295C106.693 44.5162 106.748 44.7373 106.912 44.9009C107.076 45.0645 107.297 45.12 107.518 45.12H114.868C114.997 45.12 115.038 45.152 115.05 45.1634C115.061 45.1748 115.093 45.2162 115.093 45.345V49.475C115.093 49.6037 115.061 49.6452 115.05 49.6566C115.038 49.668 114.997 49.7 114.868 49.7H102.443C102.314 49.7 102.273 49.668 102.261 49.6566C102.25 49.6452 102.218 49.6037 102.218 49.475V41.495C102.218 41.3662 102.25 41.3248 102.261 41.3134C102.273 41.302 102.314 41.27 102.443 41.27C102.572 41.27 102.613 41.302 102.625 41.3134C102.636 41.3248 102.668 41.3662 102.668 41.495V48.425C102.668 48.6462 102.723 48.8673 102.887 49.0309C103.051 49.1945 103.272 49.25 103.493 49.25H113.818C114.039 49.25 114.26 49.1945 114.424 49.0309C114.587 48.8673 114.643 48.6462 114.643 48.425V46.395C114.643 46.1737 114.587 45.9527 114.424 45.7891C114.26 45.6255 114.039 45.57 113.818 45.57H106.468C106.339 45.57 106.298 45.538 106.286 45.5266C106.275 45.5152 106.243 45.4737 106.243 45.345V40.445C106.243 40.2237 106.187 40.0027 106.024 39.8391C105.86 39.6755 105.639 39.62 105.418 39.62H102.443C102.314 39.62 102.273 39.588 102.261 39.5766C102.25 39.5652 102.218 39.5237 102.218 39.395V26.025C102.218 25.8962 102.25 25.8548 102.261 25.8434C102.273 25.832 102.314 25.8 102.443 25.8H114.868ZM129.464 28.16C130.549 29.21 131.214 30.575 131.424 32.01C131.494 32.36 131.284 32.57 130.934 32.57H129.009C128.694 32.57 128.519 32.395 128.414 32.115C127.994 30.365 126.384 29.07 124.529 29.07C122.289 29.07 120.504 30.89 120.504 33.095V36.84C120.504 37.12 120.609 37.33 120.889 37.435L121.029 37.505C121.344 37.645 121.554 37.47 121.554 37.085V33.095C121.554 31.485 122.884 30.12 124.529 30.12C126.174 30.12 127.504 31.485 127.504 33.095V33.34C127.504 33.515 127.679 33.62 128.029 33.62H132.054C132.404 33.62 132.579 33.445 132.579 33.095C132.579 28.65 128.974 25.045 124.529 25.045C120.084 25.045 116.479 28.65 116.479 33.095V37.33C116.479 37.61 116.619 37.82 116.864 37.925L120.119 39.36C120.364 39.465 120.504 39.675 120.504 39.955V42.37C120.504 44.61 122.289 46.395 124.529 46.395C126.384 46.395 127.994 45.135 128.414 43.385C128.519 43.07 128.694 42.895 129.009 42.895H130.934C131.284 42.895 131.494 43.105 131.424 43.455C131.214 44.925 130.549 46.29 129.464 47.34C128.169 48.67 126.384 49.37 124.529 49.37C122.674 49.37 120.889 48.67 119.594 47.34C118.264 46.01 117.529 44.26 117.529 42.37V39.78C117.529 39.5 117.424 39.29 117.144 39.185L117.004 39.115C116.689 39.01 116.479 39.185 116.479 39.57V42.37C116.479 46.85 120.084 50.455 124.529 50.455C128.974 50.455 132.579 46.85 132.579 42.37V42.125C132.579 41.95 132.404 41.88 132.054 41.88H128.029C127.679 41.88 127.504 42.055 127.504 42.405C127.504 44.015 126.174 45.345 124.529 45.345C122.884 45.345 121.554 44.015 121.554 42.37V39.325C121.554 39.045 121.414 38.835 121.169 38.73L117.914 37.26C117.669 37.155 117.529 36.945 117.529 36.665V33.095C117.529 31.24 118.264 29.49 119.594 28.16C120.889 26.83 122.674 26.095 124.529 26.095C126.384 26.095 128.169 26.83 129.464 28.16ZM133.937 26.025C133.937 25.8962 133.969 25.8548 133.98 25.8434C133.991 25.832 134.033 25.8 134.162 25.8H150.962C151.09 25.8 151.132 25.832 151.143 25.8434C151.155 25.8548 151.187 25.8962 151.187 26.025V30.05C151.187 30.1787 151.155 30.2202 151.143 30.2316C151.132 30.243 151.09 30.275 150.962 30.275H141.512C141.29 30.275 141.069 30.3305 140.906 30.4941C140.742 30.6577 140.687 30.8787 140.687 31.1V48.425C140.687 48.6462 140.742 48.8673 140.906 49.0309C141.069 49.1945 141.29 49.25 141.512 49.25H143.612C143.833 49.25 144.054 49.1945 144.218 49.0309C144.381 48.8673 144.437 48.6462 144.437 48.425V32.15C144.437 32.0212 144.469 31.9798 144.48 31.9684C144.492 31.957 144.533 31.925 144.662 31.925C144.79 31.925 144.832 31.957 144.843 31.9684C144.855 31.9798 144.887 32.0212 144.887 32.15V49.475C144.887 49.6037 144.855 49.6452 144.843 49.6566C144.832 49.668 144.79 49.7 144.662 49.7H140.462C140.333 49.7 140.291 49.668 140.28 49.6566C140.269 49.6452 140.237 49.6037 140.237 49.475V30.05C140.237 29.9212 140.269 29.8798 140.28 29.8684C140.291 29.857 140.333 29.825 140.462 29.825H149.912C150.133 29.825 150.354 29.7695 150.518 29.6059C150.681 29.4423 150.737 29.2212 150.737 29V27.075C150.737 26.8537 150.681 26.6327 150.518 26.4691C150.354 26.3055 150.133 26.25 149.912 26.25H135.212C134.99 26.25 134.769 26.3055 134.606 26.4691C134.442 26.6327 134.387 26.8537 134.387 27.075V29C134.387 29.2212 134.442 29.4423 134.606 29.6059C134.769 29.7695 134.99 29.825 135.212 29.825H138.362C138.49 29.825 138.532 29.857 138.543 29.8684C138.555 29.8798 138.587 29.9212 138.587 30.05C138.587 30.1787 138.555 30.2202 138.543 30.2316C138.532 30.243 138.49 30.275 138.362 30.275H134.162C134.033 30.275 133.991 30.243 133.98 30.2316C133.969 30.2202 133.937 30.1787 133.937 30.05V26.025ZM160.825 36.735L161.21 36.35C161.455 36.14 161.49 35.93 161.315 35.79L160.755 35.37C159.215 34.215 157.99 33.165 157.99 31.975C157.99 30.995 158.795 30.19 159.81 30.19C160.79 30.19 161.595 30.995 161.595 31.975V32.22C161.595 32.395 161.77 32.5 162.12 32.5H166.18C166.53 32.5 166.705 32.325 166.705 31.975C166.705 28.16 163.59 25.045 159.81 25.045C155.995 25.045 152.88 28.16 152.88 31.975C152.88 33.62 153.475 35.125 154.7 36.56C155.085 37.015 155.54 37.47 155.995 37.89C156.24 38.135 156.52 38.1 156.73 37.89L156.765 37.855C157.01 37.61 157.01 37.365 156.73 37.12C155.155 35.755 153.93 34.145 153.93 31.975C153.93 28.755 156.555 26.095 159.81 26.095C162.645 26.095 165.06 28.195 165.55 30.89C165.62 31.24 165.41 31.45 165.06 31.45H163.03C162.715 31.45 162.575 31.31 162.47 30.995C162.05 29.91 161 29.14 159.81 29.14C158.235 29.14 156.94 30.4 156.94 31.975C156.94 33.445 158.095 34.6 159.53 35.755C159.81 36 159.845 36.245 159.6 36.49L157.955 38.135L157.605 38.52C157.36 38.765 157.395 39.01 157.675 39.255L158.06 39.535L158.27 39.71C160.055 41.04 161.595 42.195 161.595 43.525C161.595 44.505 160.79 45.31 159.81 45.31C158.795 45.31 157.99 44.505 157.99 43.525V43.245C157.99 43.105 157.815 43 157.465 43H153.405C153.055 43 152.88 43.175 152.88 43.525C152.88 47.34 155.995 50.455 159.81 50.455C163.59 50.455 166.705 47.34 166.705 43.525C166.705 41.88 166.11 40.375 164.885 38.94C164.29 38.24 163.555 37.575 162.82 36.945C162.575 36.735 162.33 36.735 162.085 36.98L162.05 37.015C161.805 37.26 161.84 37.505 162.12 37.75C163.975 39.255 165.655 41.04 165.655 43.525C165.655 46.745 163.03 49.37 159.81 49.37C156.94 49.37 154.525 47.305 154.035 44.61C153.965 44.26 154.175 44.05 154.525 44.05H156.555C156.87 44.05 157.01 44.19 157.115 44.505C157.535 45.59 158.585 46.36 159.81 46.36C161.35 46.36 162.645 45.1 162.645 43.525C162.645 41.67 160.825 40.305 158.9 38.87L158.865 38.835C158.83 38.8 158.935 38.66 159.215 38.38L160.825 36.735ZM159.003 38.1679C159.002 38.1683 159.002 38.1688 159.001 38.1693C158.86 38.3102 158.753 38.4264 158.683 38.5171C158.651 38.5601 158.613 38.6145 158.588 38.6736C158.576 38.7037 158.5 38.8939 158.653 39.0471L158.703 39.0975L158.721 39.1105C159.689 39.8323 160.601 40.5154 161.274 41.2436C161.944 41.9688 162.345 42.7041 162.345 43.525C162.345 44.9319 161.187 46.06 159.81 46.06C158.716 46.06 157.776 45.3739 157.397 44.403C157.339 44.2293 157.256 44.0563 157.108 43.9308C156.949 43.7961 156.758 43.75 156.555 43.75H154.525C154.294 43.75 154.062 43.8197 153.9 43.9969C153.735 44.1792 153.692 44.4225 153.74 44.6662C154.257 47.503 156.796 49.67 159.81 49.67C163.196 49.67 165.955 46.9107 165.955 43.525C165.955 40.8932 164.173 39.0303 162.313 37.5207C162.203 37.4231 162.188 37.3654 162.186 37.3505C162.186 37.348 162.179 37.3101 162.262 37.2271L162.297 37.1921C162.386 37.1036 162.44 37.0925 162.463 37.0917C162.486 37.0908 162.538 37.0984 162.625 37.1728C163.358 37.801 164.078 38.4538 164.657 39.1348C165.842 40.5236 166.405 41.9614 166.405 43.525C166.405 47.1753 163.423 50.155 159.81 50.155C156.161 50.155 153.18 47.1743 153.18 43.525C153.18 43.3962 153.212 43.3548 153.223 43.3434C153.235 43.332 153.276 43.3 153.405 43.3H157.465C157.576 43.3 157.648 43.3127 157.69 43.3252V43.525C157.69 44.6745 158.633 45.61 159.81 45.61C160.956 45.61 161.895 44.6707 161.895 43.525C161.895 42.74 161.441 42.0458 160.816 41.4076C160.19 40.7678 159.34 40.1334 158.456 39.4743L158.244 39.2982L157.863 39.0209C157.758 38.9262 157.743 38.8699 157.741 38.8553C157.741 38.8512 157.736 38.8132 157.817 38.7321L157.822 38.7271L158.172 38.3421L159.812 36.7021C159.974 36.5401 160.086 36.333 160.06 36.0905C160.035 35.8605 159.894 35.6743 159.728 35.529L159.718 35.5213C159.004 34.9469 158.381 34.3881 157.936 33.8018C157.494 33.2192 157.24 32.6252 157.24 31.975C157.24 30.5704 158.396 29.44 159.81 29.44C160.867 29.44 161.808 30.124 162.188 31.097C162.246 31.2707 162.329 31.4436 162.477 31.5692C162.635 31.7039 162.827 31.75 163.03 31.75H165.06C165.291 31.75 165.523 31.6803 165.684 31.503C165.85 31.3209 165.893 31.0778 165.845 30.8343C165.328 28.0009 162.792 25.795 159.81 25.795C156.388 25.795 153.63 28.5905 153.63 31.975C153.63 34.274 154.933 35.9597 156.533 37.3466C156.639 37.4398 156.644 37.4907 156.644 37.4982C156.645 37.5052 156.644 37.5517 156.553 37.6429L156.518 37.6779C156.453 37.7428 156.399 37.7596 156.365 37.7608C156.336 37.7618 156.282 37.7528 156.207 37.6777L156.198 37.6695C155.749 37.2544 155.303 36.8086 154.929 36.3662L154.928 36.3652C153.742 34.9764 153.18 33.5386 153.18 31.975C153.18 28.3257 156.161 25.345 159.81 25.345C163.423 25.345 166.405 28.3247 166.405 31.975C166.405 32.1037 166.373 32.1452 166.361 32.1566C166.35 32.168 166.309 32.2 166.18 32.2H162.12C162.002 32.2 161.932 32.1855 161.895 32.173V31.975C161.895 30.8293 160.956 29.89 159.81 29.89C158.633 29.89 157.69 30.8255 157.69 31.975C157.69 32.6777 158.052 33.3071 158.572 33.886C159.092 34.4659 159.805 35.0326 160.575 35.61L161.113 36.0138C161.111 36.0171 161.109 36.0208 161.106 36.0247C161.089 36.0497 161.061 36.0829 161.015 36.1222L161.006 36.1297L160.613 36.5228L160.61 36.5251L159.003 38.1679ZM33.4 25.5C33.05 25.5 32.875 25.675 32.875 26.025V49.475C32.875 49.825 33.05 50 33.4 50H37.495C37.845 50 38.02 49.825 38.02 49.475V36.42C38.02 36.07 38.195 35.895 38.545 35.895H40.155C41.905 35.895 43.305 34.495 43.305 32.745C43.305 31.03 41.905 29.63 40.155 29.63H37.53C37.18 29.595 37.005 29.77 37.005 30.12C37.005 30.47 37.18 30.645 37.53 30.645H40.155C41.31 30.645 42.255 31.59 42.255 32.745C42.255 33.935 41.31 34.845 40.155 34.845H37.53C37.18 34.845 37.005 35.02 37.005 35.37V48.425C37.005 48.775 36.83 48.95 36.48 48.95H34.45C34.1 48.95 33.925 48.775 33.925 48.425V27.075C33.925 26.725 34.1 26.55 34.45 26.55H40.155C41.8 26.55 43.34 27.18 44.53 28.37C45.72 29.56 46.35 31.1 46.35 32.745C46.35 34.425 45.72 35.965 44.53 37.155C43.34 38.345 41.8 38.975 40.155 38.975H39.595C39.245 38.975 39.07 39.15 39.07 39.5C39.07 39.85 39.245 40.025 39.595 40.025H40.155C44.145 40.025 47.4 36.77 47.4 32.745C47.4 28.755 44.145 25.5 40.155 25.5H33.4ZM115.393 26.025C115.393 25.675 115.218 25.5 114.868 25.5H102.443C102.093 25.5 101.918 25.675 101.918 26.025V39.395C101.918 39.745 102.093 39.92 102.443 39.92H105.418C105.768 39.92 105.943 40.095 105.943 40.445V45.345C105.943 45.695 106.118 45.87 106.468 45.87H113.818C114.168 45.87 114.343 46.045 114.343 46.395V48.425C114.343 48.775 114.168 48.95 113.818 48.95H103.493C103.143 48.95 102.968 48.775 102.968 48.425V41.495C102.968 41.145 102.793 40.97 102.443 40.97C102.093 40.97 101.918 41.145 101.918 41.495V49.475C101.918 49.825 102.093 50 102.443 50H114.868C115.218 50 115.393 49.825 115.393 49.475V45.345C115.393 44.995 115.218 44.82 114.868 44.82H107.518C107.168 44.82 106.993 44.645 106.993 44.295V39.395C106.993 39.045 106.818 38.87 106.468 38.87H103.493C103.143 38.87 102.968 38.695 102.968 38.345V27.075C102.968 26.725 103.143 26.55 103.493 26.55H113.818C114.168 26.55 114.343 26.725 114.343 27.075V29.07C114.343 29.42 114.168 29.595 113.818 29.595H106.468C106.118 29.595 105.943 29.77 105.943 30.12V35.545C105.943 35.895 106.118 36.07 106.468 36.07H111.718C112.068 36.07 112.243 36.245 112.243 36.595V38.345C112.243 38.695 112.068 38.87 111.718 38.87H108.568C108.218 38.87 108.043 39.045 108.043 39.395C108.043 39.745 108.218 39.92 108.568 39.92H112.768C113.118 39.92 113.293 39.745 113.293 39.395V35.545C113.293 35.195 113.118 35.02 112.768 35.02H107.518C107.168 35.02 106.993 34.845 106.993 34.495V31.17C106.993 30.82 107.168 30.645 107.518 30.645H114.868C115.218 30.645 115.393 30.47 115.393 30.12V26.025ZM134.162 25.5C133.812 25.5 133.637 25.675 133.637 26.025V30.05C133.637 30.4 133.812 30.575 134.162 30.575H138.362C138.712 30.575 138.887 30.4 138.887 30.05C138.887 29.7 138.712 29.525 138.362 29.525H135.212C134.862 29.525 134.687 29.35 134.687 29V27.075C134.687 26.725 134.862 26.55 135.212 26.55H149.912C150.262 26.55 150.437 26.725 150.437 27.075V29C150.437 29.35 150.262 29.525 149.912 29.525H140.462C140.112 29.525 139.937 29.7 139.937 30.05V49.475C139.937 49.825 140.112 50 140.462 50H144.662C145.012 50 145.187 49.825 145.187 49.475V32.15C145.187 31.8 145.012 31.625 144.662 31.625C144.312 31.625 144.137 31.8 144.137 32.15V48.425C144.137 48.775 143.962 48.95 143.612 48.95H141.512C141.162 48.95 140.987 48.775 140.987 48.425V31.1C140.987 30.75 141.162 30.575 141.512 30.575H150.962C151.312 30.575 151.487 30.4 151.487 30.05V26.025C151.487 25.675 151.312 25.5 150.962 25.5H134.162Z" stroke="#09FBD3" stroke-width="0.3"/>
</svg>
