<svg viewBox="0 0 559 801" fill="none" xmlns="http://www.w3.org/2000/svg"><path d="M338 15c-50 2-108 3-151 31a91 91 0 00-37 91 6 6 0 004 5M336 3c-47-3-96 4-137 27-22 13-42 28-51 53-9 24-9 49 3 74M-5 801A507 507 0 0199 616c4-6 8-12 9-19l15-41c2 11-3 20-6 29l-2 8c0 4-8 11 1 13 7 1 12-4 13-12 0-14 2-27 5-40 1-8 6-17 4-24-2-6-12-9-18-14-7-5-12-11-15-19-4-13-12-16-24-13l-7 1c1-10 10-10 17-9 10 1 13-3 15-11l14-40c2-4 4-11 9-10 6 2 3 9 1 13-3 14-5 28-5 43 0 16 3 30 15 42a23 23 0 016 26c-5 15-5 31-8 46-1 6 0 9 7 5 9-5 18-9 19-22 1-12 11-18 21-22 38-13 72-34 106-54 21-14 33-27 42-50-19 13-40 19-60 24-33 8-64 7-95-8-19-10-30-27-41-44-7-12-7-12-15 0l-28 43c-15 20-32 39-49 57-29 42-59 82-75 131l-7 25c-1 4-1 9-7 8v-7c4-3 4-8 4-12 5-21 12-42 24-60 29-48 57-96 94-137 18-20 31-44 46-67 4-7 4-11-6-14-42-10-85-16-127-19-3 0-7 2-7-2 0-6 4-4 7-4 40 4 80 9 119 18 10 2 11-1 9-10-4-20-1-40 2-60 5-34 11-67 11-102-1-10 2-17 14-22 11-4 10-17 7-23l2-14c4-8 7-17 12-24 6-9 14-13 24-11 7 1 14 0 20-3 35-16 72-14 109-9 15 2 31 0 47 4 13 2 25 6 37 12 11 5 21 14 26 25 9 17 15 35 21 53v11c-2 4-2 12-7 12-6-1-2-8-3-12-7-27-13-54-34-74-14-14-35-15-54-18-28-3-57-5-86-6-9 0-17 2-26 5-16 5-32 12-50 10-6 0-11 3-15 8a82 82 0 00-17 44c-1 8 2 12 12 11a82 82 0 0161 24c3 4 5 9 2 14s-9 4-13 3c-15-5-30-10-45-13-19-4-20-3-29 13-8 14-12 30-12 46-1 23-8 44-10 67-2 14 0 28 6 40 6 13 12 26 20 38 15 27 37 43 70 45 41 4 82-9 115-34 15-11 24-27 32-43l6-16a342 342 0 0039-105c3-5 3-14 9-12 5 1 2 9 1 14 11-19 18-39 27-59 2-3 2-7 6-10 3 1 4 1 3 4-5 19-12 38-21 56-2 4-5 9 4 11 0 7-7 7-10 10-5 7-16 12-5 23 3 3 0 6-4 7-10 3-15 14-10 22 4 6 2 9-4 9-12 2-13 13-17 21-2 5 2 6 6 4 6-2 10-8 14-14 13-19 19-41 23-64 1-6 3-12 9-15 3 1 3 3 3 5-6 31-11 61-32 86-7 9-15 14-26 13-6-1-8 2-10 6-6 13-13 26-21 38-3 3-5 6-2 11 13 17 16 38 23 57 6 17 14 33 26 47 51 57 97 118 142 179 9 14 12 27 9 43-2 16-6 32-6 49h-5c-2-17 4-34 6-50 2-14 1-25-8-36-44-64-92-125-144-183-19-22-25-48-34-74-3-9-4-18-11-25-4-5-8-6-10 1-9 50-51 69-89 90l-43 22c-8 3-8 7-2 13l24 28c5 7 9 6 13 0l12-12c2-1 3 0 2 2-28 36-63 66-95 98L40 801h-7c-1-8 5-11 9-15 60-58 120-116 178-175 12-13 13-13 1-26l-20-23c-7-7-11-6-18-1a20 20 0 00-9 20c0 4 2 8 1 12-1 10 5 8 10 7a4 4 0 013 4c-3 9-11 13-18 16-17 7-34-1-50-2 6-7 14-8 23-7l13 1a9 9 0 008-8c1-2 1-5-1-7-4-2-7 1-10 2-48 15-76 51-100 93A749 749 0 00-1 801h-4z" stroke="#09FBD3" stroke-width="3"/><path d="M411 316v-2l1-7 2-4c1-1 2-2 4-1l8 3 2 1v-3l-2-5c0-2-2-3-3-4a30 30 0 00-4-2l-2-1c6-10 15-18 25-25l1 1c-4 7-6 14-8 21l-2 9v2l-2 11c-5 17-14 32-24 46h0a17 17 0 01-19 7l5-14 4-6 5-8h0l1-2h1l2 1a81 81 0 003 1h0l5-1a2 2 0 001-2s0 0 0 0a10 10 0 00-1-3s0 0 0 0l-1-1h0l-5-1v-2l1-3s0 0 0 0l1-4h0v0l1-2s0 0 0 0zM334 3c49 0 86 21 110 65 17 33 28 67 22 105-1 8-2 17-7 25l-2-3c-3-4-1-9-1-13 7-51-5-97-37-136-20-23-82-31-82-31M316 524h0l-54 51h-1c10-13 22-24 34-34l16-16c16-16 32-33 40-55l1 3-3 6c-8 17-19 33-33 45zM217 746v1l-12 8c-16 11-32 23-50 31a1155 1155 0 0027-17l35-22v-1zM229 738l-11 8v-1l11-7zM193 203c-11-3-21-5-33-5 3-3 8-4 12-5 6-1 13-1 20 1 13 3 25 10 31 19a526 526 0 01-15-5l-15-5zM138 196h0a8 8 0 016-8 5 5 0 015 2h0l1 2v2l-1 2a76 76 0 01-1 3h0l-8 16-2 4v-6-17z" stroke="#09FBD3" stroke-width="3"/><path d="M187 601h0l11-10-11 10z" fill="#C4C4C4" stroke="#09FBD3" stroke-width="3"/><path d="M239 397h-1 0c-17 2-30-3-41-11a110 110 0 01-30-36v-1l1-1h1s0 0 0 0l1 1s0 0 0 0l1 1c6 6 13 7 21 6 11-1 21 1 32 5l14 5 1 1 15 5 27 12v1h1a5 5 0 013 4h-1l-1 1-18 4-4 1c-8 2-15 4-22 2zM385 251h0c3 3 4 7 1 10l-1 2-2-1a13 13 0 01-3-1l-2-1c-32-16-66-20-101-24h0s0 0 0 0l-6-1-2-2-1-3 1-7 5-5h0l11-2h2c25 2 50 8 74 16 10 4 18 10 24 19zM334 279h0-1c-7 2-15 0-22-3l-11-5h0l-11-5h0c-2 0-3-1-3-2l-1-1 2-2 2-2h0a40 40 0 0146 0l15 12h0l1 1h0a53 53 0 012 2l1 1v2l-1 1-2 1h-2-1-14zM222 237v1h0a7 7 0 012 7l-1 1h-2a12 12 0 01-2 0h-2 0l-1-1c-17-1-34-3-48-14l-1-1s0 0 0 0l-2-1-1-1v-1c0-2 1-2 2-3l2-1h1l20-4c14 1 24 8 33 18zM194 313h0l-2-4 2-6 4-6 4-3h0l2-1 1 1v1l-1 1-6 7v6l3 6 5 4 2 1h0c13 12 26 18 43 16h4l8-1 7-3c2-1 3-3 4-6l2-7c1 4 2 8 0 11-1 4-5 7-11 8 0 0 0 0 0 0h0c-12 1-25 2-36-1-8-1-14-5-19-9l-11-10-5-5zM287 340c7 6 10 16 11 28l-11-28zM284 387c-38-7-77-7-112-32" stroke="#09FBD3" stroke-width="3"/><path d="M273 229h0l2-4 4-2h26c17 3 33 8 50 12h0a41 41 0 0122 17c-24-11-51-15-77-18a904 904 0 01-27-5zM333 265c0 2-1 6-4 9-2 2-6 4-9 4-4 0-7-2-10-4l-4-9c0-6 6-11 14-11 7 0 13 5 13 11zM207 231c0 6-6 11-14 11-7 0-12-5-12-11 0-5 5-10 12-10 8 0 14 5 14 10z" stroke="#09FBD3" stroke-width="3"/><circle cx="193.3" cy="231.5" fill="#09FBD3" r="6"/><circle cx="319.6" cy="264.5" fill="#09FBD3" r="6"/></svg>