<svg width="220" height="92" viewBox="0 0 220 92" fill="none" xmlns="http://www.w3.org/2000/svg">
<g filter="url(#filter0_d)">
<path d="M11 81H10V11H11V81Z" fill="#09FBD3"/>
</g>
<g filter="url(#filter1_d)">
<path d="M210 81H209V11H210V81Z" fill="#09FBD3"/>
</g>
<g filter="url(#filter2_d)">
<path d="M210 81V82L10 82V81L210 81Z" fill="#09FBD3"/>
</g>
<g filter="url(#filter3_d)">
<path d="M210 10V11L10 11V10L210 10Z" fill="#09FBD3"/>
</g>
<g filter="url(#filter4_d)">
<path d="M43.4 35.5C43.05 35.5 42.875 35.675 42.875 36.025V59.475C42.875 59.825 43.05 60 43.4 60H47.495C47.845 60 48.02 59.825 48.02 59.475V46.42C48.02 46.07 48.195 45.895 48.545 45.895H50.155C51.905 45.895 53.305 44.495 53.305 42.745C53.305 41.03 51.905 39.63 50.155 39.63H47.53C47.18 39.595 47.005 39.77 47.005 40.12C47.005 40.47 47.18 40.645 47.53 40.645H50.155C51.31 40.645 52.255 41.59 52.255 42.745C52.255 43.935 51.31 44.845 50.155 44.845H47.53C47.18 44.845 47.005 45.02 47.005 45.37V58.425C47.005 58.775 46.83 58.95 46.48 58.95H44.45C44.1 58.95 43.925 58.775 43.925 58.425V37.075C43.925 36.725 44.1 36.55 44.45 36.55H50.155C51.8 36.55 53.34 37.18 54.53 38.37C55.72 39.56 56.35 41.1 56.35 42.745C56.35 44.425 55.72 45.965 54.53 47.155C53.34 48.345 51.8 48.975 50.155 48.975H49.595C49.245 48.975 49.07 49.15 49.07 49.5C49.07 49.85 49.245 50.025 49.595 50.025H50.155C54.145 50.025 57.4 46.77 57.4 42.745C57.4 38.755 54.145 35.5 50.155 35.5H43.4ZM74.5445 60C74.9295 60 75.1045 59.755 74.9295 59.37L71.0095 50.305C70.8695 49.99 70.3445 50.06 70.3445 50.06C70.0645 50.235 69.9595 50.48 70.0995 50.76L73.5295 58.32C73.7045 58.705 73.5295 58.95 73.1445 58.95H71.1495C70.8695 58.95 70.6595 58.81 70.5545 58.565L66.9845 50.585C66.8445 50.235 66.9845 50.025 67.3695 49.955C68.0695 49.885 68.7345 49.675 69.3645 49.395C69.6445 49.255 69.9595 49.115 70.2395 48.94C72.3045 47.645 73.6695 45.37 73.6695 42.745C73.6695 38.755 70.4145 35.5 66.4245 35.5H59.6695C59.3195 35.5 59.1445 35.675 59.1445 36.025V59.475C59.1445 59.825 59.3195 60 59.6695 60H63.8695C64.2195 60 64.3945 59.825 64.3945 59.475V46.42C64.3945 46.07 64.5695 45.895 64.9195 45.895H66.4245C68.1745 45.895 69.5745 44.495 69.5745 42.745C69.5745 41.03 68.1745 39.595 66.4245 39.595H63.9045C63.5545 39.595 63.3795 39.77 63.3795 40.12C63.3795 40.47 63.5545 40.645 63.9045 40.645H66.4245C67.5795 40.645 68.5245 41.59 68.5245 42.745C68.5245 43.935 67.5795 44.845 66.4245 44.845H63.8695C63.5195 44.845 63.3445 45.02 63.3445 45.37V58.425C63.3445 58.775 63.1695 58.95 62.8195 58.95H60.7195C60.3695 58.95 60.1945 58.775 60.1945 58.425V37.075C60.1945 36.725 60.3695 36.55 60.7195 36.55H66.4245C68.0695 36.55 69.6095 37.18 70.7995 38.37C71.9895 39.56 72.6195 41.1 72.6195 42.745C72.6195 44.425 71.9895 45.965 70.7995 47.155C70.5195 47.435 70.2045 47.68 69.8895 47.89C69.6095 48.1 69.3295 48.275 69.0145 48.415C68.2095 48.765 67.3345 48.975 66.4245 48.975H65.8645C65.5145 48.975 65.3745 49.22 65.5145 49.57L65.6895 50.025L69.8545 59.615C69.9595 59.86 70.1695 60 70.4495 60H74.5445ZM91.7191 43.095C91.7191 38.65 88.1141 35.045 83.6691 35.045C79.2241 35.045 75.6191 38.65 75.6191 43.095V47.33C75.6191 47.61 75.7591 47.82 76.0041 47.925L79.2591 49.36C79.5041 49.465 79.6441 49.675 79.6441 49.955V52.37C79.6441 54.61 81.4291 56.395 83.6691 56.395C85.8741 56.395 87.6941 54.61 87.6941 52.405V43.095C87.6941 40.89 85.9091 39.07 83.6691 39.07C81.4291 39.07 79.6441 40.89 79.6441 43.095V46.84C79.6441 47.12 79.7491 47.33 80.0291 47.435L80.1691 47.505C80.4841 47.645 80.6941 47.47 80.6941 47.085V43.095C80.6941 41.485 82.0241 40.12 83.6691 40.12C85.3141 40.12 86.6441 41.485 86.6441 43.095V52.37C86.6441 54.015 85.3141 55.345 83.6691 55.345C82.0241 55.345 80.6941 54.015 80.6941 52.37V49.325C80.6941 49.045 80.5541 48.835 80.3091 48.73L77.0541 47.26C76.8091 47.155 76.6691 46.945 76.6691 46.665V43.095C76.6691 41.24 77.4041 39.49 78.7341 38.16C80.0291 36.83 81.8141 36.095 83.6691 36.095C85.5241 36.095 87.3091 36.83 88.6041 38.16C89.9341 39.49 90.6691 41.24 90.6691 43.095V52.37C90.6691 54.26 89.9341 56.01 88.6041 57.34C87.3091 58.67 85.5241 59.37 83.6691 59.37C81.8141 59.37 80.0291 58.67 78.7341 57.34C77.4041 56.01 76.6691 54.26 76.6691 52.37V49.78C76.6691 49.5 76.5641 49.29 76.2841 49.185L76.1441 49.115C75.8291 49.01 75.6191 49.185 75.6191 49.57V52.37C75.6191 56.85 79.2241 60.455 83.6691 60.455C88.1141 60.455 91.7191 56.85 91.7191 52.405V43.095ZM105.046 35.465C104.696 35.465 104.521 35.64 104.521 35.99V52.23C104.521 53.105 104.136 53.875 103.541 54.4C103.331 54.575 103.226 54.75 103.226 55.03V55.24C103.226 55.59 103.506 55.73 103.856 55.485C104.871 54.785 105.571 53.595 105.571 52.23V37.04C105.571 36.69 105.746 36.515 106.096 36.515H108.231C108.581 36.515 108.756 36.69 108.756 37.04V52.23C108.756 53.21 108.581 54.12 108.231 55.03C107.846 55.87 107.356 56.64 106.691 57.27C106.026 57.935 105.256 58.46 104.416 58.81C103.891 59.055 103.296 59.195 102.736 59.3C102.386 59.335 102.176 59.125 102.176 58.775V55.625C102.176 55.275 101.651 55.135 101.651 55.135C100.041 55.135 98.7459 53.84 98.7459 52.23V49.85C98.7459 49.5 98.5709 49.325 98.2209 49.325H93.9859C93.6359 49.325 93.4609 49.5 93.4609 49.85V52.23C93.4609 56.01 96.0159 59.195 99.4809 60.175C99.8659 60.28 100.076 60.105 100.076 59.72V59.65C100.076 59.335 99.9359 59.16 99.6209 59.09C99.3759 59.02 99.1309 58.915 98.8509 58.81C98.0109 58.46 97.2409 57.935 96.6109 57.27C95.9459 56.64 95.4209 55.87 95.0709 55.03C94.6859 54.12 94.5109 53.21 94.5109 52.23V50.9C94.5109 50.55 94.6859 50.375 95.0359 50.375H97.1709C97.5209 50.375 97.6959 50.55 97.6959 50.9V52.23C97.6959 54.05 98.9559 55.59 100.671 56.045C100.951 56.15 101.126 56.325 101.126 56.64V59.93C101.126 60.28 101.301 60.455 101.651 60.455C106.166 60.455 109.841 56.745 109.841 52.23V35.99C109.841 35.64 109.666 35.465 109.316 35.465H105.046ZM125.393 36.025C125.393 35.675 125.218 35.5 124.868 35.5H112.443C112.093 35.5 111.918 35.675 111.918 36.025V49.395C111.918 49.745 112.093 49.92 112.443 49.92H115.418C115.768 49.92 115.943 50.095 115.943 50.445V55.345C115.943 55.695 116.118 55.87 116.468 55.87H123.818C124.168 55.87 124.343 56.045 124.343 56.395V58.425C124.343 58.775 124.168 58.95 123.818 58.95H113.493C113.143 58.95 112.968 58.775 112.968 58.425V51.495C112.968 51.145 112.793 50.97 112.443 50.97C112.093 50.97 111.918 51.145 111.918 51.495V59.475C111.918 59.825 112.093 60 112.443 60H124.868C125.218 60 125.393 59.825 125.393 59.475V55.345C125.393 54.995 125.218 54.82 124.868 54.82H117.518C117.168 54.82 116.993 54.645 116.993 54.295V49.395C116.993 49.045 116.818 48.87 116.468 48.87H113.493C113.143 48.87 112.968 48.695 112.968 48.345V37.075C112.968 36.725 113.143 36.55 113.493 36.55H123.818C124.168 36.55 124.343 36.725 124.343 37.075V39.07C124.343 39.42 124.168 39.595 123.818 39.595H116.468C116.118 39.595 115.943 39.77 115.943 40.12V45.545C115.943 45.895 116.118 46.07 116.468 46.07H121.718C122.068 46.07 122.243 46.245 122.243 46.595V48.345C122.243 48.695 122.068 48.87 121.718 48.87H118.568C118.218 48.87 118.043 49.045 118.043 49.395C118.043 49.745 118.218 49.92 118.568 49.92H122.768C123.118 49.92 123.293 49.745 123.293 49.395V45.545C123.293 45.195 123.118 45.02 122.768 45.02H117.518C117.168 45.02 116.993 44.845 116.993 44.495V41.17C116.993 40.82 117.168 40.645 117.518 40.645H124.868C125.218 40.645 125.393 40.47 125.393 40.12V36.025ZM126.479 47.33C126.479 47.61 126.619 47.82 126.864 47.925L130.119 49.36C130.364 49.465 130.504 49.675 130.504 49.955V52.37C130.504 54.61 132.289 56.395 134.529 56.395C136.384 56.395 137.994 55.135 138.414 53.385C138.519 53.07 138.694 52.895 139.009 52.895H140.934C141.284 52.895 141.494 53.105 141.424 53.455C141.214 54.925 140.549 56.29 139.464 57.34C138.169 58.67 136.384 59.37 134.529 59.37C132.674 59.37 130.889 58.67 129.594 57.34C128.264 56.01 127.529 54.26 127.529 52.37V49.78C127.529 49.5 127.424 49.29 127.144 49.185L127.004 49.115C126.689 49.01 126.479 49.185 126.479 49.57V52.37C126.479 56.85 130.084 60.455 134.529 60.455C138.974 60.455 142.579 56.85 142.579 52.37V52.125C142.579 51.95 142.404 51.88 142.054 51.88H138.029C137.679 51.88 137.504 52.055 137.504 52.405C137.504 54.015 136.174 55.345 134.529 55.345C132.884 55.345 131.554 54.015 131.554 52.37V49.325C131.554 49.045 131.414 48.835 131.169 48.73L127.914 47.26C127.669 47.155 127.529 46.945 127.529 46.665V43.095C127.529 41.24 128.264 39.49 129.594 38.16C130.889 36.83 132.674 36.095 134.529 36.095C136.384 36.095 138.169 36.83 139.464 38.16C140.549 39.21 141.214 40.575 141.424 42.01C141.494 42.36 141.284 42.57 140.934 42.57H139.009C138.694 42.57 138.519 42.395 138.414 42.115C137.994 40.365 136.384 39.07 134.529 39.07C132.289 39.07 130.504 40.89 130.504 43.095V46.84C130.504 47.12 130.609 47.33 130.889 47.435L131.029 47.505C131.344 47.645 131.554 47.47 131.554 47.085V43.095C131.554 41.485 132.884 40.12 134.529 40.12C136.174 40.12 137.504 41.485 137.504 43.095V43.34C137.504 43.515 137.679 43.62 138.029 43.62H142.054C142.404 43.62 142.579 43.445 142.579 43.095C142.579 38.65 138.974 35.045 134.529 35.045C130.084 35.045 126.479 38.65 126.479 43.095V47.33ZM144.162 35.5C143.812 35.5 143.637 35.675 143.637 36.025V40.05C143.637 40.4 143.812 40.575 144.162 40.575H148.362C148.712 40.575 148.887 40.4 148.887 40.05C148.887 39.7 148.712 39.525 148.362 39.525H145.212C144.862 39.525 144.687 39.35 144.687 39V37.075C144.687 36.725 144.862 36.55 145.212 36.55H159.912C160.262 36.55 160.437 36.725 160.437 37.075V39C160.437 39.35 160.262 39.525 159.912 39.525H150.462C150.112 39.525 149.937 39.7 149.937 40.05V59.475C149.937 59.825 150.112 60 150.462 60H154.662C155.012 60 155.187 59.825 155.187 59.475V42.15C155.187 41.8 155.012 41.625 154.662 41.625C154.312 41.625 154.137 41.8 154.137 42.15V58.425C154.137 58.775 153.962 58.95 153.612 58.95H151.512C151.162 58.95 150.987 58.775 150.987 58.425V41.1C150.987 40.75 151.162 40.575 151.512 40.575H160.962C161.312 40.575 161.487 40.4 161.487 40.05V36.025C161.487 35.675 161.312 35.5 160.962 35.5H144.162ZM166.765 47.855C167.01 47.61 167.01 47.365 166.73 47.12C165.155 45.755 163.93 44.145 163.93 41.975C163.93 38.755 166.555 36.095 169.81 36.095C172.645 36.095 175.06 38.195 175.55 40.89C175.62 41.24 175.41 41.45 175.06 41.45H173.03C172.715 41.45 172.575 41.31 172.47 40.995C172.05 39.91 171 39.14 169.81 39.14C168.235 39.14 166.94 40.4 166.94 41.975C166.94 43.445 168.095 44.6 169.53 45.755C169.81 46 169.845 46.245 169.6 46.49L167.955 48.135L167.605 48.52C167.36 48.765 167.395 49.01 167.675 49.255L168.06 49.535L168.27 49.71C170.055 51.04 171.595 52.195 171.595 53.525C171.595 54.505 170.79 55.31 169.81 55.31C168.795 55.31 167.99 54.505 167.99 53.525V53.245C167.99 53.105 167.815 53 167.465 53H163.405C163.055 53 162.88 53.175 162.88 53.525C162.88 57.34 165.995 60.455 169.81 60.455C173.59 60.455 176.705 57.34 176.705 53.525C176.705 51.88 176.11 50.375 174.885 48.94C174.29 48.24 173.555 47.575 172.82 46.945C172.575 46.735 172.33 46.735 172.085 46.98L172.05 47.015C171.805 47.26 171.84 47.505 172.12 47.75C173.975 49.255 175.655 51.04 175.655 53.525C175.655 56.745 173.03 59.37 169.81 59.37C166.94 59.37 164.525 57.305 164.035 54.61C163.965 54.26 164.175 54.05 164.525 54.05H166.555C166.87 54.05 167.01 54.19 167.115 54.505C167.535 55.59 168.585 56.36 169.81 56.36C171.35 56.36 172.645 55.1 172.645 53.525C172.645 51.67 170.825 50.305 168.9 48.87L168.865 48.835C168.83 48.8 168.935 48.66 169.215 48.38L170.825 46.735L171.21 46.35C171.455 46.14 171.49 45.93 171.315 45.79L170.755 45.37C169.215 44.215 167.99 43.165 167.99 41.975C167.99 40.995 168.795 40.19 169.81 40.19C170.79 40.19 171.595 40.995 171.595 41.975V42.22C171.595 42.395 171.77 42.5 172.12 42.5H176.18C176.53 42.5 176.705 42.325 176.705 41.975C176.705 38.16 173.59 35.045 169.81 35.045C165.995 35.045 162.88 38.16 162.88 41.975C162.88 43.62 163.475 45.125 164.7 46.56C165.085 47.015 165.54 47.47 165.995 47.89C166.24 48.135 166.52 48.1 166.73 47.89L166.765 47.855Z" fill="#09FBD3"/>
</g>
<defs>
<filter id="filter0_d" x="0" y="1" width="21" height="90" filterUnits="userSpaceOnUse" color-interpolation-filters="sRGB">
<feFlood flood-opacity="0" result="BackgroundImageFix"/>
<feColorMatrix in="SourceAlpha" type="matrix" values="0 0 0 0 0 0 0 0 0 0 0 0 0 0 0 0 0 0 127 0"/>
<feOffset/>
<feGaussianBlur stdDeviation="5"/>
<feColorMatrix type="matrix" values="0 0 0 0 0.0352941 0 0 0 0 0.984314 0 0 0 0 0.827451 0 0 0 1 0"/>
<feBlend mode="normal" in2="BackgroundImageFix" result="effect1_dropShadow"/>
<feBlend mode="normal" in="SourceGraphic" in2="effect1_dropShadow" result="shape"/>
</filter>
<filter id="filter1_d" x="199" y="1" width="21" height="90" filterUnits="userSpaceOnUse" color-interpolation-filters="sRGB">
<feFlood flood-opacity="0" result="BackgroundImageFix"/>
<feColorMatrix in="SourceAlpha" type="matrix" values="0 0 0 0 0 0 0 0 0 0 0 0 0 0 0 0 0 0 127 0"/>
<feOffset/>
<feGaussianBlur stdDeviation="5"/>
<feColorMatrix type="matrix" values="0 0 0 0 0.0352941 0 0 0 0 0.984314 0 0 0 0 0.827451 0 0 0 1 0"/>
<feBlend mode="normal" in2="BackgroundImageFix" result="effect1_dropShadow"/>
<feBlend mode="normal" in="SourceGraphic" in2="effect1_dropShadow" result="shape"/>
</filter>
<filter id="filter2_d" x="0" y="71" width="220" height="21" filterUnits="userSpaceOnUse" color-interpolation-filters="sRGB">
<feFlood flood-opacity="0" result="BackgroundImageFix"/>
<feColorMatrix in="SourceAlpha" type="matrix" values="0 0 0 0 0 0 0 0 0 0 0 0 0 0 0 0 0 0 127 0"/>
<feOffset/>
<feGaussianBlur stdDeviation="5"/>
<feColorMatrix type="matrix" values="0 0 0 0 0.0352941 0 0 0 0 0.984314 0 0 0 0 0.827451 0 0 0 1 0"/>
<feBlend mode="normal" in2="BackgroundImageFix" result="effect1_dropShadow"/>
<feBlend mode="normal" in="SourceGraphic" in2="effect1_dropShadow" result="shape"/>
</filter>
<filter id="filter3_d" x="0" y="0" width="220" height="21" filterUnits="userSpaceOnUse" color-interpolation-filters="sRGB">
<feFlood flood-opacity="0" result="BackgroundImageFix"/>
<feColorMatrix in="SourceAlpha" type="matrix" values="0 0 0 0 0 0 0 0 0 0 0 0 0 0 0 0 0 0 127 0"/>
<feOffset/>
<feGaussianBlur stdDeviation="5"/>
<feColorMatrix type="matrix" values="0 0 0 0 0.0352941 0 0 0 0 0.984314 0 0 0 0 0.827451 0 0 0 1 0"/>
<feBlend mode="normal" in2="BackgroundImageFix" result="effect1_dropShadow"/>
<feBlend mode="normal" in="SourceGraphic" in2="effect1_dropShadow" result="shape"/>
</filter>
<filter id="filter4_d" x="32.875" y="25.045" width="153.83" height="45.41" filterUnits="userSpaceOnUse" color-interpolation-filters="sRGB">
<feFlood flood-opacity="0" result="BackgroundImageFix"/>
<feColorMatrix in="SourceAlpha" type="matrix" values="0 0 0 0 0 0 0 0 0 0 0 0 0 0 0 0 0 0 127 0"/>
<feOffset/>
<feGaussianBlur stdDeviation="5"/>
<feColorMatrix type="matrix" values="0 0 0 0 0.0352941 0 0 0 0 0.984314 0 0 0 0 0.827451 0 0 0 1 0"/>
<feBlend mode="normal" in2="BackgroundImageFix" result="effect1_dropShadow"/>
<feBlend mode="normal" in="SourceGraphic" in2="effect1_dropShadow" result="shape"/>
</filter>
</defs>
</svg>
