<svg  viewBox="0 0 559 801" fill="none" xmlns="http://www.w3.org/2000/svg">
<path  d="M337.5 15.1745C287.981 16.9183 229.512 17.871 187.179 46.3136C156.181 67.1194 145.477 103.109 150.288 136.783C150.412 137.96 150.856 139.081 151.572 140.024C152.186 140.835 152.981 141.487 153.89 141.933M335.5 2.6745C288.522 -0.393472 239.904 6.68685 198.544 30.4686C176.505 43.1566 157.113 57.859 148.093 82.7237C139.297 106.936 138.581 132.205 151 156.674M-5.42501 800.554C-3.44064 782.514 5.12823 766.369 12.6147 750.404C35.6154 701.997 60.9911 654.853 98.3333 615.437C103.092 610.018 106.566 603.594 108.496 596.645C112.915 583.085 117.516 569.586 123.258 556.356C124.882 566.699 119.59 575.599 117.245 585.13C116.584 587.836 114.81 590.512 114.99 593.127C115.291 597.457 106.962 603.681 115.501 605.605C122.687 607.228 128.46 601.937 128.67 593.578C129.35 580.431 131.09 567.36 133.872 554.492C135.435 546.254 140.186 537.144 137.961 530.169C136.127 524.156 126.085 521.149 119.921 516.459C113.048 511.474 107.814 504.555 104.888 496.585C100.889 483.777 92.8614 480.83 80.8349 484.318C78.497 484.827 76.1256 485.168 73.7392 485.34C75.3928 474.637 84.1422 474.967 91.1777 475.839C100.649 476.982 103.866 472.833 106.211 464.775C109.828 451.211 114.503 437.951 120.191 425.118C122.086 420.878 123.829 413.933 129.211 415.466C135.495 417.27 131.527 423.674 130.414 427.763C126.542 441.678 124.689 456.076 124.912 470.518C125.213 486.663 127.919 501.335 140.155 513.302C143.574 516.469 145.949 520.601 146.964 525.15C147.978 529.698 147.586 534.448 145.838 538.768C140.787 553.801 140.636 569.525 137.84 584.889C136.818 590.542 137.84 593.909 144.726 590.271C154.076 585.461 162.765 581.251 164.088 568.413C165.291 556.387 174.641 549.652 185.345 546.044C223.288 533.145 257.023 512.249 290.847 491.504C312.164 478.395 323.559 465.196 333.211 441.834C314.028 454.823 293.433 460.746 272.717 465.887C240.396 473.945 208.586 473.464 177.949 458.1C158.556 448.359 147.882 431.041 137.059 413.632C130.023 402.117 129.963 402.027 122.236 413.632C112.735 428.004 103.505 442.586 93.6731 456.717C79.3014 477.342 62.1938 495.803 45.0862 514.264C15.9219 555.545 -13.8135 596.465 -30.2597 645.022C-33.0559 653.29 -34.6193 661.979 -36.9945 670.428C-37.9867 673.945 -37.8364 678.997 -44 677.794V670.578C-39.7005 667.782 -40.3921 662.881 -39.5804 658.912C-35.4052 637.655 -27.5175 617.3 -16.2791 598.78C13.0054 551.486 41.0572 503.41 78.4295 461.678C96.4692 441.624 109.458 418.022 123.529 395.142C128.069 387.715 127.798 383.776 117.516 381.341C75.9103 371.189 33.4764 364.799 -9.27357 362.249C-11.7089 362.099 -15.6777 364.053 -15.8581 359.603C-16.0685 354.462 -11.9795 355.845 -8.9128 356.146C30.9703 359.524 70.6107 365.328 109.789 373.524C119.62 375.629 120.793 372.742 119.109 364.264C115.08 343.909 117.876 323.945 121.124 303.56C126.445 270.096 132.308 236.512 131.707 202.417C131.496 191.563 134.473 185.159 145.537 180.469C156.602 175.779 155.897 163.319 152.5 156.674L155 142.674C158.588 134.689 162.073 126.424 166.734 119.014C172.747 110.355 180.565 105.724 191.328 107.889C198.094 109.182 205.096 108.254 211.292 105.243C246.379 88.9776 283.12 91.2926 319.891 95.7724C335.405 97.6366 351.1 96.1333 366.554 99.5909C379.546 102.047 392.188 106.085 404.197 111.617C415.431 117.157 424.59 126.158 430.324 137.294C438.66 154.193 445.443 171.814 450.589 189.94C452.054 193.291 452.267 197.057 451.19 200.553C449.206 205.063 449.446 213.211 443.553 212.58C437.66 211.948 441.509 204.672 440.547 200.553C434.203 174.005 427.618 147.126 407.234 127.402C392.652 113.271 372.176 111.557 353.355 109.362C324.758 105.734 295.979 103.727 267.155 103.349C258.333 103.273 249.56 104.686 241.208 107.528C224.972 113.241 208.887 119.555 191.027 118.142C184.563 117.631 179.843 121.359 175.994 126.44C166.437 138.934 160.666 153.908 159.368 169.585C158.466 178.184 161.082 182.333 170.613 181.401C190.426 179.417 207.414 187.414 223.559 197.667C226.658 199.541 229.405 201.942 231.677 204.762C235.105 209.182 236.848 214.203 233.752 219.224C230.655 224.245 225.303 223.013 220.673 221.66C205.64 217.21 191.118 211.527 175.573 208.731C157.053 205.394 156.331 206.206 147.341 222.291C139.485 236.306 135.094 251.995 134.533 268.052C133.541 290.541 127.498 312.309 124.641 334.528C122.983 348.518 125.275 362.693 131.256 375.448C137.012 388.249 143.446 400.734 150.528 412.851C166.253 439.91 188.291 456.146 220.703 458.371C262.203 461.696 303.458 449.48 336.458 424.095C351.25 413.031 359.969 397.036 367.666 380.56C370.042 375.478 371.665 370.036 374.491 365.166C392.276 333.72 404.961 299.653 412.074 264.233C412.325 262.649 412.748 261.096 413.337 259.603C415.532 254.853 415.682 246.103 422.357 247.877C427.468 249.26 424.431 256.897 423.199 262.129C434.353 243.307 441.238 222.772 450.469 203.47C452.183 199.922 452.423 195.532 456.482 193.458C458.737 193.698 460.33 194.39 459.038 197.126C453.781 216.191 446.849 234.754 438.322 252.598C436.217 257.228 432.73 262.429 441.719 263.812C442.14 270.637 435.015 270.668 432.068 274.486C426.897 281.131 416.283 286.092 426.807 296.915C429.994 300.193 427.288 302.929 422.658 304.191C413.337 306.506 407.624 318.112 412.826 325.568C417.366 332.003 415.201 334.588 409.308 335.31C396.68 336.903 396.41 348.268 392.321 356.356C389.855 361.167 394.275 361.558 397.643 360.205C404.287 357.559 408.015 351.876 411.924 346.194C425.213 326.922 431.016 304.973 435.015 282.423C436.217 275.719 438.352 270.126 444.456 266.609C447.462 267.571 447.462 270.036 447.011 272.411C440.998 302.658 435.586 332.995 415.141 357.92C408.015 366.609 400.108 372.472 388.532 370.608C382.91 369.676 380.745 372.562 378.761 377.072C373.038 390.281 365.987 402.873 357.714 414.655C355.249 418.112 353.385 421.419 356.361 425.538C368.869 442.796 372.387 463.662 379.091 483.205C384.504 500.465 393.419 516.422 405.279 530.079C456.121 586.783 501.882 647.517 546.59 709.033C556.422 722.532 558.617 736.092 556.362 751.877C553.957 768.053 550.078 784.078 549.988 800.554H545.177C543.464 783.537 548.755 767.481 551.191 750.825C553.115 737.475 551.551 726.05 543.493 714.745C498.835 651.138 450.654 590.078 399.176 531.853C379.933 510.115 373.559 483.536 364.69 457.589C361.683 448.96 360.571 439.549 353.926 432.544C350.017 428.395 345.688 427.373 344.425 433.897C334.654 483.867 293.313 502.508 255.159 524.276C241.218 532.096 226.888 539.201 212.224 545.563C203.986 549.231 204.287 552.688 209.608 558.611C217.937 567.842 226.205 577.132 233.661 586.964C238.983 593.879 242.681 592.616 247.402 586.693C250.859 582.334 255.129 578.666 259.007 574.667C261.112 574.426 262.405 574.877 261.382 577.373C233.03 613.212 198.454 643.037 166.433 675.328C124.641 717.421 82.2479 758.912 39.9147 800.674H32.6989C31.5564 793.248 37.9004 790.332 41.8992 786.393C101.611 727.794 161.743 670.217 220.011 610.776C232.489 598.058 232.579 597.547 220.853 584.739C214.118 577.373 207.414 569.886 200.919 562.34C194.425 554.793 189.735 556.326 183.391 560.596C179.942 562.693 177.195 565.767 175.498 569.429C173.801 573.091 173.231 577.174 173.86 581.161C174.311 585.13 175.874 589.099 175.303 593.188C173.86 602.779 179.723 601.005 185.285 600.013C186.145 600.274 186.9 600.802 187.441 601.521C187.981 602.24 188.279 603.112 188.292 604.012C185.074 612.791 177.287 616.82 169.741 620.007C152.903 627.102 136.487 619.495 119.771 618.173C126.355 610.506 134.443 610.085 142.801 610.987C147.104 611.923 151.526 612.186 155.91 611.768C157.929 611.58 159.832 610.739 161.33 609.371C162.827 608.004 163.838 606.186 164.208 604.192C164.659 601.817 165.05 599.021 163.006 597.427C159.458 594.661 156.301 597.698 152.994 598.75C104.888 614.084 76.6556 650.344 53.4144 692.316C35.9159 723.885 19.1089 755.725 6.3007 789.55C5.00803 793.764 2.62207 797.561 -0.614491 800.554H-5.42501Z" stroke="#09FBD3" stroke-width="3"/>
<path d="M410.558 316.358C410.755 315.85 411.041 315.11 411.103 314.331C411.342 311.732 411.642 309.322 412.157 307.282C412.678 305.218 413.377 303.707 414.295 302.765C415.14 301.897 416.276 301.4 418.038 301.567C419.884 301.741 422.406 302.653 425.818 304.722L428.243 306.193L428.094 303.361C427.97 301.01 427.396 299.15 426.46 297.647C425.527 296.147 424.294 295.097 423 294.279C421.883 293.573 420.665 293.008 419.552 292.492C419.403 292.424 419.257 292.356 419.112 292.288C418.323 291.92 417.592 291.566 416.923 291.179C423.319 281.22 431.722 272.703 441.596 266.173L442.641 267.184C439.056 273.733 436.986 280.672 435.394 287.644C434.67 290.813 434.042 294.009 433.418 297.179C433.32 297.676 433.223 298.172 433.125 298.667C432.401 302.334 431.663 305.963 430.764 309.537C426.446 326.663 417.232 341.509 407.066 355.693L407.036 355.735L407.009 355.78C404.909 359.187 401.684 361.754 397.892 363.036C394.523 364.176 390.894 364.238 387.506 363.232C388.852 358.327 390.993 353.813 393.422 349.372C394.501 347.399 395.667 345.392 396.842 343.368C398.485 340.539 400.148 337.676 401.621 334.826L401.622 334.823C402.244 333.614 402.765 333.204 403.075 333.063C403.347 332.939 403.681 332.919 404.238 333.107C404.791 333.295 405.365 333.617 406.094 334.025C406.158 334.061 406.224 334.098 406.292 334.136C407.037 334.553 407.98 335.07 408.972 335.298L409.153 335.34L409.338 335.336C411.087 335.301 412.781 334.727 414.19 333.696C414.642 333.431 414.83 332.981 414.871 332.863C414.957 332.622 414.966 332.407 414.968 332.325C414.974 332.122 414.951 331.918 414.93 331.769C414.884 331.445 414.799 331.053 414.7 330.682C414.603 330.314 414.475 329.906 414.331 329.564C414.262 329.401 414.163 329.19 414.03 328.995C413.964 328.898 413.855 328.754 413.695 328.616C413.548 328.489 413.233 328.261 412.77 328.223L412.764 328.222C410.103 328.011 408.878 327.462 408.344 326.982C407.937 326.615 407.776 326.142 407.906 325.265C408.042 324.339 408.459 323.285 408.963 322.014C408.981 321.968 408.999 321.923 409.017 321.877C409.499 320.658 410.079 319.181 410.173 317.792L410.177 317.742V317.691C410.177 317.423 410.275 317.095 410.509 316.484C410.525 316.444 410.541 316.402 410.558 316.358Z" stroke="#09FBD3" stroke-width="3"/>
<path d="M333.712 2.57352C383.081 3.02452 420.372 23.6738 443.614 67.9011C460.811 100.643 471.756 134.828 466.193 172.562C464.931 181.221 463.638 189.82 459.098 197.547L457.174 194.54C453.746 190.541 455.76 186.151 456.362 181.972C463.487 131.311 451.401 85.4598 418.779 46.3737C398.935 22.5913 336.5 15.1745 336.5 15.1745" stroke="#09FBD3" stroke-width="3"/>
<path d="M315.755 524.429L315.745 524.438L315.735 524.447C297.811 541.35 279.849 558.234 261.848 575.099L261.329 574.507C271.372 562.18 282.973 551.414 294.663 540.564C300.229 535.398 305.815 530.213 311.264 524.832C327.129 509.163 343.335 492.428 351.264 469.766C351.505 470.943 351.596 471.792 351.556 472.575C351.476 474.129 350.877 475.479 349.346 478.881C341.263 496.131 329.847 511.611 315.755 524.429Z" stroke="#09FBD3" stroke-width="3"/>
<path d="M216.803 746.386C216.8 746.424 216.796 746.464 216.791 746.506C212.857 749.258 208.96 752.05 205.072 754.835C189.019 766.335 173.108 777.733 155.346 785.815C163.276 780.869 171.085 775.761 178.863 770.644C179.927 769.944 180.989 769.245 182.051 768.545C193.473 761.026 204.855 753.533 216.529 746.516C216.629 746.465 216.72 746.422 216.803 746.386Z" stroke="#09FBD3" stroke-width="3"/>
<path d="M228.753 738.476C225.623 741.259 222.151 743.643 218.414 745.569L217.985 745.186C221.305 742.533 224.92 740.282 228.753 738.476Z" stroke="#09FBD3" stroke-width="3"/>
<path d="M192.673 203.269C182.264 200.35 171.61 198.047 160.179 197.577C163.413 195.167 167.55 193.608 172.259 192.859C178.387 191.884 185.38 192.3 192.333 193.919C204.87 196.837 216.937 203.574 223.491 212.623C218.907 211.319 214.388 209.913 209.877 208.497C209.402 208.347 208.928 208.198 208.453 208.049C203.207 206.401 197.964 204.753 192.673 203.269Z" stroke="#09FBD3" stroke-width="3"/>
<path d="M138.437 195.618L138.438 195.609L138.438 195.6C138.481 193.909 139.064 192.275 140.101 190.937C141.133 189.607 142.56 188.639 144.177 188.173C145.037 187.967 145.938 188.019 146.77 188.321C147.609 188.626 148.339 189.174 148.867 189.894L148.91 189.953L148.958 190.006C149.697 190.835 150.038 191.541 150.177 192.143C150.315 192.744 150.278 193.35 150.093 194.022C149.903 194.712 149.567 195.437 149.129 196.262C148.98 196.541 148.809 196.851 148.63 197.175C148.324 197.73 147.995 198.327 147.714 198.89L147.713 198.89L147.71 198.897C145.124 204.132 142.764 209.517 140.42 214.865C139.756 216.378 139.095 217.888 138.429 219.391C138.416 217.309 138.39 215.234 138.364 213.164C138.291 207.288 138.218 201.456 138.437 195.618Z" stroke="#09FBD3" stroke-width="3"/>
<path d="M187.033 601.238L186.613 600.834C190.114 596.991 194.08 593.606 198.413 590.756C195.301 594.774 191.311 598.039 187.033 601.238Z" fill="#C4C4C4" stroke="#09FBD3" stroke-width="3"/>
<path d="M238.611 397.417L238.446 397.392L238.28 397.403C221.197 398.567 207.782 394.047 196.637 385.946C185.452 377.814 176.49 366.026 168.445 352.554C167.793 351.446 167.367 350.559 167.29 349.833C167.255 349.51 167.296 349.264 167.395 349.051C167.494 348.837 167.701 348.555 168.157 348.24C168.611 347.926 168.824 347.927 168.863 347.929C168.895 347.93 168.988 347.94 169.188 348.108C169.407 348.293 169.637 348.567 169.948 348.97C169.984 349.017 170.021 349.066 170.06 349.117C170.317 349.452 170.643 349.879 170.992 350.228C177.077 356.377 184.111 356.686 191.934 355.987C202.981 355.124 213.359 357.441 223.628 360.85C228.541 362.481 233.404 364.354 238.305 366.24C238.53 366.327 238.755 366.413 238.98 366.5C244.084 368.464 249.231 370.432 254.449 372.113C263.658 375.648 272.625 379.783 281.292 384.493L281.407 384.556L281.532 384.598C282.405 384.89 283.173 385.432 283.74 386.157C284.294 386.865 284.633 387.718 284.716 388.612C284.704 389.013 284.557 389.265 284.313 389.473C284.02 389.724 283.528 389.951 282.832 390.076C276.783 390.638 270.895 392.308 265.164 393.933C263.619 394.371 262.086 394.806 260.565 395.215C253.294 397.169 246.15 398.585 238.611 397.417Z" stroke="#09FBD3" stroke-width="3"/>
<path d="M385.464 250.955L385.474 250.969L385.484 250.983C387.968 254.409 388.928 258.285 386.356 261.381C385.717 262.15 385.152 262.438 384.688 262.54C384.201 262.646 383.642 262.586 382.963 262.346C382.273 262.102 381.557 261.709 380.783 261.246C380.628 261.154 380.467 261.056 380.303 260.956C379.703 260.592 379.053 260.198 378.455 259.908C346.375 244.247 311.693 240.226 277.279 236.235L277.19 236.225L277.189 236.225C277.047 236.209 276.907 236.192 276.767 236.176C274.375 235.901 272.374 235.671 270.832 234.9C270.067 234.517 269.458 234.016 269.002 233.322C268.541 232.622 268.18 231.638 268.047 230.21C267.758 227.095 268.009 224.58 268.957 222.668C269.87 220.828 271.519 219.363 274.463 218.499L274.463 218.499L274.467 218.497C278.173 217.397 281.91 216.698 284.685 216.179C285.467 216.032 286.173 215.9 286.779 215.778C312.074 218.18 336.986 223.638 360.968 232.032C370.898 235.648 379.458 242.26 385.464 250.955Z" stroke="#09FBD3" stroke-width="3"/>
<path d="M333.752 279.24H333.608L333.466 279.267C325.562 280.799 318.264 279.149 310.998 276.303C307.358 274.877 303.76 273.165 300.1 271.416L299.857 271.3C296.292 269.597 292.666 267.864 288.968 266.388L288.967 266.388C287.3 265.724 286.357 265.061 285.869 264.499C285.429 263.993 285.357 263.579 285.426 263.178C285.508 262.694 285.835 262.049 286.547 261.262C287.247 260.489 288.229 259.678 289.435 258.86L289.435 258.86L289.441 258.855C296.134 254.259 304.071 251.816 312.19 251.852C320.308 251.888 328.221 254.401 334.871 259.055C340.015 262.713 344.926 266.689 349.574 270.96L349.596 270.981L349.62 271.001C349.933 271.265 350.26 271.527 350.576 271.778L350.65 271.838C350.945 272.072 351.23 272.299 351.509 272.53C352.118 273.035 352.637 273.514 353.034 274.004C353.426 274.489 353.658 274.938 353.751 275.379C353.84 275.802 353.825 276.321 353.555 276.998C353.278 277.692 352.928 278.112 352.56 278.39C352.181 278.677 351.704 278.874 351.097 279.001C350.48 279.13 349.784 279.177 348.992 279.199C348.768 279.205 348.529 279.209 348.282 279.214C347.724 279.224 347.124 279.234 346.565 279.27C344.264 279.287 341.988 279.274 339.527 279.261C337.728 279.25 335.83 279.24 333.752 279.24Z" stroke="#09FBD3" stroke-width="3"/>
<path d="M221.813 237.475L221.869 237.545L221.933 237.609C222.879 238.545 223.549 239.724 223.87 241.016C224.184 242.279 224.152 243.603 223.777 244.848C223.469 245.508 223.126 245.815 222.824 245.98C222.487 246.164 222.045 246.255 221.435 246.239C220.814 246.222 220.13 246.099 219.346 245.938C219.242 245.916 219.136 245.894 219.027 245.872C218.368 245.734 217.627 245.579 216.939 245.512L216.931 245.512C216.675 245.488 216.42 245.465 216.164 245.441C198.963 243.866 182.215 242.333 168.431 231.169C167.871 230.713 167.248 230.306 166.702 229.95C166.664 229.925 166.626 229.9 166.589 229.876C165.986 229.482 165.476 229.141 165.051 228.776C164.634 228.416 164.364 228.087 164.206 227.756C164.058 227.446 163.972 227.059 164.043 226.511C164.174 225.488 164.72 224.876 165.653 224.368C166.438 223.942 167.318 223.678 168.304 223.382C168.643 223.28 168.994 223.175 169.358 223.058L169.387 223.048L169.416 223.037C175.625 220.754 182.175 219.535 188.789 219.432C202.687 219.905 213.241 226.672 221.813 237.475Z" stroke="#09FBD3" stroke-width="3"/>
<path d="M193.534 312.968L193.534 312.968L193.527 312.962C192.711 312.236 192.247 310.963 192.314 309.1C192.38 307.257 192.967 305.068 193.951 302.883C194.931 300.707 196.268 298.616 197.755 296.966C199.261 295.294 200.817 294.189 202.208 293.786L202.208 293.786L202.22 293.783C203.067 293.53 203.614 293.434 204 293.473C204.261 293.499 204.472 293.58 204.718 293.953C204.909 294.242 204.918 294.472 204.795 294.788C204.643 295.178 204.291 295.64 203.772 296.123C200.848 298.6 198.899 300.851 197.868 303.025C196.8 305.278 196.743 307.404 197.502 309.449C198.23 311.409 199.673 313.194 201.389 314.927C202.786 316.336 204.466 317.808 206.25 319.369C206.663 319.731 207.082 320.098 207.504 320.47L207.505 320.471C220.689 332.064 233.511 337.881 251.475 335.869C252.57 335.749 253.608 335.639 254.594 335.534C257.957 335.178 260.705 334.887 262.933 334.501C265.822 334.002 268.095 333.307 269.882 331.921C271.697 330.514 272.83 328.538 273.761 325.871C274.402 324.033 274.977 321.778 275.605 319.025C277.471 323.24 277.607 327.191 276.394 330.295C274.881 334.164 271.126 337.086 265.075 337.603C265.074 337.603 265.074 337.604 265.073 337.604L264.727 337.632C252.522 338.65 240.035 339.691 228.517 337.388C221.493 335.95 215.495 332.349 209.859 327.826C206.225 324.909 202.837 321.696 199.425 318.459C197.486 316.62 195.539 314.773 193.534 312.968Z" stroke="#09FBD3" stroke-width="3"/>
<path d="M287.011 339.508C293.506 346.338 297.404 356.21 298.005 367.61C295.025 357.99 291.351 348.598 287.011 339.508Z" stroke="#09FBD3" stroke-width="3"/>
<path d="M283.511 386.887C245.555 379.91 206.842 380.289 172.266 354.733" stroke="#09FBD3" stroke-width="3"/>
<path d="M273.041 228.822L273.041 228.822L273.04 228.81C272.871 226.809 273.59 225.445 274.698 224.507C275.863 223.521 277.545 222.945 279.284 222.825L279.32 222.823L279.356 222.819C287.962 221.811 296.659 221.869 305.25 222.991C321.886 226.194 338.387 230.566 354.672 235.395L354.683 235.398L354.694 235.401C360.089 236.912 365.113 239.524 369.45 243.072C372.532 245.594 375.22 248.551 377.433 251.842C352.737 240.502 326.417 237.333 300.374 234.196C293.289 233.343 286.225 232.492 279.219 231.48C278.565 231.383 277.853 231.336 277.212 231.295C277.042 231.284 276.878 231.273 276.721 231.262C275.914 231.204 275.24 231.13 274.675 230.972C274.125 230.817 273.781 230.61 273.554 230.352C273.336 230.103 273.105 229.668 273.041 228.822Z" stroke="#09FBD3" stroke-width="3"/>
<path  d="M333.124 264.534C333.124 267.391 331.649 270.8 329.122 273.52C326.609 276.225 323.225 278.067 319.591 278.067C315.956 278.067 312.572 276.225 310.059 273.52C307.532 270.8 306.057 267.391 306.057 264.534C306.057 259.015 311.787 254.008 319.591 254.008C327.394 254.008 333.124 259.015 333.124 264.534Z" stroke="#09FBD3" stroke-width="3"/>
<path d="M206.846 231.461C206.846 236.98 201.116 241.988 193.312 241.988C185.731 241.988 181.283 237.172 181.283 231.461C181.283 225.751 185.731 220.935 193.312 220.935C201.116 220.935 206.846 225.943 206.846 231.461Z" stroke="#09FBD3" stroke-width="3"/>
<ellipse cx="193.312" cy="231.461" rx="6.01323" ry="6.01324" fill="#09FBD3"/>
<ellipse cx="319.591" cy="264.534" rx="6.01322" ry="6.01326" fill="#09FBD3"/>
</svg>
