<svg width="589" height="827" viewBox="0 0 589 827" fill="none" xmlns="http://www.w3.org/2000/svg">
<g filter="url(#filter0_d)">
<path d="M337.5 41.1745C287.981 42.9183 229.512 43.871 187.179 72.3136C156.181 93.1194 145.477 129.109 150.288 162.783C150.412 163.96 150.856 165.081 151.572 166.024C152.186 166.835 152.981 167.487 153.89 167.933M335.5 28.6745C288.522 25.6065 239.904 32.6868 198.544 56.4686C176.505 69.1566 157.113 83.859 148.093 108.724C139.297 132.936 138.581 158.205 151 182.674M-5.42501 826.554C-3.44064 808.514 5.12823 792.369 12.6147 776.404C35.6154 727.997 60.9911 680.853 98.3333 641.437C103.092 636.018 106.566 629.594 108.496 622.645C112.915 609.085 117.516 595.586 123.258 582.356C124.882 592.699 119.59 601.599 117.245 611.13C116.584 613.836 114.81 616.512 114.99 619.127C115.291 623.457 106.962 629.681 115.501 631.605C122.687 633.228 128.46 627.937 128.67 619.578C129.35 606.431 131.09 593.36 133.872 580.492C135.435 572.254 140.186 563.144 137.961 556.169C136.127 550.156 126.085 547.149 119.921 542.459C113.048 537.474 107.814 530.555 104.888 522.585C100.889 509.777 92.8614 506.83 80.8349 510.318C78.497 510.827 76.1256 511.168 73.7392 511.34C75.3928 500.637 84.1422 500.967 91.1777 501.839C100.649 502.982 103.866 498.833 106.211 490.775C109.828 477.211 114.503 463.951 120.191 451.118C122.086 446.878 123.829 439.933 129.211 441.466C135.495 443.27 131.527 449.674 130.414 453.763C126.542 467.678 124.689 482.076 124.912 496.518C125.213 512.663 127.919 527.335 140.155 539.302C143.574 542.469 145.949 546.601 146.964 551.15C147.978 555.698 147.586 560.448 145.838 564.768C140.787 579.801 140.636 595.525 137.84 610.889C136.818 616.542 137.84 619.909 144.726 616.271C154.076 611.461 162.765 607.251 164.088 594.413C165.291 582.387 174.641 575.652 185.345 572.044C223.288 559.145 257.023 538.249 290.847 517.504C312.164 504.395 323.559 491.196 333.211 467.834C314.028 480.823 293.433 486.746 272.717 491.887C240.396 499.945 208.586 499.464 177.949 484.1C158.556 474.359 147.882 457.041 137.059 439.632C130.023 428.117 129.963 428.027 122.236 439.632C112.735 454.004 103.505 468.586 93.6731 482.717C79.3014 503.342 62.1938 521.803 45.0862 540.264C15.9219 581.545 -13.8135 622.465 -30.2597 671.022C-33.0559 679.29 -34.6193 687.979 -36.9945 696.428C-37.9867 699.945 -37.8364 704.997 -44 703.794V696.578C-39.7005 693.782 -40.3921 688.881 -39.5804 684.912C-35.4052 663.655 -27.5175 643.3 -16.2791 624.78C13.0054 577.486 41.0572 529.41 78.4295 487.678C96.4692 467.624 109.458 444.022 123.529 421.142C128.069 413.715 127.798 409.776 117.516 407.341C75.9103 397.189 33.4764 390.799 -9.27357 388.249C-11.7089 388.099 -15.6777 390.053 -15.8581 385.603C-16.0685 380.462 -11.9795 381.845 -8.9128 382.146C30.9703 385.524 70.6107 391.328 109.789 399.524C119.62 401.629 120.793 398.742 119.109 390.264C115.08 369.909 117.876 349.945 121.124 329.56C126.445 296.096 132.308 262.512 131.707 228.417C131.496 217.563 134.473 211.159 145.537 206.469C156.602 201.779 155.897 189.319 152.5 182.674L155 168.674C158.588 160.689 162.073 152.424 166.734 145.014C172.747 136.355 180.565 131.724 191.328 133.889C198.094 135.182 205.096 134.254 211.292 131.243C246.379 114.978 283.12 117.293 319.891 121.772C335.405 123.637 351.1 122.133 366.554 125.591C379.546 128.047 392.188 132.085 404.197 137.617C415.431 143.157 424.59 152.158 430.324 163.294C438.66 180.193 445.443 197.814 450.589 215.94C452.054 219.291 452.267 223.057 451.19 226.553C449.206 231.063 449.446 239.211 443.553 238.58C437.66 237.948 441.509 230.672 440.547 226.553C434.203 200.005 427.618 173.126 407.234 153.402C392.652 139.271 372.176 137.557 353.355 135.362C324.758 131.734 295.979 129.727 267.155 129.349C258.333 129.273 249.56 130.686 241.208 133.528C224.972 139.241 208.887 145.555 191.027 144.142C184.563 143.631 179.843 147.359 175.994 152.44C166.437 164.934 160.666 179.908 159.368 195.585C158.466 204.184 161.082 208.333 170.613 207.401C190.426 205.417 207.414 213.414 223.559 223.667C226.658 225.541 229.405 227.942 231.677 230.762C235.105 235.182 236.848 240.203 233.752 245.224C230.655 250.245 225.303 249.013 220.673 247.66C205.64 243.21 191.118 237.527 175.573 234.731C157.053 231.394 156.331 232.206 147.341 248.291C139.485 262.306 135.094 277.995 134.533 294.052C133.541 316.541 127.498 338.309 124.641 360.528C122.983 374.518 125.275 388.693 131.256 401.448C137.012 414.249 143.446 426.734 150.528 438.851C166.253 465.91 188.291 482.146 220.703 484.371C262.203 487.696 303.458 475.48 336.458 450.095C351.25 439.031 359.969 423.036 367.666 406.56C370.042 401.478 371.665 396.036 374.491 391.166C392.276 359.72 404.961 325.653 412.074 290.233C412.325 288.649 412.748 287.096 413.337 285.603C415.532 280.853 415.682 272.103 422.357 273.877C427.468 275.26 424.431 282.897 423.199 288.129C434.353 269.307 441.238 248.772 450.469 229.47C452.183 225.922 452.423 221.532 456.482 219.458C458.737 219.698 460.33 220.39 459.038 223.126C453.781 242.191 446.849 260.754 438.322 278.598C436.217 283.228 432.73 288.429 441.719 289.812C442.14 296.637 435.015 296.668 432.068 300.486C426.897 307.131 416.283 312.092 426.807 322.915C429.994 326.193 427.288 328.929 422.658 330.191C413.337 332.506 407.624 344.112 412.826 351.568C417.366 358.003 415.201 360.588 409.308 361.31C396.68 362.903 396.41 374.268 392.321 382.356C389.855 387.167 394.275 387.558 397.643 386.205C404.287 383.559 408.015 377.876 411.924 372.194C425.213 352.922 431.016 330.973 435.015 308.423C436.217 301.719 438.352 296.126 444.456 292.609C447.462 293.571 447.462 296.036 447.011 298.411C440.998 328.658 435.586 358.995 415.141 383.92C408.015 392.609 400.108 398.472 388.532 396.608C382.91 395.676 380.745 398.562 378.761 403.072C373.038 416.281 365.987 428.873 357.714 440.655C355.249 444.112 353.385 447.419 356.361 451.538C368.869 468.796 372.387 489.662 379.091 509.205C384.504 526.465 393.419 542.422 405.279 556.079C456.121 612.783 501.882 673.517 546.59 735.033C556.422 748.532 558.617 762.092 556.362 777.877C553.957 794.053 550.078 810.078 549.988 826.554H545.177C543.464 809.537 548.755 793.481 551.191 776.825C553.115 763.475 551.551 752.05 543.493 740.745C498.835 677.138 450.654 616.078 399.176 557.853C379.933 536.115 373.559 509.536 364.69 483.589C361.683 474.96 360.571 465.549 353.926 458.544C350.017 454.395 345.688 453.373 344.425 459.897C334.654 509.867 293.313 528.508 255.159 550.276C241.218 558.096 226.888 565.201 212.224 571.563C203.986 575.231 204.287 578.688 209.608 584.611C217.937 593.842 226.205 603.132 233.661 612.964C238.983 619.879 242.681 618.616 247.402 612.693C250.859 608.334 255.129 604.666 259.007 600.667C261.112 600.426 262.405 600.877 261.382 603.373C233.03 639.212 198.454 669.037 166.433 701.328C124.641 743.421 82.2479 784.912 39.9147 826.674H32.6989C31.5564 819.248 37.9004 816.332 41.8992 812.393C101.611 753.794 161.743 696.217 220.011 636.776C232.489 624.058 232.579 623.547 220.853 610.739C214.118 603.373 207.414 595.886 200.919 588.34C194.425 580.793 189.735 582.326 183.391 586.596C179.942 588.693 177.195 591.767 175.498 595.429C173.801 599.091 173.231 603.174 173.86 607.161C174.311 611.13 175.874 615.099 175.303 619.188C173.86 628.779 179.723 627.005 185.285 626.013C186.145 626.274 186.9 626.802 187.441 627.521C187.981 628.24 188.279 629.112 188.292 630.012C185.074 638.791 177.287 642.82 169.741 646.007C152.903 653.102 136.487 645.495 119.771 644.173C126.355 636.506 134.443 636.085 142.801 636.987C147.104 637.923 151.526 638.186 155.91 637.768C157.929 637.58 159.832 636.739 161.33 635.371C162.827 634.004 163.838 632.186 164.208 630.192C164.659 627.817 165.05 625.021 163.006 623.427C159.458 620.661 156.301 623.698 152.994 624.75C104.888 640.084 76.6556 676.344 53.4144 718.316C35.9159 749.885 19.1089 781.725 6.3007 815.55C5.00803 819.764 2.62207 823.561 -0.614491 826.554H-5.42501Z" stroke="#09FBD3" stroke-width="3"/>
<path d="M410.558 342.358C410.755 341.85 411.041 341.11 411.103 340.331C411.342 337.732 411.642 335.322 412.157 333.282C412.678 331.218 413.377 329.707 414.295 328.765C415.14 327.897 416.276 327.4 418.038 327.567C419.884 327.741 422.406 328.653 425.818 330.722L428.243 332.193L428.094 329.361C427.97 327.01 427.396 325.15 426.46 323.647C425.527 322.147 424.294 321.097 423 320.279C421.883 319.573 420.665 319.008 419.552 318.492C419.403 318.424 419.257 318.356 419.112 318.288C418.323 317.92 417.592 317.566 416.923 317.179C423.319 307.22 431.722 298.703 441.596 292.173L442.641 293.184C439.056 299.733 436.986 306.672 435.394 313.644C434.67 316.813 434.042 320.009 433.418 323.179C433.32 323.676 433.223 324.172 433.125 324.667C432.401 328.334 431.663 331.963 430.764 335.537C426.446 352.663 417.232 367.509 407.066 381.693L407.036 381.735L407.009 381.78C404.909 385.187 401.684 387.754 397.892 389.036C394.523 390.176 390.894 390.238 387.506 389.232C388.852 384.327 390.993 379.813 393.422 375.372C394.501 373.399 395.667 371.392 396.842 369.368C398.485 366.539 400.148 363.676 401.621 360.826L401.622 360.823C402.244 359.614 402.765 359.204 403.075 359.063C403.347 358.939 403.681 358.919 404.238 359.107C404.791 359.295 405.365 359.617 406.094 360.025C406.158 360.061 406.224 360.098 406.292 360.136C407.037 360.553 407.98 361.07 408.972 361.298L409.153 361.34L409.338 361.336C411.087 361.301 412.781 360.727 414.19 359.696C414.642 359.431 414.83 358.981 414.871 358.863C414.957 358.622 414.966 358.407 414.968 358.325C414.974 358.122 414.951 357.918 414.93 357.769C414.884 357.445 414.799 357.053 414.7 356.682C414.603 356.314 414.475 355.906 414.331 355.564C414.262 355.401 414.163 355.19 414.03 354.995C413.964 354.898 413.855 354.754 413.695 354.616C413.548 354.489 413.233 354.261 412.77 354.223L412.764 354.222C410.103 354.011 408.878 353.462 408.344 352.982C407.937 352.615 407.776 352.142 407.906 351.265C408.042 350.339 408.459 349.285 408.963 348.014C408.981 347.968 408.999 347.923 409.017 347.877C409.499 346.658 410.079 345.181 410.173 343.792L410.177 343.742V343.691C410.177 343.423 410.275 343.095 410.509 342.484C410.525 342.444 410.541 342.402 410.558 342.358Z" stroke="#09FBD3" stroke-width="3"/>
<path d="M333.712 28.5735C383.081 29.0245 420.372 49.6738 443.614 93.9011C460.811 126.643 471.756 160.828 466.193 198.562C464.931 207.221 463.638 215.82 459.098 223.547L457.174 220.54C453.746 216.541 455.76 212.151 456.362 207.972C463.487 157.311 451.401 111.46 418.779 72.3737C398.935 48.5913 336.5 41.1745 336.5 41.1745" stroke="#09FBD3" stroke-width="3"/>
<path d="M315.755 550.429L315.745 550.438L315.735 550.447C297.811 567.35 279.849 584.234 261.848 601.099L261.329 600.507C271.372 588.18 282.973 577.414 294.663 566.564C300.229 561.398 305.815 556.213 311.264 550.832C327.129 535.163 343.335 518.428 351.264 495.766C351.505 496.943 351.596 497.792 351.556 498.575C351.476 500.129 350.877 501.479 349.346 504.881C341.263 522.131 329.847 537.611 315.755 550.429Z" stroke="#09FBD3" stroke-width="3"/>
<path d="M216.803 772.386C216.8 772.424 216.796 772.464 216.791 772.506C212.857 775.258 208.96 778.05 205.072 780.835C189.019 792.335 173.108 803.733 155.346 811.815C163.276 806.869 171.085 801.761 178.863 796.644C179.927 795.944 180.989 795.245 182.051 794.545C193.473 787.026 204.855 779.533 216.529 772.516C216.629 772.465 216.72 772.422 216.803 772.386Z" stroke="#09FBD3" stroke-width="3"/>
<path d="M228.753 764.476C225.623 767.259 222.151 769.643 218.414 771.569L217.985 771.186C221.305 768.533 224.92 766.282 228.753 764.476Z" stroke="#09FBD3" stroke-width="3"/>
<path d="M192.673 229.269C182.264 226.35 171.61 224.047 160.179 223.577C163.413 221.167 167.55 219.608 172.259 218.859C178.387 217.884 185.38 218.3 192.333 219.919C204.87 222.837 216.937 229.574 223.491 238.623C218.907 237.319 214.388 235.913 209.877 234.497C209.402 234.347 208.928 234.198 208.453 234.049C203.207 232.401 197.964 230.753 192.673 229.269Z" stroke="#09FBD3" stroke-width="3"/>
<path d="M138.437 221.618L138.438 221.609L138.438 221.6C138.481 219.909 139.064 218.275 140.101 216.937C141.133 215.607 142.56 214.639 144.177 214.173C145.037 213.967 145.938 214.019 146.77 214.321C147.609 214.626 148.339 215.174 148.867 215.894L148.91 215.953L148.958 216.006C149.697 216.835 150.038 217.541 150.177 218.143C150.315 218.744 150.278 219.35 150.093 220.022C149.903 220.712 149.567 221.437 149.129 222.262C148.98 222.541 148.809 222.851 148.63 223.175C148.324 223.73 147.995 224.327 147.714 224.89L147.713 224.89L147.71 224.897C145.124 230.132 142.764 235.517 140.42 240.865C139.756 242.378 139.095 243.888 138.429 245.391C138.416 243.309 138.39 241.234 138.364 239.164C138.291 233.288 138.218 227.456 138.437 221.618Z" stroke="#09FBD3" stroke-width="3"/>
<path d="M187.033 627.238L186.613 626.834C190.114 622.991 194.08 619.606 198.413 616.756C195.301 620.774 191.311 624.039 187.033 627.238Z" fill="#C4C4C4" stroke="#09FBD3" stroke-width="3"/>
<path d="M238.611 423.417L238.446 423.392L238.28 423.403C221.197 424.567 207.782 420.047 196.637 411.946C185.452 403.814 176.49 392.026 168.445 378.554C167.793 377.446 167.367 376.559 167.29 375.833C167.255 375.51 167.296 375.264 167.395 375.051C167.494 374.837 167.701 374.555 168.157 374.24C168.611 373.926 168.824 373.927 168.863 373.929C168.895 373.93 168.988 373.94 169.188 374.108C169.407 374.293 169.637 374.567 169.948 374.97C169.984 375.017 170.021 375.066 170.06 375.117C170.317 375.452 170.643 375.879 170.992 376.228C177.077 382.377 184.111 382.686 191.934 381.987C202.981 381.124 213.359 383.441 223.628 386.85C228.541 388.481 233.404 390.354 238.305 392.24C238.53 392.327 238.755 392.413 238.98 392.5C244.084 394.464 249.231 396.432 254.449 398.113C263.658 401.648 272.625 405.783 281.292 410.493L281.407 410.556L281.532 410.598C282.405 410.89 283.173 411.432 283.74 412.157C284.294 412.865 284.633 413.718 284.716 414.612C284.704 415.013 284.557 415.265 284.313 415.473C284.02 415.724 283.528 415.951 282.832 416.076C276.783 416.638 270.895 418.308 265.164 419.933C263.619 420.371 262.086 420.806 260.565 421.215C253.294 423.169 246.15 424.585 238.611 423.417Z" stroke="#09FBD3" stroke-width="3"/>
<path d="M385.464 276.955L385.474 276.969L385.484 276.983C387.968 280.409 388.928 284.285 386.356 287.381C385.717 288.15 385.152 288.438 384.688 288.54C384.201 288.646 383.642 288.586 382.963 288.346C382.273 288.102 381.557 287.709 380.783 287.246C380.628 287.154 380.467 287.056 380.303 286.956C379.703 286.592 379.053 286.198 378.455 285.908C346.375 270.247 311.693 266.226 277.279 262.235L277.19 262.225L277.189 262.225C277.047 262.209 276.907 262.192 276.767 262.176C274.375 261.901 272.374 261.671 270.832 260.9C270.067 260.517 269.458 260.016 269.002 259.322C268.541 258.622 268.18 257.638 268.047 256.21C267.758 253.095 268.009 250.58 268.957 248.668C269.87 246.828 271.519 245.363 274.463 244.499L274.463 244.499L274.467 244.497C278.173 243.397 281.91 242.698 284.685 242.179C285.467 242.032 286.173 241.9 286.779 241.778C312.074 244.18 336.986 249.638 360.968 258.032C370.898 261.648 379.458 268.26 385.464 276.955Z" stroke="#09FBD3" stroke-width="3"/>
<path d="M333.752 305.24H333.608L333.466 305.267C325.562 306.799 318.264 305.149 310.998 302.303C307.358 300.877 303.76 299.165 300.1 297.416L299.857 297.3C296.292 295.597 292.666 293.864 288.968 292.388L288.967 292.388C287.3 291.724 286.357 291.061 285.869 290.499C285.429 289.993 285.357 289.579 285.426 289.178C285.508 288.694 285.835 288.049 286.547 287.262C287.247 286.489 288.229 285.678 289.435 284.86L289.435 284.86L289.441 284.855C296.134 280.259 304.071 277.816 312.19 277.852C320.308 277.888 328.221 280.401 334.871 285.055C340.015 288.713 344.926 292.689 349.574 296.96L349.596 296.981L349.62 297.001C349.933 297.265 350.26 297.527 350.576 297.778L350.65 297.838C350.945 298.072 351.23 298.299 351.509 298.53C352.118 299.035 352.637 299.514 353.034 300.004C353.426 300.489 353.658 300.938 353.751 301.379C353.84 301.802 353.825 302.321 353.555 302.998C353.278 303.692 352.928 304.112 352.56 304.39C352.181 304.677 351.704 304.874 351.097 305.001C350.48 305.13 349.784 305.177 348.992 305.199C348.768 305.205 348.529 305.209 348.282 305.214C347.724 305.224 347.124 305.234 346.565 305.27C344.264 305.287 341.988 305.274 339.527 305.261C337.728 305.25 335.83 305.24 333.752 305.24Z" stroke="#09FBD3" stroke-width="3"/>
<path d="M221.813 263.475L221.869 263.545L221.933 263.609C222.879 264.545 223.549 265.724 223.87 267.016C224.184 268.279 224.152 269.603 223.777 270.848C223.469 271.508 223.126 271.815 222.824 271.98C222.487 272.164 222.045 272.255 221.435 272.239C220.814 272.222 220.13 272.099 219.346 271.938C219.242 271.916 219.136 271.894 219.027 271.872C218.368 271.734 217.627 271.579 216.939 271.512L216.931 271.512C216.675 271.488 216.42 271.465 216.164 271.441C198.963 269.866 182.215 268.333 168.431 257.169C167.871 256.713 167.248 256.306 166.702 255.95C166.664 255.925 166.626 255.9 166.589 255.876C165.986 255.482 165.476 255.141 165.051 254.776C164.634 254.416 164.364 254.087 164.206 253.756C164.058 253.446 163.972 253.059 164.043 252.511C164.174 251.488 164.72 250.876 165.653 250.368C166.438 249.942 167.318 249.678 168.304 249.382C168.643 249.28 168.994 249.175 169.358 249.058L169.387 249.048L169.416 249.037C175.625 246.754 182.175 245.535 188.789 245.432C202.687 245.905 213.241 252.672 221.813 263.475Z" stroke="#09FBD3" stroke-width="3"/>
<path d="M193.534 338.968L193.534 338.968L193.527 338.962C192.711 338.236 192.247 336.963 192.314 335.1C192.38 333.257 192.967 331.068 193.951 328.883C194.931 326.707 196.268 324.616 197.755 322.966C199.261 321.294 200.817 320.189 202.208 319.786L202.208 319.786L202.22 319.783C203.067 319.53 203.614 319.434 204 319.473C204.261 319.499 204.472 319.58 204.718 319.953C204.909 320.242 204.918 320.472 204.795 320.788C204.643 321.178 204.291 321.64 203.772 322.123C200.848 324.6 198.899 326.851 197.868 329.025C196.8 331.278 196.743 333.404 197.502 335.449C198.23 337.409 199.673 339.194 201.389 340.927C202.786 342.336 204.466 343.808 206.25 345.369C206.663 345.731 207.082 346.098 207.504 346.47L207.505 346.471C220.689 358.064 233.511 363.881 251.475 361.869C252.57 361.749 253.608 361.639 254.594 361.534C257.957 361.178 260.705 360.887 262.933 360.501C265.822 360.002 268.095 359.307 269.882 357.921C271.697 356.514 272.83 354.538 273.761 351.871C274.402 350.033 274.977 347.778 275.605 345.025C277.471 349.24 277.607 353.191 276.394 356.295C274.881 360.164 271.126 363.086 265.075 363.603C265.074 363.603 265.074 363.604 265.073 363.604L264.727 363.632C252.522 364.65 240.035 365.691 228.517 363.388C221.493 361.95 215.495 358.349 209.859 353.826C206.225 350.909 202.837 347.696 199.425 344.459C197.486 342.62 195.539 340.773 193.534 338.968Z" stroke="#09FBD3" stroke-width="3"/>
<path d="M287.011 365.508C293.506 372.338 297.404 382.21 298.005 393.61C295.025 383.99 291.351 374.598 287.011 365.508Z" stroke="#09FBD3" stroke-width="3"/>
<path d="M283.511 412.887C245.555 405.91 206.842 406.289 172.266 380.733" stroke="#09FBD3" stroke-width="3"/>
<path d="M273.041 254.822L273.041 254.822L273.04 254.81C272.871 252.809 273.59 251.445 274.698 250.507C275.863 249.521 277.545 248.945 279.284 248.825L279.32 248.823L279.356 248.819C287.962 247.811 296.659 247.869 305.25 248.991C321.886 252.194 338.387 256.566 354.672 261.395L354.683 261.398L354.694 261.401C360.089 262.912 365.113 265.524 369.45 269.072C372.532 271.594 375.22 274.551 377.433 277.842C352.737 266.502 326.417 263.333 300.374 260.196C293.289 259.343 286.225 258.492 279.219 257.48C278.565 257.383 277.853 257.336 277.212 257.295C277.042 257.284 276.878 257.273 276.721 257.262C275.914 257.204 275.24 257.13 274.675 256.972C274.125 256.817 273.781 256.61 273.554 256.352C273.336 256.103 273.105 255.668 273.041 254.822Z" stroke="#09FBD3" stroke-width="3"/>
<path d="M333.124 290.534C333.124 293.391 331.649 296.8 329.122 299.52C326.609 302.225 323.225 304.067 319.591 304.067C315.956 304.067 312.572 302.225 310.059 299.52C307.532 296.8 306.057 293.391 306.057 290.534C306.057 285.015 311.787 280.008 319.591 280.008C327.394 280.008 333.124 285.015 333.124 290.534Z" stroke="#09FBD3" stroke-width="3"/>
<path d="M206.846 257.461C206.846 262.98 201.116 267.988 193.312 267.988C185.731 267.988 181.283 263.172 181.283 257.461C181.283 251.751 185.731 246.935 193.312 246.935C201.116 246.935 206.846 251.943 206.846 257.461Z" stroke="#09FBD3" stroke-width="3"/>
<ellipse cx="193.312" cy="257.461" rx="6.01323" ry="6.01324" fill="#09FBD3"/>
<ellipse cx="319.591" cy="290.534" rx="6.01322" ry="6.01326" fill="#09FBD3"/>
</g>
<defs>
<filter id="filter0_d" x="-75.5" y="0.500061" width="664.173" height="861.674" filterUnits="userSpaceOnUse" color-interpolation-filters="sRGB">
<feFlood flood-opacity="0" result="BackgroundImageFix"/>
<feColorMatrix in="SourceAlpha" type="matrix" values="0 0 0 0 0 0 0 0 0 0 0 0 0 0 0 0 0 0 127 0"/>
<feOffset dy="4"/>
<feGaussianBlur stdDeviation="15"/>
<feColorMatrix type="matrix" values="0 0 0 0 0.0352941 0 0 0 0 0.984314 0 0 0 0 0.827451 0 0 0 1 0"/>
<feBlend mode="normal" in2="BackgroundImageFix" result="effect1_dropShadow"/>
<feBlend mode="normal" in="SourceGraphic" in2="effect1_dropShadow" result="shape"/>
</filter>
</defs>
</svg>
