<svg width="200" height="72" viewBox="0 0 200 72" fill="none" xmlns="http://www.w3.org/2000/svg">
<path d="M1 71H0V1H1V71Z" fill="#09FBD3"/>
<path d="M200 71H199V1H200V71Z" fill="#09FBD3"/>
<path d="M200 71V72L0 72L0 71L200 71Z" fill="#09FBD3"/>
<path d="M200 0V1L0 1L0 0L200 0Z" fill="#09FBD3"/>
<path d="M33.4 25.5C33.05 25.5 32.875 25.675 32.875 26.025V49.475C32.875 49.825 33.05 50 33.4 50H37.495C37.845 50 38.02 49.825 38.02 49.475V36.42C38.02 36.07 38.195 35.895 38.545 35.895H40.155C41.905 35.895 43.305 34.495 43.305 32.745C43.305 31.03 41.905 29.63 40.155 29.63H37.53C37.18 29.595 37.005 29.77 37.005 30.12C37.005 30.47 37.18 30.645 37.53 30.645H40.155C41.31 30.645 42.255 31.59 42.255 32.745C42.255 33.935 41.31 34.845 40.155 34.845H37.53C37.18 34.845 37.005 35.02 37.005 35.37V48.425C37.005 48.775 36.83 48.95 36.48 48.95H34.45C34.1 48.95 33.925 48.775 33.925 48.425V27.075C33.925 26.725 34.1 26.55 34.45 26.55H40.155C41.8 26.55 43.34 27.18 44.53 28.37C45.72 29.56 46.35 31.1 46.35 32.745C46.35 34.425 45.72 35.965 44.53 37.155C43.34 38.345 41.8 38.975 40.155 38.975H39.595C39.245 38.975 39.07 39.15 39.07 39.5C39.07 39.85 39.245 40.025 39.595 40.025H40.155C44.145 40.025 47.4 36.77 47.4 32.745C47.4 28.755 44.145 25.5 40.155 25.5H33.4ZM64.5445 50C64.9295 50 65.1045 49.755 64.9295 49.37L61.0095 40.305C60.8695 39.99 60.3445 40.06 60.3445 40.06C60.0645 40.235 59.9595 40.48 60.0995 40.76L63.5295 48.32C63.7045 48.705 63.5295 48.95 63.1445 48.95H61.1495C60.8695 48.95 60.6595 48.81 60.5545 48.565L56.9845 40.585C56.8445 40.235 56.9845 40.025 57.3695 39.955C58.0695 39.885 58.7345 39.675 59.3645 39.395C59.6445 39.255 59.9595 39.115 60.2395 38.94C62.3045 37.645 63.6695 35.37 63.6695 32.745C63.6695 28.755 60.4145 25.5 56.4245 25.5H49.6695C49.3195 25.5 49.1445 25.675 49.1445 26.025V49.475C49.1445 49.825 49.3195 50 49.6695 50H53.8695C54.2195 50 54.3945 49.825 54.3945 49.475V36.42C54.3945 36.07 54.5695 35.895 54.9195 35.895H56.4245C58.1745 35.895 59.5745 34.495 59.5745 32.745C59.5745 31.03 58.1745 29.595 56.4245 29.595H53.9045C53.5545 29.595 53.3795 29.77 53.3795 30.12C53.3795 30.47 53.5545 30.645 53.9045 30.645H56.4245C57.5795 30.645 58.5245 31.59 58.5245 32.745C58.5245 33.935 57.5795 34.845 56.4245 34.845H53.8695C53.5195 34.845 53.3445 35.02 53.3445 35.37V48.425C53.3445 48.775 53.1695 48.95 52.8195 48.95H50.7195C50.3695 48.95 50.1945 48.775 50.1945 48.425V27.075C50.1945 26.725 50.3695 26.55 50.7195 26.55H56.4245C58.0695 26.55 59.6095 27.18 60.7995 28.37C61.9895 29.56 62.6195 31.1 62.6195 32.745C62.6195 34.425 61.9895 35.965 60.7995 37.155C60.5195 37.435 60.2045 37.68 59.8895 37.89C59.6095 38.1 59.3295 38.275 59.0145 38.415C58.2095 38.765 57.3345 38.975 56.4245 38.975H55.8645C55.5145 38.975 55.3745 39.22 55.5145 39.57L55.6895 40.025L59.8545 49.615C59.9595 49.86 60.1695 50 60.4495 50H64.5445ZM81.7191 33.095C81.7191 28.65 78.1141 25.045 73.6691 25.045C69.2241 25.045 65.6191 28.65 65.6191 33.095V37.33C65.6191 37.61 65.7591 37.82 66.0041 37.925L69.2591 39.36C69.5041 39.465 69.6441 39.675 69.6441 39.955V42.37C69.6441 44.61 71.4291 46.395 73.6691 46.395C75.8741 46.395 77.6941 44.61 77.6941 42.405V33.095C77.6941 30.89 75.9091 29.07 73.6691 29.07C71.4291 29.07 69.6441 30.89 69.6441 33.095V36.84C69.6441 37.12 69.7491 37.33 70.0291 37.435L70.1691 37.505C70.4841 37.645 70.6941 37.47 70.6941 37.085V33.095C70.6941 31.485 72.0241 30.12 73.6691 30.12C75.3141 30.12 76.6441 31.485 76.6441 33.095V42.37C76.6441 44.015 75.3141 45.345 73.6691 45.345C72.0241 45.345 70.6941 44.015 70.6941 42.37V39.325C70.6941 39.045 70.5541 38.835 70.3091 38.73L67.0541 37.26C66.8091 37.155 66.6691 36.945 66.6691 36.665V33.095C66.6691 31.24 67.4041 29.49 68.7341 28.16C70.0291 26.83 71.8141 26.095 73.6691 26.095C75.5241 26.095 77.3091 26.83 78.6041 28.16C79.9341 29.49 80.6691 31.24 80.6691 33.095V42.37C80.6691 44.26 79.9341 46.01 78.6041 47.34C77.3091 48.67 75.5241 49.37 73.6691 49.37C71.8141 49.37 70.0291 48.67 68.7341 47.34C67.4041 46.01 66.6691 44.26 66.6691 42.37V39.78C66.6691 39.5 66.5641 39.29 66.2841 39.185L66.1441 39.115C65.8291 39.01 65.6191 39.185 65.6191 39.57V42.37C65.6191 46.85 69.2241 50.455 73.6691 50.455C78.1141 50.455 81.7191 46.85 81.7191 42.405V33.095ZM95.0459 25.465C94.6959 25.465 94.5209 25.64 94.5209 25.99V42.23C94.5209 43.105 94.1359 43.875 93.5409 44.4C93.3309 44.575 93.2259 44.75 93.2259 45.03V45.24C93.2259 45.59 93.5059 45.73 93.8559 45.485C94.8709 44.785 95.5709 43.595 95.5709 42.23V27.04C95.5709 26.69 95.7459 26.515 96.0959 26.515H98.2309C98.5809 26.515 98.7559 26.69 98.7559 27.04V42.23C98.7559 43.21 98.5809 44.12 98.2309 45.03C97.8459 45.87 97.3559 46.64 96.6909 47.27C96.0259 47.935 95.2559 48.46 94.4159 48.81C93.8909 49.055 93.2959 49.195 92.7359 49.3C92.3859 49.335 92.1759 49.125 92.1759 48.775V45.625C92.1759 45.275 91.6509 45.135 91.6509 45.135C90.0409 45.135 88.7459 43.84 88.7459 42.23V39.85C88.7459 39.5 88.5709 39.325 88.2209 39.325H83.9859C83.6359 39.325 83.4609 39.5 83.4609 39.85V42.23C83.4609 46.01 86.0159 49.195 89.4809 50.175C89.8659 50.28 90.0759 50.105 90.0759 49.72V49.65C90.0759 49.335 89.9359 49.16 89.6209 49.09C89.3759 49.02 89.1309 48.915 88.8509 48.81C88.0109 48.46 87.2409 47.935 86.6109 47.27C85.9459 46.64 85.4209 45.87 85.0709 45.03C84.6859 44.12 84.5109 43.21 84.5109 42.23V40.9C84.5109 40.55 84.6859 40.375 85.0359 40.375H87.1709C87.5209 40.375 87.6959 40.55 87.6959 40.9V42.23C87.6959 44.05 88.9559 45.59 90.6709 46.045C90.9509 46.15 91.1259 46.325 91.1259 46.64V49.93C91.1259 50.28 91.3009 50.455 91.6509 50.455C96.1659 50.455 99.8409 46.745 99.8409 42.23V25.99C99.8409 25.64 99.6659 25.465 99.3159 25.465H95.0459ZM115.393 26.025C115.393 25.675 115.218 25.5 114.868 25.5H102.443C102.093 25.5 101.918 25.675 101.918 26.025V39.395C101.918 39.745 102.093 39.92 102.443 39.92H105.418C105.768 39.92 105.943 40.095 105.943 40.445V45.345C105.943 45.695 106.118 45.87 106.468 45.87H113.818C114.168 45.87 114.343 46.045 114.343 46.395V48.425C114.343 48.775 114.168 48.95 113.818 48.95H103.493C103.143 48.95 102.968 48.775 102.968 48.425V41.495C102.968 41.145 102.793 40.97 102.443 40.97C102.093 40.97 101.918 41.145 101.918 41.495V49.475C101.918 49.825 102.093 50 102.443 50H114.868C115.218 50 115.393 49.825 115.393 49.475V45.345C115.393 44.995 115.218 44.82 114.868 44.82H107.518C107.168 44.82 106.993 44.645 106.993 44.295V39.395C106.993 39.045 106.818 38.87 106.468 38.87H103.493C103.143 38.87 102.968 38.695 102.968 38.345V27.075C102.968 26.725 103.143 26.55 103.493 26.55H113.818C114.168 26.55 114.343 26.725 114.343 27.075V29.07C114.343 29.42 114.168 29.595 113.818 29.595H106.468C106.118 29.595 105.943 29.77 105.943 30.12V35.545C105.943 35.895 106.118 36.07 106.468 36.07H111.718C112.068 36.07 112.243 36.245 112.243 36.595V38.345C112.243 38.695 112.068 38.87 111.718 38.87H108.568C108.218 38.87 108.043 39.045 108.043 39.395C108.043 39.745 108.218 39.92 108.568 39.92H112.768C113.118 39.92 113.293 39.745 113.293 39.395V35.545C113.293 35.195 113.118 35.02 112.768 35.02H107.518C107.168 35.02 106.993 34.845 106.993 34.495V31.17C106.993 30.82 107.168 30.645 107.518 30.645H114.868C115.218 30.645 115.393 30.47 115.393 30.12V26.025ZM116.479 37.33C116.479 37.61 116.619 37.82 116.864 37.925L120.119 39.36C120.364 39.465 120.504 39.675 120.504 39.955V42.37C120.504 44.61 122.289 46.395 124.529 46.395C126.384 46.395 127.994 45.135 128.414 43.385C128.519 43.07 128.694 42.895 129.009 42.895H130.934C131.284 42.895 131.494 43.105 131.424 43.455C131.214 44.925 130.549 46.29 129.464 47.34C128.169 48.67 126.384 49.37 124.529 49.37C122.674 49.37 120.889 48.67 119.594 47.34C118.264 46.01 117.529 44.26 117.529 42.37V39.78C117.529 39.5 117.424 39.29 117.144 39.185L117.004 39.115C116.689 39.01 116.479 39.185 116.479 39.57V42.37C116.479 46.85 120.084 50.455 124.529 50.455C128.974 50.455 132.579 46.85 132.579 42.37V42.125C132.579 41.95 132.404 41.88 132.054 41.88H128.029C127.679 41.88 127.504 42.055 127.504 42.405C127.504 44.015 126.174 45.345 124.529 45.345C122.884 45.345 121.554 44.015 121.554 42.37V39.325C121.554 39.045 121.414 38.835 121.169 38.73L117.914 37.26C117.669 37.155 117.529 36.945 117.529 36.665V33.095C117.529 31.24 118.264 29.49 119.594 28.16C120.889 26.83 122.674 26.095 124.529 26.095C126.384 26.095 128.169 26.83 129.464 28.16C130.549 29.21 131.214 30.575 131.424 32.01C131.494 32.36 131.284 32.57 130.934 32.57H129.009C128.694 32.57 128.519 32.395 128.414 32.115C127.994 30.365 126.384 29.07 124.529 29.07C122.289 29.07 120.504 30.89 120.504 33.095V36.84C120.504 37.12 120.609 37.33 120.889 37.435L121.029 37.505C121.344 37.645 121.554 37.47 121.554 37.085V33.095C121.554 31.485 122.884 30.12 124.529 30.12C126.174 30.12 127.504 31.485 127.504 33.095V33.34C127.504 33.515 127.679 33.62 128.029 33.62H132.054C132.404 33.62 132.579 33.445 132.579 33.095C132.579 28.65 128.974 25.045 124.529 25.045C120.084 25.045 116.479 28.65 116.479 33.095V37.33ZM134.162 25.5C133.812 25.5 133.637 25.675 133.637 26.025V30.05C133.637 30.4 133.812 30.575 134.162 30.575H138.362C138.712 30.575 138.887 30.4 138.887 30.05C138.887 29.7 138.712 29.525 138.362 29.525H135.212C134.862 29.525 134.687 29.35 134.687 29V27.075C134.687 26.725 134.862 26.55 135.212 26.55H149.912C150.262 26.55 150.437 26.725 150.437 27.075V29C150.437 29.35 150.262 29.525 149.912 29.525H140.462C140.112 29.525 139.937 29.7 139.937 30.05V49.475C139.937 49.825 140.112 50 140.462 50H144.662C145.012 50 145.187 49.825 145.187 49.475V32.15C145.187 31.8 145.012 31.625 144.662 31.625C144.312 31.625 144.137 31.8 144.137 32.15V48.425C144.137 48.775 143.962 48.95 143.612 48.95H141.512C141.162 48.95 140.987 48.775 140.987 48.425V31.1C140.987 30.75 141.162 30.575 141.512 30.575H150.962C151.312 30.575 151.487 30.4 151.487 30.05V26.025C151.487 25.675 151.312 25.5 150.962 25.5H134.162ZM156.765 37.855C157.01 37.61 157.01 37.365 156.73 37.12C155.155 35.755 153.93 34.145 153.93 31.975C153.93 28.755 156.555 26.095 159.81 26.095C162.645 26.095 165.06 28.195 165.55 30.89C165.62 31.24 165.41 31.45 165.06 31.45H163.03C162.715 31.45 162.575 31.31 162.47 30.995C162.05 29.91 161 29.14 159.81 29.14C158.235 29.14 156.94 30.4 156.94 31.975C156.94 33.445 158.095 34.6 159.53 35.755C159.81 36 159.845 36.245 159.6 36.49L157.955 38.135L157.605 38.52C157.36 38.765 157.395 39.01 157.675 39.255L158.06 39.535L158.27 39.71C160.055 41.04 161.595 42.195 161.595 43.525C161.595 44.505 160.79 45.31 159.81 45.31C158.795 45.31 157.99 44.505 157.99 43.525V43.245C157.99 43.105 157.815 43 157.465 43H153.405C153.055 43 152.88 43.175 152.88 43.525C152.88 47.34 155.995 50.455 159.81 50.455C163.59 50.455 166.705 47.34 166.705 43.525C166.705 41.88 166.11 40.375 164.885 38.94C164.29 38.24 163.555 37.575 162.82 36.945C162.575 36.735 162.33 36.735 162.085 36.98L162.05 37.015C161.805 37.26 161.84 37.505 162.12 37.75C163.975 39.255 165.655 41.04 165.655 43.525C165.655 46.745 163.03 49.37 159.81 49.37C156.94 49.37 154.525 47.305 154.035 44.61C153.965 44.26 154.175 44.05 154.525 44.05H156.555C156.87 44.05 157.01 44.19 157.115 44.505C157.535 45.59 158.585 46.36 159.81 46.36C161.35 46.36 162.645 45.1 162.645 43.525C162.645 41.67 160.825 40.305 158.9 38.87L158.865 38.835C158.83 38.8 158.935 38.66 159.215 38.38L160.825 36.735L161.21 36.35C161.455 36.14 161.49 35.93 161.315 35.79L160.755 35.37C159.215 34.215 157.99 33.165 157.99 31.975C157.99 30.995 158.795 30.19 159.81 30.19C160.79 30.19 161.595 30.995 161.595 31.975V32.22C161.595 32.395 161.77 32.5 162.12 32.5H166.18C166.53 32.5 166.705 32.325 166.705 31.975C166.705 28.16 163.59 25.045 159.81 25.045C155.995 25.045 152.88 28.16 152.88 31.975C152.88 33.62 153.475 35.125 154.7 36.56C155.085 37.015 155.54 37.47 155.995 37.89C156.24 38.135 156.52 38.1 156.73 37.89L156.765 37.855Z" fill="#09FBD3"/>
</svg>
