<svg width="200" height="72" viewBox="0 0 200 72" fill="none" xmlns="http://www.w3.org/2000/svg"><path d="M.75 1.25v69.5h-.5V1.25h.5zM199.75 1.25v69.5h-.5V1.25h.5zM.25 71.25h199.5v.5H.25v-.5zM.25.25h199.5v.5H.25v-.5z" stroke="#09FBD3" stroke-width=".5"/><path d="M60.735 40.427l3.92 9.062.001.005c.052.115.041.163.038.173-.007.007-.042.033-.15.033H60.45c-.163 0-.263-.07-.32-.203l-4.163-9.586-.172-.449-.002-.003c-.044-.11-.031-.158-.028-.166a.227.227 0 01.1-.018h.56c.956 0 1.872-.22 2.71-.585h.001c.338-.151.636-.337.927-.555.325-.217.654-.473.949-.768a6.436 6.436 0 001.907-4.622c0-1.725-.661-3.34-1.907-4.587a6.416 6.416 0 00-4.587-1.908h-5.706c-.22 0-.442.055-.605.22-.164.163-.22.384-.22.605v21.35c0 .221.056.442.22.606.163.163.384.219.605.219h2.1c.222 0 .443-.056.606-.22.164-.163.22-.384.22-.605V35.37c0-.129.031-.17.043-.182.011-.011.053-.043.181-.043h2.556c1.317 0 2.4-1.041 2.4-2.4 0-1.32-1.08-2.4-2.4-2.4h-2.52c-.13 0-.17-.032-.182-.043-.011-.012-.044-.053-.044-.182s.032-.17.044-.182c.011-.011.053-.043.181-.043h2.52a2.86 2.86 0 012.85 2.85 2.837 2.837 0 01-2.85 2.85H54.92c-.22 0-.442.056-.605.22-.164.163-.22.384-.22.605v13.055c0 .129-.032.17-.043.182-.011.011-.053.043-.181.043h-4.2c-.13 0-.17-.032-.182-.043-.011-.012-.044-.053-.044-.182v-23.45c0-.129.032-.17.044-.182.011-.011.053-.043.181-.043h6.756c3.824 0 6.945 3.12 6.945 6.945a6.978 6.978 0 01-3.29 5.94 6.629 6.629 0 01-.623.33l-.22.108c-.608.27-1.24.468-1.897.534h-.012l-.012.003c-.227.041-.459.136-.59.346-.137.22-.108.47-.02.69l3.573 7.987v.003a.912.912 0 00.87.564h1.995c.247 0 .509-.08.656-.309.147-.23.112-.505.003-.745l-3.43-7.56-.005-.01c-.039-.078-.033-.122-.022-.151a.294.294 0 01.101-.121c.038-.001.086 0 .134.007.12.018.15.055.154.066zm0 0s0 0 0 0zm5.224-1.04h.002l.004-.002a.18.18 0 01.067.01l.132.065.015.006c.087.032.125.072.146.107.024.04.044.103.044.207v2.59c0 1.97.767 3.795 2.152 5.18 1.355 1.392 3.219 2.12 5.148 2.12 1.93 0 3.793-.728 5.149-2.12a7.261 7.261 0 002.151-5.18v-9.275c0-1.936-.767-3.76-2.151-5.146a7.181 7.181 0 00-5.149-2.154 7.18 7.18 0 00-5.148 2.154c-1.385 1.385-2.152 3.21-2.152 5.146v3.57a.912.912 0 00.567.87l3.25 1.468.005.003c.132.056.203.157.203.319v3.045a3.273 3.273 0 003.275 3.275 3.272 3.272 0 003.275-3.275v-9.275c0-1.773-1.462-3.275-3.275-3.275s-3.275 1.502-3.275 3.275v3.99a.44.44 0 01-.03.168.224.224 0 01-.068-.02l-.147-.073-.014-.006c-.087-.032-.126-.072-.147-.107a.395.395 0 01-.044-.207v-3.745a3.726 3.726 0 017.45 0v9.31c0 2.036-1.682 3.69-3.725 3.69a3.703 3.703 0 01-3.725-3.725v-2.415a.912.912 0 00-.567-.87l-3.252-1.434-.003-.002c-.132-.056-.203-.157-.203-.319v-4.235a7.751 7.751 0 0115.5 0v9.31c0 4.28-3.47 7.75-7.75 7.75-4.278 0-7.75-3.47-7.75-7.785v-2.8c0-.07.01-.118.02-.147a.138.138 0 01.014-.03l.006-.007zm0 0s0 0 0 0zm18.835 5.76a6.88 6.88 0 001.605 2.335 6.879 6.879 0 002.337 1.605l.01.004.211.081c.195.076.39.152.582.206l.008.003.009.002c.117.026.16.062.177.084.018.021.043.069.043.183v.07c0 .07-.01.116-.02.143-.01.026-.018.032-.018.032s-.007.006-.033.009a.41.41 0 01-.144-.018c-3.34-.945-5.8-4.015-5.8-7.656v-2.38c0-.129.032-.17.043-.182.012-.011.053-.043.182-.043h4.235c.129 0 .17.032.182.043.011.012.043.053.043.182v2.38c0 1.76 1.404 3.18 3.158 3.205a.988.988 0 01.155.071c.11.066.117.11.117.119v3.15c0 .233.07.46.242.624.173.165.407.224.648.2l.013-.002.012-.002c.564-.106 1.187-.25 1.746-.51a7.377 7.377 0 002.363-1.6c.7-.663 1.208-1.467 1.604-2.33l.004-.009.003-.008c.363-.944.545-1.89.545-2.908V27.04c0-.221-.056-.442-.22-.606-.163-.164-.384-.219-.605-.219h-2.135c-.221 0-.442.055-.606.22-.163.163-.22.384-.22.605v15.19a3.66 3.66 0 01-1.584 3.008l-.002.001a.389.389 0 01-.15.069.211.211 0 01-.008-.068v-.21c0-.1.018-.165.045-.216a.62.62 0 01.162-.184l.006-.005a3.18 3.18 0 001.082-2.395V25.99c0-.129.032-.17.043-.182.012-.011.053-.043.182-.043h4.27c.129 0 .17.032.182.043.01.012.043.053.043.182v16.24c0 4.351-3.542 7.925-7.89 7.925-.129 0-.17-.032-.182-.043-.011-.012-.043-.053-.043-.182v-3.29a.87.87 0 00-.19-.566 1.059 1.059 0 00-.46-.31l-.014-.005-.014-.004c-1.59-.422-2.752-1.848-2.752-3.525V40.9c0-.221-.056-.442-.22-.606-.163-.163-.384-.219-.605-.219h-2.135c-.221 0-.442.055-.606.22-.164.163-.22.384-.22.605v1.33a7.32 7.32 0 00.584 2.916zm0 0l.277-.117m-.277.116s0 0 0 0zm.277-.116c.35.84.875 1.61 1.54 2.24.63.665 1.4 1.19 2.24 1.54l.228.087c.19.074.366.143.542.193.315.07.455.245.455.56v.07c0 .385-.21.56-.595.455-3.465-.98-6.02-4.165-6.02-7.945v-2.38c0-.35.175-.525.525-.525h4.235c.35 0 .525.175.525.525v2.38a2.898 2.898 0 002.905 2.905s.525.14.525.49v3.15c0 .35.21.56.56.525.56-.105 1.155-.245 1.68-.49.84-.35 1.61-.875 2.275-1.54.665-.63 1.155-1.4 1.54-2.24.35-.91.525-1.82.525-2.8V27.04c0-.35-.175-.525-.525-.525h-2.135c-.35 0-.525.175-.525.525v15.19a3.96 3.96 0 01-1.715 3.255c-.35.245-.63.105-.63-.245v-.21c0-.28.105-.455.315-.63a2.88 2.88 0 00.98-2.17V25.99c0-.35.175-.525.525-.525h4.27c.35 0 .525.175.525.525v16.24c0 4.515-3.675 8.225-8.19 8.225-.35 0-.525-.175-.525-.525v-3.29c0-.315-.175-.49-.455-.595-1.715-.455-2.975-1.995-2.975-3.815V40.9c0-.35-.175-.525-.525-.525h-2.135c-.35 0-.525.175-.525.525v1.33c0 .98.175 1.89.56 2.8zm31.748-5.644h.005a.18.18 0 01.067.008l.132.066.015.006c.087.032.125.072.147.107.024.04.044.103.044.207v2.59a7.26 7.26 0 002.151 5.18c1.355 1.392 3.219 2.12 5.149 2.12 1.928 0 3.791-.727 5.146-2.118a6.978 6.978 0 002.044-4.047c.047-.242.003-.482-.161-.663-.161-.177-.394-.247-.624-.247h-1.925a.851.851 0 00-.573.2c-.152.131-.245.31-.307.495l-.004.012-.003.013c-.387 1.612-1.874 2.78-3.593 2.78a3.703 3.703 0 01-3.725-3.725v-2.415a.912.912 0 00-.566-.87h-.001l-3.252-1.434-.003-.002c-.133-.056-.203-.157-.203-.319v-4.235a7.75 7.75 0 0115.5 0c0 .129-.032.17-.044.182-.011.011-.053.043-.181.043h-4.025a.717.717 0 01-.225-.027v-.198c0-1.773-1.463-3.275-3.275-3.275-1.813 0-3.275 1.502-3.275 3.275v3.99a.45.45 0 01-.02.146.131.131 0 01-.01.022.221.221 0 01-.068-.02l-.147-.073-.015-.006c-.087-.032-.125-.072-.147-.107a.396.396 0 01-.043-.207v-3.745a3.725 3.725 0 013.725-3.725c1.715 0 3.205 1.2 3.593 2.815l.004.018.007.017c.063.17.158.336.309.46.157.128.349.19.567.19h1.925c.23 0 .463-.07.624-.247.164-.18.208-.422.161-.664a6.997 6.997 0 00-2.044-4.011 7.179 7.179 0 00-5.146-2.153 7.181 7.181 0 00-5.149 2.154c-1.384 1.385-2.151 3.21-2.151 5.146v3.57c0 .397.208.716.563.87h.003l3.25 1.468.005.003c.133.056.204.157.204.319v3.045a3.272 3.272 0 003.275 3.275c1.808 0 3.275-1.462 3.275-3.24 0-.129.032-.17.043-.182.011-.011.053-.043.182-.043h4.025c.078 0 .14.004.187.01l.038.007v.173c0 4.315-3.472 7.785-7.75 7.785-4.279 0-7.75-3.47-7.75-7.785v-2.8c0-.07.009-.118.02-.147a.168.168 0 01.013-.03.029.029 0 01.007-.007zm0 0s0 0 0 0zM37.5 29.928l.015.002h2.64c1.587 0 2.85 1.268 2.85 2.815a2.837 2.837 0 01-2.85 2.85h-1.61c-.221 0-.442.056-.606.22-.163.163-.219.384-.219.605v13.055c0 .129-.032.17-.043.182-.012.011-.053.043-.182.043H33.4c-.129 0-.17-.032-.182-.043-.011-.012-.043-.053-.043-.182v-23.45c0-.129.032-.17.043-.182.012-.011.053-.043.182-.043h6.755c3.824 0 6.945 3.12 6.945 6.945 0 3.86-3.122 6.98-6.945 6.98h-.56c-.129 0-.17-.032-.182-.043-.011-.012-.043-.053-.043-.182s.032-.17.043-.182c.012-.011.053-.043.182-.043h.56c1.725 0 3.34-.662 4.587-1.908a6.437 6.437 0 001.908-4.622c0-1.725-.662-3.34-1.908-4.587a6.415 6.415 0 00-4.587-1.908H34.45c-.221 0-.442.055-.606.22-.163.163-.219.384-.219.605v21.35c0 .221.056.442.22.606.163.163.384.219.605.219h2.03c.221 0 .442-.056.606-.22.163-.163.219-.384.219-.605V35.37c0-.129.032-.17.043-.182.012-.011.053-.043.182-.043h2.625c1.317 0 2.4-1.041 2.4-2.4 0-1.32-1.08-2.4-2.4-2.4H37.53c-.129 0-.17-.032-.182-.043-.011-.012-.043-.053-.043-.182 0-.132.033-.168.038-.172.002-.002.033-.032.157-.02zm18.014 9.642l.175.455 4.166 9.59a.613.613 0 00.595.385h4.094c.386 0 .56-.245.386-.63l-3.92-9.065c-.14-.315-.666-.245-.666-.245-.28.175-.385.42-.245.7l3.43 7.56c.175.385 0 .63-.385.63H61.15c-.28 0-.49-.14-.596-.385l-3.57-7.98c-.14-.35 0-.56.386-.63.7-.07 1.364-.28 1.995-.56.069-.035.14-.069.212-.104.22-.107.452-.22.663-.351a7.278 7.278 0 003.43-6.195c0-3.99-3.256-7.245-7.245-7.245H49.67c-.35 0-.526.175-.526.525v23.45c0 .35.175.525.526.525h4.2c.35 0 .525-.175.525-.525V36.42c0-.35.174-.525.524-.525h1.506c1.75 0 3.15-1.4 3.15-3.15a3.16 3.16 0 00-3.15-3.15h-2.52c-.35 0-.526.175-.526.525 0 .35.175.525.526.525h2.52c1.155 0 2.1.945 2.1 2.1 0 1.19-.945 2.1-2.1 2.1H53.87c-.35 0-.526.175-.526.525v13.055c0 .35-.175.525-.525.525h-2.1c-.35 0-.525-.175-.525-.525v-21.35c0-.35.175-.525.525-.525h5.706c1.645 0 3.184.63 4.375 1.82a6.116 6.116 0 011.82 4.375c0 1.68-.63 3.22-1.82 4.41a5.98 5.98 0 01-.91.735c-.28.21-.56.385-.876.525-.805.35-1.68.56-2.59.56h-.56c-.35 0-.49.245-.35.595zm10.77-.385l-.14-.07c-.315-.105-.525.07-.525.455v2.8c0 4.48 3.605 8.085 8.05 8.085a8.051 8.051 0 008.05-8.05v-9.31a8.051 8.051 0 00-16.1 0v4.235c0 .28.14.49.385.595l3.255 1.435a.613.613 0 01.385.595v2.415a4.003 4.003 0 004.025 4.025c2.205 0 4.025-1.785 4.025-3.99v-9.31a4.026 4.026 0 00-8.05 0v3.745c0 .28.105.49.385.595l.14.07c.315.14.525-.035.525-.42v-3.99c0-1.61 1.33-2.975 2.975-2.975s2.975 1.365 2.975 2.975v9.275a2.973 2.973 0 01-2.975 2.975 2.973 2.973 0 01-2.975-2.975v-3.045c0-.28-.14-.49-.385-.595l-3.255-1.47a.613.613 0 01-.385-.595v-3.57c0-1.855.735-3.605 2.065-4.935a6.881 6.881 0 014.935-2.065c1.855 0 3.64.735 4.935 2.065 1.33 1.33 2.065 3.08 2.065 4.935v9.275c0 1.89-.735 3.64-2.065 4.97-1.295 1.33-3.08 2.03-4.935 2.03-1.855 0-3.64-.7-4.935-2.03a6.961 6.961 0 01-2.065-4.97v-2.59c0-.28-.105-.49-.385-.595zM114.868 25.8c.129 0 .17.032.182.043.011.012.043.053.043.182v4.095c0 .129-.032.17-.043.182-.012.011-.053.043-.182.043h-7.35c-.221 0-.442.056-.606.22-.164.163-.219.384-.219.605v3.325c0 .221.055.442.219.606.164.163.385.219.606.219h5.25c.129 0 .17.032.182.043.011.012.043.053.043.182v3.85c0 .129-.032.17-.043.182-.012.011-.053.043-.182.043h-4.2c-.129 0-.17-.032-.182-.043-.011-.012-.043-.053-.043-.182s.032-.17.043-.182c.012-.011.053-.043.182-.043h3.15c.221 0 .442-.056.606-.22.163-.163.219-.384.219-.605v-1.75c0-.221-.056-.442-.219-.606-.164-.163-.385-.219-.606-.219h-5.25c-.129 0-.17-.032-.182-.043-.011-.012-.043-.053-.043-.182V30.12c0-.129.032-.17.043-.182.012-.011.053-.043.182-.043h7.35c.221 0 .442-.055.606-.22.163-.163.219-.384.219-.605v-1.995c0-.221-.056-.442-.219-.606-.164-.164-.385-.219-.606-.219h-10.325c-.221 0-.442.055-.606.22-.164.163-.219.384-.219.605v11.27c0 .221.055.442.219.606.164.163.385.219.606.219h2.975c.129 0 .17.032.182.043.011.012.043.053.043.182v4.9c0 .221.055.442.219.606.164.163.385.219.606.219h7.35c.129 0 .17.032.182.043.011.012.043.053.043.182v4.13c0 .129-.032.17-.043.182-.012.011-.053.043-.182.043h-12.425c-.129 0-.17-.032-.182-.043-.011-.012-.043-.053-.043-.182v-7.98c0-.129.032-.17.043-.182.012-.011.053-.043.182-.043s.17.032.182.043c.011.012.043.053.043.182v6.93c0 .221.055.442.219.606.164.163.385.219.606.219h10.325c.221 0 .442-.056.606-.22.163-.163.219-.384.219-.605v-2.03c0-.221-.056-.442-.219-.606-.164-.163-.385-.219-.606-.219h-7.35c-.129 0-.17-.032-.182-.043-.011-.012-.043-.053-.043-.182v-4.9c0-.221-.056-.442-.219-.606-.164-.163-.385-.219-.606-.219h-2.975c-.129 0-.17-.032-.182-.043-.011-.012-.043-.053-.043-.182v-13.37c0-.129.032-.17.043-.182.012-.011.053-.043.182-.043h12.425zm14.596 2.36a6.697 6.697 0 011.96 3.85c.07.35-.14.56-.49.56h-1.925c-.315 0-.49-.175-.595-.455-.42-1.75-2.03-3.045-3.885-3.045a4.026 4.026 0 00-4.025 4.025v3.745c0 .28.105.49.385.595l.14.07c.315.14.525-.035.525-.42v-3.99c0-1.61 1.33-2.975 2.975-2.975s2.975 1.365 2.975 2.975v.245c0 .175.175.28.525.28h4.025c.35 0 .525-.175.525-.525a8.051 8.051 0 00-16.1 0v4.235c0 .28.14.49.385.595l3.255 1.435a.613.613 0 01.385.595v2.415a4.003 4.003 0 004.025 4.025c1.855 0 3.465-1.26 3.885-3.01.105-.315.28-.49.595-.49h1.925c.35 0 .56.21.49.56a6.686 6.686 0 01-1.96 3.885c-1.295 1.33-3.08 2.03-4.935 2.03-1.855 0-3.64-.7-4.935-2.03a6.961 6.961 0 01-2.065-4.97v-2.59c0-.28-.105-.49-.385-.595l-.14-.07c-.315-.105-.525.07-.525.455v2.8c0 4.48 3.605 8.085 8.05 8.085s8.05-3.605 8.05-8.085v-.245c0-.175-.175-.245-.525-.245h-4.025c-.35 0-.525.175-.525.525 0 1.61-1.33 2.94-2.975 2.94a2.973 2.973 0 01-2.975-2.975v-3.045c0-.28-.14-.49-.385-.595l-3.255-1.47a.613.613 0 01-.385-.595v-3.57c0-1.855.735-3.605 2.065-4.935a6.881 6.881 0 014.935-2.065c1.855 0 3.64.735 4.935 2.065zm4.473-2.135c0-.129.032-.17.043-.182.011-.011.053-.043.182-.043h16.8c.128 0 .17.032.181.043.012.012.044.053.044.182v4.025c0 .129-.032.17-.044.182-.011.011-.053.043-.181.043h-9.45c-.222 0-.443.056-.606.22-.164.163-.219.384-.219.605v17.325c0 .221.055.442.219.606.163.163.384.219.606.219h2.1c.221 0 .442-.056.606-.22.163-.163.219-.384.219-.605V32.15c0-.129.032-.17.043-.182.012-.011.053-.043.182-.043.128 0 .17.032.181.043.012.012.044.053.044.182v17.325c0 .129-.032.17-.044.182-.011.011-.053.043-.181.043h-4.2c-.129 0-.171-.032-.182-.043-.011-.012-.043-.053-.043-.182V30.05c0-.129.032-.17.043-.182.011-.011.053-.043.182-.043h9.45c.221 0 .442-.055.606-.22.163-.163.219-.384.219-.605v-1.925c0-.221-.056-.442-.219-.606-.164-.164-.385-.219-.606-.219h-14.7c-.222 0-.443.055-.606.22-.164.163-.219.384-.219.605V29c0 .221.055.442.219.606.163.163.384.219.606.219h3.15c.128 0 .17.032.181.043.012.012.044.053.044.182s-.032.17-.044.182c-.011.011-.053.043-.181.043h-4.2c-.129 0-.171-.032-.182-.043-.011-.012-.043-.053-.043-.182v-4.025zm26.888 10.71l.385-.385c.245-.21.28-.42.105-.56l-.56-.42c-1.54-1.155-2.765-2.205-2.765-3.395 0-.98.805-1.785 1.82-1.785.98 0 1.785.805 1.785 1.785v.245c0 .175.175.28.525.28h4.06c.35 0 .525-.175.525-.525 0-3.815-3.115-6.93-6.895-6.93-3.815 0-6.93 3.115-6.93 6.93 0 1.645.595 3.15 1.82 4.585.385.455.84.91 1.295 1.33.245.245.525.21.735 0l.035-.035c.245-.245.245-.49-.035-.735-1.575-1.365-2.8-2.975-2.8-5.145 0-3.22 2.625-5.88 5.88-5.88 2.835 0 5.25 2.1 5.74 4.795.07.35-.14.56-.49.56h-2.03c-.315 0-.455-.14-.56-.455-.42-1.085-1.47-1.855-2.66-1.855-1.575 0-2.87 1.26-2.87 2.835 0 1.47 1.155 2.625 2.59 3.78.28.245.315.49.07.735l-1.645 1.645-.35.385c-.245.245-.21.49.07.735l.385.28.21.175c1.785 1.33 3.325 2.485 3.325 3.815 0 .98-.805 1.785-1.785 1.785-1.015 0-1.82-.805-1.82-1.785v-.28c0-.14-.175-.245-.525-.245h-4.06c-.35 0-.525.175-.525.525 0 3.815 3.115 6.93 6.93 6.93 3.78 0 6.895-3.115 6.895-6.93 0-1.645-.595-3.15-1.82-4.585-.595-.7-1.33-1.365-2.065-1.995-.245-.21-.49-.21-.735.035l-.035.035c-.245.245-.21.49.07.735 1.855 1.505 3.535 3.29 3.535 5.775a5.855 5.855 0 01-5.845 5.845c-2.87 0-5.285-2.065-5.775-4.76-.07-.35.14-.56.49-.56h2.03c.315 0 .455.14.56.455a2.896 2.896 0 002.695 1.855c1.54 0 2.835-1.26 2.835-2.835 0-1.855-1.82-3.22-3.745-4.655l-.035-.035c-.035-.035.07-.175.35-.455l1.61-1.645zm-1.822 1.433l-.002.001c-.141.141-.248.257-.318.348a.78.78 0 00-.095.157c-.012.03-.088.22.065.373l.05.05.018.014c.968.721 1.88 1.404 2.553 2.133.67.725 1.071 1.46 1.071 2.281a2.545 2.545 0 01-2.535 2.535 2.596 2.596 0 01-2.413-1.657c-.058-.174-.141-.347-.289-.472a.823.823 0 00-.553-.181h-2.03c-.231 0-.463.07-.625.247-.165.182-.208.425-.16.67.517 2.836 3.056 5.003 6.07 5.003a6.155 6.155 0 006.145-6.145c0-2.632-1.782-4.495-3.642-6.004-.11-.098-.125-.156-.127-.17 0-.003-.007-.04.076-.124l.035-.035c.089-.088.143-.1.166-.1.023-.001.075.006.162.08.733.629 1.453 1.282 2.032 1.963 1.185 1.389 1.748 2.826 1.748 4.39 0 3.65-2.982 6.63-6.595 6.63-3.649 0-6.63-2.98-6.63-6.63 0-.129.032-.17.043-.182.012-.011.053-.043.182-.043h4.06c.111 0 .183.013.225.025v.2c0 1.15.943 2.085 2.12 2.085 1.146 0 2.085-.94 2.085-2.085 0-.785-.454-1.48-1.079-2.117-.626-.64-1.476-1.275-2.36-1.934l-.212-.176-.381-.277c-.105-.095-.12-.151-.122-.166 0-.004-.005-.042.076-.123l.005-.005.35-.385 1.64-1.64c.162-.162.274-.369.248-.611-.025-.23-.166-.417-.332-.562l-.01-.008c-.714-.574-1.337-1.133-1.782-1.72-.442-.582-.696-1.176-.696-1.826 0-1.405 1.156-2.535 2.57-2.535 1.057 0 1.998.684 2.378 1.657.058.174.141.347.289.472.158.135.35.181.553.181h2.03c.231 0 .463-.07.624-.247.166-.182.209-.425.161-.669-.517-2.833-3.053-5.039-6.035-5.039-3.422 0-6.18 2.795-6.18 6.18 0 2.299 1.303 3.985 2.903 5.372.106.093.111.144.111.151.001.007 0 .054-.091.145l-.035.035c-.065.065-.119.082-.153.083-.029 0-.083-.008-.158-.083l-.009-.008c-.449-.416-.895-.861-1.269-1.304h-.001c-1.186-1.39-1.748-2.827-1.748-4.391 0-3.65 2.981-6.63 6.63-6.63 3.613 0 6.595 2.98 6.595 6.63 0 .129-.032.17-.044.182-.011.011-.052.043-.181.043h-4.06a.728.728 0 01-.225-.027v-.198a2.092 2.092 0 00-2.085-2.085c-1.177 0-2.12.936-2.12 2.085 0 .703.362 1.332.882 1.911.52.58 1.233 1.147 2.003 1.724l.538.404-.007.01a.505.505 0 01-.091.098l-.009.008-.393.393-.003.002-1.607 1.643zM33.4 25.5c-.35 0-.525.175-.525.525v23.45c0 .35.175.525.525.525h4.095c.35 0 .525-.175.525-.525V36.42c0-.35.175-.525.525-.525h1.61c1.75 0 3.15-1.4 3.15-3.15 0-1.715-1.4-3.115-3.15-3.115H37.53c-.35-.035-.525.14-.525.49s.175.525.525.525h2.625c1.155 0 2.1.945 2.1 2.1 0 1.19-.945 2.1-2.1 2.1H37.53c-.35 0-.525.175-.525.525v13.055c0 .35-.175.525-.525.525h-2.03c-.35 0-.525-.175-.525-.525v-21.35c0-.35.175-.525.525-.525h5.705c1.645 0 3.185.63 4.375 1.82a6.116 6.116 0 011.82 4.375c0 1.68-.63 3.22-1.82 4.41a6.116 6.116 0 01-4.375 1.82h-.56c-.35 0-.525.175-.525.525 0 .35.175.525.525.525h.56c3.99 0 7.245-3.255 7.245-7.28 0-3.99-3.255-7.245-7.245-7.245H33.4zm81.993.525c0-.35-.175-.525-.525-.525h-12.425c-.35 0-.525.175-.525.525v13.37c0 .35.175.525.525.525h2.975c.35 0 .525.175.525.525v4.9c0 .35.175.525.525.525h7.35c.35 0 .525.175.525.525v2.03c0 .35-.175.525-.525.525h-10.325c-.35 0-.525-.175-.525-.525v-6.93c0-.35-.175-.525-.525-.525-.35 0-.525.175-.525.525v7.98c0 .35.175.525.525.525h12.425c.35 0 .525-.175.525-.525v-4.13c0-.35-.175-.525-.525-.525h-7.35c-.35 0-.525-.175-.525-.525v-4.9c0-.35-.175-.525-.525-.525h-2.975c-.35 0-.525-.175-.525-.525v-11.27c0-.35.175-.525.525-.525h10.325c.35 0 .525.175.525.525v1.995c0 .35-.175.525-.525.525h-7.35c-.35 0-.525.175-.525.525v5.425c0 .35.175.525.525.525h5.25c.35 0 .525.175.525.525v1.75c0 .35-.175.525-.525.525h-3.15c-.35 0-.525.175-.525.525 0 .35.175.525.525.525h4.2c.35 0 .525-.175.525-.525v-3.85c0-.35-.175-.525-.525-.525h-5.25c-.35 0-.525-.175-.525-.525V31.17c0-.35.175-.525.525-.525h7.35c.35 0 .525-.175.525-.525v-4.095zm18.769-.525c-.35 0-.525.175-.525.525v4.025c0 .35.175.525.525.525h4.2c.35 0 .525-.175.525-.525 0-.35-.175-.525-.525-.525h-3.15c-.35 0-.525-.175-.525-.525v-1.925c0-.35.175-.525.525-.525h14.7c.35 0 .525.175.525.525V29c0 .35-.175.525-.525.525h-9.45c-.35 0-.525.175-.525.525v19.425c0 .35.175.525.525.525h4.2c.35 0 .525-.175.525-.525V32.15c0-.35-.175-.525-.525-.525-.35 0-.525.175-.525.525v16.275c0 .35-.175.525-.525.525h-2.1c-.35 0-.525-.175-.525-.525V31.1c0-.35.175-.525.525-.525h9.45c.35 0 .525-.175.525-.525v-4.025c0-.35-.175-.525-.525-.525h-16.8z" stroke="#09FBD3" stroke-width=".3"/></svg>