<svg xmlns="http://www.w3.org/2000/svg" viewBox="0 0 559 801" fill="none"><g stroke="#09fbd3" stroke-width="3"><path d="M337.5 15.175c-49.52 1.744-107.988 2.696-150.32 31.14-30.998 20.806-41.702 56.795-36.89 90.47.124 1.177.568 2.298 1.284 3.24.614.81 1.41 1.463 2.318 1.91M335.5 2.675C288.522-.393 239.904 6.687 198.544 30.47c-22.04 12.688-41.43 27.4-50.45 52.255-8.796 24.212-9.512 49.48 2.907 73.95M-5.425 800.554c1.984-18.04 10.553-34.185 18.04-50.15 23-48.407 48.376-95.55 85.72-134.967a47.91 47.91 0 0 0 10.163-18.792c4.42-13.56 9.02-27.06 14.762-40.29 1.624 10.343-3.668 19.243-6.013 28.774-.66 2.706-2.435 5.382-2.255 7.997.3 4.33-8.028 10.554.51 12.478 7.186 1.623 12.96-3.668 13.17-12.027a244.81 244.81 0 0 1 5.202-39.086c1.563-8.238 6.314-17.348 4.09-24.323-1.834-6.013-11.876-9.02-18.04-13.7-6.873-4.985-12.107-11.904-15.033-19.874-4-12.808-12.027-15.755-24.053-12.267a50.38 50.38 0 0 1-7.096 1.022c1.654-10.703 10.403-10.373 17.44-9.5 9.47 1.143 12.688-3.006 15.033-11.064a268.77 268.77 0 0 1 13.98-39.657c1.895-4.24 3.638-11.185 9.02-9.652 6.284 1.804 2.316 8.208 1.203 12.297a150.8 150.8 0 0 0-5.502 42.755c.3 16.145 3.007 30.817 15.243 42.784a22.97 22.97 0 0 1 6.809 11.848c1.014 4.548.622 9.298-1.126 13.618-5.05 15.033-5.202 30.757-7.998 46.12-1.022 5.653 0 9.02 6.886 5.382 9.35-4.8 18.04-9.02 19.362-21.858 1.203-12.026 10.553-18.76 21.257-22.37 37.943-12.9 71.678-33.795 105.502-54.54 21.317-13.11 32.712-26.308 42.364-49.67-19.183 12.99-39.778 18.912-60.494 24.053-32.32 8.058-64.13 7.577-94.768-7.787-19.393-9.74-30.067-27.06-40.9-44.468-7.036-11.515-7.096-11.605-14.823 0l-28.563 43.085c-14.372 20.625-31.48 39.086-48.587 57.547-29.164 41.28-58.9 82.2-75.346 130.758-2.796 8.268-4.36 16.957-6.735 25.406-.992 3.517-.842 8.57-7.005 7.366v-7.216c4.3-2.796 3.608-7.697 4.42-11.666 4.175-21.257 12.063-41.612 23.3-60.132 29.285-47.294 57.336-95.37 94.71-137.102 18.04-20.054 31.028-43.656 45.1-66.536 4.54-7.427 4.27-11.366-6.013-13.8a714.28 714.28 0 0 0-126.79-19.092c-2.435-.15-6.404 1.804-6.585-2.646-.2-5.14 3.88-3.758 6.945-3.457 39.883 3.378 79.524 9.182 118.702 17.378 9.83 2.105 11.004-.782 9.32-9.26-4.03-20.355-1.233-40.32 2.015-60.704 5.32-33.464 11.184-67.048 10.583-101.143-.21-10.854 2.766-17.258 13.83-21.948s10.36-17.15 6.963-23.795l2.5-14c3.588-7.985 7.073-16.25 11.734-23.66 6.013-8.66 13.83-13.3 24.594-11.125a31.95 31.95 0 0 0 19.964-2.646c35.087-16.265 71.828-13.95 108.6-9.47 15.514 1.864 31.21.36 46.663 3.82 12.992 2.456 25.634 6.494 37.643 12.026a58.48 58.48 0 0 1 26.127 25.677 311 311 0 0 1 20.265 52.646 15.27 15.27 0 0 1 .601 10.613c-1.984 4.5-1.744 12.658-7.637 12.027s-2.044-7.908-3.006-12.027c-6.344-26.548-12.93-53.427-33.313-73.15-14.582-14.13-35.058-15.845-53.88-18.04-28.597-3.628-57.376-5.635-86.2-6.013-8.822-.076-17.595 1.337-25.947 4.18-16.236 5.713-32.32 12.027-50.18 10.614-6.464-.51-11.184 3.217-15.033 8.298-9.557 12.494-15.328 27.468-16.626 43.145-.902 8.6 1.714 12.748 11.245 11.816 19.813-1.984 36.8 6.013 52.946 16.266a31.07 31.07 0 0 1 8.118 7.095c3.428 4.42 5.17 9.44 2.075 14.462s-8.45 3.79-13.08 2.436c-15.033-4.45-29.555-10.133-45.1-12.93-18.52-3.337-19.242-2.525-28.232 13.56a100.78 100.78 0 0 0-12.808 45.761c-.992 22.49-7.035 44.257-9.892 66.476-1.658 14 .634 28.165 6.615 40.92 5.756 12.8 12.2 25.286 19.272 37.403 15.725 27.06 37.763 43.295 70.175 45.52 41.5 3.325 82.755-8.89 115.755-34.276 14.792-11.064 23.51-27.06 31.208-43.535 2.376-5.082 4-10.524 6.825-15.394 17.785-31.446 30.47-65.513 37.583-100.933a22 22 0 0 1 1.263-4.63c2.195-4.75 2.345-13.5 9.02-11.726 5.11 1.383 2.074 9.02.842 14.252 11.154-18.822 18.04-39.357 27.27-58.66 1.714-3.548 1.954-7.938 6.013-10.012 2.255.24 3.848.932 2.556 3.668-5.257 19.065-12.19 37.628-20.716 55.472-2.105 4.63-5.592 9.83 3.397 11.214.42 6.825-6.704 6.856-9.65 10.674-5.17 6.645-15.785 11.606-5.26 22.43 3.187 3.278.48 6.014-4.15 7.276-9.32 2.315-15.034 13.92-9.832 21.377 4.54 6.435 2.375 9.02-3.518 9.742-12.628 1.593-12.898 12.958-16.987 21.046-2.466 4.81 1.954 5.202 5.322 3.85 6.644-2.646 10.372-8.33 14.28-14.01 13.29-19.272 19.092-41.22 23.09-63.77 1.202-6.704 3.337-12.297 9.44-15.814 3.006.962 3.006 3.427 2.555 5.802-6.013 30.247-11.425 60.584-31.87 85.51-7.126 8.69-15.033 14.552-26.61 12.688-5.622-.932-7.787 1.954-9.77 6.464-5.723 13.21-12.774 25.8-21.047 37.583-2.465 3.457-4.33 6.764-1.353 10.883 12.508 17.258 16.026 38.124 22.73 57.667 5.413 17.26 14.328 33.217 26.188 46.874 50.842 56.704 96.603 117.438 141.31 178.954 9.832 13.5 12.027 27.06 9.772 42.844-2.405 16.176-6.284 32.2-6.374 48.677h-4.81c-1.713-17.017 3.578-33.073 6.014-49.73 1.924-13.35.36-24.775-7.698-36.08-44.658-63.607-92.84-124.667-144.317-182.892-19.243-21.738-25.617-48.317-34.486-74.264-3.007-8.63-4.12-18.04-10.764-25.045-3.91-4.15-8.238-5.17-9.5 1.353-9.77 49.97-51.112 68.61-89.266 90.38a470.69 470.69 0 0 1-42.935 21.287c-8.238 3.668-7.937 7.125-2.616 13.048 8.33 9.23 16.597 18.52 24.053 28.353 5.322 6.915 9.02 5.652 13.74-.27 3.457-4.36 7.727-8.027 11.605-12.026 2.105-.24 3.398.2 2.375 2.706-28.352 35.84-62.928 65.664-94.95 97.955L39.915 800.674H32.7c-1.143-7.426 5.2-10.342 9.2-14.28L220.01 610.776c12.478-12.718 12.568-13.23.842-26.037l-19.934-22.4c-6.494-7.547-11.184-6.014-17.528-1.744a20.35 20.35 0 0 0-7.893 8.833c-1.697 3.662-2.267 7.745-1.638 11.732.45 3.97 2.014 7.938 1.443 12.027-1.443 9.59 4.42 7.817 9.982 6.825a4.24 4.24 0 0 1 2.156 1.508 4.25 4.25 0 0 1 .851 2.491c-3.218 8.78-11.005 12.808-18.55 15.995-16.838 7.095-33.254-.512-49.97-1.834 6.584-7.667 14.672-8.088 23.03-7.186 4.303.936 8.725 1.2 13.11.78a9.32 9.32 0 0 0 5.42-2.397c1.497-1.367 2.508-3.185 2.878-5.18.45-2.375.842-5.17-1.202-6.765-3.548-2.766-6.705.27-10.012 1.323-48.106 15.334-76.338 51.594-99.58 93.566-17.498 31.57-34.305 63.41-47.114 97.234-1.293 4.214-3.68 8.01-6.915 11.004h-4.81z"/><path d="M410.558 316.358c.197-.508.483-1.248.545-2.027.24-2.6.54-5 1.054-7.05.52-2.064 1.22-3.575 2.138-4.517.845-.868 1.98-1.365 3.743-1.198 1.846.174 4.368 1.086 7.78 3.155l2.425 1.47-.15-2.832c-.124-2.35-.698-4.2-1.634-5.714s-2.166-2.55-3.46-3.368c-1.117-.706-2.335-1.27-3.448-1.787l-.44-.204-2.2-1.1a85.14 85.14 0 0 1 24.673-25.006l1.045 1c-3.585 6.55-5.655 13.488-7.247 20.46-.724 3.17-1.352 6.365-1.976 9.535l-.293 1.488c-.724 3.667-1.462 7.296-2.36 10.87-4.318 17.126-13.532 31.972-23.698 46.156l-.03.042-.027.045a17.17 17.17 0 0 1-9.117 7.256c-3.37 1.14-6.998 1.202-10.386.196 1.346-4.905 3.487-9.42 5.916-13.86 1.08-1.973 2.245-3.98 3.42-6.004 1.643-2.83 3.306-5.692 4.78-8.542l.001-.003c.622-1.2 1.143-1.62 1.453-1.76.272-.124.606-.144 1.163.044s1.127.5 1.856.918l.198.1c.745.417 1.688.934 2.68 1.162l.18.042.185-.004a8.51 8.51 0 0 0 4.852-1.64c.452-.265.64-.715.68-.833a1.74 1.74 0 0 0 .097-.538 3.37 3.37 0 0 0-.038-.556 9.54 9.54 0 0 0-.23-1.087c-.1-.37-.225-.776-.37-1.118-.07-.163-.168-.374-.3-.57a1.94 1.94 0 0 0-.335-.379 1.62 1.62 0 0 0-.925-.393l-.006-.001c-2.66-.2-3.886-.76-4.42-1.24-.407-.367-.568-.84-.438-1.717.136-.926.553-1.98 1.057-3.25l.054-.137c.482-1.22 1.062-2.696 1.156-4.085l.004-.05v-.05c0-.268.098-.596.332-1.207l.05-.126zM333.712 2.574c49.37.45 86.66 21.1 109.902 65.328 17.197 32.742 28.142 66.927 22.58 104.66-1.262 8.66-2.555 17.258-7.095 24.985l-1.924-3.007c-3.428-4-1.414-8.4-.812-12.568 7.125-50.66-4.96-96.512-37.583-135.598-19.844-23.782-82.28-31.2-82.28-31.2M315.755 524.43l-.02.018-53.887 50.652-.52-.592c10.043-12.327 21.644-23.093 33.334-33.943l16.6-15.732c15.865-15.67 32.07-32.404 40-55.066.24 1.177.332 2.026.292 2.8-.08 1.554-.68 2.904-2.2 6.306a144.39 144.39 0 0 1-33.591 45.548zm-98.952 221.956l-.012.12-11.72 8.33c-16.053 11.5-31.964 22.898-49.726 30.98l23.517-15.17 3.188-2.1 34.478-22.03a4.88 4.88 0 0 1 .274-.13zm11.95-7.9a50.1 50.1 0 0 1-10.339 7.093l-.43-.383c3.32-2.653 6.935-4.904 10.768-6.7zm-36.08-535.206c-10.4-2.92-21.063-5.222-32.494-5.692 3.234-2.4 7.37-3.97 12.08-4.718 6.128-.975 13.12-.56 20.074 1.06 12.537 2.918 24.604 9.655 31.158 18.704-4.584-1.304-9.103-2.7-13.614-4.126l-1.424-.448-15.78-4.78zm-54.236-7.652l.001-.01v-.01c.043-1.7.626-3.325 1.663-4.663a7.95 7.95 0 0 1 4.076-2.764c.86-.206 1.76-.154 2.593.148.84.305 1.57.853 2.097 1.573l.043.06.048.053c.74.83 1.08 1.535 1.22 2.137s.1 1.207-.084 1.88c-.2.7-.526 1.415-.964 2.24l-.5.913-.916 1.715h-.001l-.003.007c-2.586 5.235-4.946 10.62-7.3 15.968l-2 4.526-.065-6.227c-.073-5.876-.146-11.708.073-17.546z"/><path d="M187.033 601.238l-.42-.404c3.5-3.843 7.467-7.228 11.8-10.078-3.112 4.018-7.102 7.283-11.38 10.482z" fill="#c4c4c4"/><path d="M238.6 397.417l-.165-.025-.166.01c-17.083 1.164-30.498-3.356-41.643-11.457-11.185-8.132-20.147-19.92-28.192-33.392-.652-1.108-1.078-1.995-1.155-2.72-.035-.323.006-.57.105-.782s.306-.496.762-.8.667-.313.706-.3c.032.001.125.01.325.18.22.185.45.46.76.862l.112.147c.257.335.583.762.932 1.1 6.085 6.15 13.12 6.458 20.942 5.76 11.047-.863 21.425 1.454 31.694 4.863 4.913 1.63 9.776 3.504 14.677 5.4l.675.26c5.104 1.964 10.25 3.932 15.47 5.613a225.34 225.34 0 0 1 26.843 12.38l.115.063.125.042a4.69 4.69 0 0 1 3.184 4.014 1.08 1.08 0 0 1-.403.861c-.293.25-.785.478-1.48.603-6.05.562-11.937 2.232-17.668 3.857l-4.6 1.282c-7.27 1.954-14.415 3.37-21.954 2.202zm146.854-146.462l.02.028c2.484 3.426 3.444 7.302.872 10.398-.64.77-1.204 1.057-1.668 1.16-.487.106-1.046.046-1.725-.194-.7-.244-1.406-.637-2.18-1.1l-.48-.3c-.6-.364-1.25-.758-1.848-1.048-32.08-15.66-66.762-19.682-101.176-23.673l-.1-.01-.423-.05c-2.392-.275-4.393-.505-5.935-1.276-.765-.383-1.374-.884-1.83-1.578-.46-.7-.822-1.684-.955-3.112-.3-3.115-.038-5.63.9-7.542.913-1.84 2.562-3.305 5.506-4.17l.004-.002c3.706-1.1 7.443-1.8 10.218-2.318l2.094-.4c25.295 2.402 50.207 7.86 74.2 16.254 9.93 3.616 18.5 10.228 24.496 18.923zm-51.712 28.285h-.144l-.142.027c-7.904 1.532-15.202-.118-22.468-2.964-3.64-1.426-7.238-3.138-10.898-4.887l-.243-.116c-3.565-1.703-7.2-3.436-10.9-4.912-1.668-.664-2.6-1.327-3.1-1.9-.44-.506-.512-.92-.443-1.32.082-.484.4-1.13 1.12-1.916.7-.773 1.682-1.584 2.888-2.402l.006-.005a39.87 39.87 0 0 1 45.43.2c5.144 3.658 10.055 7.634 14.703 11.905l.022.02.024.02a42.23 42.23 0 0 0 .956.777l.074.06.86.692c.6.505 1.128.984 1.525 1.474s.624.934.717 1.375c.1.423.074.942-.196 1.62-.277.694-.627 1.114-.995 1.392-.38.287-.856.484-1.463.6-.617.13-1.313.176-2.105.198l-.7.015c-.558.01-1.158.02-1.717.056-2.3.017-4.577.004-7.038-.01l-5.775-.02zm-111.94-41.765l.056.07.064.064c.946.936 1.616 2.115 1.937 3.407.314 1.263.282 2.587-.093 3.832-.308.66-.65.967-.953 1.132-.337.184-.78.275-1.4.26-.62-.017-1.305-.14-2.1-.3l-.32-.066-2.096-.36-.767-.07c-17.2-1.575-33.95-3.108-47.733-14.272-.56-.456-1.183-.863-1.73-1.22l-.113-.074c-.603-.394-1.113-.735-1.538-1.1-.417-.36-.687-.7-.845-1.02-.148-.3-.234-.697-.163-1.245.13-1.023.677-1.635 1.6-2.143.785-.426 1.665-.7 2.65-.986l1.054-.324.06-.02a58.79 58.79 0 0 1 19.373-3.605c13.898.473 24.452 7.24 33.024 18.043zm-28.28 75.493l-.007-.006c-.816-.726-1.28-2-1.213-3.862.066-1.843.653-4.032 1.637-6.217.98-2.176 2.317-4.267 3.804-5.917 1.506-1.672 3.062-2.777 4.453-3.18l.012-.003c.847-.253 1.394-.35 1.78-.3.26.026.472.107.718.48a.8.8 0 0 1 .077.835c-.152.4-.504.852-1.023 1.335-2.924 2.477-4.873 4.728-5.904 6.902-1.068 2.253-1.125 4.38-.366 6.424.728 1.96 2.17 3.745 3.887 5.478 1.397 1.4 3.077 2.88 4.86 4.442l1.255 1.102c13.184 11.593 26.006 17.4 43.97 15.398l3.12-.335c3.363-.356 6.1-.647 8.34-1.033 2.9-.5 5.162-1.194 6.95-2.58 1.815-1.407 2.948-3.383 3.88-6.05.64-1.838 1.216-4.093 1.844-6.846 1.866 4.215 2.002 8.166.8 11.27-1.513 3.87-5.268 6.8-11.32 7.308l-.348.03c-12.205 1.018-24.692 2.06-36.2-.244-7.024-1.438-13.022-5.04-18.658-9.562-3.634-2.917-7.022-6.13-10.434-9.367l-5.9-5.5zM287 339.508c6.495 6.83 10.393 16.702 10.994 28.102-2.98-9.62-6.654-19.012-10.994-28.102z"/><path d="M283.5 386.887c-37.956-6.977-76.67-6.598-111.245-32.154m100.775-125.91v-.012c-.17-2 .55-3.365 1.658-4.303 1.165-.986 2.847-1.562 4.586-1.682l.036-.002.036-.004a105.33 105.33 0 0 1 25.894.172c16.636 3.203 33.137 7.575 49.422 12.404l.022.006c5.395 1.5 10.42 4.123 14.756 7.67a40.62 40.62 0 0 1 7.983 8.77c-24.696-11.34-51.016-14.5-77.06-17.646l-21.155-2.716c-.654-.097-1.366-.144-2.007-.185l-.5-.033c-.807-.058-1.48-.132-2.046-.3-.55-.155-.894-.362-1.12-.62-.218-.25-.45-.684-.513-1.53z"/><path d="M333.124 264.534c0 2.857-1.475 6.266-4.002 8.986-2.513 2.705-5.897 4.547-9.53 4.547s-7.02-1.842-9.532-4.547c-2.527-2.72-4.002-6.13-4.002-8.986 0-5.52 5.73-10.526 13.534-10.526s13.533 5.007 13.533 10.526zM206.846 231.46c0 5.52-5.73 10.527-13.534 10.527-7.58 0-12.03-4.816-12.03-10.527s4.448-10.526 12.03-10.526c7.804 0 13.534 5.008 13.534 10.526z"/></g><g fill="#09fbd3"><circle cx="193.312" cy="231.461" r="6.013"/><circle cx="319.591" cy="264.534" r="6.013"/></g></svg>